<svg xmlns="http://www.w3.org/2000/svg" width="154" height="115" viewBox="0 0 154 115" fill="none"><g id="Group 38555"><path id="Vector 1" d="M79.2938 18.1265L78.5656 17.4411L78.6294 17.3734L78.7046 17.3185L79.2938 18.1265ZM89.4396 63.1127L90.2782 63.6575L89.4396 63.1127ZM30.5916 73.1564L29.7152 72.6749L29.7568 72.5991L29.8109 72.5315L30.5916 73.1564ZM21.7605 114.534C21.4061 114.957 20.7754 115.013 20.3518 114.659L13.45 108.883C13.0265 108.528 12.9705 107.898 13.3249 107.474C13.6794 107.05 14.3101 106.994 14.7336 107.349L20.8686 112.483L26.003 106.348C26.3574 105.925 26.9881 105.869 27.4116 106.223C27.8352 106.578 27.8912 107.208 27.5367 107.632L21.7605 114.534ZM136.813 18.6204C124.532 9.43977 102.179 2.67319 79.8831 18.9344L78.7046 17.3185C101.902 0.40008 125.237 7.46983 138.01 17.0185L136.813 18.6204ZM80.022 18.8119C73.0803 26.1869 69.8791 33.2125 69.0135 39.4053C68.1479 45.5984 69.6071 51.0324 72.1105 55.252C74.6241 59.4889 78.1666 62.4628 81.407 63.7576C84.6838 65.0671 87.2942 64.5793 88.6011 62.5679L90.2782 63.6575C88.2075 66.8446 84.3332 67.0807 80.6648 65.6149C76.9599 64.1344 73.0965 60.8338 70.3904 56.2725C67.674 51.6938 66.0995 45.8058 67.0328 39.1285C67.9661 32.4509 71.3965 25.0577 78.5656 17.4411L80.022 18.8119ZM88.6011 62.5679C88.9435 62.0409 89.0626 61.1727 88.7265 59.9701C88.3953 58.7855 87.6515 57.4047 86.4899 56.0164C84.1712 53.2455 80.2875 50.5655 75.1505 49.452C64.9533 47.2415 49.4728 51.1665 31.3724 73.7813L29.8109 72.5315C48.1652 49.5997 64.3436 45.0629 75.5742 47.4974C81.151 48.7063 85.4235 51.6255 88.0237 54.7329C89.3215 56.2839 90.2279 57.9121 90.6526 59.4317C91.0724 60.9334 91.0532 62.4646 90.2782 63.6575L88.6011 62.5679ZM31.4681 73.6379C27.7828 80.3467 25.0219 85.7807 23.3713 91.8324C21.7252 97.8676 21.1701 104.572 21.9897 113.804L19.9976 113.98C19.1624 104.574 19.7189 97.6227 21.4418 91.3061C23.1602 85.0058 26.0257 79.3913 29.7152 72.6749L31.4681 73.6379Z" fill="black"></path></g></svg>