<svg xmlns="http://www.w3.org/2000/svg" width="574" height="447" viewBox="0 0 574 447" fill="none"><g opacity="0.2"><rect x="1" y="1.48462" width="81.6846" height="89" stroke="#DFB757" stroke-dasharray="3.22 3.22"></rect><rect x="1" y="90.4844" width="81.6846" height="89" stroke="#DFB757" stroke-dasharray="3.22 3.22"></rect><rect x="1" y="179.484" width="81.6846" height="89" stroke="#DFB757" stroke-dasharray="3.22 3.22"></rect><rect x="1" y="268.484" width="81.6846" height="89" stroke="#DFB757" stroke-dasharray="3.22 3.22"></rect><rect x="1" y="357.484" width="81.6846" height="89" stroke="#DFB757" stroke-dasharray="3.22 3.22"></rect><rect x="82.6893" y="1.48438" width="81.6846" height="89" stroke="#DFB757" stroke-dasharray="3.22 3.22"></rect><rect x="82.6893" y="90.4844" width="81.6846" height="89" stroke="#DFB757" stroke-dasharray="3.22 3.22"></rect><rect x="82.6893" y="179.484" width="81.6846" height="89" stroke="#DFB757" stroke-dasharray="3.22 3.22"></rect><rect x="82.6893" y="268.484" width="81.6846" height="89" stroke="#DFB757" stroke-dasharray="3.22 3.22"></rect><rect x="82.6893" y="357.484" width="81.6846" height="89" stroke="#DFB757" stroke-dasharray="3.22 3.22"></rect><rect x="164.369" y="1.48438" width="81.6846" height="89" stroke="#DFB757" stroke-dasharray="3.22 3.22"></rect><rect x="164.369" y="90.4844" width="81.6846" height="89" stroke="#DFB757" stroke-dasharray="3.22 3.22"></rect><rect x="164.369" y="179.484" width="81.6846" height="89" stroke="#DFB757" stroke-dasharray="3.22 3.22"></rect><rect x="164.369" y="268.484" width="81.6846" height="89" stroke="#DFB757" stroke-dasharray="3.22 3.22"></rect><rect x="164.369" y="357.484" width="81.6846" height="89" stroke="#DFB757" stroke-dasharray="3.22 3.22"></rect><rect x="246.059" y="1.48438" width="81.6846" height="89" stroke="#DFB757" stroke-dasharray="3.22 3.22"></rect><rect x="246.059" y="90.4844" width="81.6846" height="89" stroke="#DFB757" stroke-dasharray="3.22 3.22"></rect><rect x="246.059" y="179.484" width="81.6846" height="89" stroke="#DFB757" stroke-dasharray="3.22 3.22"></rect><rect x="246.059" y="268.484" width="81.6846" height="89" stroke="#DFB757" stroke-dasharray="3.22 3.22"></rect><rect x="246.059" y="357.484" width="81.6846" height="89" stroke="#DFB757" stroke-dasharray="3.22 3.22"></rect><rect x="327.74" y="1.48438" width="81.6846" height="89" stroke="#DFB757" stroke-dasharray="3.22 3.22"></rect><rect x="327.74" y="90.4844" width="81.6846" height="89" stroke="#DFB757" stroke-dasharray="3.22 3.22"></rect><rect x="327.74" y="179.484" width="81.6846" height="89" stroke="#DFB757" stroke-dasharray="3.22 3.22"></rect><rect x="327.74" y="268.484" width="81.6846" height="89" stroke="#DFB757" stroke-dasharray="3.22 3.22"></rect><rect x="327.74" y="357.484" width="81.6846" height="89" stroke="#DFB757" stroke-dasharray="3.22 3.22"></rect><rect x="409.422" y="1.48438" width="81.6846" height="89" stroke="#DFB757" stroke-dasharray="3.22 3.22"></rect><rect x="409.422" y="90.4844" width="81.6846" height="89" stroke="#DFB757" stroke-dasharray="3.22 3.22"></rect><rect x="409.422" y="179.484" width="81.6846" height="89" stroke="#DFB757" stroke-dasharray="3.22 3.22"></rect><rect x="409.422" y="268.484" width="81.6846" height="89" stroke="#DFB757" stroke-dasharray="3.22 3.22"></rect><rect x="409.422" y="357.484" width="81.6846" height="89" stroke="#DFB757" stroke-dasharray="3.22 3.22"></rect><rect x="491.103" y="1.48438" width="81.6846" height="89" stroke="#DFB757" stroke-dasharray="3.22 3.22"></rect><rect x="491.103" y="90.4844" width="81.6846" height="89" stroke="#DFB757" stroke-dasharray="3.22 3.22"></rect><rect x="491.103" y="179.484" width="81.6846" height="89" stroke="#DFB757" stroke-dasharray="3.22 3.22"></rect><rect x="491.103" y="268.484" width="81.6846" height="89" stroke="#DFB757" stroke-dasharray="3.22 3.22"></rect><rect x="491.103" y="357.484" width="81.6846" height="89" stroke="#DFB757" stroke-dasharray="3.22 3.22"></rect></g></svg>