<svg xmlns="http://www.w3.org/2000/svg" width="275" height="132" viewBox="0 0 275 132" fill="none"><rect width="275" height="132" fill="white"></rect><path d="M141.563 45.0106C143.082 45.0192 144.703 45.6365 145.777 46.7639C145.799 46.7879 145.822 46.812 145.845 46.8366C147.56 48.7132 147.916 51.8169 146.609 54.0285C145.835 55.3399 144.447 56.0941 143.002 56.3123C141.988 56.4647 140.958 56.4301 139.936 56.4878C139.335 56.5224 138.922 56.7325 138.93 57.3965C138.944 58.4205 138.93 59.4456 138.93 60.4696C138.93 62.5202 138.931 64.5703 138.937 66.6214C138.937 66.8882 138.883 67.0041 138.595 66.9997C137.575 66.9845 136.518 66.9845 135.484 66.9986C135.172 67.0026 135.063 66.9043 135.064 66.5703C135.068 62.4465 135.069 58.3227 135.07 54.1985C135.07 52.6363 135.071 51.0747 135.071 49.512C135.071 48.7107 135.071 47.9088 135.07 47.1069C135.069 46.7167 135.069 46.3261 135.068 45.9354C135.067 45.626 134.953 45.1942 135.314 45.0503C135.439 45.0006 135.576 44.9996 135.709 45.0001C137.657 45.0036 139.606 45.0026 141.554 45.0106H141.563ZM138.93 50.8706C138.93 51.6293 138.935 52.3886 138.927 53.1474C138.925 53.4232 139.01 53.5877 139.302 53.5611C140.239 53.4768 141.184 53.709 142.125 53.357C142.68 53.1494 143.071 52.8139 143.297 52.3239C143.578 51.7176 143.665 51.0707 143.538 50.3596C143.439 49.8024 143.322 49.3531 142.94 48.9072C142.515 48.4118 141.998 48.2493 141.445 48.1956C140.761 48.1289 140.066 48.1806 139.376 48.1851C138.968 48.1876 138.932 48.2282 138.93 48.664C138.929 49.3997 138.93 50.1349 138.93 50.8706ZM182 67.0166C181.764 67.0051 181.511 67.1615 181.304 67.2709C180.507 67.6926 179.707 68.1079 178.904 68.5166C175.455 70.2703 171.958 71.9844 168.329 73.3098C164.767 74.6112 161.097 75.5625 157.368 76.1929C154.396 76.6939 151.228 76.6819 148.237 76.3719C146.448 76.1869 144.673 75.8559 142.942 75.3534C141.185 74.8429 139.55 74.0826 137.871 73.359C137.274 73.1012 136.678 72.8434 136.077 72.5957C135.482 72.351 134.87 72.1399 134.256 71.9528C132.475 71.4107 130.625 71.1479 128.776 71.022C126.946 70.8982 125.127 70.8626 123.305 71.0837C121.719 71.2773 120.144 71.5682 118.59 71.9453C115.025 72.8103 111.569 74.1238 108.267 75.7531C105.779 76.9813 103.374 78.3869 101.048 79.916C99.5054 80.93 97.9968 81.9977 96.5165 83.1055C95.776 83.6596 95.0429 84.2238 94.3156 84.7965C93.9527 85.0829 93.5878 85.3677 93.2303 85.6616C93.1636 85.7162 92.9486 85.8441 93.0113 85.9585C93.0921 86.1054 93.4482 85.8196 93.547 85.7649C93.9945 85.5177 94.4426 85.2719 94.8921 85.0287C95.8081 84.5327 96.7295 84.0468 97.6568 83.5729C100.929 81.9014 104.282 80.3834 107.741 79.1673C110.585 78.1673 113.518 77.3554 116.482 76.8403C120.221 76.1904 124.052 76.1067 127.813 76.6001C128.878 76.7395 129.938 76.9256 130.978 77.1999C132.176 77.5158 133.341 77.9471 134.49 78.4165C137.705 79.7304 140.781 81.2058 144.24 81.6988C146.019 81.9526 147.809 81.9746 149.605 81.8798C153.388 81.6797 157.125 80.8498 160.706 79.5945C162.524 78.9571 164.305 78.2099 166.048 77.3804C168.399 76.2556 170.687 75.0049 172.914 73.6388C174.515 72.6564 176.078 71.6103 177.6 70.5035C178.361 69.9498 179.112 69.3811 179.852 68.7979C180.221 68.506 180.589 68.2107 180.953 67.9118C181.285 67.639 181.742 67.3601 182 67.0166ZM101.503 57.2145C101.503 54.1378 101.503 51.0621 101.503 47.986C101.503 47.5738 101.483 47.472 101.911 47.47C103.418 47.4614 104.925 47.3937 106.433 47.4143C108.22 47.4379 110.137 47.4614 111.79 48.2533C114.104 49.3616 114.822 52.8851 113.41 54.9964C113.074 55.5004 112.644 55.8674 112.145 56.1854C111.853 56.3714 111.558 56.728 111.966 56.9747C112.884 57.5309 113.572 58.0013 113.99 59.0549C114.364 59.9967 114.449 61.0449 114.379 62.0529C114.309 63.0523 114.085 64.0744 113.505 64.8783C112.475 66.3055 110.629 66.7383 109.002 66.8556C106.7 67.0226 104.4 67.0176 102.094 67.0176C101.587 67.0176 101.503 66.6881 101.504 66.2293C101.504 63.2238 101.504 60.2189 101.503 57.2145ZM105.548 61.0925C105.548 61.8522 105.55 62.6125 105.547 63.3723C105.545 63.9851 105.949 63.9405 106.44 63.955C107.515 63.9871 108.767 64.0042 109.584 63.1727C111.017 61.7138 110.462 58.8012 108.386 58.4145C107.769 58.2997 107.142 58.3533 106.519 58.3483C106.21 58.3458 105.53 58.1999 105.538 58.7059C105.55 59.5013 105.543 60.2971 105.548 61.0925ZM105.543 52.8851C105.542 53.6057 105.542 54.3259 105.543 55.0465C105.543 55.1443 105.549 55.2556 105.623 55.3168C105.68 55.3645 105.759 55.366 105.831 55.3655L106.917 55.3614C107.688 55.3579 108.525 55.3319 109.125 54.8324C109.705 54.3494 109.919 53.5255 109.913 52.7567C109.909 52.3339 109.848 51.9062 109.679 51.5215C109.509 51.1369 109.223 50.7974 108.851 50.6198C108.49 50.4483 108.078 50.4388 107.68 50.4323C107.093 50.4228 106.493 50.3751 105.907 50.4037C105.403 50.4288 105.55 50.9403 105.548 51.334C105.546 51.7467 105.545 52.1589 105.544 52.5716C105.544 52.676 105.543 52.7808 105.543 52.8851ZM179.645 60.1096C179.503 60.249 179.411 60.3503 179.31 60.44C178.824 60.8668 178.348 61.3071 177.845 61.7113C177.345 62.113 176.829 62.4967 176.297 62.8532C175.573 63.3397 174.826 63.7905 174.091 64.2609C173.648 64.5443 173.227 64.8707 172.765 65.1165C171.83 65.6139 170.874 66.0678 169.927 66.5422C168.672 67.1706 167.34 67.3616 165.973 67.1997C165.436 67.136 164.908 66.9143 164.398 66.7067C163.763 66.4479 163.311 65.9224 162.902 65.3868C162.682 65.0999 162.563 64.7243 162.427 64.3768C162.026 63.3497 162.098 62.266 162.107 61.1948C162.118 59.8307 162.122 58.4647 162.207 57.1041C162.237 56.6102 161.807 53.7587 166.513 53.5395C170.788 53.7587 170.679 56.0304 170.859 56.7867C171.16 58.0479 170.986 59.3117 171.065 60.5714C171.083 60.8643 170.945 60.8974 170.711 60.8959C169.006 60.8894 167.3 60.8934 165.595 60.8924C165.142 60.8919 164.954 61.0835 164.932 61.5539C164.901 62.2254 165.021 63.2454 165.36 63.8171C165.763 64.4956 166.122 64.7594 166.969 64.8321C167.498 64.8778 167.886 64.8416 168.664 64.6365C169.089 64.5864 172.272 63.4615 172.753 63.2805C173.178 63.12 173.588 62.9179 174.007 62.7384C174.461 62.5433 174.92 62.3618 175.37 62.1577C175.789 61.9666 176.199 61.7515 176.614 61.5514C176.972 61.3793 177.338 61.2239 177.691 61.0408C178.285 60.7324 178.87 60.407 179.46 60.092C179.484 60.079 179.523 60.0965 179.645 60.1096ZM166.696 59.1958C167.134 59.1958 167.572 59.1948 168.01 59.1964C168.212 59.1969 168.374 59.1206 168.342 58.8919C168.391 57.4888 168.334 56.6469 168.17 56.3664C168.05 56.0274 167.525 55.6368 166.903 55.6648C166.777 55.6704 166.649 55.6658 166.524 55.6543C166.117 55.6157 165.333 55.897 165.168 56.2671C164.84 57.0038 164.862 58.0544 164.906 58.8664C164.952 59.2044 165.148 59.1964 165.555 59.1969C165.935 59.1969 166.316 59.1969 166.696 59.1958ZM152.033 66.9996C152.033 63.5944 152.058 65.7729 152.058 53.7642C151.96 53.7642 151.53 53.7747 151.432 53.7722C150.741 53.7527 150.031 53.6855 149.343 53.7431C148.869 53.7827 148.736 54.0972 148.731 54.557C148.727 55.042 148.747 55.5289 148.752 56.0139C148.765 57.0013 148.771 57.9893 148.772 58.9777C148.772 59.7184 148.769 60.4596 148.764 61.2003C148.758 61.8267 148.818 62.4435 148.472 62.9926C148.052 63.6601 147.241 64.1401 146.468 64.1827C145.488 64.2373 145.247 63.2404 145.184 62.4345C145.114 61.5325 145.093 60.1776 145.123 58.3699C145.122 58.4528 145.144 58.1374 145.19 57.4236C145.264 57.4251 144.208 58.0113 142.908 58.1733L142.083 58.2295C142.045 58.2209 142.01 58.251 142.013 58.2902C142.033 58.5319 142.093 59.2661 142.093 59.4897C142.094 59.8979 142.094 60.3062 142.095 60.7144C142.095 61.5107 142.095 62.3066 142.098 63.1025C142.104 64.458 141.844 66.0121 143.367 66.8692C143.781 67.1024 144.251 67.2217 144.723 67.2207C146.084 67.2177 147 66.3612 147.858 65.4033C147.998 65.2463 148.44 64.462 148.693 64.7594C148.776 64.8582 148.78 65.0016 148.779 65.132C148.776 65.5959 148.773 66.0598 148.77 66.5236C148.769 66.6666 148.777 66.8291 148.884 66.9198C148.967 66.99 149.084 66.9936 149.191 66.9936C149.977 66.993 151.529 66.9996 152.033 66.9996ZM162.191 53.5395C161.422 53.4498 160.726 53.6995 160.591 53.7642C159.772 54.1584 159.456 54.4337 158.8 55.1965C158.702 55.3434 158.61 55.5039 158.482 55.6157C158.382 55.703 158.226 55.7666 158.1 55.7576C158.038 55.7531 157.946 55.5641 157.941 55.4542C157.915 54.9928 157.899 54.529 157.917 54.0676C157.925 53.8419 157.86 53.7642 157.654 53.7652C156.894 53.7682 156.133 53.7682 155.372 53.7647C155.173 53.7637 155.122 53.86 155.122 54.0521C155.126 58.2575 155.127 62.4626 155.121 66.6676C155.12 66.9469 155.236 67.0026 155.479 66.9986C156.285 66.9865 157.092 66.9795 157.898 67.0006C158.212 67.0086 158.285 66.8983 158.284 66.5908C158.274 64.0969 158.304 61.6015 158.264 59.1081C158.181 58.0991 158.476 57.7521 159.612 57.7029C159.841 57.6929 160.386 57.7536 160.342 57.5294C160.246 57.0409 160.342 54.8559 162.191 53.5395ZM116.819 60.3468H116.823C116.823 62.4129 116.829 64.4791 116.817 66.5452C116.816 66.8852 116.921 67.0066 117.255 66.9991C118.073 66.9805 118.891 66.9875 119.709 66.9981C119.939 67.0006 120.041 66.9379 120.04 66.6791C120.036 62.4751 120.037 58.2716 120.042 54.0681C120.042 53.8575 119.98 53.7632 119.769 53.7642C118.882 53.7692 117.995 53.7687 117.108 53.7642C116.894 53.7632 116.812 53.8314 116.813 54.0776C116.824 56.1668 116.819 58.2571 116.819 60.3468ZM116.658 49.7006C116.524 50.7417 117.478 51.4408 118.296 51.4483C119.546 51.4608 120.045 50.8189 120.119 49.7307C120.191 48.6695 119.28 47.8331 118.387 47.8375C117.511 47.8411 116.506 48.668 116.658 49.7006ZM131.949 56.1874C131.506 55.05 130.671 54.1895 129.491 53.7787C128.765 53.5265 127.989 53.4523 127.224 53.4793C126.467 53.5054 125.705 53.6318 125.012 53.9447C122.157 55.2326 122.471 58.8443 122.549 61.4982C122.588 62.8257 122.638 64.2333 123.351 65.3396C123.982 66.319 125.068 66.9218 126.19 67.1325C127.775 67.4308 129.78 67.2097 131.01 66.0482C131.163 65.9043 131.303 65.7478 131.431 65.5803C132.585 64.0633 132.444 62.0308 132.411 60.2184C132.39 59.0961 132.418 57.9592 132.16 56.8689C132.105 56.6327 132.034 56.405 131.949 56.1874ZM127.504 64.6897C125.523 64.6897 125.595 62.6441 125.595 60.2756C125.595 57.907 125.595 56.0274 127.504 56.1127C129.124 56.1844 129.341 58.0399 129.341 60.408C129.341 62.777 129.341 64.6897 127.504 64.6897ZM181.944 52.1183C181.944 53.9372 180.559 55.3645 178.757 55.3645C176.974 55.3645 175.551 53.9372 175.551 52.1183C175.551 50.3385 176.974 48.9113 178.757 48.9113C180.559 48.9113 181.944 50.3385 181.944 52.1183ZM176.348 52.1183C176.348 53.546 177.372 54.6804 178.776 54.6804C180.142 54.6804 181.147 53.546 181.147 52.1379C181.147 50.7101 180.142 49.5567 178.757 49.5567C177.372 49.5567 176.348 50.7101 176.348 52.1183ZM178.264 53.7998H177.543V50.5928C177.827 50.5341 178.226 50.495 178.738 50.495C179.326 50.495 179.591 50.5928 179.819 50.7302C179.99 50.8666 180.123 51.1208 180.123 51.4338C180.123 51.7858 179.857 52.0596 179.478 52.177V52.2161C179.781 52.3334 179.952 52.5676 180.047 52.9984C180.142 53.4874 180.199 53.6824 180.274 53.7998H179.497C179.402 53.6824 179.345 53.3896 179.25 53.018C179.193 52.6659 179.003 52.5089 178.605 52.5089H178.264V53.7998ZM178.282 51.9814H178.624C179.022 51.9814 179.345 51.8445 179.345 51.512C179.345 51.2186 179.136 51.023 178.681 51.023C178.491 51.023 178.358 51.0426 178.282 51.0621V51.9814Z" fill="black"></path></svg>