<svg xmlns="http://www.w3.org/2000/svg" width="516" height="404" viewBox="0 0 516 404" fill="none"><g opacity="0.2"><rect x="1" y="1.00024" width="73.4292" height="80.4" stroke="black" stroke-dasharray="3.22 3.22"></rect><rect x="1" y="81.4011" width="73.4292" height="80.4" stroke="black" stroke-dasharray="3.22 3.22"></rect><rect x="1" y="161.8" width="73.4292" height="80.4" stroke="black" stroke-dasharray="3.22 3.22"></rect><rect x="1" y="242.201" width="73.4292" height="80.4" stroke="black" stroke-dasharray="3.22 3.22"></rect><rect x="1" y="322.6" width="73.4292" height="80.4" stroke="black" stroke-dasharray="3.22 3.22"></rect><rect x="74.4326" y="1" width="73.4292" height="80.4" stroke="black" stroke-dasharray="3.22 3.22"></rect><rect x="74.4326" y="81.4011" width="73.4292" height="80.4" stroke="black" stroke-dasharray="3.22 3.22"></rect><rect x="74.4326" y="161.8" width="73.4292" height="80.4" stroke="black" stroke-dasharray="3.22 3.22"></rect><rect x="74.4326" y="242.201" width="73.4292" height="80.4" stroke="black" stroke-dasharray="3.22 3.22"></rect><rect x="74.4326" y="322.6" width="73.4292" height="80.4" stroke="black" stroke-dasharray="3.22 3.22"></rect><rect x="147.856" y="1" width="73.4292" height="80.4" stroke="black" stroke-dasharray="3.22 3.22"></rect><rect x="147.856" y="81.4011" width="73.4292" height="80.4" stroke="black" stroke-dasharray="3.22 3.22"></rect><rect x="147.856" y="161.8" width="73.4292" height="80.4" stroke="black" stroke-dasharray="3.22 3.22"></rect><rect x="147.856" y="242.201" width="73.4292" height="80.4" stroke="black" stroke-dasharray="3.22 3.22"></rect><rect x="147.856" y="322.6" width="73.4292" height="80.4" stroke="black" stroke-dasharray="3.22 3.22"></rect><rect x="221.291" y="1" width="73.4292" height="80.4" stroke="black" stroke-dasharray="3.22 3.22"></rect><rect x="221.291" y="81.4011" width="73.4292" height="80.4" stroke="black" stroke-dasharray="3.22 3.22"></rect><rect x="221.291" y="161.8" width="73.4292" height="80.4" stroke="black" stroke-dasharray="3.22 3.22"></rect><rect x="221.291" y="242.201" width="73.4292" height="80.4" stroke="black" stroke-dasharray="3.22 3.22"></rect><rect x="221.291" y="322.6" width="73.4292" height="80.4" stroke="black" stroke-dasharray="3.22 3.22"></rect><rect x="294.717" y="1" width="73.4292" height="80.4" stroke="black" stroke-dasharray="3.22 3.22"></rect><rect x="294.717" y="81.4011" width="73.4292" height="80.4" stroke="black" stroke-dasharray="3.22 3.22"></rect><rect x="294.717" y="161.8" width="73.4292" height="80.4" stroke="black" stroke-dasharray="3.22 3.22"></rect><rect x="294.717" y="242.201" width="73.4292" height="80.4" stroke="black" stroke-dasharray="3.22 3.22"></rect><rect x="294.717" y="322.6" width="73.4292" height="80.4" stroke="black" stroke-dasharray="3.22 3.22"></rect><rect x="368.146" y="1" width="73.4292" height="80.4" stroke="black" stroke-dasharray="3.22 3.22"></rect><rect x="368.146" y="81.4" width="73.4292" height="80.4" stroke="black" stroke-dasharray="3.22 3.22"></rect><rect x="368.146" y="161.801" width="73.4292" height="80.4" stroke="black" stroke-dasharray="3.22 3.22"></rect><rect x="368.146" y="242.201" width="73.4292" height="80.4" stroke="black" stroke-dasharray="3.22 3.22"></rect><rect x="368.146" y="322.599" width="73.4292" height="80.4" stroke="black" stroke-dasharray="3.22 3.22"></rect><rect x="441.571" y="1" width="73.4292" height="80.4" stroke="black" stroke-dasharray="3.22 3.22"></rect><rect x="441.571" y="81.4011" width="73.4292" height="80.4" stroke="black" stroke-dasharray="3.22 3.22"></rect><rect x="441.571" y="161.8" width="73.4292" height="80.4" stroke="black" stroke-dasharray="3.22 3.22"></rect><rect x="441.571" y="242.2" width="73.4292" height="80.4" stroke="black" stroke-dasharray="3.22 3.22"></rect><rect x="441.571" y="322.6" width="73.4292" height="80.4" stroke="black" stroke-dasharray="3.22 3.22"></rect></g></svg>