<svg xmlns="http://www.w3.org/2000/svg" fill="none" viewBox="0 0 29 29" height="29" width="29"><path fill="black" d="M24.9235 11.9462C25.4738 10.3143 25.2833 8.52806 24.4007 7.04435C23.0736 4.76979 20.4062 3.59977 17.8012 4.14955C16.3332 2.54173 14.1058 1.82676 11.9574 2.27378C9.80904 2.7208 8.06584 4.26195 7.384 6.31711C5.67284 6.66262 4.19595 7.71754 3.33126 9.21191C1.98967 11.4828 2.29418 14.3473 4.08425 16.2954C3.53182 17.9266 3.7206 19.713 4.60223 21.1973C5.93102 23.4726 8.60013 24.6425 11.2065 24.0921C12.3658 25.3774 14.0314 26.1088 15.7772 26.0992C18.4474 26.1015 20.8129 24.4043 21.6285 21.9009C23.3394 21.5548 24.8161 20.5 25.6813 19.0061C27.0067 16.7392 26.7009 13.8902 24.9235 11.9462ZM15.7772 24.5312C14.7115 24.5329 13.6791 24.1651 12.8612 23.4923L13.0051 23.412L17.8492 20.6589C18.0944 20.5173 18.2457 20.2588 18.2473 19.9789V13.2542L20.2952 14.4207C20.3157 14.431 20.33 14.4503 20.3336 14.4726V20.045C20.3283 22.5205 18.2915 24.526 15.7772 24.5312ZM5.98352 20.4133C5.44905 19.5046 5.25714 18.4395 5.44156 17.4052L5.58544 17.4902L10.4343 20.2433C10.6786 20.3845 10.9814 20.3845 11.2257 20.2433L17.1489 16.881V19.2091C17.1478 19.2336 17.1355 19.2562 17.1154 19.2705L12.2089 22.0567C10.0286 23.2934 7.24305 22.5581 5.98352 20.4133ZM4.70775 10.0242C5.24594 9.10959 6.09542 8.41202 7.10582 8.05493V13.7218C7.10211 14.0006 7.2528 14.2594 7.4991 14.3971L13.3936 17.7452L11.3456 18.9116C11.3231 18.9234 11.2962 18.9234 11.2737 18.9116L6.37681 16.1302C4.20081 14.8883 3.45454 12.1476 4.70775 10.0005V10.0242ZM21.5326 13.8729L15.619 10.4917L17.6621 9.32997C17.6846 9.31822 17.7116 9.31822 17.7341 9.32997L22.6309 12.1162C24.1593 12.9845 25.041 14.6437 24.8942 16.3751C24.7474 18.1065 23.5985 19.5987 21.9451 20.2056V14.5387C21.9365 14.2607 21.7798 14.0077 21.5326 13.8729ZM23.571 10.8553L23.4271 10.7703L18.5878 7.99354C18.342 7.85153 18.0374 7.85153 17.7916 7.99354L11.8732 11.3559V9.02774C11.8706 9.00363 11.8817 8.98007 11.902 8.96635L16.7988 6.18488C18.3309 5.31584 20.2351 5.39694 21.6852 6.39299C23.1354 7.38904 23.8702 9.12058 23.571 10.8364V10.8553ZM10.7557 14.9826L8.70773 13.8209C8.68703 13.8086 8.67298 13.7878 8.66936 13.7643V8.20605C8.6717 6.46546 9.69532 4.88294 11.2963 4.14482C12.8973 3.4067 14.7872 3.64592 16.1466 4.75873L16.0027 4.83901L11.1586 7.59214C10.9133 7.73378 10.762 7.99221 10.7605 8.27216L10.7557 14.9826ZM11.8684 12.6215L14.5063 11.1245L17.1489 12.6215V15.6154L14.5159 17.1124L11.8732 15.6154L11.8684 12.6215Z"></path></svg>