<svg xmlns="http://www.w3.org/2000/svg" fill="none" viewBox="0 0 28 29" height="29" width="28"><path fill="black" d="M23.8802 7.38548C24.7405 6.52521 24.7405 5.12552 23.8802 4.2653C23.0201 3.40508 21.6203 3.40503 20.76 4.2653C19.8978 5.12758 19.8976 6.52315 20.76 7.38553C21.6202 8.2457 23.02 8.24574 23.8802 7.38548Z"></path><path fill="black" d="M6.19904 6.34556C9.61717 2.92743 14.8023 2.18684 18.9745 4.29687C19.1822 3.8429 19.4801 3.43635 19.8551 3.09682C15.09 0.567843 9.09201 1.37241 5.15898 5.3055C1.2259 9.23858 0.421374 15.2365 2.95036 20.0017C3.27964 19.6375 3.68398 19.3344 4.1504 19.121C2.04032 14.9488 2.78096 9.76363 6.19904 6.34556Z"></path><path fill="black" d="M25.0496 8.29053C24.7182 8.65702 24.3133 8.9588 23.8494 9.17075C25.9596 13.3431 25.2191 18.5284 21.8009 21.9466C18.3826 25.3648 13.1974 26.1053 9.0251 23.9951C8.81785 24.4486 8.52044 24.8554 8.14453 25.1956C12.9081 27.7238 18.9059 26.9218 22.841 22.9867C26.774 19.0536 27.5786 13.0557 25.0496 8.29053Z"></path><path fill="black" d="M4.11786 20.9065C3.25759 21.7668 3.25759 23.1665 4.11786 24.0267C4.97788 24.8867 6.37762 24.887 7.23803 24.0268L7.23808 24.0267C8.09835 23.1665 8.09835 21.7668 7.23808 20.9065C6.37585 20.0443 4.98028 20.0441 4.11786 20.9065Z"></path><path fill="black" d="M22.0898 15.8234V12.4686L20.2671 12.0129C20.1751 11.7428 20.0658 11.4788 19.9397 11.2229L20.9064 9.61171L18.5343 7.23952L16.923 8.20628C16.6671 8.08018 16.4032 7.9708 16.1331 7.87891L15.6774 6.05615H12.3226L11.8669 7.87891C11.5968 7.9708 11.3328 8.08018 11.0769 8.20628L9.46571 7.23952L7.09353 9.61171L8.06029 11.2229C7.93414 11.4789 7.8248 11.7428 7.73292 12.0129L5.91016 12.4686V15.8234L7.73292 16.2791C7.8248 16.5492 7.93418 16.8131 8.06029 17.069L7.09358 18.6803L9.46571 21.0524L11.0769 20.0857C11.3328 20.2117 11.5968 20.3211 11.8669 20.4131L12.3226 22.2358H15.6774L16.1331 20.4131C16.4032 20.3211 16.6672 20.2118 16.9231 20.0857L18.5343 21.0524L20.9064 18.6803L19.9397 17.0691C20.0658 16.8131 20.1751 16.5492 20.2671 16.2791L22.0898 15.8234ZM13.9999 17.0901C12.3766 17.0901 11.0558 15.7694 11.0558 14.146C11.0558 12.5226 12.3766 11.2019 13.9999 11.2019C15.6234 11.2019 16.9441 12.5226 16.9441 14.146C16.9441 15.7694 15.6234 17.0901 13.9999 17.0901Z"></path></svg>