<svg xmlns="http://www.w3.org/2000/svg" width="275" height="132" viewBox="0 0 275 132" fill="none"><rect width="275" height="132" fill="white"></rect><path d="M176.612 86.6002C176.357 86.8627 176.045 87 175.68 87C175.315 87 175.005 86.8627 174.747 86.6002C174.492 86.3325 174.365 86.0099 174.365 85.6272C174.365 85.2532 174.49 84.9323 174.75 84.668C175.009 84.402 175.316 84.2733 175.679 84.2733C176.043 84.2733 176.355 84.402 176.61 84.668C176.866 84.9306 177 85.2549 177 85.6272C177.002 86.0099 176.869 86.3325 176.612 86.6002ZM174.883 84.7984C174.661 85.0318 174.551 85.3063 174.551 85.6307C174.551 85.9584 174.661 86.2415 174.879 86.4698C175.1 86.698 175.369 86.8147 175.682 86.8147C175.997 86.8147 176.266 86.6997 176.484 86.4698C176.705 86.2415 176.814 85.9584 176.814 85.6307C176.814 85.3063 176.705 85.0318 176.484 84.7984C176.266 84.5702 175.997 84.4552 175.682 84.4552C175.369 84.4552 175.1 84.5702 174.883 84.7984ZM175.655 84.8756C175.834 84.8756 175.964 84.8945 176.05 84.9306C176.203 84.994 176.279 85.121 176.279 85.3098C176.279 85.4436 176.227 85.5449 176.133 85.6049C176.085 85.6392 176.014 85.6667 175.924 85.6787C176.037 85.6976 176.118 85.7474 176.171 85.8246C176.224 85.9052 176.249 85.9807 176.249 86.0562V86.1678C176.249 86.2021 176.249 86.2398 176.252 86.2793C176.256 86.3205 176.259 86.3428 176.269 86.3565L176.279 86.3737H176.035C176.033 86.3702 176.028 86.3651 176.028 86.3617C176.027 86.3565 176.027 86.3479 176.025 86.3428L176.023 86.2965V86.1746C176.023 86.0047 175.977 85.8898 175.886 85.8349C175.829 85.8023 175.737 85.7868 175.601 85.7868H175.403V86.3754H175.145V84.8756H175.655ZM175.929 85.1124C175.864 85.0764 175.761 85.0592 175.621 85.0592H175.407V85.6015H175.634C175.74 85.6015 175.821 85.5912 175.874 85.5706C175.975 85.5277 176.025 85.4505 176.025 85.3355C176.025 85.2223 175.994 85.1485 175.929 85.1124Z" fill="black"></path><path d="M175.814 45.0072L175.826 51.9465L173.773 52.7976L173.777 48.9831L172.366 49.5854L172.374 82.0702L173.551 82.5678V85.5107L168.118 83.3246L168.12 80.4847L169.431 80.9428L169.428 50.7059L168.017 51.2001V54.9168L166.042 55.6135L166.044 49.0174L175.814 45.0072Z" fill="black"></path><path d="M165.051 50.1495C165.051 52.291 165.051 55.9237 165.051 55.9237L162.809 56.6907V52.7457L161.148 53.1713C161.148 53.1713 161.148 57.5762 161.148 58.5989C161.148 58.7619 161.143 58.9867 161.231 59.2407C161.954 61.3393 165.377 66.1577 165.928 67.7089C165.968 67.829 166.001 68.1671 166.001 68.2769C166.001 70.427 166.006 80.0072 166.006 81.3457C166.006 81.9806 165.348 82.3821 164.837 82.2706C163.837 82.0544 160.956 81.2805 159.805 80.9304C159.551 80.8515 159.076 80.3761 159.076 79.7412C159.071 78.0802 159.072 73.6479 159.072 73.6479L161.501 74.2004L161.499 78.571L163.096 78.9776C163.096 78.9776 163.096 70.8817 163.096 69.0954C163.096 68.977 163.058 68.6853 163.028 68.6029C162.468 67.1101 159.144 62.1698 158.373 60.3131C158.227 59.9596 158.203 59.6542 158.203 59.3848C158.203 57.7838 158.202 53.8525 158.202 52.2413C158.202 51.6733 158.706 51.0452 159.193 50.8668C160.16 50.5081 162.839 49.6828 164.142 49.3842C164.593 49.2795 165.051 49.6416 165.051 50.1495Z" fill="black"></path><path d="M113.556 50.3627V53.1374L112.632 52.9058C112.632 52.9058 114.026 67.8844 114.094 67.8518C114.088 67.8621 115.199 53.5184 115.199 53.5184L114.376 53.3296V50.5635L118.858 51.5262L118.856 54.2597L117.967 54.0932L115.368 80.8433L112.735 81.492L109.638 52.0907L108.822 51.8505V49.0277L113.556 50.3627Z" fill="black"></path><path d="M127.318 52.7216L127.321 58.5816L125.307 58.3688V55.2097L123.79 55.0261V63.0723L126.421 63.0671L126.424 66.0478H123.788L123.79 76.6232L125.405 76.431L125.41 71.6452L127.744 71.405V78.8814L119.413 80.0157V77.2873L120.754 77.0659V54.5851L119.748 54.417V51.6886L127.318 52.7216Z" fill="black"></path><path d="M143.916 53.0052L143.914 55.6941L142.696 55.7576L142.699 75.891L144.43 75.9905L144.432 70.822L146.802 70.9559V78.863L138.77 78.4529V75.7726L139.759 75.788L139.766 55.8588L138.531 55.8777V53.2008L143.916 53.0052Z" fill="black"></path><path d="M137.911 75.7651C137.122 75.7583 137.113 75.1079 137.113 75.1079C137.113 73.6494 137.112 68.8961 137.112 67.4307C137.097 65.6719 136.089 65.2755 136.089 65.2755C136.523 64.9426 137.087 64.4072 137.09 63.5475C137.09 62.5797 137.089 58.3224 137.089 56.0076C137.026 55.1324 136.863 53.4233 134.288 53.1831C133.441 53.0836 128.285 52.8073 128.285 52.8073V55.4996L129.629 55.606L129.621 76.038L128.63 76.1118L128.635 78.8024L133.481 78.5107L133.478 75.8321L132.428 75.8715V66.7066C132.428 66.7031 134.479 66.7066 134.479 66.7066L134.481 75.3653C134.55 77.397 134.661 78.5518 137.911 78.4369C137.911 78.4369 137.913 75.7703 137.911 75.7651ZM132.46 63.3759V55.7708L134.308 55.8411L134.31 63.3759H132.46Z" fill="black"></path><path d="M158.159 77.8147L157.228 77.6277L154.021 51.8711L151.577 52.2418L148.701 76.3527L147.721 76.2583L147.723 78.949L152.406 79.5307V76.8109L151.634 76.7028L151.914 73.1216L153.769 73.3841L154.048 77.058L153.202 76.9241V79.6491L158.156 80.562L158.159 77.8147ZM152.169 70.0517L152.851 62.4037C152.846 62.4037 153.598 70.2491 153.598 70.2491L152.169 70.0517Z" fill="black"></path><path d="M107.961 48.7494V55.1345L105.746 54.5425V50.8326L104.01 50.1976V62.3484L107.18 62.3501V65.7374L103.971 65.7408L103.974 81.4624L105.761 80.8052L105.763 74.7753L108.311 73.8813V82.7854L99.005 86.6446V83.6228L100.67 82.8266L100.665 48.8163L99.0017 48.0304L99 45L107.961 48.7494Z" fill="black"></path></svg>