<svg xmlns="http://www.w3.org/2000/svg" fill="none" viewBox="0 0 32 32" height="32" width="32"><path fill="black" d="M26.3766 12.9288L17.6103 16.4287L23.7941 24.38C23.8769 24.4835 23.9383 24.6023 23.9748 24.7297C24.0112 24.8571 24.022 24.9905 24.0065 25.1221C23.9909 25.2537 23.9494 25.3809 23.8843 25.4963C23.8192 25.6117 23.7318 25.713 23.6272 25.7943C23.5226 25.8756 23.4028 25.9354 23.2749 25.97C23.1471 26.0047 23.0135 26.0136 22.8822 25.9962C22.7508 25.9788 22.6242 25.9355 22.5098 25.8688C22.3953 25.8021 22.2952 25.7132 22.2153 25.6075L16.0016 17.625L9.7916 25.6138C9.6274 25.8189 9.38904 25.9512 9.12807 25.982C8.86711 26.0128 8.6045 25.9396 8.39705 25.7783C8.1896 25.617 8.05397 25.3806 8.0195 25.1201C7.98503 24.8596 8.05449 24.596 8.21285 24.3862L14.3966 16.435L5.6266 12.9288C5.38028 12.8293 5.18356 12.6361 5.07971 12.3916C4.97586 12.1471 4.97339 11.8713 5.07285 11.625C5.17231 11.3787 5.36554 11.182 5.61004 11.0781C5.85454 10.9743 6.13028 10.9718 6.3766 11.0712L15.0016 14.5225V5C15.0016 4.73478 15.107 4.48043 15.2945 4.29289C15.482 4.10536 15.7364 4 16.0016 4C16.2668 4 16.5212 4.10536 16.7087 4.29289C16.8962 4.48043 17.0016 4.73478 17.0016 5V14.5225L25.6266 11.0712C25.7486 11.022 25.879 10.9973 26.0106 10.9984C26.1421 10.9996 26.2721 11.0267 26.3932 11.0781C26.5142 11.1295 26.624 11.2043 26.7161 11.2981C26.8083 11.392 26.8811 11.503 26.9303 11.625C26.9796 11.747 27.0043 11.8774 27.0032 12.009C27.002 12.1405 26.9749 12.2705 26.9235 12.3916C26.8721 12.5126 26.7973 12.6224 26.7035 12.7145C26.6096 12.8067 26.4986 12.8795 26.3766 12.9288Z"></path></svg>