<svg xmlns="http://www.w3.org/2000/svg" width="275" height="132" viewBox="0 0 275 132" fill="none"><rect width="275" height="132" fill="white"></rect><path d="M70.7346 55.0166C70.7346 55.0096 70.7318 55.0029 70.7269 54.998C70.7219 54.993 70.7152 54.9902 70.7082 54.9902H38.4092C38.4022 54.9902 38.3955 54.993 38.3905 54.998C38.3856 55.0029 38.3828 55.0096 38.3828 55.0166V76.9639C38.3828 76.9709 38.3856 76.9776 38.3905 76.9825C38.3955 76.9875 38.4022 76.9902 38.4092 76.9902H70.7082C70.7152 76.9902 70.7219 76.9875 70.7269 76.9825C70.7318 76.9776 70.7346 76.9709 70.7346 76.9639V55.0166Z" stroke="#808080" stroke-width="0.181833"></path><path d="M48.7189 56.3844C48.7189 56.3762 48.7156 56.3684 48.7098 56.3626C48.704 56.3568 48.6962 56.3535 48.688 56.3535H39.7145C39.7063 56.3535 39.6984 56.3568 39.6926 56.3626C39.6868 56.3684 39.6836 56.3762 39.6836 56.3844V75.706C39.6836 75.7142 39.6868 75.7221 39.6926 75.7279C39.6984 75.7337 39.7063 75.7369 39.7145 75.7369H48.688C48.6962 75.7369 48.704 75.7337 48.7098 75.7279C48.7156 75.7221 48.7189 75.7142 48.7189 75.706V56.3844Z" stroke="#808080" stroke-width="0.181833"></path><path d="M59.0725 56.3826C59.0725 56.3749 59.0695 56.3675 59.064 56.362C59.0586 56.3566 59.0512 56.3535 59.0434 56.3535H50.0682C50.0604 56.3535 50.053 56.3566 50.0476 56.362C50.0421 56.3675 50.0391 56.3749 50.0391 56.3826V75.7078C50.0391 75.7156 50.0421 75.723 50.0476 75.7284C50.053 75.7339 50.0604 75.7369 50.0682 75.7369H59.0434C59.0512 75.7369 59.0586 75.7339 59.064 75.7284C59.0695 75.723 59.0725 75.7156 59.0725 75.7078V56.3826Z" stroke="#808080" stroke-width="0.181833"></path><path d="M69.4163 61.5616C69.4163 61.5582 69.4156 61.5549 69.4143 61.5518C69.4131 61.5488 69.4112 61.546 69.4088 61.5436C69.4065 61.5412 69.4037 61.5394 69.4006 61.5381C69.3975 61.5368 69.3942 61.5361 69.3908 61.5361H60.4083C60.4049 61.5361 60.4016 61.5368 60.3985 61.5381C60.3954 61.5394 60.3926 61.5412 60.3903 61.5436C60.3879 61.546 60.386 61.5488 60.3848 61.5518C60.3835 61.5549 60.3828 61.5582 60.3828 61.5616V70.5514C60.3828 70.5582 60.3855 70.5647 60.3903 70.5694C60.395 70.5742 60.4015 70.5769 60.4083 70.5769H69.3908C69.3976 70.5769 69.4041 70.5742 69.4088 70.5694C69.4136 70.5647 69.4163 70.5582 69.4163 70.5514V61.5616Z" stroke="#808080" stroke-width="0.181833"></path><path d="M69.4163 61.5743C69.4163 61.5642 69.4123 61.5545 69.4051 61.5473C69.3979 61.5402 69.3882 61.5361 69.3781 61.5361H60.421C60.416 61.5361 60.411 61.5371 60.4064 61.539C60.4018 61.541 60.3975 61.5438 60.394 61.5473C60.3905 61.5509 60.3876 61.5551 60.3857 61.5597C60.3838 61.5643 60.3828 61.5693 60.3828 61.5743V70.5332C60.3828 70.5383 60.3838 70.5432 60.3857 70.5479C60.3876 70.5525 60.3905 70.5567 60.394 70.5602C60.3975 70.5638 60.4018 70.5666 60.4064 70.5685C60.411 70.5704 60.416 70.5714 60.421 70.5714H69.3781C69.3882 70.5714 69.3979 70.5674 69.4051 70.5602C69.4123 70.5531 69.4163 70.5434 69.4163 70.5332V61.5743Z" stroke="#808080" stroke-width="0.181833"></path><path d="M70.7346 76.9639C70.7346 76.9709 70.7318 76.9776 70.7269 76.9825C70.7219 76.9875 70.7152 76.9902 70.7082 76.9902H38.4092C38.4022 76.9902 38.3955 76.9875 38.3905 76.9825C38.3856 76.9776 38.3828 76.9709 38.3828 76.9639V55.0166C38.3828 55.0096 38.3856 55.0029 38.3905 54.998C38.3955 54.993 38.4022 54.9902 38.4092 54.9902H70.7082C70.7152 54.9902 70.7219 54.993 70.7269 54.998C70.7318 55.0029 70.7346 55.0096 70.7346 55.0166V76.9639ZM48.72 56.3231C48.72 56.3149 48.7168 56.307 48.711 56.3012C48.7052 56.2954 48.6973 56.2922 48.6891 56.2922H39.7156C39.7074 56.2922 39.6996 56.2954 39.6938 56.3012C39.688 56.307 39.6847 56.3149 39.6847 56.3231V75.6447C39.6847 75.6529 39.688 75.6607 39.6938 75.6665C39.6996 75.6723 39.7074 75.6756 39.7156 75.6756H48.6891C48.6973 75.6756 48.7052 75.6723 48.711 75.6665C48.7168 75.6607 48.72 75.6529 48.72 75.6447V56.3231ZM59.0718 56.3213C59.0718 56.3135 59.0687 56.3061 59.0633 56.3007C59.0578 56.2952 59.0504 56.2922 59.0427 56.2922H50.0674C50.0597 56.2922 50.0523 56.2952 50.0468 56.3007C50.0414 56.3061 50.0383 56.3135 50.0383 56.3213V75.6465C50.0383 75.6542 50.0414 75.6616 50.0468 75.6671C50.0523 75.6725 50.0597 75.6756 50.0674 75.6756H59.0427C59.0504 75.6756 59.0578 75.6725 59.0633 75.6671C59.0687 75.6616 59.0718 75.6542 59.0718 75.6465V56.3213ZM69.4154 56.3185C69.4154 56.3152 69.4147 56.3119 69.4134 56.3088C69.4122 56.3057 69.4103 56.3029 69.4079 56.3005C69.4056 56.2982 69.4028 56.2963 69.3997 56.295C69.3966 56.2937 69.3933 56.2931 69.3899 56.2931H60.4074C60.404 56.2931 60.4007 56.2937 60.3976 56.295C60.3945 56.2963 60.3917 56.2982 60.3894 56.3005C60.387 56.3029 60.3851 56.3057 60.3838 56.3088C60.3826 56.3119 60.3819 56.3152 60.3819 56.3185V65.3084C60.3819 65.3151 60.3846 65.3216 60.3894 65.3264C60.3941 65.3311 60.4006 65.3338 60.4074 65.3338H69.3899C69.3967 65.3338 69.4031 65.3311 69.4079 65.3264C69.4127 65.3216 69.4154 65.3151 69.4154 65.3084V56.3185ZM69.4154 66.6794C69.4154 66.6693 69.4114 66.6595 69.4042 66.6524C69.397 66.6452 69.3873 66.6412 69.3772 66.6412H60.4201C60.4151 66.6412 60.4101 66.6422 60.4055 66.6441C60.4008 66.646 60.3966 66.6488 60.3931 66.6524C60.3895 66.6559 60.3867 66.6601 60.3848 66.6648C60.3829 66.6694 60.3819 66.6744 60.3819 66.6794V75.6383C60.3819 75.6433 60.3829 75.6483 60.3848 75.6529C60.3867 75.6576 60.3895 75.6618 60.3931 75.6653C60.3966 75.6689 60.4008 75.6717 60.4055 75.6736C60.4101 75.6755 60.4151 75.6765 60.4201 75.6765H69.3772C69.3873 75.6765 69.397 75.6725 69.4042 75.6653C69.4114 75.6581 69.4154 75.6484 69.4154 75.6383V66.6794Z" fill="black"></path><path d="M48.688 56.3535H39.7145C39.6974 56.3535 39.6836 56.3674 39.6836 56.3844V75.706C39.6836 75.7231 39.6974 75.7369 39.7145 75.7369H48.688C48.705 75.7369 48.7189 75.7231 48.7189 75.706V56.3844C48.7189 56.3674 48.705 56.3535 48.688 56.3535Z" fill="white"></path><path d="M59.0434 56.3535H50.0682C50.0521 56.3535 50.0391 56.3665 50.0391 56.3826V75.7078C50.0391 75.7239 50.0521 75.7369 50.0682 75.7369H59.0434C59.0595 75.7369 59.0725 75.7239 59.0725 75.7078V56.3826C59.0725 56.3665 59.0595 56.3535 59.0434 56.3535Z" fill="white"></path><path d="M69.3908 61.5361H60.4083C60.3942 61.5361 60.3828 61.5475 60.3828 61.5616V70.5514C60.3828 70.5655 60.3942 70.5769 60.4083 70.5769H69.3908C69.4049 70.5769 69.4163 70.5655 69.4163 70.5514V61.5616C69.4163 61.5475 69.4049 61.5361 69.3908 61.5361Z" fill="white"></path><path d="M69.3781 61.5361H60.421C60.3999 61.5361 60.3828 61.5532 60.3828 61.5743V70.5332C60.3828 70.5543 60.3999 70.5714 60.421 70.5714H69.3781C69.3992 70.5714 69.4163 70.5543 69.4163 70.5332V61.5743C69.4163 61.5532 69.3992 61.5361 69.3781 61.5361Z" fill="white"></path><path d="M98.8427 61.9834C98.0599 61.0988 96.7852 60.8024 95.6379 60.9906C93.965 61.2661 92.6858 62.4889 92.1885 64.1427C91.7012 65.7637 91.7657 67.9185 92.7276 69.3904C93.5489 70.6475 94.7366 71.3069 96.2906 71.3687C98.3463 71.4515 99.8291 70.3268 100.396 68.3639C100.399 68.3502 100.398 68.3356 100.391 68.323C100.385 68.3104 100.374 68.3006 100.361 68.2958L99.6037 68.0057C99.5961 68.0028 99.588 68.0015 99.5799 68.0017C99.5718 68.002 99.5638 68.0039 99.5565 68.0073C99.5491 68.0107 99.5425 68.0155 99.537 68.0215C99.5315 68.0275 99.5273 68.0345 99.5246 68.0421C99.2218 68.8722 98.6881 69.6631 97.8417 69.9623C97.1841 70.195 96.5082 70.2168 95.8142 70.0277C93.6095 69.4268 93.2722 66.7056 93.6432 64.8564C93.9914 63.1181 95.2197 61.9589 97.0789 62.2298C98.0117 62.3662 98.7436 63.1144 99.1745 63.9672C99.3364 64.2866 99.4961 64.6318 99.6537 65.0028C99.6595 65.0163 99.67 65.0274 99.6832 65.0339C99.6964 65.0404 99.7114 65.0419 99.7255 65.0382L100.449 64.8527C100.458 64.8502 100.466 64.8444 100.471 64.8366C100.476 64.8287 100.478 64.8192 100.476 64.81L99.8091 61.0288C99.8018 60.9882 99.7776 60.9679 99.7364 60.9679H99.0572C99.0221 60.9679 99.0024 60.9852 98.9981 61.0197L98.889 61.9689C98.8886 61.974 98.8866 61.9789 98.8833 61.983C98.88 61.987 98.8756 61.99 98.8707 61.9915C98.8657 61.9931 98.8604 61.9931 98.8555 61.9917C98.8505 61.9903 98.846 61.9874 98.8427 61.9834Z" stroke="#808080" stroke-width="0.181833"></path><path d="M106.725 62.2876L106.724 70.0001C106.724 70.0358 106.706 70.0555 106.67 70.0592L104.9 70.2355C104.89 70.2368 104.885 70.2425 104.885 70.2528L104.884 71.0374C104.884 71.052 104.891 71.0592 104.906 71.0592H110.247C110.261 71.0592 110.269 71.052 110.269 71.0374L110.266 70.2619C110.266 70.2474 110.259 70.2395 110.244 70.2383L108.373 70.0428C108.364 70.0419 108.356 70.0376 108.35 70.0307C108.344 70.0238 108.34 70.0148 108.34 70.0055L108.339 66.9234C108.339 66.9177 108.341 66.912 108.343 66.9067C108.345 66.9015 108.348 66.8966 108.352 66.8926C108.356 66.8885 108.361 66.8853 108.366 66.8831C108.372 66.8809 108.377 66.8798 108.383 66.8798L110.433 66.8789C110.467 66.8789 110.491 66.8938 110.506 66.9234L112.535 71.0256C112.54 71.0357 112.548 71.0442 112.558 71.0502C112.568 71.0561 112.579 71.0593 112.59 71.0592H115.539C115.554 71.0592 115.561 71.052 115.561 71.0374V70.2628C115.561 70.2464 115.552 70.2371 115.536 70.2346L113.635 69.9701C113.618 69.9676 113.605 69.9586 113.597 69.9428L112.076 66.8816C112.072 66.8731 112.07 66.8636 112.07 66.8541C112.07 66.8445 112.072 66.8351 112.077 66.8267C112.081 66.8183 112.088 66.8112 112.096 66.8058C112.104 66.8005 112.113 66.7972 112.123 66.7962C112.294 66.7762 112.46 66.7334 112.619 66.668C113.634 66.2507 114.276 65.397 114.365 64.3105C114.475 62.9431 113.872 61.7339 112.492 61.3439C112.205 61.2633 111.858 61.2227 111.452 61.2221C109.273 61.2202 107.089 61.2202 104.9 61.2221C104.889 61.2221 104.883 61.2278 104.883 61.2393L104.886 62.0258C104.886 62.0385 104.892 62.0455 104.904 62.0467L106.678 62.2358C106.709 62.2394 106.725 62.2567 106.725 62.2876Z" stroke="#808080" stroke-width="0.181833"></path><path d="M123.008 65.5211C122.998 65.5211 122.989 65.5171 122.982 65.5101C122.975 65.5031 122.971 65.4937 122.971 65.4838L122.966 62.3072C122.966 62.3023 122.967 62.2974 122.969 62.2929C122.971 62.2884 122.974 62.2843 122.977 62.2808C122.98 62.2773 122.985 62.2746 122.989 62.2727C122.994 62.2708 122.998 62.2699 123.003 62.2699L126.795 62.2717C126.801 62.2718 126.808 62.2736 126.814 62.2772C126.82 62.2807 126.824 62.2857 126.827 62.2917L128.07 64.5973C128.074 64.6048 128.081 64.6106 128.089 64.6137C128.097 64.6169 128.106 64.6172 128.114 64.6146L128.838 64.3991C128.843 64.3978 128.848 64.3955 128.851 64.3924C128.855 64.3894 128.858 64.3856 128.861 64.3813C128.863 64.377 128.865 64.3722 128.865 64.3673C128.866 64.3624 128.865 64.3575 128.864 64.3528L127.97 61.248C127.968 61.2401 127.963 61.2331 127.957 61.2282C127.95 61.2232 127.942 61.2206 127.934 61.2207L119.529 61.2216C119.52 61.2216 119.51 61.2255 119.503 61.2325C119.496 61.2395 119.492 61.249 119.492 61.2589L119.497 62.0108C119.497 62.0199 119.5 62.0288 119.506 62.0356C119.512 62.0425 119.52 62.0469 119.529 62.048L121.301 62.2353C121.311 62.2362 121.319 62.2406 121.325 62.2475C121.332 62.2544 121.335 62.2633 121.335 62.2726V70.0069C121.335 70.0162 121.332 70.0251 121.325 70.032C121.319 70.0389 121.311 70.0433 121.301 70.0442L119.527 70.2333C119.517 70.2342 119.509 70.2385 119.503 70.2454C119.496 70.2523 119.493 70.2613 119.493 70.2705L119.495 71.0215C119.495 71.0314 119.499 71.0409 119.506 71.0479C119.513 71.0549 119.522 71.0588 119.532 71.0588H128.371C128.38 71.0587 128.388 71.0556 128.395 71.0499C128.402 71.0443 128.406 71.0365 128.407 71.0279L129.08 67.2539C129.082 67.2446 129.08 67.2349 129.075 67.227C129.069 67.219 129.061 67.2134 129.052 67.2112L128.359 67.0494C128.35 67.0473 128.341 67.0485 128.333 67.0529C128.325 67.0572 128.319 67.0644 128.316 67.073L127.236 69.9869C127.233 69.9941 127.228 70.0004 127.222 70.0048C127.215 70.0092 127.208 70.0115 127.2 70.0114L123.006 70.0105C122.996 70.0105 122.987 70.0066 122.98 69.9996C122.973 69.9926 122.969 69.9831 122.969 69.9732L122.968 66.6075C122.968 66.5976 122.972 66.5881 122.979 66.5812C122.986 66.5742 122.995 66.5702 123.005 66.5702L125.164 66.5748C125.172 66.5748 125.18 66.5778 125.187 66.5833C125.194 66.5888 125.198 66.5964 125.2 66.6048L125.469 68.024C125.471 68.0324 125.475 68.04 125.482 68.0455C125.489 68.0509 125.497 68.054 125.505 68.054L126.243 68.0558C126.253 68.0558 126.262 68.0519 126.269 68.0449C126.276 68.0379 126.28 68.0284 126.28 68.0185L126.278 64.0073C126.278 63.9974 126.274 63.9879 126.267 63.9809C126.26 63.9739 126.251 63.97 126.241 63.97H125.509C125.5 63.9701 125.492 63.9732 125.485 63.9789C125.479 63.9845 125.474 63.9923 125.473 64.0009L125.212 65.4892C125.21 65.4978 125.206 65.5056 125.199 65.5113C125.193 65.5169 125.184 65.5201 125.175 65.5202L123.008 65.5211Z" stroke="#808080" stroke-width="0.181833"></path><path d="M140.584 70.0005C140.586 70.0078 140.587 70.0155 140.586 70.023C140.585 70.0306 140.582 70.0378 140.578 70.0442C140.574 70.0505 140.568 70.0559 140.562 70.0598C140.555 70.0638 140.548 70.0662 140.54 70.0669L138.922 70.2314C138.909 70.2328 138.898 70.2386 138.89 70.2478C138.881 70.257 138.876 70.269 138.876 70.2815L138.871 71.0079C138.871 71.0146 138.872 71.0212 138.875 71.0274C138.877 71.0335 138.881 71.0391 138.886 71.0439C138.891 71.0486 138.896 71.0524 138.902 71.0549C138.908 71.0575 138.915 71.0588 138.922 71.0588H143.42C143.427 71.0588 143.434 71.0575 143.44 71.0549C143.446 71.0524 143.452 71.0486 143.456 71.0439C143.461 71.0391 143.465 71.0335 143.467 71.0274C143.47 71.0212 143.471 71.0146 143.471 71.0079V70.2815C143.471 70.2691 143.467 70.2573 143.458 70.2481C143.45 70.2389 143.439 70.233 143.427 70.2314L142.165 70.0642C142.156 70.0629 142.147 70.0592 142.14 70.0535C142.133 70.0477 142.127 70.0401 142.124 70.0314L139.376 62.289C139.374 62.2817 139.373 62.274 139.374 62.2664C139.375 62.2588 139.377 62.2515 139.382 62.245C139.386 62.2386 139.391 62.2331 139.398 62.2291C139.404 62.225 139.411 62.2225 139.419 62.2217L141.096 62.0462C141.108 62.0449 141.119 62.0391 141.128 62.0299C141.136 62.0206 141.141 62.0087 141.141 61.9962L141.145 61.2716C141.145 61.2649 141.143 61.2583 141.141 61.2521C141.138 61.246 141.135 61.2403 141.13 61.2356C141.125 61.2309 141.119 61.2271 141.113 61.2246C141.107 61.222 141.1 61.2207 141.094 61.2207L135.349 61.2216C135.335 61.2216 135.322 61.227 135.313 61.2365C135.303 61.2461 135.298 61.259 135.298 61.2725L135.302 61.9999C135.302 62.0123 135.306 62.0243 135.315 62.0335C135.323 62.0427 135.335 62.0485 135.347 62.0499L137.017 62.2162C137.025 62.217 137.032 62.2195 137.039 62.2236C137.045 62.2277 137.051 62.2333 137.055 62.2399C137.059 62.2464 137.062 62.2539 137.063 62.2616C137.063 62.2693 137.063 62.2771 137.06 62.2844L134.287 70.0242C134.284 70.033 134.278 70.0408 134.271 70.0467C134.264 70.0527 134.255 70.0565 134.246 70.0578L132.998 70.2296C132.985 70.2312 132.974 70.2372 132.966 70.2466C132.958 70.256 132.953 70.2681 132.953 70.2805L132.956 71.0079C132.956 71.0146 132.957 71.0212 132.96 71.0274C132.962 71.0335 132.966 71.0391 132.971 71.0439C132.975 71.0486 132.981 71.0524 132.987 71.0549C132.993 71.0575 133 71.0588 133.007 71.0588H137.481C137.487 71.0588 137.494 71.0575 137.5 71.0549C137.506 71.0524 137.512 71.0486 137.517 71.0439C137.522 71.0391 137.525 71.0335 137.528 71.0274C137.53 71.0212 137.532 71.0146 137.532 71.0079V70.2833C137.532 70.2708 137.527 70.2589 137.518 70.2496C137.51 70.2404 137.499 70.2346 137.486 70.2333L135.812 70.0505C135.805 70.0497 135.798 70.0472 135.791 70.0432C135.784 70.0391 135.779 70.0337 135.775 70.0272C135.771 70.0207 135.768 70.0134 135.767 70.0058C135.766 69.9982 135.767 69.9905 135.77 69.9832L136.421 68.0476C136.424 68.0376 136.431 68.0288 136.439 68.0226C136.448 68.0164 136.458 68.0131 136.469 68.0131L139.879 68.014C139.89 68.014 139.9 68.0173 139.909 68.0235C139.917 68.0297 139.924 68.0385 139.927 68.0485L140.584 70.0005Z" stroke="#808080" stroke-width="0.181833"></path><path d="M152.055 62.3217C152.055 62.3082 152.06 62.2952 152.07 62.2857C152.079 62.2762 152.092 62.2708 152.106 62.2708L154.136 62.269C154.146 62.269 154.155 62.2718 154.164 62.2771C154.172 62.2825 154.178 62.29 154.182 62.299L155.307 64.781C155.312 64.7921 155.321 64.801 155.332 64.8062C155.343 64.8114 155.355 64.8124 155.367 64.8092L156.04 64.6201C156.052 64.6165 156.063 64.6082 156.069 64.5971C156.076 64.5859 156.078 64.5727 156.075 64.5601L155.34 61.2607C155.337 61.2493 155.331 61.2391 155.322 61.2319C155.313 61.2246 155.301 61.2206 155.29 61.2207L147.174 61.2216C147.162 61.2215 147.151 61.2255 147.142 61.2328C147.132 61.24 147.126 61.2502 147.124 61.2616L146.404 64.531C146.401 64.5437 146.403 64.5571 146.41 64.5682C146.416 64.5794 146.427 64.5875 146.44 64.591L147.112 64.7837C147.123 64.787 147.136 64.7859 147.147 64.7807C147.158 64.7756 147.167 64.7666 147.172 64.7555L148.295 62.2981C148.3 62.2891 148.306 62.2815 148.314 62.2762C148.322 62.2709 148.332 62.2681 148.342 62.2681H150.385C150.398 62.2681 150.411 62.2734 150.421 62.283C150.43 62.2925 150.436 62.3055 150.436 62.319L150.435 69.9951C150.435 70.0075 150.43 70.0195 150.422 70.0287C150.413 70.0379 150.402 70.0437 150.389 70.0451L148.659 70.2333C148.647 70.2346 148.635 70.2404 148.627 70.2496C148.619 70.2589 148.614 70.2708 148.614 70.2833L148.616 71.0079C148.616 71.0146 148.617 71.0212 148.619 71.0274C148.622 71.0335 148.626 71.0391 148.63 71.0439C148.635 71.0486 148.641 71.0524 148.647 71.0549C148.653 71.0575 148.66 71.0588 148.666 71.0588H153.836C153.843 71.0588 153.849 71.0575 153.855 71.0549C153.862 71.0524 153.867 71.0486 153.872 71.0439C153.877 71.0391 153.88 71.0335 153.883 71.0274C153.886 71.0212 153.887 71.0146 153.887 71.0079L153.888 70.2833C153.888 70.2708 153.883 70.2589 153.875 70.2496C153.866 70.2404 153.855 70.2346 153.842 70.2333L152.1 70.0432C152.088 70.0419 152.077 70.0361 152.068 70.0269C152.06 70.0177 152.055 70.0057 152.055 69.9932V62.3217Z" stroke="#808080" stroke-width="0.181833"></path><path d="M163.432 62.3117C163.432 62.3062 163.433 62.3008 163.436 62.2957C163.438 62.2906 163.441 62.286 163.445 62.2821C163.449 62.2782 163.453 62.2752 163.458 62.2731C163.463 62.271 163.469 62.2699 163.474 62.2699L167.261 62.269C167.268 62.269 167.276 62.2711 167.282 62.2749C167.288 62.2788 167.294 62.2842 167.297 62.2908L168.536 64.5901C168.541 64.5987 168.548 64.6056 168.557 64.6094C168.566 64.6132 168.576 64.6138 168.586 64.611L169.305 64.4046C169.315 64.4014 169.324 64.3942 169.329 64.3845C169.335 64.3748 169.336 64.3634 169.333 64.3528L168.441 61.2507C168.438 61.2419 168.433 61.2342 168.426 61.2288C168.418 61.2234 168.409 61.2205 168.4 61.2207H160.009C159.998 61.2207 159.988 61.2251 159.98 61.233C159.972 61.2408 159.968 61.2514 159.968 61.2625L159.965 62.0044C159.965 62.0146 159.969 62.0244 159.976 62.0319C159.983 62.0394 159.992 62.0442 160.002 62.0453L161.761 62.2362C161.771 62.2374 161.781 62.2421 161.788 62.2497C161.795 62.2572 161.798 62.267 161.799 62.2772V70.0014C161.798 70.0116 161.795 70.0214 161.788 70.0289C161.781 70.0365 161.771 70.0412 161.761 70.0423L160.003 70.2333C159.993 70.2344 159.984 70.2391 159.977 70.2467C159.97 70.2542 159.966 70.264 159.966 70.2742L159.968 71.017C159.968 71.0281 159.972 71.0387 159.98 71.0465C159.988 71.0544 159.998 71.0588 160.009 71.0588H168.837C168.847 71.0589 168.857 71.0556 168.865 71.0492C168.872 71.0429 168.877 71.034 168.879 71.0242L169.551 67.2558C169.553 67.2452 169.551 67.2343 169.545 67.2253C169.539 67.2163 169.53 67.21 169.519 67.2076L168.83 67.0566C168.82 67.0545 168.81 67.056 168.801 67.0608C168.792 67.0657 168.785 67.0735 168.782 67.083L167.71 69.9842C167.707 69.9921 167.702 69.999 167.695 70.0039C167.688 70.0088 167.679 70.0114 167.671 70.0114L163.475 70.0105C163.47 70.0105 163.464 70.0094 163.459 70.0073C163.454 70.0052 163.449 70.0022 163.446 69.9983C163.442 69.9944 163.439 69.9898 163.436 69.9847C163.434 69.9796 163.433 69.9742 163.433 69.9687V66.6102C163.433 66.5992 163.438 66.5885 163.446 66.5807C163.453 66.5728 163.464 66.5684 163.475 66.5684L165.632 66.5748C165.641 66.5748 165.651 66.5782 165.658 66.5843C165.666 66.5904 165.671 66.599 165.673 66.6084L165.939 68.0204C165.941 68.0298 165.946 68.0384 165.953 68.0445C165.961 68.0506 165.97 68.054 165.98 68.054L166.712 68.0558C166.723 68.0558 166.733 68.0514 166.741 68.0436C166.749 68.0357 166.754 68.0251 166.754 68.014L166.753 64.0137C166.753 64.0026 166.748 63.9919 166.74 63.9841C166.733 63.9763 166.722 63.9718 166.711 63.9718L165.982 63.9737C165.972 63.9735 165.962 63.9769 165.954 63.9832C165.947 63.9896 165.942 63.9984 165.94 64.0082L165.683 65.4929C165.681 65.5027 165.676 65.5115 165.668 65.5179C165.66 65.5242 165.651 65.5276 165.641 65.5274L163.475 65.5211C163.47 65.5211 163.464 65.52 163.459 65.5179C163.454 65.5158 163.449 65.5127 163.446 65.5088C163.442 65.5049 163.439 65.5003 163.436 65.4952C163.434 65.4902 163.433 65.4847 163.433 65.4792L163.432 62.3117Z" stroke="#808080" stroke-width="0.181833"></path><path d="M108.345 62.3285L108.332 65.7242C108.332 65.7306 108.333 65.737 108.335 65.7429C108.338 65.7489 108.341 65.7543 108.346 65.7589C108.35 65.7634 108.356 65.7671 108.362 65.7695C108.367 65.772 108.374 65.7733 108.38 65.7733L111.072 65.7824C111.521 65.7839 111.952 65.6172 112.271 65.3188C112.589 65.0205 112.769 64.6149 112.771 64.1913L112.772 63.8931C112.773 63.6833 112.73 63.4754 112.646 63.2812C112.561 63.0871 112.437 62.9105 112.281 62.7615C112.124 62.6126 111.938 62.4942 111.733 62.4132C111.527 62.3322 111.307 62.2901 111.085 62.2894L108.393 62.2803C108.38 62.2803 108.368 62.2853 108.359 62.2944C108.35 62.3034 108.345 62.3157 108.345 62.3285Z" stroke="#808080" stroke-width="0.181833"></path><path d="M136.802 66.9426C136.801 66.9468 136.8 66.9514 136.801 66.9559C136.802 66.9604 136.804 66.9646 136.806 66.9683C136.809 66.972 136.812 66.9749 136.816 66.9769C136.821 66.9789 136.825 66.9799 136.83 66.9798H139.521C139.525 66.9799 139.53 66.9789 139.534 66.9769C139.538 66.9749 139.541 66.972 139.544 66.9683C139.547 66.9646 139.548 66.9604 139.549 66.9559C139.55 66.9514 139.549 66.9468 139.548 66.9426L138.201 62.984C138.199 62.9787 138.196 62.9741 138.191 62.9708C138.186 62.9676 138.181 62.9658 138.175 62.9658C138.169 62.9658 138.164 62.9676 138.159 62.9708C138.154 62.9741 138.151 62.9787 138.149 62.984L136.802 66.9426Z" stroke="#808080" stroke-width="0.181833"></path><path d="M98.8427 61.9834C98.846 61.9874 98.8505 61.9903 98.8555 61.9917C98.8604 61.9931 98.8657 61.9931 98.8707 61.9915C98.8756 61.99 98.88 61.987 98.8833 61.983C98.8866 61.9789 98.8886 61.974 98.889 61.9689L98.9981 61.0197C99.0024 60.9852 99.0221 60.9679 99.0572 60.9679H99.7364C99.7776 60.9679 99.8018 60.9882 99.8091 61.0288L100.476 64.81C100.478 64.8192 100.476 64.8287 100.471 64.8366C100.466 64.8444 100.458 64.8502 100.449 64.8527L99.7255 65.0382C99.7114 65.0419 99.6964 65.0404 99.6832 65.0339C99.67 65.0274 99.6595 65.0163 99.6537 65.0028C99.4961 64.6318 99.3364 64.2866 99.1745 63.9672C98.7436 63.1144 98.0117 62.3662 97.0789 62.2298C95.2197 61.9589 93.9914 63.1181 93.6432 64.8564C93.2722 66.7056 93.6095 69.4268 95.8142 70.0277C96.5082 70.2168 97.1841 70.195 97.8417 69.9623C98.6881 69.6631 99.2218 68.8722 99.5246 68.0421C99.5273 68.0345 99.5315 68.0275 99.537 68.0215C99.5425 68.0155 99.5491 68.0107 99.5565 68.0073C99.5638 68.0039 99.5718 68.002 99.5799 68.0017C99.588 68.0015 99.5961 68.0028 99.6037 68.0057L100.361 68.2958C100.374 68.3006 100.385 68.3104 100.391 68.323C100.398 68.3356 100.399 68.3502 100.396 68.3639C99.8291 70.3268 98.3463 71.4515 96.2906 71.3687C94.7366 71.3069 93.5489 70.6475 92.7276 69.3904C91.7657 67.9185 91.7012 65.7637 92.1885 64.1427C92.6858 62.4889 93.965 61.2661 95.6379 60.9906C96.7852 60.8024 98.0599 61.0988 98.8427 61.9834Z" fill="black"></path><path d="M106.678 62.2358L104.904 62.0467C104.892 62.0455 104.886 62.0385 104.886 62.0258L104.883 61.2393C104.883 61.2278 104.889 61.2221 104.9 61.2221C107.089 61.2202 109.273 61.2202 111.452 61.2221C111.858 61.2227 112.205 61.2633 112.492 61.3439C113.872 61.7339 114.475 62.9431 114.365 64.3105C114.276 65.397 113.634 66.2507 112.619 66.668C112.46 66.7334 112.294 66.7762 112.123 66.7962C112.113 66.7972 112.104 66.8005 112.096 66.8058C112.088 66.8112 112.081 66.8183 112.077 66.8267C112.072 66.8351 112.07 66.8445 112.07 66.8541C112.07 66.8636 112.072 66.8731 112.076 66.8816L113.597 69.9428C113.605 69.9586 113.618 69.9676 113.635 69.9701L115.536 70.2346C115.552 70.2371 115.561 70.2464 115.561 70.2628V71.0374C115.561 71.052 115.554 71.0592 115.539 71.0592H112.59C112.579 71.0593 112.568 71.0561 112.558 71.0502C112.548 71.0442 112.54 71.0357 112.535 71.0256L110.506 66.9234C110.491 66.8938 110.467 66.8789 110.433 66.8789L108.383 66.8798C108.377 66.8798 108.372 66.8809 108.366 66.8831C108.361 66.8853 108.356 66.8885 108.352 66.8926C108.348 66.8966 108.345 66.9015 108.343 66.9067C108.341 66.912 108.339 66.9177 108.339 66.9234L108.34 70.0055C108.34 70.0148 108.344 70.0238 108.35 70.0307C108.356 70.0376 108.364 70.0419 108.373 70.0428L110.244 70.2383C110.259 70.2395 110.266 70.2474 110.266 70.2619L110.269 71.0374C110.269 71.052 110.261 71.0592 110.247 71.0592H104.906C104.891 71.0592 104.884 71.052 104.884 71.0374L104.885 70.2528C104.885 70.2425 104.89 70.2368 104.9 70.2355L106.67 70.0592C106.706 70.0555 106.724 70.0358 106.724 70.0001L106.725 62.2876C106.725 62.2567 106.709 62.2394 106.678 62.2358ZM108.346 62.3294L108.333 65.7252C108.333 65.7316 108.334 65.7379 108.337 65.7439C108.339 65.7498 108.342 65.7553 108.347 65.7598C108.351 65.7644 108.357 65.768 108.363 65.7705C108.369 65.773 108.375 65.7743 108.381 65.7743L111.073 65.7834C111.522 65.7849 111.953 65.6182 112.272 65.3198C112.59 65.0214 112.77 64.6159 112.772 64.1923L112.773 63.8941C112.774 63.6843 112.731 63.4764 112.647 63.2822C112.562 63.088 112.438 62.9114 112.282 62.7625C112.125 62.6136 111.939 62.4952 111.734 62.4142C111.528 62.3332 111.308 62.2911 111.086 62.2903L108.394 62.2812C108.381 62.2812 108.369 62.2863 108.36 62.2954C108.351 62.3044 108.346 62.3167 108.346 62.3294Z" fill="black"></path><path d="M123.008 65.5211L125.175 65.5202C125.184 65.5201 125.193 65.5169 125.199 65.5113C125.206 65.5056 125.21 65.4978 125.212 65.4892L125.473 64.0009C125.474 63.9923 125.479 63.9845 125.485 63.9789C125.492 63.9732 125.5 63.9701 125.509 63.97H126.241C126.251 63.97 126.26 63.9739 126.267 63.9809C126.274 63.9879 126.278 63.9974 126.278 64.0073L126.28 68.0185C126.28 68.0284 126.276 68.0379 126.269 68.0449C126.262 68.0519 126.253 68.0558 126.243 68.0558L125.505 68.054C125.497 68.054 125.489 68.0509 125.482 68.0455C125.475 68.04 125.471 68.0324 125.469 68.024L125.2 66.6048C125.198 66.5964 125.194 66.5888 125.187 66.5833C125.18 66.5778 125.172 66.5748 125.164 66.5748L123.005 66.5702C122.995 66.5702 122.986 66.5742 122.979 66.5812C122.972 66.5881 122.968 66.5976 122.968 66.6075L122.969 69.9732C122.969 69.9831 122.973 69.9926 122.98 69.9996C122.987 70.0066 122.996 70.0105 123.006 70.0105L127.2 70.0114C127.208 70.0115 127.215 70.0092 127.222 70.0048C127.228 70.0004 127.233 69.9941 127.236 69.9869L128.316 67.073C128.319 67.0644 128.325 67.0572 128.333 67.0529C128.341 67.0485 128.35 67.0473 128.359 67.0494L129.052 67.2112C129.061 67.2134 129.069 67.219 129.075 67.227C129.08 67.2349 129.082 67.2446 129.08 67.2539L128.407 71.0279C128.406 71.0365 128.402 71.0443 128.395 71.0499C128.388 71.0556 128.38 71.0587 128.371 71.0588H119.532C119.522 71.0588 119.513 71.0549 119.506 71.0479C119.499 71.0409 119.495 71.0314 119.495 71.0215L119.493 70.2705C119.493 70.2613 119.496 70.2523 119.503 70.2454C119.509 70.2385 119.517 70.2342 119.527 70.2333L121.301 70.0442C121.311 70.0433 121.319 70.0389 121.325 70.032C121.332 70.0251 121.335 70.0162 121.335 70.0069V62.2726C121.335 62.2633 121.332 62.2544 121.325 62.2475C121.319 62.2406 121.311 62.2362 121.301 62.2353L119.529 62.048C119.52 62.0469 119.512 62.0425 119.506 62.0356C119.5 62.0288 119.497 62.0199 119.497 62.0108L119.492 61.2589C119.492 61.249 119.496 61.2395 119.503 61.2325C119.51 61.2255 119.52 61.2216 119.529 61.2216L127.934 61.2207C127.942 61.2206 127.95 61.2232 127.957 61.2282C127.963 61.2331 127.968 61.2401 127.97 61.248L128.864 64.3528C128.865 64.3575 128.866 64.3624 128.865 64.3673C128.865 64.3722 128.863 64.377 128.861 64.3813C128.858 64.3856 128.855 64.3894 128.851 64.3924C128.848 64.3955 128.843 64.3978 128.838 64.3991L128.114 64.6146C128.106 64.6172 128.097 64.6169 128.089 64.6137C128.081 64.6106 128.074 64.6048 128.07 64.5973L126.827 62.2917C126.824 62.2857 126.82 62.2807 126.814 62.2772C126.808 62.2736 126.801 62.2718 126.795 62.2717L123.003 62.2699C122.998 62.2699 122.994 62.2708 122.989 62.2727C122.985 62.2746 122.98 62.2773 122.977 62.2808C122.974 62.2843 122.971 62.2884 122.969 62.2929C122.967 62.2974 122.966 62.3023 122.966 62.3072L122.971 65.4838C122.971 65.4937 122.975 65.5031 122.982 65.5101C122.989 65.5171 122.998 65.5211 123.008 65.5211Z" fill="black"></path><path d="M140.584 70.0005L139.927 68.0485C139.924 68.0385 139.917 68.0297 139.909 68.0235C139.9 68.0173 139.89 68.014 139.879 68.014L136.469 68.0131C136.458 68.0131 136.448 68.0164 136.439 68.0226C136.431 68.0288 136.424 68.0376 136.421 68.0476L135.77 69.9832C135.767 69.9905 135.766 69.9982 135.767 70.0058C135.768 70.0134 135.771 70.0207 135.775 70.0272C135.779 70.0337 135.784 70.0391 135.791 70.0432C135.798 70.0472 135.805 70.0497 135.812 70.0505L137.486 70.2333C137.499 70.2346 137.51 70.2404 137.518 70.2496C137.527 70.2589 137.532 70.2708 137.532 70.2833V71.0079C137.532 71.0146 137.53 71.0212 137.528 71.0274C137.525 71.0335 137.522 71.0391 137.517 71.0439C137.512 71.0486 137.506 71.0524 137.5 71.0549C137.494 71.0575 137.487 71.0588 137.481 71.0588H133.007C133 71.0588 132.993 71.0575 132.987 71.0549C132.981 71.0524 132.975 71.0486 132.971 71.0439C132.966 71.0391 132.962 71.0335 132.96 71.0274C132.957 71.0212 132.956 71.0146 132.956 71.0079L132.953 70.2805C132.953 70.2681 132.958 70.256 132.966 70.2466C132.974 70.2372 132.985 70.2312 132.998 70.2296L134.246 70.0578C134.255 70.0565 134.264 70.0527 134.271 70.0467C134.278 70.0408 134.284 70.033 134.287 70.0242L137.06 62.2844C137.063 62.2771 137.063 62.2693 137.063 62.2616C137.062 62.2539 137.059 62.2464 137.055 62.2399C137.051 62.2333 137.045 62.2277 137.039 62.2236C137.032 62.2195 137.025 62.217 137.017 62.2162L135.347 62.0499C135.335 62.0485 135.323 62.0427 135.315 62.0335C135.306 62.0243 135.302 62.0123 135.302 61.9999L135.298 61.2725C135.298 61.259 135.303 61.2461 135.313 61.2365C135.322 61.227 135.335 61.2216 135.349 61.2216L141.094 61.2207C141.1 61.2207 141.107 61.222 141.113 61.2246C141.119 61.2271 141.125 61.2309 141.13 61.2356C141.135 61.2403 141.138 61.246 141.141 61.2521C141.143 61.2583 141.145 61.2649 141.145 61.2716L141.141 61.9962C141.141 62.0087 141.136 62.0206 141.128 62.0299C141.119 62.0391 141.108 62.0449 141.096 62.0462L139.419 62.2217C139.411 62.2225 139.404 62.225 139.398 62.2291C139.391 62.2331 139.386 62.2386 139.382 62.245C139.377 62.2515 139.375 62.2588 139.374 62.2664C139.373 62.274 139.374 62.2817 139.376 62.289L142.124 70.0314C142.127 70.0401 142.133 70.0477 142.14 70.0535C142.147 70.0592 142.156 70.0629 142.165 70.0642L143.427 70.2314C143.439 70.233 143.45 70.2389 143.458 70.2481C143.467 70.2573 143.471 70.2691 143.471 70.2815V71.0079C143.471 71.0146 143.47 71.0212 143.467 71.0274C143.465 71.0335 143.461 71.0391 143.456 71.0439C143.452 71.0486 143.446 71.0524 143.44 71.0549C143.434 71.0575 143.427 71.0588 143.42 71.0588H138.922C138.915 71.0588 138.908 71.0575 138.902 71.0549C138.896 71.0524 138.891 71.0486 138.886 71.0439C138.881 71.0391 138.877 71.0335 138.875 71.0274C138.872 71.0212 138.871 71.0146 138.871 71.0079L138.876 70.2815C138.876 70.269 138.881 70.257 138.89 70.2478C138.898 70.2386 138.909 70.2328 138.922 70.2314L140.54 70.0669C140.548 70.0662 140.555 70.0638 140.562 70.0598C140.568 70.0559 140.574 70.0505 140.578 70.0442C140.582 70.0378 140.585 70.0306 140.586 70.023C140.587 70.0155 140.586 70.0078 140.584 70.0005ZM136.803 66.943C136.801 66.9473 136.801 66.9519 136.801 66.9563C136.802 66.9608 136.804 66.9651 136.806 66.9687C136.809 66.9724 136.813 66.9754 136.817 66.9774C136.821 66.9794 136.825 66.9804 136.83 66.9803H139.521C139.525 66.9804 139.53 66.9794 139.534 66.9774C139.538 66.9754 139.542 66.9724 139.544 66.9687C139.547 66.9651 139.549 66.9608 139.549 66.9563C139.55 66.9519 139.55 66.9473 139.548 66.943L138.202 62.9845C138.2 62.9791 138.196 62.9745 138.191 62.9713C138.187 62.968 138.181 62.9663 138.175 62.9663C138.17 62.9663 138.164 62.968 138.159 62.9713C138.155 62.9745 138.151 62.9791 138.149 62.9845L136.803 66.943Z" fill="black"></path><path d="M152.055 62.3217V69.9932C152.055 70.0057 152.06 70.0177 152.068 70.0269C152.077 70.0361 152.088 70.0419 152.1 70.0433L153.842 70.2333C153.855 70.2346 153.866 70.2404 153.875 70.2496C153.883 70.2589 153.888 70.2708 153.888 70.2833L153.887 71.0079C153.887 71.0146 153.886 71.0212 153.883 71.0274C153.88 71.0335 153.877 71.0391 153.872 71.0439C153.867 71.0486 153.862 71.0524 153.855 71.0549C153.849 71.0575 153.843 71.0588 153.836 71.0588H148.666C148.66 71.0588 148.653 71.0575 148.647 71.0549C148.641 71.0524 148.635 71.0486 148.63 71.0439C148.626 71.0391 148.622 71.0335 148.619 71.0274C148.617 71.0212 148.616 71.0146 148.616 71.0079L148.614 70.2833C148.614 70.2708 148.619 70.2589 148.627 70.2496C148.635 70.2404 148.647 70.2346 148.659 70.2333L150.389 70.0451C150.402 70.0437 150.413 70.0379 150.422 70.0287C150.43 70.0195 150.435 70.0075 150.435 69.9951L150.436 62.319C150.436 62.3055 150.43 62.2925 150.421 62.283C150.411 62.2734 150.398 62.2681 150.385 62.2681H148.342C148.332 62.2681 148.322 62.2709 148.314 62.2762C148.306 62.2815 148.3 62.2891 148.295 62.2981L147.172 64.7555C147.167 64.7666 147.158 64.7756 147.147 64.7807C147.136 64.7859 147.123 64.787 147.112 64.7837L146.44 64.591C146.427 64.5875 146.416 64.5794 146.41 64.5682C146.403 64.5571 146.401 64.5437 146.404 64.531L147.124 61.2616C147.126 61.2502 147.132 61.24 147.142 61.2328C147.151 61.2255 147.162 61.2215 147.174 61.2216L155.29 61.2207C155.301 61.2206 155.313 61.2246 155.322 61.2319C155.331 61.2391 155.337 61.2493 155.34 61.2607L156.075 64.5601C156.078 64.5727 156.076 64.5859 156.069 64.5971C156.063 64.6082 156.052 64.6165 156.04 64.6201L155.367 64.8092C155.355 64.8124 155.343 64.8114 155.332 64.8062C155.321 64.801 155.312 64.7921 155.307 64.781L154.182 62.299C154.178 62.29 154.172 62.2825 154.164 62.2771C154.155 62.2718 154.146 62.269 154.136 62.269L152.106 62.2708C152.092 62.2708 152.079 62.2762 152.07 62.2857C152.06 62.2952 152.055 62.3082 152.055 62.3217Z" fill="black"></path><path d="M163.432 62.3117L163.433 65.4792C163.433 65.4847 163.434 65.4902 163.436 65.4952C163.439 65.5003 163.442 65.5049 163.446 65.5088C163.449 65.5127 163.454 65.5158 163.459 65.5179C163.464 65.52 163.47 65.5211 163.475 65.5211L165.641 65.5274C165.651 65.5276 165.66 65.5242 165.668 65.5179C165.676 65.5115 165.681 65.5027 165.683 65.4929L165.94 64.0082C165.942 63.9984 165.947 63.9896 165.954 63.9832C165.962 63.9769 165.972 63.9735 165.982 63.9737L166.711 63.9718C166.722 63.9718 166.733 63.9763 166.74 63.9841C166.748 63.9919 166.753 64.0026 166.753 64.0137L166.754 68.014C166.754 68.0251 166.749 68.0357 166.741 68.0436C166.733 68.0514 166.723 68.0558 166.712 68.0558L165.98 68.054C165.97 68.054 165.961 68.0506 165.953 68.0445C165.946 68.0384 165.941 68.0298 165.939 68.0204L165.673 66.6084C165.671 66.599 165.666 66.5904 165.658 66.5843C165.651 66.5782 165.641 66.5748 165.632 66.5748L163.475 66.5684C163.464 66.5684 163.453 66.5728 163.446 66.5807C163.438 66.5885 163.433 66.5992 163.433 66.6102V69.9687C163.433 69.9742 163.434 69.9796 163.436 69.9847C163.439 69.9898 163.442 69.9944 163.446 69.9983C163.449 70.0022 163.454 70.0052 163.459 70.0073C163.464 70.0094 163.47 70.0105 163.475 70.0105L167.671 70.0114C167.679 70.0114 167.688 70.0088 167.695 70.0039C167.702 69.999 167.707 69.9921 167.71 69.9842L168.782 67.083C168.785 67.0735 168.792 67.0657 168.801 67.0608C168.81 67.056 168.82 67.0545 168.83 67.0566L169.519 67.2076C169.53 67.21 169.539 67.2163 169.545 67.2253C169.551 67.2343 169.553 67.2452 169.551 67.2558L168.879 71.0242C168.877 71.034 168.872 71.0429 168.865 71.0492C168.857 71.0556 168.847 71.0589 168.837 71.0588H160.009C159.998 71.0588 159.988 71.0544 159.98 71.0465C159.972 71.0387 159.968 71.0281 159.968 71.017L159.966 70.2742C159.966 70.264 159.97 70.2542 159.977 70.2467C159.984 70.2391 159.993 70.2344 160.003 70.2333L161.761 70.0423C161.771 70.0412 161.781 70.0365 161.788 70.0289C161.795 70.0214 161.798 70.0116 161.799 70.0014V62.2772C161.798 62.267 161.795 62.2572 161.788 62.2497C161.781 62.2421 161.771 62.2374 161.761 62.2362L160.002 62.0453C159.992 62.0442 159.983 62.0394 159.976 62.0319C159.969 62.0244 159.965 62.0146 159.965 62.0044L159.968 61.2625C159.968 61.2514 159.972 61.2408 159.98 61.233C159.988 61.2251 159.998 61.2207 160.009 61.2207H168.4C168.409 61.2205 168.418 61.2234 168.426 61.2288C168.433 61.2342 168.438 61.2419 168.441 61.2507L169.333 64.3528C169.336 64.3634 169.335 64.3748 169.329 64.3845C169.324 64.3942 169.315 64.4014 169.305 64.4046L168.586 64.611C168.576 64.6138 168.566 64.6132 168.557 64.6094C168.548 64.6056 168.541 64.5987 168.536 64.5901L167.297 62.2908C167.294 62.2842 167.288 62.2788 167.282 62.2749C167.276 62.2711 167.268 62.269 167.261 62.269L163.474 62.2699C163.469 62.2699 163.463 62.271 163.458 62.2731C163.453 62.2752 163.449 62.2782 163.445 62.2821C163.441 62.286 163.438 62.2906 163.436 62.2957C163.433 62.3008 163.432 62.3062 163.432 62.3117Z" fill="black"></path><path d="M108.345 62.3285C108.345 62.3157 108.35 62.3034 108.359 62.2944C108.368 62.2853 108.38 62.2803 108.393 62.2803L111.085 62.2894C111.307 62.2901 111.527 62.3322 111.733 62.4132C111.938 62.4942 112.124 62.6126 112.281 62.7615C112.437 62.9105 112.561 63.0871 112.646 63.2812C112.73 63.4754 112.773 63.6833 112.772 63.8931L112.771 64.1913C112.769 64.6149 112.589 65.0205 112.271 65.3188C111.952 65.6172 111.521 65.7839 111.072 65.7824L108.38 65.7733C108.374 65.7733 108.367 65.772 108.362 65.7695C108.356 65.7671 108.35 65.7634 108.346 65.7589C108.341 65.7543 108.338 65.7489 108.335 65.7429C108.333 65.737 108.332 65.7306 108.332 65.7242L108.345 62.3285Z" fill="white"></path><path d="M136.802 66.9426L138.149 62.984C138.151 62.9787 138.154 62.9741 138.159 62.9708C138.164 62.9676 138.169 62.9658 138.175 62.9658C138.181 62.9658 138.186 62.9676 138.191 62.9708C138.196 62.9741 138.199 62.9787 138.201 62.984L139.548 66.9426C139.549 66.9468 139.55 66.9514 139.549 66.9559C139.548 66.9604 139.547 66.9646 139.544 66.9683C139.541 66.972 139.538 66.9749 139.534 66.9769C139.53 66.9789 139.525 66.9799 139.521 66.9798H136.83C136.825 66.9799 136.821 66.9789 136.816 66.9769C136.812 66.9749 136.809 66.972 136.806 66.9683C136.804 66.9646 136.802 66.9604 136.801 66.9559C136.8 66.9514 136.801 66.9468 136.802 66.9426Z" fill="white"></path><path d="M195.933 68.4307C196.894 70.4726 199.034 71.4027 201.254 70.9854C203.614 70.5426 204.982 68.5843 205.093 66.2496C205.154 64.9531 204.913 63.6703 204.19 62.6238C203.119 61.071 201.335 60.4036 199.459 60.6927C197.099 61.0573 195.624 62.8902 195.421 65.2104C195.315 66.4087 195.486 67.4821 195.933 68.4307Z" stroke="#808080" stroke-width="0.181833"></path><path d="M217.203 61.4737C216.208 60.7372 214.826 60.4981 213.585 60.6927C210.477 61.1809 209.156 64.1002 209.623 66.9778C209.967 69.0898 211.44 70.7153 213.588 71.0226C215.954 71.3618 218.132 70.2226 218.91 67.9187C219.394 66.4859 219.37 65.04 218.839 63.5811C218.543 62.7659 217.997 62.0634 217.203 61.4737Z" stroke="#808080" stroke-width="0.181833"></path><path d="M184.468 66.5813H186.502C186.511 66.5812 186.52 66.5837 186.528 66.5883C186.535 66.593 186.542 66.5997 186.546 66.6076L188.573 70.7125C188.581 70.7278 188.593 70.7407 188.607 70.7497C188.622 70.7587 188.639 70.7634 188.656 70.7634H191.607C191.613 70.7634 191.618 70.7624 191.623 70.7603C191.628 70.7582 191.633 70.7552 191.636 70.7514C191.64 70.7476 191.643 70.7431 191.645 70.7381C191.647 70.7331 191.648 70.7279 191.648 70.7225L191.641 69.9734C191.641 69.9604 191.636 69.948 191.627 69.9383C191.619 69.9286 191.607 69.9224 191.594 69.9206L189.746 69.6643C189.727 69.6617 189.71 69.6547 189.694 69.6437C189.679 69.6328 189.666 69.6183 189.658 69.6015L188.136 66.5613C188.128 66.5455 188.132 66.5358 188.15 66.5322C189.917 66.1721 190.776 64.5693 190.351 62.8655C190.038 61.6081 188.989 60.919 187.725 60.9153C185.43 60.9081 183.175 60.9047 180.958 60.9053C180.946 60.9053 180.94 60.9114 180.94 60.9235L180.934 61.7236C180.934 61.7313 180.936 61.7388 180.942 61.7446C180.947 61.7505 180.954 61.7543 180.962 61.7554L182.744 61.9472C182.767 61.9497 182.778 61.9627 182.778 61.9863L182.777 69.6943C182.777 69.7084 182.772 69.7221 182.763 69.7326C182.753 69.743 182.74 69.7495 182.726 69.7506L180.958 69.9215C180.952 69.9222 180.947 69.9251 180.943 69.9296C180.938 69.9342 180.936 69.94 180.936 69.9461L180.937 70.7534C180.937 70.7601 180.941 70.7634 180.947 70.7634H186.318C186.322 70.7634 186.326 70.7626 186.329 70.7611C186.333 70.7595 186.336 70.7572 186.339 70.7543C186.342 70.7514 186.344 70.748 186.346 70.7443C186.347 70.7405 186.348 70.7365 186.348 70.7325L186.344 69.9634C186.344 69.9541 186.341 69.9451 186.334 69.9382C186.328 69.9313 186.32 69.927 186.31 69.9261L184.464 69.7324C184.435 69.7294 184.42 69.713 184.419 69.6833L184.416 66.6331C184.416 66.5985 184.433 66.5813 184.468 66.5813Z" stroke="#808080" stroke-width="0.181833"></path><path d="M226.797 63.2145C226.797 63.1218 226.817 63.1175 226.857 63.2018L230.415 70.7915C230.434 70.8315 230.465 70.8515 230.509 70.8515L231.403 70.8551C231.427 70.8551 231.45 70.8484 231.469 70.8359C231.489 70.8234 231.505 70.8054 231.515 70.7842C232.664 68.3434 233.788 65.9347 234.888 63.5582C234.929 63.4697 234.968 63.3757 235.007 63.2763C235.054 63.1575 235.086 63.1615 235.103 63.2881C235.111 63.3518 235.114 63.4181 235.114 63.4872C235.11 65.3292 235.108 67.3909 235.11 69.6723C235.11 69.7111 235.091 69.7329 235.052 69.7378L233.575 69.9223C233.568 69.923 233.561 69.9264 233.556 69.9317C233.552 69.9371 233.549 69.9441 233.549 69.9514L233.553 70.7415C233.553 70.756 233.561 70.7633 233.575 70.7633H238.365C238.379 70.7633 238.387 70.756 238.387 70.7415L238.385 69.946C238.384 69.935 238.378 69.9287 238.367 69.9269L236.644 69.7323C236.611 69.7287 236.595 69.7102 236.595 69.6768L236.594 61.998C236.594 61.9586 236.613 61.9368 236.653 61.9326L238.367 61.7544C238.38 61.7532 238.387 61.7456 238.387 61.7316L238.379 60.9234C238.379 60.9119 238.374 60.9061 238.362 60.9061L232.702 60.9043C232.689 60.9043 232.682 60.9113 232.682 60.9252L232.679 61.7325C232.679 61.7465 232.686 61.7541 232.7 61.7553L234.25 61.9289C234.257 61.9298 234.264 61.9324 234.27 61.9365C234.276 61.9406 234.281 61.946 234.285 61.9524C234.288 61.9588 234.29 61.9659 234.29 61.9732C234.291 61.9805 234.289 61.9878 234.286 61.9944L231.071 68.9668C231.068 68.9735 231.063 68.9793 231.057 68.9833C231.051 68.9873 231.043 68.9894 231.036 68.9894C231.028 68.9894 231.021 68.9873 231.015 68.9833C231.009 68.9793 231.004 68.9735 231 68.9668L227.776 61.9889C227.772 61.9811 227.77 61.9725 227.771 61.9639C227.771 61.9552 227.774 61.9468 227.778 61.9392C227.782 61.9317 227.788 61.9252 227.796 61.9204C227.803 61.9157 227.812 61.9126 227.82 61.9117L229.267 61.7562C229.285 61.7538 229.294 61.7435 229.294 61.7253L229.286 60.9325C229.286 60.9255 229.283 60.9188 229.278 60.9138C229.273 60.9089 229.266 60.9061 229.259 60.9061H223.574C223.572 60.9061 223.57 60.9073 223.569 60.9098C223.551 60.9564 223.547 61.2319 223.556 61.7362C223.556 61.7501 223.563 61.758 223.577 61.7598L225.276 61.9444C225.294 61.9464 225.31 61.9548 225.322 61.9678C225.334 61.9809 225.34 61.9978 225.34 62.0153L225.339 69.6787C225.339 69.712 225.322 69.7305 225.289 69.7341L223.57 69.9223C223.557 69.9235 223.551 69.9308 223.551 69.9441V70.7424C223.551 70.7563 223.557 70.7633 223.571 70.7633H228.364C228.378 70.7633 228.385 70.756 228.385 70.7415L228.38 69.9496C228.38 69.9338 228.372 69.925 228.357 69.9232L226.849 69.7359C226.815 69.7317 226.798 69.7126 226.798 69.6787L226.797 63.2145Z" stroke="#808080" stroke-width="0.181833"></path><path d="M197.965 62.9184C197.03 63.9839 196.873 65.7068 197.152 67.0633C197.515 68.8334 198.827 70.0371 200.706 69.8062C202.172 69.6253 203.121 68.3688 203.365 66.9769C203.657 65.3067 203.366 63.0829 201.655 62.2156C200.387 61.5728 198.894 61.8619 197.965 62.9184Z" stroke="#808080" stroke-width="0.181833"></path><path d="M217.498 67.0094C217.903 64.9402 217.267 62.2081 214.748 61.8981C214.43 61.8593 214.108 61.8739 213.781 61.9418C212.323 62.2436 211.469 63.4264 211.252 64.8793C211.048 66.2448 211.22 67.8268 212.158 68.8551C212.887 69.6557 213.829 69.9654 214.983 69.7842C216.385 69.5642 217.241 68.3277 217.498 67.0094Z" stroke="#808080" stroke-width="0.181833"></path><path d="M184.418 62.0121V65.447C184.418 65.4497 184.419 65.4524 184.42 65.455C184.421 65.4575 184.422 65.4598 184.424 65.4617C184.426 65.4637 184.428 65.4652 184.431 65.4663C184.433 65.4673 184.436 65.4679 184.439 65.4679H187.121C187.346 65.4679 187.569 65.4253 187.777 65.3427C187.985 65.2601 188.174 65.139 188.333 64.9864C188.492 64.8338 188.618 64.6526 188.704 64.4531C188.79 64.2537 188.835 64.04 188.835 63.8241V63.635C188.835 63.199 188.654 62.7809 188.333 62.4727C188.011 62.1644 187.575 61.9912 187.121 61.9912H184.439C184.436 61.9912 184.433 61.9918 184.431 61.9928C184.428 61.9939 184.426 61.9954 184.424 61.9973C184.422 61.9993 184.421 62.0016 184.42 62.0041C184.419 62.0067 184.418 62.0094 184.418 62.0121Z" stroke="#808080" stroke-width="0.181833"></path><path d="M195.933 68.4307C195.486 67.4821 195.315 66.4087 195.421 65.2104C195.624 62.8902 197.099 61.0573 199.459 60.6927C201.335 60.4036 203.119 61.071 204.19 62.6238C204.913 63.6703 205.154 64.9531 205.093 66.2496C204.982 68.5843 203.614 70.5426 201.254 70.9854C199.034 71.4027 196.894 70.4726 195.933 68.4307ZM197.965 62.9184C197.029 63.9839 196.872 65.7068 197.151 67.0633C197.515 68.8334 198.827 70.0372 200.705 69.8062C202.171 69.6253 203.121 68.3688 203.364 66.9769C203.656 65.3068 203.365 63.0829 201.654 62.2156C200.386 61.5728 198.893 61.8619 197.965 62.9184Z" fill="black"></path><path d="M217.203 61.4737C217.997 62.0634 218.543 62.7659 218.839 63.5811C219.37 65.04 219.394 66.4859 218.91 67.9187C218.132 70.2226 215.954 71.3618 213.588 71.0226C211.44 70.7153 209.967 69.0898 209.623 66.9778C209.156 64.1002 210.477 61.1809 213.585 60.6927C214.826 60.4981 216.208 60.7372 217.203 61.4737ZM217.495 67.0096C217.9 64.9403 217.264 62.2083 214.745 61.8982C214.427 61.8595 214.105 61.874 213.779 61.9419C212.32 62.2437 211.467 63.4266 211.249 64.8794C211.046 66.245 211.218 67.8269 212.155 68.8552C212.885 69.6559 213.827 69.9656 214.981 69.7844C216.382 69.5643 217.238 68.3279 217.495 67.0096Z" fill="black"></path><path d="M184.416 66.6331L184.419 69.6833C184.42 69.713 184.435 69.7294 184.464 69.7324L186.31 69.9261C186.32 69.927 186.328 69.9313 186.334 69.9382C186.341 69.9451 186.344 69.9541 186.344 69.9634L186.348 70.7325C186.348 70.7365 186.347 70.7405 186.346 70.7443C186.344 70.748 186.342 70.7514 186.339 70.7543C186.336 70.7572 186.333 70.7595 186.329 70.7611C186.326 70.7626 186.322 70.7634 186.318 70.7634H180.947C180.941 70.7634 180.937 70.7601 180.937 70.7534L180.936 69.9461C180.936 69.94 180.938 69.9342 180.943 69.9296C180.947 69.9251 180.952 69.9222 180.958 69.9215L182.726 69.7506C182.74 69.7495 182.753 69.743 182.763 69.7326C182.772 69.7221 182.777 69.7084 182.777 69.6943L182.778 61.9863C182.778 61.9627 182.767 61.9497 182.744 61.9472L180.962 61.7554C180.954 61.7543 180.947 61.7505 180.942 61.7446C180.936 61.7388 180.934 61.7313 180.934 61.7236L180.94 60.9235C180.94 60.9114 180.946 60.9053 180.958 60.9053C183.175 60.9047 185.43 60.9081 187.725 60.9153C188.989 60.919 190.038 61.6081 190.351 62.8655C190.776 64.5693 189.917 66.1721 188.15 66.5322C188.132 66.5358 188.128 66.5455 188.136 66.5613L189.658 69.6015C189.666 69.6183 189.679 69.6328 189.694 69.6437C189.71 69.6547 189.727 69.6617 189.746 69.6643L191.594 69.9206C191.607 69.9224 191.619 69.9286 191.627 69.9383C191.636 69.948 191.641 69.9604 191.641 69.9734L191.648 70.7225C191.648 70.7279 191.647 70.7331 191.645 70.7381C191.643 70.7431 191.64 70.7476 191.636 70.7514C191.633 70.7552 191.628 70.7582 191.623 70.7603C191.618 70.7624 191.613 70.7634 191.607 70.7634H188.656C188.639 70.7634 188.622 70.7587 188.607 70.7497C188.593 70.7407 188.581 70.7278 188.573 70.7125L186.546 66.6076C186.542 66.5997 186.535 66.593 186.528 66.5883C186.52 66.5837 186.511 66.5812 186.502 66.5813H184.468C184.433 66.5813 184.416 66.5985 184.416 66.6331ZM184.418 62.0118V65.4466C184.418 65.4494 184.418 65.4521 184.419 65.4546C184.42 65.4572 184.422 65.4595 184.424 65.4614C184.426 65.4634 184.428 65.4649 184.43 65.4659C184.433 65.467 184.436 65.4675 184.438 65.4675H187.12C187.346 65.4675 187.568 65.425 187.776 65.3424C187.984 65.2598 188.173 65.1387 188.332 64.9861C188.491 64.8334 188.618 64.6522 188.704 64.4528C188.79 64.2534 188.834 64.0396 188.834 63.8238V63.6347C188.834 63.1987 188.654 62.7806 188.332 62.4723C188.011 62.1641 187.575 61.9909 187.12 61.9909H184.438C184.436 61.9909 184.433 61.9914 184.43 61.9925C184.428 61.9935 184.426 61.9951 184.424 61.997C184.422 61.999 184.42 62.0013 184.419 62.0038C184.418 62.0063 184.418 62.0091 184.418 62.0118Z" fill="black"></path><path d="M226.797 63.2145L226.798 69.6787C226.798 69.7126 226.815 69.7317 226.849 69.7359L228.357 69.9232C228.372 69.925 228.38 69.9338 228.38 69.9496L228.385 70.7415C228.385 70.756 228.378 70.7633 228.364 70.7633H223.571C223.557 70.7633 223.551 70.7563 223.551 70.7424V69.9441C223.551 69.9308 223.557 69.9235 223.57 69.9223L225.289 69.7341C225.322 69.7305 225.339 69.712 225.339 69.6787L225.34 62.0153C225.34 61.9978 225.334 61.9809 225.322 61.9678C225.31 61.9548 225.294 61.9464 225.276 61.9444L223.577 61.7598C223.563 61.758 223.556 61.7501 223.556 61.7362C223.547 61.2319 223.551 60.9564 223.569 60.9098C223.57 60.9073 223.572 60.9061 223.574 60.9061H229.259C229.266 60.9061 229.273 60.9089 229.278 60.9138C229.283 60.9188 229.286 60.9255 229.286 60.9325L229.294 61.7253C229.294 61.7435 229.285 61.7538 229.267 61.7562L227.82 61.9117C227.812 61.9126 227.803 61.9157 227.796 61.9204C227.788 61.9252 227.782 61.9317 227.778 61.9392C227.774 61.9468 227.771 61.9552 227.771 61.9639C227.77 61.9725 227.772 61.9811 227.776 61.9889L231 68.9668C231.004 68.9735 231.009 68.9793 231.015 68.9833C231.021 68.9873 231.028 68.9894 231.036 68.9894C231.043 68.9894 231.051 68.9873 231.057 68.9833C231.063 68.9793 231.068 68.9735 231.071 68.9668L234.286 61.9944C234.289 61.9878 234.291 61.9805 234.29 61.9732C234.29 61.9659 234.288 61.9588 234.285 61.9524C234.281 61.946 234.276 61.9406 234.27 61.9365C234.264 61.9324 234.257 61.9298 234.25 61.9289L232.7 61.7553C232.686 61.7541 232.679 61.7465 232.679 61.7325L232.682 60.9252C232.682 60.9113 232.689 60.9043 232.702 60.9043L238.362 60.9061C238.374 60.9061 238.379 60.9119 238.379 60.9234L238.387 61.7316C238.387 61.7456 238.38 61.7532 238.367 61.7544L236.653 61.9326C236.613 61.9368 236.594 61.9586 236.594 61.998L236.595 69.6768C236.595 69.7102 236.611 69.7287 236.644 69.7323L238.367 69.9269C238.378 69.9287 238.384 69.935 238.385 69.946L238.387 70.7415C238.387 70.756 238.379 70.7633 238.365 70.7633H233.575C233.561 70.7633 233.553 70.756 233.553 70.7415L233.549 69.9514C233.549 69.9441 233.552 69.9371 233.556 69.9318C233.561 69.9264 233.568 69.923 233.575 69.9223L235.052 69.7378C235.091 69.7329 235.11 69.7111 235.11 69.6723C235.108 67.3909 235.11 65.3292 235.114 63.4872C235.114 63.4181 235.111 63.3518 235.103 63.2881C235.086 63.1615 235.054 63.1575 235.007 63.2763C234.968 63.3757 234.929 63.4697 234.888 63.5582C233.788 65.9347 232.664 68.3434 231.515 70.7842C231.505 70.8054 231.489 70.8233 231.469 70.8359C231.45 70.8484 231.427 70.8551 231.403 70.8551L230.509 70.8515C230.465 70.8515 230.434 70.8315 230.415 70.7915L226.857 63.2018C226.817 63.1175 226.797 63.1218 226.797 63.2145Z" fill="black"></path><path d="M197.965 62.9184C198.894 61.8619 200.387 61.5728 201.655 62.2156C203.366 63.0829 203.657 65.3067 203.365 66.9769C203.121 68.3688 202.172 69.6253 200.706 69.8062C198.827 70.0371 197.515 68.8334 197.152 67.0633C196.873 65.7068 197.03 63.9839 197.965 62.9184Z" fill="white"></path><path d="M214.748 61.8981C217.267 62.2081 217.903 64.9402 217.498 67.0094C217.241 68.3277 216.385 69.5642 214.983 69.7842C213.829 69.9654 212.887 69.6557 212.158 68.8551C211.22 67.8268 211.048 66.2448 211.252 64.8793C211.469 63.4264 212.323 62.2436 213.781 61.9418C214.108 61.8739 214.43 61.8593 214.748 61.8981Z" fill="white"></path><path d="M184.418 62.0121C184.418 62.0094 184.419 62.0067 184.42 62.0041C184.421 62.0016 184.422 61.9993 184.424 61.9973C184.426 61.9954 184.428 61.9939 184.431 61.9928C184.433 61.9918 184.436 61.9912 184.439 61.9912H187.121C187.575 61.9912 188.011 62.1644 188.333 62.4727C188.654 62.7809 188.835 63.199 188.835 63.635V63.8241C188.835 64.04 188.79 64.2537 188.704 64.4531C188.618 64.6526 188.492 64.8338 188.333 64.9864C188.174 65.139 187.985 65.2601 187.777 65.3427C187.569 65.4253 187.346 65.4679 187.121 65.4679H184.439C184.436 65.4679 184.433 65.4673 184.431 65.4663C184.428 65.4652 184.426 65.4637 184.424 65.4617C184.422 65.4598 184.421 65.4575 184.42 65.455C184.419 65.4524 184.418 65.4497 184.418 65.447V62.0121Z" fill="white"></path></svg>