<svg xmlns="http://www.w3.org/2000/svg" fill="none" viewBox="0 0 25 24" height="24" width="25"><g clip-path="url(#clip0_16041_121)"><path fill="black" d="M9.96928 16.8188C9.87863 16.8188 9.78731 16.7876 9.71279 16.7241L7.14882 14.5409C7.06038 14.4655 7.00952 14.3554 7.00952 14.2391C7.00952 14.123 7.0606 14.0129 7.14882 13.9375L9.71279 11.7543C9.87929 11.6123 10.1294 11.6324 10.2713 11.7989C10.413 11.9657 10.3931 12.2157 10.2264 12.3575L8.01689 14.2391L10.2264 16.1207C10.3931 16.2627 10.413 16.5128 10.2713 16.6792C10.1928 16.7714 10.0814 16.8188 9.96928 16.8188Z"></path><path fill="black" d="M15.0307 16.8188C14.9186 16.8188 14.8072 16.7714 14.7289 16.6792C14.5869 16.5128 14.6071 16.2627 14.7736 16.1207L16.9831 14.2391L14.7736 12.3575C14.6071 12.2157 14.5869 11.9657 14.7289 11.7989C14.8706 11.6324 15.1209 11.6123 15.2872 11.7543L17.8512 13.9375C17.9396 14.0129 17.9905 14.123 17.9905 14.2391C17.9905 14.3554 17.9396 14.4655 17.8512 14.5409L15.2872 16.7241C15.2127 16.7876 15.1214 16.8188 15.0307 16.8188Z"></path><path fill="black" d="M11.5924 18.4562C11.5652 18.4562 11.5378 18.4533 11.5102 18.4476C11.2961 18.4025 11.159 18.1922 11.2041 17.9782L12.8021 10.3913C12.8472 10.1772 13.0573 10.0401 13.2715 10.0852C13.4855 10.1304 13.6226 10.3404 13.5775 10.5547L11.9796 18.1416C11.9402 18.3282 11.7757 18.4562 11.5924 18.4562Z"></path><path fill="black" d="M21.8396 22.5897H3.16038C1.69354 22.5897 0.5 21.3964 0.5 19.9293V4.07542C0.5 2.60858 1.69354 1.41504 3.16038 1.41504H21.8396C23.3065 1.41504 24.5 2.60858 24.5 4.07542V19.9293C24.5 21.3964 23.3065 22.5897 21.8396 22.5897ZM3.16038 2.20749C2.13045 2.20749 1.29245 3.04549 1.29245 4.07542V19.9293C1.29245 20.9593 2.13045 21.7973 3.16038 21.7973H21.8396C22.8695 21.7973 23.7075 20.9593 23.7075 19.9293V4.07542C23.7075 3.04549 22.8695 2.20749 21.8396 2.20749H3.16038Z"></path><path fill="black" d="M24.1038 7.75974H0.896226C0.677329 7.75974 0.5 7.58241 0.5 7.36351C0.5 7.14484 0.677329 6.96729 0.896226 6.96729H24.1038C24.3227 6.96729 24.5 7.14484 24.5 7.36351C24.5 7.58241 24.3227 7.75974 24.1038 7.75974Z"></path><path fill="black" d="M7.27002 5.86377C6.57883 5.86377 6.01611 5.30105 6.01611 4.60986C6.01611 3.91846 6.57883 3.35596 7.27002 3.35596C7.96143 3.35596 8.52393 3.91846 8.52393 4.60986C8.52393 5.30105 7.96143 5.86377 7.27002 5.86377ZM7.27002 4.14841C7.01574 4.14841 6.80857 4.35537 6.80857 4.60986C6.80857 4.86436 7.01574 5.07132 7.27002 5.07132C7.52452 5.07132 7.73147 4.86436 7.73147 4.60986C7.73147 4.35537 7.52452 4.14841 7.27002 4.14841Z"></path><path fill="black" d="M3.41724 5.85156C2.72583 5.85156 2.16333 5.28906 2.16333 4.59766C2.16333 3.90625 2.72583 3.34375 3.41724 3.34375C4.10864 3.34375 4.67114 3.90625 4.67114 4.59766C4.67114 5.28906 4.10864 5.85156 3.41724 5.85156ZM3.41724 4.1362C3.16296 4.1362 2.95578 4.34338 2.95578 4.59766C2.95578 4.85215 3.16296 5.05911 3.41724 5.05911C3.67173 5.05911 3.87869 4.85215 3.87869 4.59766C3.87869 4.34338 3.67173 4.1362 3.41724 4.1362Z"></path><path fill="black" d="M11.1226 5.87576C10.4314 5.87576 9.8689 5.31326 9.8689 4.62185C9.8689 3.93066 10.4314 3.36816 11.1226 3.36816C11.814 3.36816 12.3765 3.93066 12.3765 4.62185C12.3765 5.31326 11.814 5.87576 11.1226 5.87576ZM11.1226 4.1604C10.8683 4.1604 10.6613 4.36735 10.6613 4.62185C10.6613 4.87635 10.8683 5.0833 11.1226 5.0833C11.3771 5.0833 11.584 4.87635 11.584 4.62185C11.584 4.36735 11.3771 4.1604 11.1226 4.1604Z"></path></g><defs><clipPath id="clip0_16041_121"><rect transform="translate(0.5)" fill="white" height="24" width="24"></rect></clipPath></defs></svg>