<svg xmlns="http://www.w3.org/2000/svg" fill="none" viewBox="0 0 24 24" height="24" width="24"><g clip-path="url(#clip0_16041_96)"><path fill="black" d="M2.18182 0C0.982529 0 0 0.982529 0 2.18182V5.45455H1.09091H22.9091V16.3636C22.9091 16.9774 22.432 17.4545 21.8182 17.4545H13.6278C13.6329 17.3613 13.6364 17.2678 13.6364 17.1744C13.6364 15.1859 12.4968 13.4026 10.7621 12.5412C11.1942 12.022 11.4545 11.3554 11.4545 10.631C11.4545 8.9833 10.1062 7.63636 8.45774 7.63636C6.80925 7.63636 5.45987 8.9833 5.45987 10.631C5.45987 11.3554 5.72104 12.022 6.15341 12.5412C4.41876 13.4028 3.27805 15.1859 3.27805 17.1744C3.27805 17.2679 3.28139 17.3613 3.28658 17.4545H2.18182C1.56802 17.4545 1.09091 16.9774 1.09091 16.3636V6.54545H0V16.3636C0 17.5629 0.982529 18.5455 2.18182 18.5455H21.8182C23.0175 18.5455 24 17.5629 24 16.3636V2.18182C24 0.982529 23.0175 0 21.8182 0H2.18182ZM2.18182 1.09091H21.8182C22.432 1.09091 22.9091 1.56802 22.9091 2.18182V4.36364H1.09091V2.18182C1.09091 1.56802 1.56802 1.09091 2.18182 1.09091ZM8.45774 8.72727C9.51726 8.72727 10.3636 9.57345 10.3636 10.631C10.3636 11.6886 9.51726 12.5348 8.45774 12.5348C7.39823 12.5348 6.55078 11.6886 6.55078 10.631C6.55078 9.57345 7.39823 8.72727 8.45774 8.72727ZM7.12926 13.3136C7.53032 13.5133 7.98139 13.6257 8.45774 13.6257C8.93409 13.6257 9.38529 13.5133 9.78622 13.3136C11.4313 13.8772 12.5455 15.4205 12.5455 17.1744C12.5455 17.2679 12.5413 17.3612 12.5348 17.4545H4.37962C4.37311 17.3613 4.36896 17.268 4.36896 17.1744C4.36896 15.4202 5.48408 13.877 7.12926 13.3136Z"></path><path fill="black" d="M5.45455 19.6362C4.44441 19.6362 3.58971 20.3355 3.34517 21.2726H0V22.3635H3.34517C3.58971 23.3006 4.44441 23.9999 5.45455 23.9999C6.46498 23.9999 7.32181 23.301 7.56605 22.3635H24V21.2726H7.56605C7.32181 20.3351 6.46498 19.6362 5.45455 19.6362ZM5.45455 20.7271C6.0635 20.7271 6.54545 21.2091 6.54545 21.818C6.54545 22.427 6.0635 22.909 5.45455 22.909C4.84559 22.909 4.36364 22.427 4.36364 21.818C4.36364 21.2091 4.84559 20.7271 5.45455 20.7271Z"></path><path fill-opacity="0.999" fill="black" d="M16.0834 7.70456C16.0004 7.65833 15.9066 7.63463 15.8116 7.63578C15.7165 7.63694 15.6234 7.66292 15.5415 7.71115C15.4595 7.75938 15.3916 7.82819 15.3445 7.91075C15.2974 7.99331 15.2726 8.08676 15.2727 8.18183V13.6364C15.2726 13.7314 15.2974 13.8249 15.3445 13.9075C15.3916 13.99 15.4595 14.0588 15.5415 14.107C15.6234 14.1553 15.7165 14.1813 15.8116 14.1824C15.9066 14.1836 16.0004 14.1599 16.0834 14.1136L20.9925 11.3864C21.0778 11.3392 21.1488 11.27 21.1983 11.1861C21.2478 11.1022 21.2739 11.0065 21.2739 10.9091C21.2739 10.8117 21.2478 10.716 21.1983 10.6321C21.1488 10.5482 21.0778 10.479 20.9925 10.4318L16.0834 7.70456ZM16.3636 9.10974L19.6033 10.9091L16.3636 12.7095V9.10974Z"></path><path fill="black" d="M20.7273 2.18164V3.27255H21.8182V2.18164H20.7273Z"></path><path fill="black" d="M18.5454 2.18164V3.27255H19.6363V2.18164H18.5454Z"></path><path fill="black" d="M16.3635 2.18164V3.27255H17.4544V2.18164H16.3635Z"></path><path fill="black" d="M14.1819 2.18164V3.27255H15.2728V2.18164H14.1819Z"></path></g><defs><clipPath id="clip0_16041_96"><rect fill="white" height="24" width="24"></rect></clipPath></defs></svg>