<svg xmlns="http://www.w3.org/2000/svg" fill="none" viewBox="0 0 24 24" height="24" width="24"><g clip-path="url(#clip0_16041_71)"><path fill="black" d="M22.4025 5.59521H16.1609C15.9399 5.59521 15.7608 5.77437 15.7608 5.9953C15.7608 6.21628 15.94 6.39539 16.1609 6.39539H22.4025C22.6231 6.39539 22.8026 6.57491 22.8026 6.79547V8.79599H16.3811C16.1601 8.79599 15.981 8.97514 15.981 9.19608C15.981 9.41701 16.1601 9.59616 16.3811 9.59616H22.8026V22.7995C22.8026 23.02 22.6231 23.1996 22.4025 23.1996H1.59728C1.37672 23.1996 1.19719 23.02 1.19719 22.7995V9.59616H7.61871C7.83969 9.59616 8.0188 9.41701 8.0188 9.19608C8.0188 8.97514 7.83964 8.79599 7.61871 8.79599H1.19714V6.79547C1.19714 6.57491 1.37667 6.39539 1.59723 6.39539H7.83889C8.05987 6.39539 8.23898 6.21623 8.23898 5.9953C8.23898 5.77432 8.05983 5.59521 7.83889 5.59521H1.59728C0.935374 5.59521 0.396973 6.13362 0.396973 6.79552V22.7995C0.396973 23.4614 0.935374 23.9998 1.59728 23.9998H22.4025C23.0644 23.9998 23.6028 23.4614 23.6028 22.7995V6.79552C23.6028 6.13362 23.0644 5.59521 22.4025 5.59521Z"></path><path fill="black" d="M2.11336 7.31174C2.04125 7.38774 1.99731 7.48775 1.99731 7.59578C1.99731 7.7038 2.04125 7.80386 2.11336 7.87982C2.18936 7.95169 2.28937 7.99586 2.3974 7.99586C2.50135 7.99586 2.60548 7.95169 2.68144 7.87982C2.75332 7.80381 2.79748 7.69968 2.79748 7.59578C2.79748 7.49164 2.75332 7.38769 2.68144 7.31174C2.52929 7.16367 2.26124 7.16367 2.11336 7.31174Z"></path><path fill="black" d="M3.7137 7.31174C3.64159 7.38774 3.59766 7.49169 3.59766 7.59578C3.59766 7.69972 3.64164 7.80386 3.7137 7.87982C3.7897 7.95169 3.89365 7.99586 3.99774 7.99586C4.10169 7.99586 4.20582 7.95169 4.28178 7.87982C4.35366 7.80381 4.39783 7.69968 4.39783 7.59578C4.39783 7.49164 4.35366 7.38769 4.28178 7.31174C4.12963 7.16367 3.86163 7.16367 3.7137 7.31174Z"></path><path fill="black" d="M5.31429 7.31173C5.24218 7.38773 5.19824 7.49168 5.19824 7.59577C5.19824 7.7038 5.24218 7.80385 5.31429 7.87573C5.39029 7.95173 5.4903 7.9959 5.59833 7.9959C5.70635 7.9959 5.80641 7.95173 5.88237 7.87986C5.95424 7.80385 5.99841 7.70384 5.99841 7.59582C5.99841 7.49168 5.95424 7.38773 5.88237 7.31178C5.7343 7.16366 5.46217 7.16366 5.31429 7.31173Z"></path><path fill="black" d="M6.07489 13.7621C5.99401 13.8734 5.97582 14.0184 6.02683 14.1462L6.82705 16.1467C6.87196 16.2588 6.96536 16.3448 7.08103 16.3803C7.11953 16.3922 7.15919 16.3981 7.19862 16.3981C7.27735 16.3981 7.35551 16.3748 7.42232 16.3297L9.65629 14.8236C9.79643 15.2192 9.92462 15.5405 10.0111 15.7503C10.0113 15.7509 10.0118 15.7513 10.0121 15.7518C10.0324 15.8006 10.062 15.8446 10.0989 15.8813C10.1161 15.8985 10.1385 15.9078 10.1584 15.9214C10.181 15.937 10.2011 15.9561 10.2268 15.9669C10.2748 15.987 10.3267 15.9975 10.3796 15.9977C10.3801 15.9977 10.3805 15.998 10.3811 15.998H10.5522L10.0416 17.0194C9.97962 17.1434 9.98628 17.2907 10.0591 17.4087C10.132 17.5265 10.2608 17.5984 10.3994 17.5984H13.6003C13.739 17.5984 13.8677 17.5265 13.9406 17.4087C14.0134 17.2907 14.0201 17.1434 13.9582 17.0194L13.4475 15.998H13.5002C13.5208 15.998 13.5386 15.9893 13.5584 15.9862C13.5785 15.9893 13.5984 15.9982 13.6184 15.9982C13.7757 15.9982 13.9249 15.9048 13.9886 15.7503C14.075 15.5405 14.2033 15.2191 14.3435 14.8236L16.5773 16.3297C16.6442 16.3748 16.7223 16.3981 16.801 16.3981C16.8405 16.3981 16.8801 16.3922 16.9186 16.3803C17.0343 16.3447 17.1277 16.2588 17.1726 16.1466L17.9728 14.1461C18.0239 14.0184 18.0057 13.8734 17.9248 13.762L15.4731 10.3915C15.6787 8.7797 15.6659 6.93156 15.1049 5.03447C14.5823 3.26839 13.6377 1.61703 12.2973 0.126594C12.1453 -0.0421981 11.8542 -0.0421981 11.7022 0.126594C10.3615 1.6176 9.41689 3.269 8.89471 5.03447C8.33371 6.93156 8.32091 8.77974 8.52655 10.3915L6.07489 13.7621ZM11.0468 16.7982L11.4469 15.998H12.5526L12.9527 16.7982H11.0468ZM15.2943 11.5062L17.1476 14.0541L16.6137 15.3891L14.614 14.041C14.8405 13.3608 15.099 12.4976 15.2943 11.5062ZM9.6621 5.2615C10.1109 3.7441 10.8964 2.31349 11.9998 1.00338C13.1028 2.31307 13.8883 3.74373 14.3375 5.2615C14.8826 7.10462 14.8826 8.88252 14.6687 10.4329C14.6674 10.4402 14.6667 10.4472 14.6657 10.4546C14.4246 12.1834 13.9179 13.627 13.5931 14.5453C13.5034 14.7994 13.4198 15.0175 13.3483 15.1978H10.6512C10.5798 15.0175 10.4962 14.7993 10.4064 14.5451C10.0816 13.627 9.57499 12.1834 9.33385 10.4546C9.33291 10.4472 9.33225 10.4403 9.33094 10.433C9.117 8.88252 9.117 7.10462 9.6621 5.2615ZM9.38566 14.0409L7.38594 15.3891L6.85199 14.0541L8.70528 11.5062C8.90061 12.4975 9.15915 13.3608 9.38566 14.0409Z"></path><path fill="black" d="M11.5999 19.5988V20.7991C11.5999 21.0201 11.779 21.1992 11.9999 21.1992C12.2209 21.1992 12.4 21.02 12.4 20.7991V19.5988C12.4 19.3778 12.2209 19.1987 11.9999 19.1987C11.779 19.1987 11.5999 19.3779 11.5999 19.5988Z"></path><path fill="black" d="M9.99951 18.7985V19.9988C9.99951 20.2198 10.1787 20.3989 10.3996 20.3989C10.6205 20.3989 10.7997 20.2198 10.7997 19.9988V18.7985C10.7997 18.5775 10.6205 18.3984 10.3996 18.3984C10.1787 18.3984 9.99951 18.5775 9.99951 18.7985Z"></path><path fill="black" d="M13.6003 18.3984C13.3793 18.3984 13.2002 18.5776 13.2002 18.7985V19.9988C13.2002 20.2198 13.3793 20.3989 13.6003 20.3989C13.8212 20.3989 14.0004 20.2198 14.0004 19.9988V18.7985C14.0004 18.5776 13.8212 18.3984 13.6003 18.3984Z"></path><path fill="black" d="M11.9998 9.19635C13.1028 9.19635 14.0003 8.29884 14.0003 7.19583C14.0003 6.09282 13.1028 5.19531 11.9998 5.19531C10.8968 5.19531 9.99927 6.09282 9.99927 7.19583C9.99931 8.29884 10.8968 9.19635 11.9998 9.19635ZM11.9998 5.99553C12.6617 5.99553 13.2001 6.53393 13.2001 7.19583C13.2001 7.85773 12.6617 8.39613 11.9998 8.39613C11.3379 8.39613 10.7995 7.85773 10.7995 7.19583C10.7995 6.53393 11.3379 5.99553 11.9998 5.99553Z"></path></g><defs><clipPath id="clip0_16041_71"><rect fill="white" height="24" width="24"></rect></clipPath></defs></svg>