<svg xmlns="http://www.w3.org/2000/svg" fill="none" viewBox="0 0 24 24" height="24" width="24"><g clip-path="url(#clip0_16041_1187)"><mask height="24" width="24" y="0" x="0" maskUnits="userSpaceOnUse" style="mask-type:luminance" id="mask0_16041_1187"><path fill="white" d="M0 1.90735e-06H24V24H0V1.90735e-06Z"></path></mask><g mask="url(#mask0_16041_1187)"><path stroke-linejoin="round" stroke-linecap="round" stroke-miterlimit="10" stroke="black" d="M0.478271 5.40088H23.5202"></path></g><path stroke-linejoin="round" stroke-linecap="round" stroke-miterlimit="10" stroke="black" d="M18.167 2.93506H18.1697"></path><path stroke-linejoin="round" stroke-linecap="round" stroke-miterlimit="10" stroke="black" d="M20.6956 2.93506H20.6982"></path><path stroke-linejoin="round" stroke-linecap="round" stroke-miterlimit="10" stroke="black" d="M15.6399 2.93506H15.6426"></path><path stroke-linejoin="round" stroke-linecap="round" stroke-miterlimit="10" stroke="black" d="M3.30176 2.93506H10.3384"></path><mask height="24" width="24" y="0" x="0" maskUnits="userSpaceOnUse" style="mask-type:luminance" id="mask1_16041_1187"><path fill="white" d="M0 1.90735e-06H24V24H0V1.90735e-06Z"></path></mask><g mask="url(#mask1_16041_1187)"><path stroke-linejoin="round" stroke-linecap="round" stroke-miterlimit="10" stroke="black" d="M7.83118 0.46875H22.4865C23.0552 0.46875 23.5216 0.933797 23.5216 1.50248V22.4962C23.5216 23.0649 23.0552 23.5312 22.4865 23.5312H1.51201C0.943318 23.5312 0.478271 23.0649 0.478271 22.4962V1.50248C0.478271 0.933797 0.943318 0.46875 1.51201 0.46875H3.62194"></path><path stroke-linejoin="round" stroke-linecap="round" stroke-miterlimit="10" stroke="black" d="M2.90576 10.6835H13.3984V18.6172H2.90576V10.6835Z"></path><path stroke-linejoin="round" stroke-linecap="round" stroke-miterlimit="10" stroke="black" d="M2.90576 18.6177L6.4294 13.0663L9.95173 18.6177"></path><path stroke-linejoin="round" stroke-linecap="round" stroke-miterlimit="10" stroke="black" d="M8.78125 16.7721L10.5046 14.0575L13.3984 18.6177"></path><path stroke-linejoin="round" stroke-linecap="round" stroke-miterlimit="10" stroke="black" d="M15.8457 12.6836H21.074"></path><path stroke-linejoin="round" stroke-linecap="round" stroke-miterlimit="10" stroke="black" d="M15.8457 15.2812H21.074"></path><path stroke-linejoin="round" stroke-linecap="round" stroke-miterlimit="10" stroke="black" d="M5.72923 0.46875H5.72656"></path></g></g><defs><clipPath id="clip0_16041_1187"><rect fill="white" height="24" width="24"></rect></clipPath></defs></svg>