<svg xmlns="http://www.w3.org/2000/svg" fill="none" viewBox="0 0 25 24" height="24" width="25"><path fill="black" d="M20.0776 14.3558C20.1024 14.2762 20.1503 14.2057 20.2152 14.1535C20.2802 14.1012 20.3593 14.0696 20.4424 14.0625H20.9375C21.3352 14.062 21.7165 13.9039 21.9977 13.6227C22.2789 13.3415 22.437 12.9602 22.4375 12.5625V10.6875C22.437 10.2898 22.2789 9.90855 21.9977 9.62734C21.7165 9.34614 21.3352 9.18795 20.9375 9.1875H20.4424C20.3596 9.18058 20.2808 9.14915 20.2159 9.09723C20.1511 9.04531 20.1032 8.97526 20.0784 8.896C19.9912 8.65832 19.896 8.42908 19.7891 8.19068C19.7496 8.11716 19.7339 8.03318 19.7443 7.95037C19.7546 7.86756 19.7905 7.79002 19.8469 7.72852L20.1875 7.38025C20.3284 7.24047 20.4399 7.07393 20.5155 6.89041C20.5911 6.7069 20.6293 6.51012 20.6277 6.31165C20.6277 6.11661 20.5888 5.92354 20.5132 5.74375C20.4376 5.56396 20.3269 5.40107 20.1875 5.26465L18.864 3.94079C18.7271 3.80049 18.5635 3.68896 18.3829 3.61274C18.2023 3.53653 18.0083 3.49716 17.8123 3.49695H17.8049C17.6089 3.49626 17.4148 3.53441 17.2336 3.6092C17.0525 3.684 16.8879 3.79395 16.7495 3.9327L16.387 4.28756C16.3236 4.3412 16.2454 4.37416 16.1628 4.38201C16.0802 4.38987 15.9971 4.37224 15.9248 4.33151C15.6955 4.22897 15.4656 4.13375 15.2312 4.04806C15.1514 4.02327 15.0809 3.97525 15.0286 3.91014C14.9762 3.84504 14.9445 3.76581 14.9375 3.68258V3.1875C14.937 2.78981 14.7789 2.40855 14.4977 2.12734C14.2164 1.84614 13.8352 1.68795 13.4375 1.6875H11.5625C11.1648 1.68795 10.7835 1.84614 10.5023 2.12734C10.2211 2.40855 10.0629 2.78981 10.0625 3.1875V3.68262C10.0556 3.76535 10.0243 3.84418 9.97256 3.90907C9.92078 3.97395 9.85087 4.02197 9.77172 4.047C9.53442 4.13379 9.30447 4.229 9.0664 4.33557C8.99276 4.37497 8.90872 4.3906 8.82583 4.3803C8.74294 4.37001 8.66528 4.33429 8.60351 4.27808L8.25487 3.93713C8.11619 3.79722 7.95108 3.68625 7.76915 3.61069C7.58721 3.53512 7.39207 3.49646 7.19507 3.49695H7.18775C6.99256 3.49699 6.79934 3.53593 6.61938 3.61151C6.43942 3.68709 6.27634 3.79779 6.13965 3.93713L4.8169 5.26025C4.67637 5.39696 4.56463 5.56042 4.48828 5.74099C4.41192 5.92156 4.3725 6.1156 4.37232 6.31165C4.37058 6.50915 4.40821 6.70501 4.48303 6.8878C4.55785 7.07058 4.66835 7.23663 4.80807 7.37622L5.16256 7.73731C5.21639 7.80061 5.24948 7.87893 5.25734 7.96165C5.2652 8.04438 5.24745 8.12752 5.20651 8.19983C5.10397 8.42908 5.00875 8.65832 4.92232 8.89417C4.89761 8.9738 4.8497 9.04425 4.78473 9.09651C4.71975 9.14876 4.64066 9.18045 4.55758 9.1875H4.0625C3.66481 9.18795 3.28355 9.34614 3.00234 9.62734C2.72114 9.90855 2.56295 10.2898 2.5625 10.6875V12.5625C2.56295 12.9602 2.72114 13.3415 3.00234 13.6227C3.28355 13.9039 3.66481 14.062 4.0625 14.0625H4.55762C4.64039 14.0694 4.71922 14.1008 4.78406 14.1528C4.84889 14.2047 4.89679 14.2747 4.92163 14.354C5.00879 14.5917 5.104 14.8209 5.21094 15.059C5.25045 15.1325 5.26611 15.2166 5.25574 15.2994C5.24537 15.3823 5.2095 15.4599 5.15308 15.5215L4.8125 15.8698C4.67159 16.0095 4.56006 16.1761 4.48446 16.3596C4.40887 16.5431 4.37074 16.7399 4.37232 16.9384C4.37229 17.1334 4.41121 17.3265 4.4868 17.5063C4.56239 17.686 4.67312 17.8489 4.8125 17.9854L5.96734 19.1408L5.95728 19.1569C5.76216 19.4691 5.65418 19.8278 5.64452 20.1959C5.63487 20.5639 5.7239 20.9278 5.90237 21.2498C6.08085 21.5718 6.34226 21.8402 6.65947 22.0271C6.97669 22.2139 7.33814 22.3125 7.7063 22.3125H17.2937C17.6619 22.3125 18.0233 22.2139 18.3405 22.0271C18.6577 21.8402 18.9191 21.5718 19.0976 21.2498C19.2761 20.9278 19.3651 20.5639 19.3555 20.1958C19.3458 19.8278 19.2378 19.4691 19.0427 19.1569L19.0325 19.1406L20.1831 17.9897C20.3237 17.853 20.4354 17.6896 20.5118 17.509C20.5881 17.3284 20.6275 17.1344 20.6277 16.9384C20.6294 16.7409 20.5918 16.545 20.517 16.3622C20.4422 16.1794 20.3317 16.0134 20.1919 15.8738L19.8374 15.5127C19.7836 15.4494 19.7505 15.3711 19.7427 15.2883C19.7348 15.2056 19.7525 15.1225 19.7935 15.0502C19.896 14.8209 19.9912 14.5917 20.0776 14.3558ZM18.1133 20.7045C18.0332 20.8517 17.9147 20.9743 17.7703 21.0594C17.626 21.1444 17.4612 21.1887 17.2937 21.1875H7.7063C7.539 21.1874 7.37477 21.1425 7.23065 21.0575C7.08653 20.9725 6.96775 20.8506 6.88661 20.7043C6.80548 20.558 6.76495 20.3926 6.76922 20.2254C6.77348 20.0581 6.8224 19.895 6.91089 19.753L11.7046 12.0831C11.793 11.9538 11.9117 11.8479 12.0503 11.7748C12.1889 11.7017 12.3433 11.6635 12.5 11.6635C12.6567 11.6635 12.8111 11.7017 12.9497 11.7748C13.0883 11.8479 13.207 11.9538 13.2954 12.0831L18.0891 19.753C18.1789 19.8946 18.2285 20.0579 18.2328 20.2254C18.237 20.393 18.1957 20.5586 18.1133 20.7045ZM14.249 11.487C14.0636 11.1904 13.8058 10.9458 13.4998 10.7762C13.1939 10.6066 12.8498 10.5176 12.5 10.5176C12.1502 10.5176 11.8061 10.6066 11.5002 10.7762C11.1942 10.9458 10.9364 11.1904 10.751 11.487L8.73755 14.7085C8.14983 13.9952 7.777 13.1295 7.66253 12.2123C7.54806 11.2952 7.69668 10.3644 8.09104 9.52849C8.48541 8.69258 9.10927 7.98601 9.8899 7.49116C10.6705 6.99631 11.5757 6.73356 12.5 6.73356C13.4243 6.73356 14.3295 6.99631 15.1101 7.49116C15.8907 7.98601 16.5146 8.69258 16.909 9.52849C17.3033 10.3644 17.4519 11.2952 17.3375 12.2123C17.223 13.1295 16.8502 13.9952 16.2624 14.7085L14.249 11.487ZM19.0427 16.3089L19.3921 16.6652C19.4274 16.7002 19.4553 16.7418 19.4743 16.7877C19.4933 16.8336 19.503 16.8829 19.5027 16.9326C19.5026 16.9807 19.4928 17.0284 19.4738 17.0726C19.4548 17.1169 19.427 17.1568 19.3921 17.19L18.4205 18.1615L16.8844 15.7037C17.6827 14.8492 18.2138 13.7801 18.4126 12.6278C18.6114 11.4755 18.4692 10.2903 18.0034 9.21773C17.5376 8.14519 16.7686 7.23212 15.7908 6.59078C14.8131 5.94943 13.6693 5.60776 12.5 5.60776C11.3307 5.60776 10.1868 5.94943 9.20909 6.59078C8.23135 7.23212 7.46232 8.14519 6.99654 9.21773C6.53076 10.2903 6.38852 11.4755 6.58732 12.6278C6.78611 13.7801 7.31727 14.8492 8.11551 15.7037L6.57928 18.1616L5.60353 17.1855C5.56978 17.1526 5.54299 17.1133 5.52474 17.0698C5.5065 17.0263 5.49718 16.9796 5.49733 16.9325C5.49722 16.8818 5.50735 16.8317 5.52711 16.7851C5.54687 16.7384 5.57586 16.6963 5.61232 16.6611L5.94777 16.3176C6.1684 16.0946 6.31437 15.8085 6.36553 15.499C6.4167 15.1895 6.37053 14.8717 6.23341 14.5895C6.14116 14.3844 6.05616 14.1786 5.97706 13.964C5.87258 13.6691 5.68084 13.4129 5.4273 13.2295C5.17376 13.0462 4.87043 12.9443 4.55762 12.9375H4.0625C3.96308 12.9374 3.86778 12.8978 3.79748 12.8275C3.72718 12.7572 3.68763 12.6619 3.6875 12.5625V10.6875C3.68763 10.5881 3.72718 10.4928 3.79748 10.4225C3.86778 10.3522 3.96308 10.3126 4.0625 10.3125H4.55762C4.87075 10.3055 5.17434 10.2034 5.42802 10.0198C5.6817 9.83606 5.87346 9.5795 5.97778 9.28418C6.05615 9.07141 6.14111 8.8656 6.22903 8.66931C6.36784 8.38848 6.41625 8.07155 6.36759 7.76209C6.31893 7.45263 6.1756 7.16584 5.95731 6.94116L5.60794 6.58484C5.57264 6.54988 5.54468 6.50823 5.52569 6.46233C5.5067 6.41642 5.49706 6.36718 5.49735 6.3175C5.49741 6.26934 5.50724 6.22169 5.52625 6.17744C5.54526 6.13319 5.57305 6.09326 5.60794 6.06006L6.93875 4.72889C6.97186 4.69504 7.0114 4.66815 7.05504 4.64979C7.09869 4.63143 7.14555 4.62196 7.1929 4.62195C7.29458 4.6244 7.39149 4.66552 7.4639 4.73694L7.8074 5.07275C8.03035 5.29343 8.31633 5.43944 8.62583 5.49061C8.93532 5.54177 9.25307 5.49558 9.53519 5.3584C9.741 5.26648 9.94608 5.18115 10.1614 5.10205C10.4577 4.9998 10.7153 4.80861 10.8989 4.55458C11.0825 4.30055 11.1833 3.99604 11.1875 3.68262V3.1875C11.1876 3.08808 11.2272 2.99278 11.2975 2.92248C11.3678 2.85218 11.4631 2.81263 11.5625 2.8125H13.4375C13.5369 2.81263 13.6322 2.85218 13.7025 2.92248C13.7728 2.99278 13.8124 3.08808 13.8125 3.1875V3.68262C13.8169 3.99655 13.918 4.30147 14.1022 4.55573C14.2864 4.80998 14.5446 5.00115 14.8416 5.10312C15.054 5.18112 15.259 5.26645 15.4561 5.35437C15.7368 5.49304 16.0535 5.54133 16.3628 5.49261C16.6721 5.44388 16.9586 5.30053 17.1831 5.08228L17.5405 4.73254C17.5751 4.69759 17.6163 4.66982 17.6617 4.65084C17.7071 4.63186 17.7557 4.62204 17.8049 4.62195C17.9013 4.62958 17.9926 4.66841 18.0649 4.73254L19.3965 6.06446C19.4302 6.09737 19.457 6.13673 19.4753 6.1802C19.4935 6.22367 19.5028 6.27036 19.5027 6.3175C19.5028 6.36815 19.4927 6.4183 19.4729 6.46493C19.4531 6.51157 19.4242 6.55372 19.3877 6.58887L19.0522 6.93237C18.8316 7.15543 18.6856 7.44146 18.6345 7.751C18.5833 8.06054 18.6295 8.37833 18.7666 8.66052C18.8589 8.8656 18.9438 9.07141 19.023 9.28602C19.1274 9.58095 19.3192 9.8371 19.5727 10.0204C19.8262 10.2038 20.1296 10.3057 20.4424 10.3125H20.9375C21.0369 10.3126 21.1322 10.3522 21.2025 10.4225C21.2728 10.4928 21.3124 10.5881 21.3125 10.6875V12.5625C21.3124 12.6619 21.2728 12.7572 21.2025 12.8275C21.1322 12.8978 21.0369 12.9374 20.9375 12.9375H20.4424C20.1293 12.9445 19.8257 13.0466 19.572 13.2302C19.3183 13.4139 19.1265 13.6705 19.0222 13.9658C18.9438 14.1786 18.8589 14.3844 18.771 14.5807C18.6322 14.8615 18.5838 15.1785 18.6324 15.4879C18.6811 15.7974 18.8244 16.0842 19.0427 16.3089Z"></path><path fill="black" d="M12.5 14.8125C12.3508 14.8125 12.2078 14.8718 12.1023 14.9773C11.9968 15.0828 11.9375 15.2258 11.9375 15.375V17.625C11.9375 17.7742 11.9968 17.9173 12.1023 18.0227C12.2077 18.1282 12.3508 18.1875 12.5 18.1875C12.6492 18.1875 12.7923 18.1282 12.8977 18.0227C13.0032 17.9173 13.0625 17.7742 13.0625 17.625V15.375C13.0625 15.2258 13.0032 15.0828 12.8977 14.9773C12.7922 14.8718 12.6492 14.8125 12.5 14.8125Z"></path><path fill="black" d="M12.5 20.0625C12.8107 20.0625 13.0625 19.8107 13.0625 19.5C13.0625 19.1893 12.8107 18.9375 12.5 18.9375C12.1893 18.9375 11.9375 19.1893 11.9375 19.5C11.9375 19.8107 12.1893 20.0625 12.5 20.0625Z"></path></svg>