<svg xmlns="http://www.w3.org/2000/svg" fill="none" viewBox="0 0 25 24" height="24" width="25"><g clip-path="url(#clip0_16041_57)"><path fill="black" d="M13.1593 18.8514H11.8413C11.1757 18.8514 10.634 18.3136 10.634 17.6529V17.0955C10.634 17.0005 10.5699 16.9129 10.4709 16.8717C10.3637 16.8286 10.2579 16.8448 10.1913 16.9104L9.7921 17.3066C9.32094 17.7734 8.55493 17.7734 8.08425 17.3066L7.15221 16.3814C6.68154 15.9147 6.68154 15.1541 7.15221 14.6873L7.55138 14.2911C7.61799 14.225 7.63513 14.1202 7.59497 14.0237C7.54991 13.9154 7.46175 13.8518 7.36526 13.8518H6.80349C6.13739 13.8518 5.5957 13.314 5.5957 12.6533V11.3451C5.5957 10.6844 6.13739 10.1471 6.80349 10.1471H7.36526C7.46126 10.1471 7.54991 10.0834 7.59105 9.98449C7.63513 9.8787 7.61799 9.7734 7.55138 9.70727L7.15221 9.31105C6.68154 8.8438 6.68154 8.08318 7.15221 7.61642L8.08425 6.69173C8.54023 6.23868 9.33563 6.23868 9.7921 6.69173L10.1913 7.08795C10.2579 7.15407 10.3642 7.17122 10.4611 7.13105C10.5704 7.08648 10.6345 6.99881 10.6345 6.90331V6.34545C10.6345 5.68475 11.1762 5.14697 11.8418 5.14697H13.1598C13.8254 5.14697 14.3676 5.68426 14.3676 6.34545V6.90331C14.3676 6.99881 14.4317 7.08648 14.5307 7.12714C14.6379 7.17122 14.7437 7.15407 14.8103 7.08795L15.2095 6.69173C15.665 6.23868 16.4614 6.23868 16.9169 6.69173L17.8489 7.61642C18.3196 8.08318 18.3196 8.8438 17.8489 9.31105L17.4497 9.70727C17.3831 9.7729 17.366 9.87821 17.4066 9.97518C17.4517 10.0834 17.5399 10.1471 17.6359 10.1471H18.1976C18.8632 10.1471 19.4054 10.6844 19.4054 11.3451V12.6533C19.4054 13.314 18.8637 13.8518 18.1976 13.8518H17.6359C17.5399 13.8518 17.4512 13.9154 17.4106 14.0134C17.3655 14.1216 17.3822 14.224 17.4497 14.2911L17.8489 14.6873C18.3201 15.1541 18.3201 15.9147 17.8489 16.3814L16.9169 17.3066C16.4462 17.7734 15.6802 17.7734 15.2095 17.3066L14.8103 16.9104C14.7428 16.8433 14.6404 16.8267 14.541 16.8678L14.5307 16.8717C14.4264 16.9202 14.3676 17.004 14.3676 17.0955V17.6529C14.3666 18.3136 13.8249 18.8514 13.1593 18.8514ZM10.3534 15.8863C10.5131 15.8863 10.6747 15.9171 10.8294 15.9803C11.3016 16.1723 11.6013 16.6092 11.6013 17.0955V17.6529C11.6013 17.7842 11.7086 17.8909 11.8413 17.8909H13.1593C13.2916 17.8909 13.3993 17.7842 13.3993 17.6529V17.0955C13.3993 16.6092 13.699 16.1728 14.1624 15.9838L14.1898 15.9725C14.6453 15.7952 15.1551 15.8946 15.4936 16.2316L15.8927 16.6278C15.9863 16.7209 16.1386 16.7209 16.2322 16.6278L17.1642 15.7026C17.2578 15.6096 17.2578 15.4587 17.1642 15.3661L16.765 14.9699C16.4281 14.6354 16.3262 14.1348 16.5001 13.6857L16.5197 13.6387C16.7058 13.1886 17.1456 12.8913 17.6354 12.8913H18.1971C18.3294 12.8913 18.4371 12.7845 18.4371 12.6533V11.3451C18.4371 11.2138 18.3294 11.1071 18.1971 11.1071H17.6354C17.1451 11.1071 16.7053 10.8098 16.5153 10.3494C16.3218 9.88506 16.4212 9.36982 16.765 9.02845L17.1642 8.63222C17.2578 8.53916 17.2578 8.38831 17.1642 8.29525L16.2322 7.37055C16.1709 7.30982 16.0994 7.30052 16.0627 7.30052C16.026 7.30052 15.9545 7.30982 15.8932 7.37055L15.4941 7.76678C15.1502 8.10816 14.6316 8.20758 14.1712 8.01853C13.699 7.82605 13.3998 7.38966 13.3998 6.90331V6.34545C13.3998 6.21419 13.292 6.10742 13.1598 6.10742H11.8418C11.7096 6.10742 11.6018 6.21419 11.6018 6.34545V6.90331C11.6018 7.39015 11.3021 7.82654 10.8383 8.01559C10.371 8.2066 9.85087 8.10865 9.50754 7.76727L9.10838 7.37104C9.04715 7.31031 8.97565 7.30101 8.93842 7.30101C8.9012 7.30101 8.83018 7.31031 8.76896 7.37104L7.83692 8.29574C7.74337 8.3888 7.74337 8.53965 7.83692 8.63271L8.23608 9.02894C8.57991 9.37031 8.67982 9.88555 8.48979 10.3415C8.29584 10.8103 7.85602 11.1075 7.36575 11.1075H6.80398C6.67174 11.1075 6.56399 11.2143 6.56399 11.3456V12.6538C6.56399 12.785 6.67174 12.8918 6.80398 12.8918H7.36575C7.85602 12.8918 8.29584 13.1891 8.48636 13.649C8.67982 14.1138 8.57991 14.629 8.23608 14.9704L7.83692 15.3666C7.74337 15.4597 7.74337 15.6105 7.83692 15.7031L8.76896 16.6283C8.86251 16.7214 9.01483 16.7214 9.10838 16.6283L9.50754 16.2321C9.7348 16.0058 10.0399 15.8863 10.3534 15.8863Z"></path><path fill="black" d="M12.4999 14.6696C11.0169 14.6696 9.81006 13.4721 9.81006 11.9998C9.81006 10.5281 11.0169 9.33057 12.4999 9.33057C13.9834 9.33057 15.1898 10.5281 15.1898 11.9998C15.1898 13.4721 13.9834 14.6696 12.4999 14.6696ZM12.4999 10.2905C11.5502 10.2905 10.7779 11.0575 10.7779 11.9998C10.7779 12.9422 11.5507 13.7092 12.4999 13.7092C13.4491 13.7092 14.2224 12.9422 14.2224 11.9998C14.2224 11.0575 13.4496 10.2905 12.4999 10.2905Z"></path><path fill="black" d="M2.3754 10.7987C2.35238 10.7987 2.32887 10.7972 2.30536 10.7938C2.04088 10.7556 1.8577 10.5122 1.89591 10.2502C2.53066 5.89703 5.86603 2.33832 10.1966 1.39452C10.4557 1.33624 10.7153 1.5013 10.7726 1.76039C10.8299 2.01899 10.6649 2.27563 10.4038 2.33196C6.46503 3.19053 3.43086 6.42746 2.85342 10.3873C2.81864 10.6263 2.61196 10.7987 2.3754 10.7987Z"></path><path fill="black" d="M10.3008 22.1892C10.2665 22.1892 10.2317 22.1853 10.1965 22.178C5.77478 21.2146 2.42814 17.5726 1.86784 13.1157C1.83453 12.8526 2.0226 12.6127 2.28806 12.5798C2.55548 12.55 2.79498 12.7336 2.82829 12.9966C3.33814 17.051 6.38259 20.3643 10.4046 21.2405C10.6657 21.2974 10.8307 21.553 10.7734 21.8126C10.723 22.0364 10.5232 22.1892 10.3008 22.1892Z"></path><path fill="black" d="M14.289 22.2719C14.0584 22.2719 13.8546 22.1078 13.813 21.8747C13.7669 21.6136 13.9428 21.3648 14.2063 21.3188C18.3797 20.591 21.6607 17.1684 22.1852 12.996C22.2185 12.733 22.4575 12.5474 22.7254 12.5792C22.9904 12.6121 23.1785 12.852 23.1457 13.1151C22.5692 17.7023 18.962 21.4647 14.3738 22.265C14.3449 22.2694 14.317 22.2719 14.289 22.2719Z"></path><path fill="black" d="M22.6374 10.7985C22.4008 10.7985 22.1936 10.6261 22.1594 10.3871C21.555 6.24608 18.3592 2.97682 14.2064 2.25245C13.9434 2.20641 13.7675 1.9576 13.8131 1.69655C13.8596 1.43501 14.1114 1.26065 14.3734 1.30669C18.9391 2.10257 22.4527 5.69655 23.1164 10.2495C23.1546 10.512 22.9714 10.7554 22.7074 10.7932C22.6839 10.7971 22.6609 10.7985 22.6374 10.7985Z"></path><path fill="black" d="M9.8127 4.17101C9.75784 4.17101 9.7025 4.1617 9.64813 4.14211C9.39688 4.0515 9.26709 3.77625 9.3577 3.52695L9.98412 1.81274L8.21505 1.17701C7.9638 1.0864 7.83401 0.811146 7.92461 0.56234C8.01571 0.313044 8.29391 0.184233 8.54418 0.274351L10.7683 1.07367C10.8887 1.11726 10.9872 1.20639 11.042 1.32149C11.0964 1.43659 11.1023 1.56883 11.0587 1.68833L10.2682 3.85412C10.1967 4.05003 10.0111 4.17101 9.8127 4.17101Z"></path><path fill="black" d="M22.8431 11.0249C22.7618 11.0249 22.6795 11.0048 22.6041 10.9617L20.5877 9.82051C20.3551 9.68925 20.2742 9.39587 20.4075 9.16568C20.5387 8.93499 20.8346 8.85467 21.0672 8.98642L22.6634 9.89005L23.5959 8.26792C23.7272 8.03772 24.023 7.95691 24.2556 8.08866C24.4883 8.22041 24.5691 8.5133 24.4359 8.74349L23.2638 10.7824C23.1747 10.9377 23.0111 11.0249 22.8431 11.0249Z"></path><path fill="black" d="M15.7511 23.7545C15.6413 23.7545 15.5311 23.7178 15.4405 23.6424L13.6279 22.1343C13.5294 22.0521 13.4682 21.935 13.4569 21.8086C13.4457 21.6818 13.4858 21.5554 13.5681 21.458L15.06 19.6928C15.2319 19.49 15.5365 19.4636 15.7417 19.6331C15.9465 19.8035 15.9734 20.1067 15.802 20.3094L14.6211 21.7068L16.063 22.9067C16.2678 23.0772 16.2947 23.3803 16.1233 23.5831C16.0268 23.6958 15.8897 23.7545 15.7511 23.7545Z"></path><path fill="black" d="M0.983906 15.2501C0.884971 15.2501 0.785546 15.2203 0.699836 15.1581C0.483845 15.0018 0.436336 14.7021 0.593065 14.4871L1.98501 12.5892C2.14223 12.3752 2.44442 12.3272 2.6609 12.4839L4.53772 13.8391C4.75371 13.9953 4.80122 14.2951 4.64449 14.5101C4.48727 14.7241 4.18459 14.7711 3.9686 14.6154L2.48262 13.5423L1.37524 15.0523C1.28071 15.1816 1.13329 15.2501 0.983906 15.2501Z"></path></g><defs><clipPath id="clip0_16041_57"><rect transform="translate(0.5)" fill="white" height="24" width="24"></rect></clipPath></defs></svg>