<svg xmlns="http://www.w3.org/2000/svg" fill="none" viewBox="0 0 24 24" height="24" width="24"><path fill="black" d="M15.6818 11.2015L14.8682 11.3093C14.6962 11.0934 14.5005 10.8976 14.2846 10.7256L14.3923 9.91211L12.9125 9.29883L12.4135 9.9499C12.1387 9.91848 11.8613 9.91848 11.5865 9.9499L11.0874 9.2989L9.60774 9.91214L9.71543 10.7257C9.49962 10.8977 9.30386 11.0935 9.13187 11.3093L8.31839 11.2015L7.70508 12.6813L8.35615 13.1804C8.32467 13.4552 8.32467 13.7326 8.35615 14.0074L7.70508 14.5064L8.31839 15.9862L9.13199 15.8785C9.30398 16.0943 9.49973 16.2901 9.71554 16.4621L9.60774 17.2756L11.0875 17.8888L11.5867 17.2378C11.8614 17.2693 12.1389 17.2693 12.4136 17.2378L12.9128 17.8888L14.3924 17.2756L14.2846 16.4621C14.5005 16.29 14.6963 16.0942 14.8683 15.8784L15.6818 15.9861L16.2951 14.5063L15.644 14.0073C15.6755 13.7325 15.6755 13.455 15.644 13.1803L16.295 12.6812L15.6818 11.2015ZM15.0227 13.0963C15.0771 13.4258 15.0771 13.7619 15.0227 14.0914L14.9935 14.2698L15.5593 14.7036L15.3012 15.3264L14.594 15.2327L14.4882 15.3796C14.2937 15.6504 14.0565 15.8877 13.7858 16.0823L13.6389 16.188L13.7326 16.8953L13.1098 17.1534L12.676 16.5874L12.4976 16.6165C12.1681 16.6707 11.832 16.6707 11.5025 16.6165L11.3241 16.5874L10.8903 17.1531L10.2675 16.895L10.3612 16.1878L10.2143 16.0821C9.94353 15.8876 9.70621 15.6503 9.51163 15.3796L9.4059 15.2327L8.69861 15.3264L8.44055 14.7036L9.00655 14.2698L8.97743 14.0913C8.92301 13.7619 8.92301 13.4257 8.97743 13.0962L9.00658 12.9178L8.44081 12.4841L8.69891 11.8613L9.40613 11.955L9.51186 11.8081C9.70637 11.5373 9.94362 11.3 10.2143 11.1054L10.3612 10.9997L10.2676 10.2924L10.8903 10.0343L11.3242 10.6003L11.5025 10.5712C11.832 10.517 12.1682 10.517 12.4977 10.5712L12.6761 10.6003L13.1099 10.0346L13.7326 10.2927L13.639 10.9999L13.7859 11.1056C14.0566 11.3001 14.2939 11.5374 14.4885 11.8081L14.5943 11.955L15.3016 11.8613L15.5596 12.4841L14.9936 12.9179L15.0227 13.0963Z"></path><path fill="black" d="M11.9999 11.791C11.6433 11.791 11.2947 11.8968 10.9983 12.0948C10.7018 12.2929 10.4707 12.5745 10.3343 12.9039C10.1978 13.2334 10.1621 13.5959 10.2317 13.9456C10.3012 14.2953 10.4729 14.6165 10.7251 14.8687C10.9772 15.1208 11.2984 15.2925 11.6481 15.3621C11.9979 15.4316 12.3604 15.3959 12.6898 15.2595C13.0192 15.123 13.3008 14.8919 13.4989 14.5955C13.697 14.299 13.8027 13.9504 13.8027 13.5939C13.8022 13.1159 13.612 12.6576 13.2741 12.3196C12.9361 11.9817 12.4778 11.7916 11.9999 11.791ZM11.9999 14.7957C11.7621 14.7957 11.5298 14.7253 11.3321 14.5932C11.1345 14.4611 10.9804 14.2734 10.8895 14.0538C10.7985 13.8342 10.7747 13.5925 10.8211 13.3594C10.8674 13.1262 10.9819 12.9121 11.15 12.744C11.3181 12.5759 11.5322 12.4614 11.7654 12.4151C11.9985 12.3687 12.2402 12.3925 12.4598 12.4835C12.6794 12.5744 12.8671 12.7285 12.9992 12.9261C13.1313 13.1238 13.2018 13.3561 13.2018 13.5939C13.2014 13.9125 13.0747 14.218 12.8493 14.4433C12.624 14.6686 12.3185 14.7954 11.9999 14.7957Z"></path><path fill="black" d="M21.375 3.75H2.625C2.12789 3.75056 1.6513 3.94828 1.29979 4.29979C0.948282 4.6513 0.750558 5.12789 0.75 5.625V18.375C0.750558 18.8721 0.948282 19.3487 1.29979 19.7002C1.6513 20.0517 2.12789 20.2494 2.625 20.25H21.375C21.8721 20.2494 22.3487 20.0517 22.7002 19.7002C23.0517 19.3487 23.2494 18.8721 23.25 18.375V5.625C23.2494 5.12789 23.0517 4.6513 22.7002 4.29979C22.3487 3.94828 21.8721 3.75056 21.375 3.75ZM2.625 4.5H21.375C21.6733 4.50035 21.9592 4.61899 22.1701 4.82989C22.381 5.04079 22.4997 5.32674 22.5 5.625V6.75H1.5V5.625C1.50035 5.32674 1.61899 5.04079 1.82989 4.82989C2.04079 4.61899 2.32674 4.50035 2.625 4.5ZM21.375 19.5H2.625C2.32674 19.4997 2.04079 19.381 1.82989 19.1701C1.61899 18.9592 1.50035 18.6733 1.5 18.375V7.5H22.5V18.375C22.4997 18.6733 22.381 18.9592 22.1701 19.1701C21.9592 19.381 21.6733 19.4997 21.375 19.5Z"></path><path fill="black" d="M3 5.25H3.75V6H3V5.25Z"></path><path fill="black" d="M4.5 5.25H5.25V6H4.5V5.25Z"></path><path fill="black" d="M6 5.25H6.75V6H6V5.25Z"></path><path fill="black" d="M12 5.25H21V6H12V5.25Z"></path></svg>