<svg xmlns="http://www.w3.org/2000/svg" fill="none" viewBox="0 0 25 24" height="24" width="25"><g clip-path="url(#clip0_16041_141)"><mask height="24" width="25" y="0" x="0" maskUnits="userSpaceOnUse" style="mask-type:luminance" id="mask0_16041_141"><path fill="white" d="M0.5 1.90735e-06H24.5V24H0.5V1.90735e-06Z"></path></mask><g mask="url(#mask0_16041_141)"><path stroke-linejoin="round" stroke-linecap="round" stroke-miterlimit="10" stroke="black" d="M21.922 23.2969H3.07798C2.04251 23.2969 1.20312 22.4575 1.20312 21.422V2.57799C1.20312 1.54252 2.04251 0.703127 3.07798 0.703127H21.922C22.9575 0.703127 23.7969 1.54252 23.7969 2.57803V21.422C23.7969 22.4575 22.9575 23.2969 21.922 23.2969Z"></path><path stroke-linejoin="round" stroke-linecap="round" stroke-miterlimit="10" stroke="black" d="M1.20312 6.375H23.75"></path><path fill="black" d="M21.6406 3.5625C21.6406 3.95081 21.3258 4.26562 20.9375 4.26562C20.5492 4.26562 20.2344 3.95081 20.2344 3.5625C20.2344 3.17419 20.5492 2.85938 20.9375 2.85938C21.3258 2.85938 21.6406 3.17419 21.6406 3.5625Z"></path><path fill="black" d="M18.8281 3.5625C18.8281 3.95081 18.5133 4.26562 18.125 4.26562C17.7367 4.26562 17.4219 3.95081 17.4219 3.5625C17.4219 3.17419 17.7367 2.85938 18.125 2.85938C18.5133 2.85938 18.8281 3.17419 18.8281 3.5625Z"></path><path fill="black" d="M16.0156 3.5625C16.0156 3.95081 15.7008 4.26562 15.3125 4.26562C14.9242 4.26562 14.6094 3.95081 14.6094 3.5625C14.6094 3.17419 14.9242 2.85938 15.3125 2.85938C15.7008 2.85938 16.0156 3.17419 16.0156 3.5625Z"></path><path stroke-linejoin="round" stroke-linecap="round" stroke-miterlimit="10" stroke="black" d="M8.28125 10.5938H16.7188"></path><path stroke-linejoin="round" stroke-linecap="round" stroke-miterlimit="10" stroke="black" d="M5.46875 13.4062H19.5312"></path><path stroke-linejoin="round" stroke-linecap="round" stroke-miterlimit="10" stroke="black" d="M8.98438 17.625C8.98438 18.4016 9.614 19.0312 10.3906 19.0312H14.6094C15.386 19.0312 16.0156 18.4016 16.0156 17.625C16.0156 16.8484 15.386 16.2188 14.6094 16.2188H10.3906C9.614 16.2188 8.98438 16.8484 8.98438 17.625Z"></path></g></g><defs><clipPath id="clip0_16041_141"><rect transform="translate(0.5)" fill="white" height="24" width="24"></rect></clipPath></defs></svg>