<svg xmlns="http://www.w3.org/2000/svg" fill="none" viewBox="0 0 25 24" height="24" width="25"><path fill="black" d="M15.875 3H13.625C13.418 3 13.25 2.832 13.25 2.625C13.25 2.418 13.418 2.25 13.625 2.25H15.875C16.082 2.25 16.25 2.418 16.25 2.625C16.25 2.832 16.082 3 15.875 3Z"></path><path fill="black" d="M18.875 23.25H10.625C9.59075 23.25 8.75 22.4085 8.75 21.375V18.375C8.75 18.168 8.918 18 9.125 18C9.332 18 9.5 18.168 9.5 18.375V21.375C9.5 21.9953 10.0048 22.5 10.625 22.5H18.875C19.4952 22.5 20 21.9953 20 21.375V2.625C20 2.00475 19.4952 1.5 18.875 1.5H10.625C10.0048 1.5 9.5 2.00475 9.5 2.625V6.375C9.5 6.58275 9.332 6.75 9.125 6.75C8.918 6.75 8.75 6.58275 8.75 6.375V2.625C8.75 1.5915 9.59075 0.75 10.625 0.75H18.875C19.9093 0.75 20.75 1.5915 20.75 2.625V21.375C20.75 22.4085 19.9093 23.25 18.875 23.25Z"></path><path fill="black" d="M12.125 17.25H6.125C5.09075 17.25 4.25 16.4085 4.25 15.375V9.375C4.25 8.3415 5.09075 7.5 6.125 7.5H12.125C13.1593 7.5 14 8.3415 14 9.375V15.375C14 16.4085 13.1593 17.25 12.125 17.25ZM6.125 8.25C5.50475 8.25 5 8.75475 5 9.375V15.375C5 15.9952 5.50475 16.5 6.125 16.5H12.125C12.7452 16.5 13.25 15.9952 13.25 15.375V9.375C13.25 8.75475 12.7452 8.25 12.125 8.25H6.125Z"></path><path fill="black" d="M11.375 15.75H6.875C6.668 15.75 6.5 15.582 6.5 15.375C6.5 15.168 6.668 15 6.875 15H11.375C11.582 15 11.75 15.168 11.75 15.375C11.75 15.582 11.582 15.75 11.375 15.75Z"></path><path fill="black" d="M9.125 14.25C8.918 14.25 8.75 14.082 8.75 13.875V10.125C8.75 9.918 8.918 9.75 9.125 9.75C9.332 9.75 9.5 9.918 9.5 10.125V13.875C9.5 14.082 9.332 14.25 9.125 14.25Z"></path><path fill="black" d="M9.12494 14.2499C9.02894 14.2499 8.93294 14.2132 8.85944 14.1404L7.73444 13.0154C7.58819 12.8692 7.58819 12.6314 7.73444 12.4852C7.88069 12.3389 8.11844 12.3389 8.26469 12.4852L9.12419 13.3447L9.98369 12.4852C10.1299 12.3389 10.3677 12.3389 10.5139 12.4852C10.6602 12.6314 10.6602 12.8692 10.5139 13.0154L9.38894 14.1404C9.31694 14.2132 9.22094 14.2499 9.12494 14.2499Z"></path><path fill="black" d="M13.2501 19.5H13.1743C12.9673 19.5 12.7993 19.332 12.7993 19.125C12.7993 18.918 12.9673 18.75 13.1743 18.75H13.2501C13.4571 18.75 13.6251 18.918 13.6251 19.125C13.6251 19.332 13.4571 19.5 13.2501 19.5Z"></path><path fill="black" d="M14.7501 19.5H14.6743C14.4673 19.5 14.2993 19.332 14.2993 19.125C14.2993 18.918 14.4673 18.75 14.6743 18.75H14.7501C14.9571 18.75 15.1251 18.918 15.1251 19.125C15.1251 19.332 14.9571 19.5 14.7501 19.5Z"></path><path fill="black" d="M16.2501 19.5H16.1743C15.9673 19.5 15.7993 19.332 15.7993 19.125C15.7993 18.918 15.9673 18.75 16.1743 18.75H16.2501C16.4571 18.75 16.6251 18.918 16.6251 19.125C16.6251 19.332 16.4571 19.5 16.2501 19.5Z"></path></svg>