<svg xmlns="http://www.w3.org/2000/svg" fill="none" viewBox="0 0 25 24" height="24" width="25"><g clip-path="url(#clip0_16041_507)"><path fill="black" d="M8.15519 13.6063C6.75037 13.6063 5.5979 12.4622 5.5979 11.049C5.5979 9.63577 6.74197 8.4917 8.15519 8.4917C9.56842 8.4917 10.7125 9.63577 10.7125 11.049C10.7125 12.4622 9.56846 13.6063 8.15519 13.6063ZM8.15519 9.52637C7.31399 9.52637 6.62417 10.2162 6.62417 11.0574C6.62417 11.8986 7.31399 12.5884 8.15519 12.5884C8.9964 12.5884 9.68622 11.8986 9.68622 11.0574C9.68622 10.2162 9.00484 9.52637 8.15519 9.52637Z"></path><path fill="black" d="M13.2612 20.1682H12.2434V16.0799C12.2434 15.7097 11.9237 15.2302 11.5872 15.1041C9.53465 14.3385 6.77546 14.3301 4.72289 15.1041C4.38639 15.2303 4.07514 15.7097 4.07514 16.0799V20.1682H3.04883V16.0799C3.04883 15.2891 3.63768 14.4227 4.36112 14.145C6.63243 13.2954 9.68604 13.2954 11.9489 14.145C12.6724 14.4226 13.2612 15.2891 13.2612 16.0799V20.1682H13.2612Z"></path><path fill="black" d="M5.09302 16.5928H6.11089V20.168H5.09302V16.5928Z"></path><path fill="black" d="M10.1992 16.5928H11.2171V20.168H10.1992V16.5928Z"></path><path fill="black" d="M22.4559 20.168H2.54418C1.41694 20.168 0.5 19.2511 0.5 18.1239V5.86728C0.5 4.74845 1.41694 3.83154 2.54418 3.83154H22.4559C23.5831 3.83154 24.5 4.74849 24.5 5.87572V18.1323C24.5 19.2511 23.5831 20.168 22.4559 20.168ZM2.54418 4.84941C1.98056 4.84941 1.52631 5.30367 1.52631 5.86728V18.1238C1.52631 18.6875 1.98056 19.1417 2.54418 19.1417H22.4559C23.0195 19.1417 23.4737 18.6875 23.4737 18.1238V5.86728C23.4737 5.30367 23.0195 4.84941 22.4559 4.84941H2.54418Z"></path><path fill="black" d="M23.9868 12.5131H15.8186C14.6914 12.5131 13.7744 11.5962 13.7744 10.4689V4.33643H14.7923V10.4605C14.7923 11.0241 15.2465 11.4784 15.8102 11.4784H23.9784V12.5131H23.9868Z"></path><path fill="black" d="M22.0268 11.4867H21.0089V10.7717H21.1183L21.0089 10.696C21.0089 10.452 20.7902 10.0819 20.5883 9.99779C19.4779 9.63606 18.8133 9.6529 17.7366 10.0567C17.5263 10.1324 17.316 10.4605 17.316 10.696V11.411H17.215L17.316 11.4867H16.2981V10.7717H16.4075L16.2981 10.696C16.2981 10.0315 16.7776 9.33324 17.3833 9.09768C18.6872 8.60976 19.5788 8.59296 20.9248 9.03038L20.95 9.03878C21.6146 9.29114 22.0352 10.0987 22.0352 10.696V11.411H21.9343L22.0268 11.4867Z"></path><path fill="black" d="M19.1581 8.91247C18.2244 8.91247 17.4673 8.15535 17.4673 7.22162C17.4673 6.28788 18.2244 5.53076 19.1581 5.53076C20.0919 5.53076 20.849 6.28788 20.849 7.22162C20.849 8.15535 20.0919 8.91247 19.1581 8.91247ZM19.1581 6.55707C18.788 6.55707 18.4936 6.85989 18.4936 7.22162C18.4936 7.58334 18.7964 7.88616 19.1581 7.88616C19.5199 7.88616 19.8227 7.58334 19.8227 7.22162C19.8227 6.85989 19.5283 6.55707 19.1581 6.55707Z"></path></g><defs><clipPath id="clip0_16041_507"><rect transform="translate(0.5)" fill="white" height="24" width="24"></rect></clipPath></defs></svg>