<svg xmlns="http://www.w3.org/2000/svg" fill="none" viewBox="0 0 25 24" height="24" width="25"><mask height="24" width="25" y="0" x="0" maskUnits="userSpaceOnUse" style="mask-type:luminance" id="mask0_16041_387"><path fill="white" d="M0.5 24H24.5V0H0.5V24Z"></path></mask><g mask="url(#mask0_16041_387)"><path stroke-linejoin="round" stroke-linecap="round" stroke-miterlimit="10" stroke="black" d="M8.52246 16.0249V13.9414H16.4775V16.0249C16.4775 17.0709 15.6295 17.9189 14.5834 17.9189H10.4165C9.37048 17.9189 8.52246 17.0709 8.52246 16.0249Z"></path><path stroke-linejoin="round" stroke-linecap="round" stroke-miterlimit="10" stroke="black" d="M14.4888 14.8885V13.9414"></path><path stroke-linejoin="round" stroke-linecap="round" stroke-miterlimit="10" stroke="black" d="M10.5112 14.8885V13.9414"></path><path stroke-linejoin="round" stroke-linecap="round" stroke-miterlimit="10" stroke="black" d="M14.8677 20.2865C14.8677 18.9789 13.8077 17.9189 12.5001 17.9189C11.1926 17.9189 10.1326 18.9789 10.1326 20.2865C10.1326 21.5941 11.1926 22.6541 12.5001 22.6541C13.8077 22.6541 14.8677 21.5941 14.8677 20.2865Z"></path><path stroke-linejoin="round" stroke-linecap="round" stroke-miterlimit="10" stroke="black" d="M15.1044 7.21729H9.89575V10.0584H15.1044V7.21729Z"></path><path stroke-linejoin="round" stroke-linecap="round" stroke-miterlimit="10" stroke="black" d="M23.7374 10.0584H24.1485V7.21729H18.9397V10.0584H22.0968"></path><path stroke-linejoin="round" stroke-linecap="round" stroke-miterlimit="10" stroke="black" d="M2.90328 10.0584H6.06036V7.21729H0.851562V10.0584H1.26266"></path><path stroke-linejoin="round" stroke-linecap="round" stroke-miterlimit="10" stroke="black" d="M13.3204 1.3457H15.1045V4.1868H9.89575V1.3457H11.6798"></path><path stroke-linejoin="round" stroke-linecap="round" stroke-miterlimit="10" stroke="black" d="M24.1484 1.3457H18.9397V4.1868H24.1484V1.3457Z"></path><path stroke-linejoin="round" stroke-linecap="round" stroke-miterlimit="10" stroke="black" d="M0.851562 1.3457H6.06022V4.1868H0.851562V1.3457Z"></path><path stroke-linejoin="round" stroke-linecap="round" stroke-miterlimit="10" stroke="black" d="M12.5 13.9414V10.0586"></path><path stroke-linejoin="round" stroke-linecap="round" stroke-miterlimit="10" stroke="black" d="M12.5 7.21748V4.18701"></path><path stroke-linejoin="round" stroke-linecap="round" stroke-miterlimit="10" stroke="black" d="M21.5442 7.21748V4.18701"></path><path stroke-linejoin="round" stroke-linecap="round" stroke-miterlimit="10" stroke="black" d="M3.45581 7.21748V4.18701"></path><path stroke-linejoin="round" stroke-linecap="round" stroke-miterlimit="10" stroke="black" d="M21.5441 10.0586V11.9526H12.5"></path><path stroke-linejoin="round" stroke-linecap="round" stroke-miterlimit="10" stroke="black" d="M3.45581 10.0586V11.9526H12.4999"></path></g></svg>