<svg xmlns="http://www.w3.org/2000/svg" fill="none" viewBox="0 0 24 24" height="24" width="24"><g clip-path="url(#clip0_16041_668)"><path fill="black" d="M16.125 7.875H9C8.70163 7.875 8.41548 7.99353 8.2045 8.2045C7.99353 8.41548 7.875 8.70163 7.875 9V15.75C7.875 16.0484 7.99353 16.3345 8.2045 16.5455C8.41548 16.7565 8.70163 16.875 9 16.875H15C15.0994 16.875 15.1948 16.8355 15.2651 16.7651L17.1401 14.8901C17.2105 14.8198 17.25 14.7244 17.25 14.625V9C17.25 8.70163 17.1315 8.41548 16.9205 8.2045C16.7095 7.99353 16.4234 7.875 16.125 7.875ZM15.375 15.5947V15H15.9697L15.375 15.5947ZM16.5 14.25H15C14.9005 14.25 14.8052 14.2895 14.7348 14.3598C14.6645 14.4302 14.625 14.5255 14.625 14.625V16.125H9C8.90054 16.125 8.80516 16.0855 8.73483 16.0152C8.66451 15.9448 8.625 15.8495 8.625 15.75V10.125H16.5V14.25ZM16.5 9.375H8.625V9C8.625 8.90054 8.66451 8.80516 8.73483 8.73483C8.80516 8.66451 8.90054 8.625 9 8.625H16.125C16.2245 8.625 16.3198 8.66451 16.3902 8.73483C16.4605 8.80516 16.5 8.90054 16.5 9V9.375Z"></path><path fill="black" d="M11.25 11.25H12V12H11.25V11.25Z"></path><path fill="black" d="M13.125 11.25H13.875V12H13.125V11.25Z"></path><path fill="black" d="M15 11.25H15.75V12H15V11.25Z"></path><path fill="black" d="M11.25 12.75H12V13.5H11.25V12.75Z"></path><path fill="black" d="M9.375 12.75H10.125V13.5H9.375V12.75Z"></path><path fill="black" d="M13.125 12.75H13.875V13.5H13.125V12.75Z"></path><path fill="black" d="M11.25 14.25H12V15H11.25V14.25Z"></path><path fill="black" d="M9.375 14.25H10.125V15H9.375V14.25Z"></path><path fill="black" d="M13.125 14.25H13.875V15H13.125V14.25Z"></path><path fill="black" d="M15 12.75H15.75V13.5H15V12.75Z"></path><path fill="black" d="M20.25 0.375C19.5825 0.375 18.93 0.57294 18.375 0.94379C17.8199 1.31464 17.3874 1.84174 17.1319 2.45844C16.8765 3.07514 16.8096 3.75374 16.9399 4.40843C17.0701 5.06312 17.3915 5.66448 17.8635 6.13649C18.3355 6.60849 18.9369 6.92993 19.5916 7.06015C20.2463 7.19038 20.9249 7.12354 21.5416 6.86809C22.1583 6.61265 22.6854 6.18007 23.0562 5.62505C23.4271 5.07003 23.625 4.41751 23.625 3.75C23.624 2.8552 23.2681 1.99733 22.6354 1.36461C22.0027 0.731891 21.1448 0.375993 20.25 0.375ZM20.25 6.375C19.7308 6.375 19.2233 6.22105 18.7916 5.93261C18.36 5.64417 18.0235 5.2342 17.8248 4.75454C17.6261 4.27489 17.5742 3.74709 17.6754 3.23789C17.7767 2.72869 18.0267 2.26096 18.3938 1.89384C18.761 1.52673 19.2287 1.27672 19.7379 1.17544C20.2471 1.07415 20.7749 1.12614 21.2545 1.32482C21.7342 1.5235 22.1442 1.85995 22.4326 2.29163C22.721 2.72331 22.875 3.23082 22.875 3.75C22.8741 4.44592 22.5973 5.11308 22.1052 5.60517C21.6131 6.09726 20.9459 6.37411 20.25 6.375Z"></path><path fill="black" d="M3.75 23.625C4.41751 23.625 5.07003 23.4271 5.62505 23.0562C6.18007 22.6854 6.61265 22.1583 6.86809 21.5416C7.12354 20.9249 7.19038 20.2463 7.06015 19.5916C6.92993 18.9369 6.60849 18.3355 6.13649 17.8635C5.66448 17.3915 5.06312 17.0701 4.40843 16.9399C3.75374 16.8096 3.07514 16.8765 2.45844 17.1319C1.84174 17.3874 1.31464 17.8199 0.94379 18.375C0.57294 18.93 0.375 19.5825 0.375 20.25C0.375993 21.1448 0.731891 22.0027 1.36461 22.6354C1.99733 23.2681 2.8552 23.624 3.75 23.625ZM3.75 17.625C4.26918 17.625 4.77669 17.779 5.20837 18.0674C5.64005 18.3558 5.9765 18.7658 6.17518 19.2455C6.37386 19.7251 6.42585 20.2529 6.32456 20.7621C6.22328 21.2713 5.97327 21.739 5.60616 22.1062C5.23904 22.4733 4.77131 22.7233 4.26211 22.8246C3.75291 22.9258 3.22511 22.8739 2.74546 22.6752C2.2658 22.4765 1.85583 22.1401 1.56739 21.7084C1.27895 21.2767 1.125 20.7692 1.125 20.25C1.12589 19.5541 1.40274 18.8869 1.89483 18.3948C2.38692 17.9027 3.05408 17.6259 3.75 17.625Z"></path><path fill="black" d="M19.5869 4.28019L19.0567 3.74994L18.5249 4.28019L19.3203 5.07557C19.3906 5.14587 19.486 5.18536 19.5854 5.18536C19.6848 5.18536 19.7802 5.14587 19.8505 5.07557L21.9749 2.95457L21.4432 2.42432L19.5869 4.28019Z"></path><path fill="black" d="M3.9375 21H3.5625C3.51277 21 3.46508 20.9802 3.42992 20.9451C3.39475 20.9099 3.375 20.8622 3.375 20.8125H2.625C2.62504 21.0286 2.69971 21.238 2.83637 21.4053C2.97304 21.5727 3.16331 21.6877 3.375 21.7309V22.125H4.125V21.7309C4.35243 21.6842 4.55447 21.5548 4.69198 21.3678C4.82949 21.1807 4.89269 20.9493 4.86936 20.7183C4.84602 20.4873 4.7378 20.2731 4.56565 20.1174C4.3935 19.9616 4.16967 19.8752 3.9375 19.875H3.5625C3.51277 19.875 3.46508 19.8552 3.42992 19.8201C3.39475 19.7849 3.375 19.7372 3.375 19.6875C3.375 19.6378 3.39475 19.5901 3.42992 19.5549C3.46508 19.5198 3.51277 19.5 3.5625 19.5H3.9375C3.98723 19.5 4.03492 19.5198 4.07008 19.5549C4.10525 19.5901 4.125 19.6378 4.125 19.6875H4.875C4.87496 19.4714 4.80029 19.262 4.66363 19.0947C4.52696 18.9273 4.33669 18.8123 4.125 18.7691V18.375H3.375V18.7691C3.14757 18.8158 2.94553 18.9452 2.80802 19.1322C2.67051 19.3193 2.60731 19.5507 2.63064 19.7817C2.65398 20.0127 2.7622 20.2269 2.93435 20.3826C3.1065 20.5384 3.33033 20.6248 3.5625 20.625H3.9375C3.98723 20.625 4.03492 20.6448 4.07008 20.6799C4.10525 20.7151 4.125 20.7628 4.125 20.8125C4.125 20.8622 4.10525 20.9099 4.07008 20.9451C4.03492 20.9802 3.98723 21 3.9375 21Z"></path><path fill="black" d="M11.9999 21.7501C11.7543 21.7501 11.5026 21.7366 11.2499 21.7168V21.0001C11.2499 20.9338 11.2322 20.8686 11.1988 20.8113C11.1653 20.7539 11.1173 20.7065 11.0595 20.6738C11.0017 20.6411 10.9363 20.6244 10.87 20.6252C10.8036 20.6261 10.7387 20.6446 10.6818 20.6788L8.80676 21.8038C8.75131 21.8371 8.70544 21.8842 8.67359 21.9405C8.64174 21.9968 8.625 22.0604 8.625 22.1251C8.625 22.1898 8.64174 22.2534 8.67359 22.3097C8.70544 22.3661 8.75131 22.4132 8.80676 22.4465L10.6818 23.5715C10.7387 23.6057 10.8036 23.6242 10.87 23.625C10.9363 23.6259 11.0017 23.6091 11.0595 23.5765C11.1173 23.5438 11.1653 23.4964 11.1988 23.439C11.2322 23.3817 11.2499 23.3165 11.2499 23.2501V22.469C11.5026 22.4874 11.7539 22.5001 11.9999 22.5001C13.6795 22.4994 15.3344 22.0959 16.8259 21.3234C18.3174 20.551 19.6018 19.4322 20.5716 18.0608C21.5413 16.6894 22.168 15.1054 22.3991 13.4418C22.6303 11.7781 22.4591 10.0833 21.8999 8.49951L21.1934 8.75076C21.7122 10.2214 21.8709 11.7951 21.6561 13.3397C21.4412 14.8843 20.8592 16.3549 19.9587 17.6282C19.0582 18.9015 17.8656 19.9402 16.4808 20.6574C15.096 21.3746 13.5594 21.7493 11.9999 21.7501ZM10.4999 22.5875L9.72851 22.1251L10.4999 21.6628V22.5875Z"></path><path fill="black" d="M11.9999 2.24993C12.2437 2.24993 12.4938 2.26268 12.7499 2.28143V2.99993C12.7499 3.0663 12.7675 3.13148 12.801 3.18882C12.8344 3.24615 12.8825 3.29357 12.9403 3.32625C12.998 3.35893 13.0635 3.37569 13.1298 3.37483C13.1962 3.37396 13.2611 3.35549 13.318 3.3213L15.193 2.1963C15.2485 2.16296 15.2944 2.11585 15.3262 2.05953C15.3581 2.00322 15.3748 1.93962 15.3748 1.87493C15.3748 1.81023 15.3581 1.74664 15.3262 1.69032C15.2944 1.63401 15.2485 1.58689 15.193 1.55355L13.318 0.428554C13.2611 0.394371 13.1962 0.375902 13.1298 0.375032C13.0635 0.374162 12.998 0.390923 12.9403 0.423603C12.8825 0.456283 12.8344 0.503711 12.801 0.561042C12.7675 0.618374 12.7499 0.683555 12.7499 0.749929V1.52918C12.4953 1.51193 12.2452 1.49993 11.9999 1.49993C10.3203 1.50066 8.66534 1.90417 7.17388 2.67662C5.68243 3.44906 4.39796 4.56791 3.42823 5.93931C2.45849 7.31071 1.83178 8.89466 1.60066 10.5583C1.36953 12.2219 1.54074 13.9167 2.09991 15.5006L2.80641 15.2493C2.28755 13.7786 2.12889 12.205 2.34372 10.6604C2.55854 9.11574 3.14061 7.64513 4.04109 6.37187C4.94157 5.09861 6.13422 4.05983 7.51902 3.34263C8.90382 2.62543 10.4404 2.25072 11.9999 2.24993ZM13.4999 1.41255L14.2713 1.87493L13.4999 2.3373V1.41255Z"></path></g><defs><clipPath id="clip0_16041_668"><rect fill="white" height="24" width="24"></rect></clipPath></defs></svg>