<svg xmlns="http://www.w3.org/2000/svg" fill="none" viewBox="0 0 25 24" height="24" width="25"><g clip-path="url(#clip0_16041_27)"><path fill="black" d="M19.8014 2.68036C19.9574 2.83638 20.2104 2.83638 20.3665 2.68036L20.4836 2.56326L20.6007 2.68036C20.7575 2.83182 21.0068 2.82966 21.161 2.67549C21.3151 2.52131 21.3173 2.27206 21.1658 2.11521L21.0487 1.9981L21.1658 1.88099C21.2698 1.78064 21.3114 1.63206 21.2748 1.49232C21.2383 1.35258 21.1291 1.24347 20.9894 1.20689C20.8497 1.1703 20.7011 1.21197 20.6007 1.31588L20.4836 1.43299L20.3665 1.31588C20.2097 1.16443 19.9604 1.16659 19.8062 1.32076C19.6521 1.47493 19.6499 1.72418 19.8014 1.88103L19.9185 1.99814L19.8014 2.11525C19.6453 2.2713 19.6453 2.52431 19.8014 2.68036Z" clip-rule="evenodd" fill-rule="evenodd"></path><path fill="black" d="M17.6459 9.2324C15.7585 7.34474 12.8004 7.05327 10.5808 8.53618C8.36126 10.0191 7.49824 12.8634 8.51963 15.3297C9.54102 17.7959 12.1623 19.1972 14.7805 18.6766C17.3986 18.156 19.2844 15.8585 19.2846 13.1891C19.284 11.7052 18.6946 10.2822 17.6459 9.2324ZM17.0804 16.5803C15.4624 18.1982 12.9269 18.4478 11.0245 17.1765C9.12209 15.9052 8.38261 13.4672 9.25831 11.3534C10.134 9.23951 12.381 8.03856 14.625 8.48504C16.8691 8.93153 18.4853 10.901 18.4852 13.1891C18.4846 14.461 17.9793 15.6806 17.0804 16.5803Z"></path><path fill="black" d="M11.1462 11.0453C11.2522 11.0452 11.3538 11.0031 11.4287 10.9282C12.0269 10.3265 12.8409 9.98933 13.6893 9.99173C13.91 9.99173 14.0889 9.81281 14.0889 9.59206C14.0889 9.37132 13.91 9.1924 13.6893 9.1924C12.6288 9.1896 11.6114 9.61113 10.8636 10.363C10.7493 10.4774 10.7152 10.6492 10.777 10.7985C10.8389 10.9479 10.9846 11.0452 11.1462 11.0453Z" clip-rule="evenodd" fill-rule="evenodd"></path><path fill="black" d="M21.8237 19.0642C22.2303 18.8588 22.4854 18.4407 22.482 17.9851V1.199C22.4932 0.54932 21.9766 0.0131143 21.327 0H1.65523C1.0056 0.0131143 0.489062 0.54936 0.500177 1.199V17.9851C0.489022 18.6348 1.0056 19.171 1.65523 19.1841H9.71295C12.1927 20.8271 15.4283 20.7727 17.8514 19.0474L18.7203 19.9167C18.7019 19.9831 18.6921 20.0516 18.6911 20.1205C18.6906 20.3326 18.7749 20.5362 18.9253 20.6857L21.7514 23.5117C22.1528 23.9273 22.7471 24.094 23.3061 23.9477C23.8651 23.8014 24.3015 23.3649 24.4478 22.806C24.5941 22.247 24.4275 21.6526 24.0119 21.2512L21.8237 19.0642ZM1.65523 0.799331H21.327C21.534 0.814684 21.6914 0.991607 21.6826 1.199V3.19732H1.29955V1.199C1.29075 0.991607 1.4482 0.814684 1.65523 0.799331ZM1.65523 18.3848C1.4482 18.3694 1.29075 18.1925 1.29951 17.9851V3.99669H21.6826V17.9851C21.6914 18.1925 21.534 18.3694 21.327 18.3848H21.1371C20.9942 18.2603 20.8111 18.1915 20.6216 18.1909C20.5525 18.1919 20.4838 18.2018 20.4173 18.2205L19.5496 17.3528C21.758 14.242 21.1525 9.94802 18.17 7.56917C15.1876 5.19033 10.8665 5.55477 8.32456 8.39953C5.78267 11.2443 5.9049 15.579 8.60312 18.276C8.6431 18.316 8.68304 18.3471 8.72303 18.3847L1.65523 18.3848ZM9.16903 17.7109C7.33999 15.8821 6.79275 13.1316 7.78248 10.7419C8.77221 8.35231 11.104 6.79419 13.6905 6.79419C16.277 6.79419 18.6088 8.35231 19.5985 10.7419C20.5882 13.1316 20.041 15.8821 18.212 17.7109C17.0184 18.9211 15.3896 19.6023 13.6899 19.6023C11.9902 19.6023 10.3614 18.9211 9.16783 17.7109H9.16903ZM18.7775 18.2761C18.8726 18.1809 18.9573 18.0786 19.0464 17.9795L19.7742 18.7073L19.2083 19.2732L18.4789 18.5446C18.578 18.4555 18.6808 18.3716 18.7763 18.2761H18.7775ZM23.4468 22.9466C23.1306 23.2487 22.6328 23.2487 22.3165 22.9466L19.4905 20.1206L20.6208 18.9903L23.4468 21.8164C23.7589 22.1285 23.7589 22.6345 23.4468 22.9466Z"></path><path fill="black" d="M2.78118 4.91297C2.62437 4.76151 2.37508 4.76367 2.22091 4.91785C2.06673 5.07202 2.06457 5.32127 2.21603 5.47812L3.13247 6.39456L2.21603 7.311C2.11211 7.41136 2.07045 7.55993 2.10703 7.69967C2.14362 7.83941 2.25273 7.94852 2.39247 7.98511C2.53221 8.02169 2.68082 7.98003 2.78114 7.87611L3.98014 6.67712C4.13615 6.52107 4.13615 6.26806 3.98014 6.112L2.78118 4.91297Z" clip-rule="evenodd" fill-rule="evenodd"></path><path fill="black" d="M6.89482 7.59351C6.89482 7.37277 6.7159 7.19385 6.49515 7.19385H4.89649C4.67575 7.19385 4.49683 7.37277 4.49683 7.59351C4.49683 7.81426 4.67575 7.99318 4.89649 7.99318H6.49515C6.71586 7.99318 6.89482 7.81426 6.89482 7.59351Z" clip-rule="evenodd" fill-rule="evenodd"></path><path fill="black" d="M16.487 13.5887H15.6877V13.3545L16.3699 12.6723C16.5214 12.5155 16.5192 12.2662 16.365 12.112C16.2108 11.9578 15.9616 11.9557 15.8047 12.1071L15.4419 12.47C15.3011 12.2833 15.1086 12.142 14.8883 12.0635V11.99C14.8883 11.3278 14.3515 10.791 13.6893 10.791C13.0271 10.791 12.4903 11.3278 12.4903 11.99V12.0635C12.27 12.1419 12.0776 12.283 11.9368 12.4696L11.5739 12.1067C11.4171 11.9553 11.1678 11.9574 11.0136 12.1116C10.8594 12.2658 10.8573 12.515 11.0087 12.6719L11.6909 13.3545V13.5887H10.8916C10.6709 13.5887 10.4919 13.7676 10.4919 13.9884C10.4919 14.2091 10.6709 14.388 10.8916 14.388H11.6909V14.6223L11.0087 15.3045C10.9048 15.4048 10.8631 15.5534 10.8997 15.6932C10.9363 15.8329 11.0454 15.942 11.1852 15.9786C11.3249 16.0152 11.4735 15.9735 11.5738 15.8696L11.8588 15.5846C12.175 16.3141 12.8942 16.7861 13.6893 16.7861C14.4843 16.7861 15.2035 16.3141 15.5197 15.5846L15.8047 15.8696C15.9615 16.0211 16.2108 16.0189 16.365 15.8647C16.5192 15.7105 16.5213 15.4613 16.3699 15.3044L15.6876 14.6222V14.388H16.487C16.7077 14.388 16.8866 14.2091 16.8866 13.9883C16.8866 13.7676 16.7077 13.5887 16.487 13.5887ZM13.6893 11.5904C13.9101 11.5904 14.089 11.7693 14.089 11.9901H13.2896C13.2896 11.7693 13.4686 11.5904 13.6893 11.5904ZM13.6893 15.9867C13.0271 15.9867 12.4903 15.4499 12.4903 14.7878V13.1891C12.4903 12.9683 12.6692 12.7894 12.89 12.7894H14.4886C14.7094 12.7894 14.8883 12.9683 14.8883 13.1891V14.7878C14.8883 15.4499 14.3515 15.9867 13.6893 15.9867Z"></path><path fill="black" d="M2.49854 2.39796C2.71927 2.39796 2.89821 2.21903 2.89821 1.9983C2.89821 1.77757 2.71927 1.59863 2.49854 1.59863C2.27781 1.59863 2.09888 1.77757 2.09888 1.9983C2.09888 2.21903 2.27781 2.39796 2.49854 2.39796Z"></path><path fill="black" d="M4.09718 2.39796C4.3179 2.39796 4.49684 2.21903 4.49684 1.9983C4.49684 1.77757 4.3179 1.59863 4.09718 1.59863C3.87645 1.59863 3.69751 1.77757 3.69751 1.9983C3.69751 2.21903 3.87645 2.39796 4.09718 2.39796Z"></path><path fill="black" d="M5.69581 2.39796C5.91654 2.39796 6.09547 2.21903 6.09547 1.9983C6.09547 1.77757 5.91654 1.59863 5.69581 1.59863C5.47508 1.59863 5.29614 1.77757 5.29614 1.9983C5.29614 2.21903 5.47508 2.39796 5.69581 2.39796Z"></path></g><defs><clipPath id="clip0_16041_27"><rect transform="translate(0.5)" fill="white" height="24" width="24"></rect></clipPath></defs></svg>