<svg xmlns="http://www.w3.org/2000/svg" fill="none" viewBox="0 0 24 24" height="24" width="24"><g clip-path="url(#clip0_16041_705)"><path fill="black" d="M21.8906 0.046875H2.10938C0.946266 0.046875 0 0.993141 0 2.15625V21.8438C0 23.0069 0.946266 23.9531 2.10938 23.9531H21.8906C23.0537 23.9531 24 23.0069 24 21.8438V2.15625C24 0.993141 23.0537 0.046875 21.8906 0.046875ZM2.10938 1.45312H21.8906C22.2783 1.45312 22.5938 1.76855 22.5938 2.15625V5.67188H1.40625V2.15625C1.40625 1.76855 1.72167 1.45312 2.10938 1.45312ZM21.8906 22.5469H2.10938C1.72167 22.5469 1.40625 22.2315 1.40625 21.8438V7.07812H22.5938V21.8438C22.5938 22.2315 22.2783 22.5469 21.8906 22.5469Z"></path><path fill="black" d="M14.3863 9.24452C14.0294 9.09157 13.616 9.2569 13.4631 9.61381L9.2443 19.4576C9.0913 19.8145 9.25668 20.2279 9.61358 20.3808C9.97063 20.5338 10.3839 20.3683 10.5368 20.0115L14.7556 10.1678C14.9086 9.81082 14.7432 9.39748 14.3863 9.24452Z"></path><path fill="black" d="M8.33036 11.5608C8.08773 11.2575 7.64519 11.2084 7.34209 11.451L3.82647 14.2635C3.47495 14.5446 3.47472 15.0802 3.82647 15.3616L7.34209 18.1741C7.64533 18.4167 8.08787 18.3675 8.33036 18.0643C8.57294 17.7611 8.52381 17.3186 8.22053 17.076L5.39125 14.8125L8.22053 12.5491C8.52381 12.3065 8.57294 11.864 8.33036 11.5608Z"></path><path fill="black" d="M20.1736 14.2635L16.658 11.451C16.3548 11.2084 15.9123 11.2576 15.6697 11.5608C15.4272 11.864 15.4763 12.3065 15.7796 12.5491L18.6088 14.8126L15.7796 17.076C15.4763 17.3186 15.4272 17.761 15.6697 18.0643C15.9126 18.3678 16.3552 18.4164 16.658 18.1741L20.1736 15.3616C20.5251 15.0804 20.5254 14.5448 20.1736 14.2635Z"></path><path fill="black" d="M3.5625 4.26562C3.95083 4.26562 4.26562 3.95083 4.26562 3.5625C4.26562 3.17417 3.95083 2.85938 3.5625 2.85938C3.17417 2.85938 2.85938 3.17417 2.85938 3.5625C2.85938 3.95083 3.17417 4.26562 3.5625 4.26562Z"></path><path fill="black" d="M6.375 4.26562C6.76333 4.26562 7.07812 3.95083 7.07812 3.5625C7.07812 3.17417 6.76333 2.85938 6.375 2.85938C5.98667 2.85938 5.67188 3.17417 5.67188 3.5625C5.67188 3.95083 5.98667 4.26562 6.375 4.26562Z"></path><path fill="black" d="M9.1875 4.26562C9.57583 4.26562 9.89062 3.95083 9.89062 3.5625C9.89062 3.17417 9.57583 2.85938 9.1875 2.85938C8.79917 2.85938 8.48438 3.17417 8.48438 3.5625C8.48438 3.95083 8.79917 4.26562 9.1875 4.26562Z"></path><path fill="black" d="M16.2188 4.26562H20.4375C20.8258 4.26562 21.1406 3.95081 21.1406 3.5625C21.1406 3.17419 20.8258 2.85938 20.4375 2.85938H16.2188C15.8304 2.85938 15.5156 3.17419 15.5156 3.5625C15.5156 3.95081 15.8304 4.26562 16.2188 4.26562Z"></path></g><defs><clipPath id="clip0_16041_705"><rect fill="white" height="24" width="24"></rect></clipPath></defs></svg>