<svg xmlns="http://www.w3.org/2000/svg" fill="none" viewBox="0 0 25 24" height="24" width="25"><g clip-path="url(#clip0_16041_131)"><path stroke-linejoin="round" stroke-linecap="round" stroke-miterlimit="22.9256" stroke="black" d="M6.47112 19.4865L3.00828 23.1779C2.55983 23.656 1.78545 23.6415 1.32195 23.1779C0.858452 22.7144 0.843639 21.9403 1.32195 21.4916L5.02587 18.0171"></path><path stroke-linejoin="round" stroke-linecap="round" stroke-miterlimit="22.9256" stroke="black" d="M13.2286 18.7287C15.2879 16.6694 15.2879 13.3306 13.2286 11.2713C11.1693 9.21197 7.83051 9.21197 5.7712 11.2713C3.71188 13.3306 3.71188 16.6694 5.7712 18.7287C7.83051 20.788 11.1693 20.788 13.2286 18.7287Z"></path><path stroke-linejoin="round" stroke-linecap="round" stroke-miterlimit="22.9256" stroke="black" d="M7.625 9.83603V0.46875H19.8125L24.0312 4.68748V22.4999H7.625V20.1642"></path><path stroke-linejoin="round" stroke-linecap="round" stroke-miterlimit="22.9256" stroke="black" d="M23.7968 4.6875H19.8125V0.703125"></path><path stroke-linejoin="round" stroke-linecap="round" stroke-miterlimit="22.9256" stroke="black" d="M10.5 5H18"></path><path stroke-linejoin="round" stroke-linecap="round" stroke-miterlimit="22.9256" stroke="black" d="M10.5 7.10938H14.25"></path><path stroke-linejoin="round" stroke-linecap="round" stroke-miterlimit="22.9256" stroke="black" d="M11.0821 13.9453L8.97266 16.0547L7.91797 15"></path></g><defs><clipPath id="clip0_16041_131"><rect transform="translate(0.5)" fill="white" height="24" width="24"></rect></clipPath></defs></svg>