<svg xmlns="http://www.w3.org/2000/svg" fill="none" viewBox="0 0 24 24" height="24" width="24"><path fill="black" d="M23.5622 17.6717C23.3086 16.7243 22.3237 16.1487 21.3202 16.3592L14.3255 17.8442C14.4631 17.4658 14.4634 17.0511 14.3263 16.6726C14.1892 16.2941 13.9234 15.9757 13.5755 15.7732L9.52078 13.4318C9.35807 13.3302 9.20522 13.2136 9.06422 13.0835C8.70797 12.7756 8.26453 12.3926 7.43812 12.3045C6.65297 12.221 5.63109 12.4053 4.25062 12.8829C4.20454 12.5902 4.05555 12.3235 3.83044 12.1308C3.60532 11.938 3.31884 11.8319 3.0225 11.8315H1.61812C1.28854 11.8319 0.972564 11.963 0.739514 12.196C0.506463 12.4291 0.375372 12.7451 0.375 13.0746V19.9845C0.375372 20.3141 0.506463 20.63 0.739514 20.8631C0.972564 21.0961 1.28854 21.2272 1.61812 21.2276H3.01828C3.3444 21.2272 3.65732 21.0987 3.88972 20.8699C4.12211 20.6411 4.25541 20.3303 4.26094 20.0042C5.37937 19.8471 6.80016 20.6581 8.17734 21.4446C9.36422 22.1225 10.4958 22.7689 11.4412 22.7689C11.6191 22.7703 11.7962 22.7446 11.9662 22.6925L22.2562 19.9353C22.7295 19.8081 23.1328 19.4982 23.3777 19.0738C23.6226 18.6493 23.6889 18.145 23.5622 17.6717ZM3.01828 20.4776H1.61812C1.48738 20.4775 1.36202 20.4255 1.26957 20.333C1.17712 20.2406 1.12512 20.1152 1.125 19.9845V13.0746C1.12512 12.9439 1.17712 12.8185 1.26957 12.7261C1.36202 12.6336 1.48738 12.5816 1.61812 12.5815H3.01828C3.14903 12.5816 3.27438 12.6336 3.36684 12.7261C3.45929 12.8185 3.51128 12.9439 3.51141 13.0746V19.9845C3.51128 20.1152 3.45929 20.2406 3.36684 20.333C3.27438 20.4255 3.14903 20.4775 3.01828 20.4776ZM22.0622 19.212L11.7656 21.9701L11.7483 21.9753C11.025 22.2064 9.76687 21.4882 8.55047 20.7936C7.10062 19.9648 5.60625 19.1126 4.26281 19.2467V13.6728C7.32609 12.574 7.95984 13.121 8.57531 13.6507C8.75155 13.8125 8.94308 13.9568 9.14719 14.0815L13.2019 16.4225C13.3114 16.486 13.4072 16.5705 13.4841 16.671C13.5609 16.7716 13.6172 16.8864 13.6497 17.0087C13.6822 17.131 13.6903 17.2586 13.6735 17.384C13.6567 17.5095 13.6153 17.6304 13.5518 17.7399C13.4883 17.8494 13.4038 17.9453 13.3032 18.0221C13.2026 18.0989 13.0879 18.1552 12.9656 18.1877C12.8432 18.2202 12.7157 18.2283 12.5902 18.2115C12.4648 18.1947 12.3439 18.1533 12.2344 18.0898L8.84906 16.1356C8.76316 16.0889 8.66245 16.0777 8.56837 16.1042C8.47429 16.1307 8.39428 16.1929 8.34539 16.2776C8.2965 16.3622 8.28259 16.4626 8.30663 16.5573C8.33066 16.6521 8.39074 16.7337 8.47406 16.7848L11.8594 18.7395C12.1188 18.8896 12.4132 18.9687 12.713 18.9687C12.982 18.9683 13.2471 18.9051 13.4873 18.784C13.505 18.7828 13.5225 18.7805 13.5398 18.777L21.4739 17.097C22.0978 16.9648 22.6833 17.2962 22.8366 17.8676C22.9114 18.1484 22.8719 18.4473 22.7268 18.699C22.5816 18.9507 22.3427 19.1347 22.0622 19.2106V19.212ZM2.94328 13.9357C2.94365 14.0595 2.90728 14.1806 2.83878 14.2837C2.77027 14.3868 2.67271 14.4672 2.55846 14.5148C2.4442 14.5624 2.31839 14.5751 2.19696 14.5511C2.07552 14.5271 1.96393 14.4677 1.87631 14.3803C1.78869 14.2928 1.72898 14.1814 1.70475 14.06C1.68053 13.9386 1.69287 13.8128 1.74021 13.6984C1.78756 13.5841 1.86778 13.4863 1.97071 13.4176C2.07364 13.3488 2.19466 13.3122 2.31844 13.3123C2.4838 13.3127 2.6423 13.3784 2.75936 13.4952C2.87642 13.612 2.94254 13.7704 2.94328 13.9357ZM10.3467 9.81589H10.9814C11.1072 10.268 11.2876 10.7031 11.5186 11.1115L11.07 11.5606C10.9523 11.6767 10.881 11.8318 10.8693 11.9968C10.8577 12.1617 10.9065 12.3253 11.0067 12.4568C11.4034 12.9832 11.8719 13.4515 12.3984 13.8481C12.5299 13.9485 12.6934 13.9976 12.8584 13.986C13.0234 13.9745 13.1786 13.9031 13.2947 13.7853L13.7437 13.3367C14.1521 13.5677 14.587 13.7484 15.0389 13.8748V14.5095C15.0379 14.6749 15.0972 14.8349 15.2058 14.9597C15.3143 15.0845 15.4647 15.1654 15.6286 15.1873C16.2816 15.2793 16.9443 15.2793 17.5973 15.1873C17.7615 15.1655 17.9121 15.0845 18.0207 14.9595C18.1294 14.8345 18.1887 14.6742 18.1875 14.5085V13.8748C18.6395 13.7489 19.0746 13.5685 19.4831 13.3376L19.9317 13.7862C20.0478 13.904 20.203 13.9754 20.368 13.987C20.533 13.9985 20.6965 13.9495 20.828 13.849C21.3544 13.4522 21.8225 12.9836 22.2187 12.4568C22.319 12.3253 22.3679 12.1618 22.3564 11.9969C22.3448 11.8319 22.2736 11.6768 22.1559 11.5606L21.7069 11.1115C21.9379 10.7032 22.1183 10.2683 22.2441 9.81636H22.8792C23.0446 9.81746 23.2048 9.75816 23.3295 9.64959C23.4543 9.54102 23.5352 9.39064 23.557 9.22667C23.649 8.57365 23.649 7.91095 23.557 7.25792C23.5351 7.09404 23.4542 6.94377 23.3294 6.8353C23.2046 6.72682 23.0446 6.66759 22.8792 6.66871H22.2436C22.1176 6.21663 21.937 5.78155 21.7059 5.37308L22.155 4.92449C22.272 4.80854 22.343 4.65406 22.3547 4.48974C22.3664 4.32543 22.3181 4.16244 22.2187 4.03105C21.8223 3.50427 21.3538 3.03579 20.827 2.63933C20.6956 2.53887 20.532 2.48981 20.367 2.50138C20.202 2.51294 20.0469 2.58433 19.9308 2.70214L19.4822 3.15121C19.0741 2.91961 18.6393 2.73844 18.1875 2.61167V1.97699C18.1886 1.8116 18.1294 1.65147 18.0209 1.52661C17.9125 1.40174 17.7622 1.32072 17.5983 1.29871C16.9452 1.20772 16.2826 1.20772 15.6295 1.29871C15.4656 1.32081 15.3154 1.40187 15.207 1.52671C15.0985 1.65155 15.0393 1.81162 15.0403 1.97699V2.61167C14.5879 2.73767 14.1525 2.91822 13.7437 3.14933L13.2947 2.70027C13.1785 2.58264 13.0234 2.51138 12.8584 2.49982C12.6935 2.48825 12.5299 2.53719 12.3984 2.63746C11.8715 3.03449 11.403 3.50361 11.0067 4.03105C10.9064 4.16256 10.8575 4.32613 10.8691 4.49112C10.8808 4.65611 10.9522 4.81119 11.07 4.9273L11.5186 5.37589C11.2875 5.7843 11.1071 6.21939 10.9814 6.67152H10.3467C10.1813 6.67039 10.0212 6.72961 9.89634 6.83807C9.77147 6.94654 9.69045 7.09681 9.66844 7.26074C9.57647 7.91376 9.57647 8.57646 9.66844 9.22949C9.69098 9.39294 9.77225 9.5426 9.89707 9.65051C10.0219 9.75842 10.1817 9.81721 10.3467 9.81589ZM10.4034 7.41964H11.2734C11.3587 7.41966 11.4415 7.3906 11.508 7.33725C11.5746 7.2839 11.621 7.20946 11.6395 7.12621C11.7673 6.55509 11.9932 6.01047 12.307 5.51652C12.3526 5.44455 12.3724 5.35919 12.363 5.2745C12.3537 5.18981 12.3157 5.11083 12.2555 5.05058L11.6405 4.43511C11.9758 3.99757 12.3673 3.60608 12.8048 3.27074L13.4198 3.88621C13.4801 3.94657 13.5592 3.98458 13.644 3.99395C13.7288 4.00333 13.8142 3.98351 13.8862 3.93777C14.3802 3.6239 14.9248 3.39805 15.4959 3.27027C15.5788 3.25169 15.6529 3.20555 15.7061 3.13939C15.7593 3.07323 15.7885 2.99096 15.7889 2.90605V2.03371C16.3355 1.96246 16.889 1.96246 17.4356 2.03371V2.90605C17.4356 2.99135 17.4647 3.0741 17.518 3.14065C17.5714 3.20721 17.6458 3.25359 17.7291 3.27214C18.2999 3.39918 18.8444 3.62423 19.3383 3.9373C19.4103 3.98304 19.4958 4.00286 19.5805 3.99348C19.6653 3.98411 19.7444 3.9461 19.8047 3.88574L20.4202 3.27027C20.8574 3.60575 21.2488 3.99723 21.5841 4.43464L20.9691 5.05011C20.9088 5.11036 20.8709 5.18934 20.8615 5.27403C20.8521 5.35872 20.8719 5.44408 20.9175 5.51605C21.2314 6.00964 21.4573 6.55397 21.585 7.1248C21.6036 7.20797 21.6501 7.2823 21.7166 7.33556C21.7832 7.38881 21.8659 7.41781 21.9511 7.41777H22.8211C22.893 7.96432 22.893 8.51793 22.8211 9.06449H21.9506C21.8655 9.06455 21.7829 9.0936 21.7164 9.14684C21.65 9.20009 21.6036 9.27437 21.585 9.35746C21.4574 9.92906 21.2315 10.4742 20.9175 10.9685C20.8719 11.0405 20.8521 11.1259 20.8615 11.2106C20.8709 11.2953 20.9088 11.3742 20.9691 11.4345L21.5845 12.05C21.2489 12.4873 20.8575 12.8787 20.4202 13.2143L19.8047 12.5993C19.7444 12.5392 19.6654 12.5013 19.5807 12.492C19.496 12.4827 19.4107 12.5026 19.3387 12.5482C18.8447 12.8622 18.2999 13.0881 17.7286 13.2157C17.6455 13.2344 17.5712 13.2807 17.518 13.3472C17.4647 13.4136 17.4357 13.4962 17.4356 13.5814V14.4518C16.889 14.5231 16.3355 14.5231 15.7889 14.4518V13.5814C15.7889 13.4961 15.7599 13.4134 15.7067 13.3469C15.6534 13.2803 15.5791 13.2339 15.4959 13.2153C14.9247 13.088 14.3799 12.8621 13.8862 12.5478C13.8142 12.502 13.7288 12.4822 13.644 12.4916C13.5592 12.501 13.4801 12.539 13.4198 12.5993L12.8048 13.2148C12.3673 12.8795 11.9758 12.488 11.6405 12.0504L12.2555 11.4373C12.3157 11.377 12.3537 11.2981 12.363 11.2134C12.3724 11.1287 12.3526 11.0433 12.307 10.9714C11.9931 10.4775 11.7672 9.93282 11.6395 9.36167C11.621 9.27842 11.5746 9.20398 11.508 9.15063C11.4415 9.09728 11.3587 9.06822 11.2734 9.06824H10.4034C10.3316 8.52184 10.3316 7.96838 10.4034 7.42199V7.41964ZM16.6125 11.9998C17.3552 11.9998 18.0812 11.7796 18.6988 11.3669C19.3163 10.9543 19.7976 10.3678 20.0818 9.68168C20.366 8.99551 20.4404 8.24048 20.2955 7.51205C20.1506 6.78362 19.793 6.11451 19.2678 5.58935C18.7426 5.06418 18.0735 4.70653 17.3451 4.56164C16.6167 4.41675 15.8616 4.49111 15.1755 4.77533C14.4893 5.05955 13.9028 5.54086 13.4902 6.15839C13.0776 6.77592 12.8573 7.50194 12.8573 8.24464C12.8585 9.24023 13.2544 10.1947 13.9584 10.8987C14.6624 11.6027 15.6169 11.9987 16.6125 11.9998ZM16.6125 5.23949C17.2069 5.23949 17.7879 5.41574 18.2821 5.74595C18.7763 6.07616 19.1614 6.5455 19.3889 7.09462C19.6164 7.64374 19.6759 8.24798 19.5599 8.83092C19.444 9.41386 19.1577 9.94933 18.7375 10.3696C18.3172 10.7899 17.7817 11.0761 17.1988 11.1921C16.6158 11.308 16.0116 11.2485 15.4625 11.021C14.9134 10.7936 14.444 10.4084 14.1138 9.91422C13.7836 9.42002 13.6073 8.83901 13.6073 8.24464C13.6077 7.44757 13.9244 6.68322 14.4878 6.11942C15.0513 5.55563 15.8154 5.23848 16.6125 5.23761V5.23949ZM15.053 8.59949C15.0182 8.56465 14.9905 8.52329 14.9717 8.47778C14.9529 8.43227 14.9432 8.38349 14.9432 8.33424C14.9433 8.28499 14.953 8.23623 14.9718 8.19073C14.9907 8.14524 15.0184 8.10391 15.0532 8.0691C15.088 8.03429 15.1294 8.00668 15.1749 7.98785C15.2204 7.96902 15.2692 7.95934 15.3184 7.95937C15.3677 7.95939 15.4165 7.96911 15.462 7.98798C15.5074 8.00685 15.5488 8.03449 15.5836 8.06933L16.1859 8.67167L17.625 7.02027C17.6925 6.95369 17.7826 6.91512 17.8773 6.91232C17.9721 6.90951 18.0644 6.94269 18.1356 7.00517C18.2069 7.06765 18.2519 7.1548 18.2615 7.24908C18.2711 7.34337 18.2447 7.43781 18.1875 7.51339L16.4859 9.46527C16.4521 9.50405 16.4107 9.53546 16.3643 9.55756C16.3178 9.57966 16.2673 9.59196 16.2159 9.59371H16.2033C16.154 9.59374 16.1052 9.58408 16.0597 9.56526C16.0142 9.54644 15.9728 9.51883 15.938 9.48402L15.053 8.59949Z"></path></svg>