<svg xmlns="http://www.w3.org/2000/svg" fill="none" viewBox="0 0 24 24" height="24" width="24"><g clip-path="url(#clip0_16041_529)"><path fill="black" d="M3.99988 24C3.93542 24 3.87042 23.9879 3.80835 23.9619C3.62195 23.885 3.5 23.7021 3.5 23.4999V20.4999C3.5 20.2234 3.72394 20.0001 3.99988 20.0001C4.276 20.0001 4.49994 20.2234 4.49994 20.4999V22.2931L6.64648 20.1465C6.73987 20.0524 6.86749 20.0001 6.99988 20.0001H21.9999C22.5514 20.0001 23 19.5515 23 18.9999V5.00006C23 4.44855 22.5514 3.99994 21.9999 3.99994H19.4999C19.2234 3.99994 18.9999 3.776 18.9999 3.50006C18.9999 3.22394 19.2234 3 19.4999 3H21.9999C23.1029 3 23.9999 3.89703 23.9999 5.00006V18.9999C23.9999 20.103 23.1029 21 21.9999 21H7.20697L4.35345 23.8535C4.25787 23.9489 4.12988 24 3.99988 24Z"></path><path fill="black" d="M2.00006 21C0.897034 21 0 20.103 0 18.9999V5.00006C0 3.89703 0.897034 3 2.00006 3H4.5C4.77594 3 5.00006 3.22394 5.00006 3.50006C5.00006 3.776 4.77594 3.99994 4.5 3.99994H2.00006C1.44855 3.99994 0.999939 4.44855 0.999939 5.00006V18.9999C0.999939 19.5515 1.44855 20.0001 2.00006 20.0001C2.276 20.0001 2.49994 20.2234 2.49994 20.4999C2.49994 20.7764 2.276 21 2.00006 21Z"></path><path fill="black" d="M18.9999 12.5001H18.5C18.2235 12.5001 17.9999 12.2759 17.9999 12C17.9999 11.7241 18.2235 11.4999 18.5 11.4999H18.9999C19.5514 11.4999 20 11.0515 20 10.5V9.50006C20 8.94855 19.5514 8.49994 18.9999 8.49994H18.5C18.2235 8.49994 17.9999 8.276 17.9999 8.00006V6.99994C17.9999 3.69159 15.3085 0.999939 11.9999 0.999939C8.69141 0.999939 5.99994 3.69159 5.99994 6.99994V8.00006C5.99994 8.276 5.776 8.49994 5.49988 8.49994C5.22394 8.49994 5 8.276 5 8.00006V6.99994C5 3.14008 8.13989 0 11.9999 0C15.86 0 18.9999 3.14008 18.9999 6.99994V7.5C20.1029 7.5 20.9999 8.39703 20.9999 9.50006V10.5C20.9999 11.603 20.1029 12.5001 18.9999 12.5001Z"></path><path fill="black" d="M5.49994 12.5001H5.00006C3.89703 12.5001 3 11.603 3 10.5V9.50006C3 8.39703 3.89703 7.5 5.00006 7.5H5.49994C5.77606 7.5 6 7.72394 6 8.00006V12C6 12.2759 5.77606 12.5001 5.49994 12.5001ZM5.00006 8.49994C4.44855 8.49994 3.99994 8.94855 3.99994 9.50006V10.5C3.99994 11.0515 4.44855 11.4999 5.00006 11.4999V8.49994Z"></path><path fill="black" d="M12 18.9999C11.1729 18.9999 10.5 18.327 10.5 17.4999C10.5 16.673 11.1729 15.9999 12 15.9999C12.652 15.9999 13.2079 16.4179 13.4145 17H13.5C15.9814 17 18 14.9814 18 12.5V9.99988C18 9.72394 18.2236 9.5 18.5001 9.5C18.7766 9.5 18.9999 9.72394 18.9999 9.99988V12.5C18.9999 15.5324 16.5324 17.9999 13.5 17.9999H12.9999C12.7234 17.9999 12.5001 17.7764 12.5001 17.4999C12.5001 17.2239 12.2756 17 12 17C11.7244 17 11.4999 17.2239 11.4999 17.4999C11.4999 17.776 11.7244 17.9999 12 17.9999C12.2759 17.9999 12.5001 18.2235 12.5001 18.5C12.5001 18.7765 12.2759 18.9999 12 18.9999Z"></path><path fill="black" d="M16.5001 7.49994C16.2236 7.49994 16 7.276 16 6.99988C16 4.79437 14.2056 2.99994 12.0001 2.99994C9.79456 2.99994 8.00012 4.79437 8.00012 6.99988C8.00012 7.276 7.776 7.49994 7.50006 7.49994C7.22412 7.49994 7 7.276 7 6.99988C7 4.24286 9.24304 2 12.0001 2C14.7571 2 17.0001 4.24286 17.0001 6.99988C17.0001 7.276 16.7766 7.49994 16.5001 7.49994Z"></path><path fill="black" d="M9.5 13H10.4999V14.0001H9.5V13Z"></path><path fill="black" d="M11.5 13H12.5001V14.0001H11.5V13Z"></path><path fill="black" d="M13.5 13H14.4999V14.0001H13.5V13Z"></path></g><defs><clipPath id="clip0_16041_529"><rect fill="white" height="24" width="24"></rect></clipPath></defs></svg>