<svg xmlns="http://www.w3.org/2000/svg" fill="none" viewBox="0 0 24 24" height="24" width="24"><g clip-path="url(#clip0_16041_715)"><mask height="24" width="24" y="0" x="0" maskUnits="userSpaceOnUse" style="mask-type:luminance" id="mask0_16041_715"><path fill="white" d="M0 1.90735e-06H24V24H0V1.90735e-06Z"></path></mask><g mask="url(#mask0_16041_715)"><path stroke-linejoin="round" stroke-linecap="round" stroke-miterlimit="10" stroke="black" d="M20.8395 4.53184C20.2537 5.11764 19.304 5.11764 18.7182 4.53184C18.1324 3.94605 18.1324 2.99631 18.7182 2.41052C19.304 1.82472 20.2537 1.82472 20.8395 2.41052C21.4253 2.99631 21.4253 3.94605 20.8395 4.53184Z"></path><path stroke-linejoin="round" stroke-linecap="round" stroke-miterlimit="10" stroke="black" d="M5.28187 21.5895C4.69607 22.1753 3.74634 22.1753 3.16054 21.5895C2.57474 21.0037 2.57474 20.0539 3.16054 19.4681C3.74634 18.8823 4.69607 18.8823 5.28187 19.4681C5.86766 20.0539 5.86766 21.0037 5.28187 21.5895Z"></path><path stroke-linejoin="round" stroke-linecap="round" stroke-miterlimit="10" stroke="black" d="M9.72607 23.307C10.4613 23.4541 11.2217 23.5312 12.0001 23.5312C18.3687 23.5312 23.5314 18.3685 23.5314 12C23.5314 9.21989 22.5474 6.66971 20.9089 4.67831"></path><path stroke-linejoin="round" stroke-linecap="round" stroke-miterlimit="10" stroke="black" d="M14.2959 0.697449C13.554 0.547543 12.7862 0.468839 12 0.468839C5.63147 0.468839 0.46875 5.63156 0.46875 12.0001C0.46875 14.7802 1.45275 17.3304 3.09127 19.3218"></path><path stroke-linejoin="round" stroke-linecap="round" stroke-miterlimit="10" stroke="black" d="M12.0001 15.4045C10.1198 15.4045 8.59553 13.8803 8.59553 12C8.59553 10.1198 10.1198 8.59552 12.0001 8.59552C13.8803 8.59552 15.4046 10.1198 15.4046 12C15.4046 13.8803 13.8803 15.4045 12.0001 15.4045ZM18.7892 10.5303C18.6106 9.69914 18.2836 8.92313 17.8367 8.23167L18.7348 7.3335L16.6616 5.26177L15.7642 6.15919C15.0727 5.71233 14.2968 5.38528 13.4656 5.20673V3.9375H10.5346V5.20673C9.70338 5.38528 8.92741 5.71233 8.23595 6.15919L7.33853 5.26177L5.2653 7.3335L6.16342 8.23167C5.71656 8.92313 5.38952 9.69914 5.21092 10.5303H3.93836L3.93677 13.4613H5.21088C5.38947 14.2925 5.71652 15.0685 6.16338 15.76L5.26183 16.6615L7.33356 18.7348L8.23586 17.8325C8.92736 18.2794 9.70338 18.6064 10.5346 18.785V20.0625H13.4656V18.785C14.2968 18.6064 15.0728 18.2794 15.7643 17.8325L16.6666 18.7348L18.7383 16.6615L17.8368 15.76C18.2836 15.0685 18.6107 14.2925 18.7893 13.4613H20.0634V10.5303H18.7892Z"></path></g></g><defs><clipPath id="clip0_16041_715"><rect fill="white" height="24" width="24"></rect></clipPath></defs></svg>