<svg xmlns="http://www.w3.org/2000/svg" fill="none" viewBox="0 0 24 24" height="24" width="24"><path fill="black" d="M22.3125 2.625H1.6875C1.33952 2.62538 1.00591 2.76379 0.759847 3.00985C0.513789 3.25591 0.375385 3.58952 0.375 3.9375V20.0625C0.375385 20.4105 0.513789 20.7441 0.759847 20.9902C1.00591 21.2362 1.33952 21.3746 1.6875 21.375H22.3125C22.6605 21.3746 22.9941 21.2362 23.2402 20.9902C23.4862 20.7441 23.6246 20.4105 23.625 20.0625V3.9375C23.6246 3.58952 23.4862 3.25591 23.2402 3.00985C22.9941 2.76379 22.6605 2.62538 22.3125 2.625ZM22.875 20.0625C22.8749 20.2116 22.8156 20.3546 22.7101 20.4601C22.6046 20.5656 22.4616 20.6249 22.3125 20.625H1.6875C1.53835 20.6249 1.39535 20.5656 1.28989 20.4601C1.18443 20.3546 1.12512 20.2116 1.125 20.0625V5.625H22.875V20.0625ZM22.875 4.875H1.125V3.9375C1.12512 3.78835 1.18443 3.64535 1.28989 3.53989C1.39535 3.43443 1.53835 3.37512 1.6875 3.375H22.3125C22.4616 3.37512 22.6046 3.43443 22.7101 3.53989C22.8156 3.64535 22.8749 3.78835 22.875 3.9375V4.875Z"></path><path fill="black" d="M1.875 4.5H2.25C2.34946 4.5 2.44484 4.46049 2.51516 4.39016C2.58549 4.31984 2.625 4.22446 2.625 4.125C2.625 4.02554 2.58549 3.93016 2.51516 3.85984C2.44484 3.78951 2.34946 3.75 2.25 3.75H1.875C1.77554 3.75 1.68016 3.78951 1.60984 3.85984C1.53951 3.93016 1.5 4.02554 1.5 4.125C1.5 4.22446 1.53951 4.31984 1.60984 4.39016C1.68016 4.46049 1.77554 4.5 1.875 4.5Z"></path><path fill="black" d="M3.375 4.5H3.75C3.84946 4.5 3.94484 4.46049 4.01516 4.39016C4.08549 4.31984 4.125 4.22446 4.125 4.125C4.125 4.02554 4.08549 3.93016 4.01516 3.85984C3.94484 3.78951 3.84946 3.75 3.75 3.75H3.375C3.27554 3.75 3.18016 3.78951 3.10984 3.85984C3.03951 3.93016 3 4.02554 3 4.125C3 4.22446 3.03951 4.31984 3.10984 4.39016C3.18016 4.46049 3.27554 4.5 3.375 4.5Z"></path><path fill="black" d="M4.875 4.5H5.25C5.34946 4.5 5.44484 4.46049 5.51516 4.39016C5.58549 4.31984 5.625 4.22446 5.625 4.125C5.625 4.02554 5.58549 3.93016 5.51516 3.85984C5.44484 3.78951 5.34946 3.75 5.25 3.75H4.875C4.77554 3.75 4.68016 3.78951 4.60984 3.85984C4.53951 3.93016 4.5 4.02554 4.5 4.125C4.5 4.22446 4.53951 4.31984 4.60984 4.39016C4.68016 4.46049 4.77554 4.5 4.875 4.5Z"></path><path fill="black" d="M16.2731 8.91751C16.2545 8.89262 16.2324 8.87052 16.2075 8.85188C15.0866 7.74541 13.575 7.125 12 7.125C10.425 7.125 8.91338 7.74541 7.7925 8.85188C7.76761 8.87052 7.74551 8.89262 7.72687 8.91751C6.61503 10.0446 5.99424 11.5658 6.00004 13.149C6.00584 14.7321 6.63774 16.2487 7.75781 17.3677C7.82813 17.4379 7.92348 17.4774 8.02289 17.4774C8.1223 17.4774 8.21765 17.4379 8.28797 17.3677L9.34875 16.3069C9.41899 16.2365 9.45844 16.141 9.45844 16.0416C9.45844 15.9421 9.41899 15.8467 9.34875 15.7763C8.82419 15.2519 8.46692 14.5837 8.32214 13.8562C8.17735 13.1288 8.25155 12.3747 8.53534 11.6894C8.81914 11.0041 9.29978 10.4184 9.91649 10.0063C10.5332 9.59417 11.2583 9.3742 12 9.3742C12.7417 9.3742 13.4668 9.59417 14.0835 10.0063C14.7002 10.4184 15.1809 11.0041 15.4647 11.6894C15.7484 12.3747 15.8226 13.1288 15.6779 13.8562C15.5331 14.5837 15.1758 15.2519 14.6512 15.7763C14.581 15.8467 14.5416 15.9421 14.5416 16.0416C14.5416 16.141 14.581 16.2365 14.6512 16.3069L15.712 17.3677C15.7823 17.4379 15.8777 17.4774 15.9771 17.4774C16.0765 17.4774 16.1719 17.4379 16.2422 17.3677C17.3623 16.2487 17.9942 14.7321 18 13.149C18.0058 11.5658 17.385 10.0446 16.2731 8.91751ZM8.56406 16.0308L8.03203 16.5628C7.28667 15.7075 6.84154 14.6319 6.76453 13.5H7.51594C7.59061 14.4328 7.95736 15.3183 8.56406 16.0308ZM7.51594 12.75H6.76359C6.84372 11.6189 7.28959 10.5445 8.0339 9.68907L8.56547 10.2211C7.96014 10.9338 7.59313 11.8181 7.51594 12.75ZM11.625 8.64094C10.6931 8.71814 9.80879 9.08515 9.09609 9.69047L8.56406 9.15891C9.41953 8.4146 10.4939 7.96873 11.625 7.8886V8.64094ZM12.375 8.64094V7.8886C13.5061 7.96873 14.5805 8.4146 15.4359 9.15891L14.9039 9.69047C14.1912 9.08515 13.3069 8.71814 12.375 8.64094ZM15.4345 10.2211L15.9661 9.68907C16.7104 10.5445 17.1563 11.6189 17.2364 12.75H16.4841C16.4069 11.8181 16.0399 10.9338 15.4345 10.2211ZM15.968 16.5628L15.4359 16.0308C16.0426 15.3183 16.4094 14.4328 16.4841 13.5H17.2355C17.1585 14.6319 16.7133 15.7075 15.968 16.5628Z"></path><path fill="black" d="M10.875 13.125C10.875 13.3315 10.9318 13.534 11.0392 13.7104C11.1466 13.8868 11.3005 14.0302 11.484 14.1249C11.6675 14.2196 11.8736 14.262 12.0796 14.2474C12.2856 14.2328 12.4836 14.1618 12.6519 14.0421C12.8202 13.9224 12.9523 13.7588 13.0338 13.569C13.1152 13.3792 13.1429 13.1707 13.1137 12.9663C13.0845 12.7618 12.9997 12.5694 12.8684 12.41C12.7371 12.2506 12.5644 12.1304 12.3694 12.0626C12.373 12.0419 12.3749 12.021 12.375 12V10.5C12.375 10.4005 12.3355 10.3052 12.2652 10.2348C12.1948 10.1645 12.0995 10.125 12 10.125C11.9005 10.125 11.8052 10.1645 11.7348 10.2348C11.6645 10.3052 11.625 10.4005 11.625 10.5V12C11.6251 12.021 11.627 12.0419 11.6306 12.0626C11.4101 12.1395 11.2189 12.2831 11.0836 12.4734C10.9482 12.6637 10.8753 12.8914 10.875 13.125ZM12 12.75C12.0742 12.75 12.1467 12.772 12.2083 12.8132C12.27 12.8544 12.3181 12.913 12.3465 12.9815C12.3748 13.05 12.3823 13.1254 12.3678 13.1982C12.3533 13.2709 12.3176 13.3377 12.2652 13.3902C12.2127 13.4426 12.1459 13.4783 12.0732 13.4928C12.0004 13.5073 11.925 13.4998 11.8565 13.4715C11.788 13.4431 11.7294 13.395 11.6882 13.3333C11.647 13.2717 11.625 13.1992 11.625 13.125C11.6251 13.0256 11.6647 12.9303 11.735 12.86C11.8053 12.7897 11.9006 12.7501 12 12.75Z"></path><path fill="black" d="M13.875 16.5H10.125C10.0255 16.5 9.93016 16.5395 9.85983 16.6098C9.78951 16.6802 9.75 16.7755 9.75 16.875V18.375C9.75 18.4745 9.78951 18.5698 9.85983 18.6402C9.93016 18.7105 10.0255 18.75 10.125 18.75H13.875C13.9745 18.75 14.0698 18.7105 14.1402 18.6402C14.2105 18.5698 14.25 18.4745 14.25 18.375V16.875C14.25 16.7755 14.2105 16.6802 14.1402 16.6098C14.0698 16.5395 13.9745 16.5 13.875 16.5ZM13.5 18H10.5V17.25H13.5V18Z"></path></svg>