<svg xmlns="http://www.w3.org/2000/svg" fill="none" viewBox="0 0 25 24" height="24" width="25"><path fill="black" d="M3.43506 12.0762C3.55083 12.0762 3.66412 12.0292 3.74583 11.9474C3.82755 11.8658 3.87451 11.7522 3.87451 11.6367C3.87451 11.5212 3.82768 11.4077 3.74583 11.3261C3.66412 11.2442 3.55083 11.1973 3.43506 11.1973C3.31956 11.1973 3.20627 11.2442 3.12456 11.3261C3.04271 11.4077 2.99561 11.5212 2.99561 11.6367C2.99561 11.7528 3.04271 11.8658 3.12456 11.9474C3.20627 12.0292 3.31956 12.0762 3.43506 12.0762Z"></path><path fill="black" d="M10.9149 20.6016H10.906C10.6633 20.6016 10.4666 20.7982 10.4666 21.041C10.4666 21.2838 10.6633 21.4805 10.906 21.4805H10.9149C11.1576 21.4805 11.3544 21.2838 11.3544 21.041C11.3544 20.7982 11.1576 20.6016 10.9149 20.6016Z"></path><path fill="black" d="M17.8147 10.5176H19.9903C20.2328 10.5176 20.4297 10.3208 20.4297 10.0781C20.4297 9.83533 20.2328 9.63867 19.9903 9.63867H17.8147C17.572 9.63867 17.3752 9.83533 17.3752 10.0781C17.3752 10.3208 17.572 10.5176 17.8147 10.5176Z"></path><path fill="black" d="M21.7498 8.29688H18.9919V3.04541C18.9919 1.77319 17.9569 0.738281 16.6848 0.738281H3.54541C2.27319 0.738281 1.23828 1.77319 1.23828 3.04541V20.9312C1.23828 22.2034 2.27319 23.2383 3.54541 23.2383H21.7498C22.8462 23.2383 23.7383 22.3462 23.7383 21.2498V10.2854C23.7383 9.18896 22.8462 8.29688 21.7498 8.29688ZM14.9492 15.0708L17.1329 17.2543H16.6914C16.4487 17.2543 16.2519 17.4512 16.2519 17.6938C16.2519 17.9366 16.4487 18.1332 16.6914 18.1332H18.1938C18.4366 18.1332 18.6332 17.9366 18.6332 17.6938V16.1914C18.6332 15.9487 18.4366 15.7519 18.1938 15.7519C17.9511 15.7519 17.7543 15.9487 17.7543 16.1914V16.6329L14.9492 13.8277V11.8647H22.8594V19.8614H14.9492V15.0708ZM22.8594 10.2854V10.9858H14.9492V10.2854C14.9492 9.6736 15.447 9.17578 16.0588 9.17578H21.7498C22.3616 9.17578 22.8594 9.6736 22.8594 10.2854ZM2.11719 20.9312V3.04541C2.11719 2.25783 2.75783 1.61719 3.54541 1.61719H16.6848C17.4722 1.61719 18.113 2.25783 18.113 3.04541V8.29688H17.2341V3.55078C17.2341 3.30798 17.0372 3.11133 16.7946 3.11133H3.43527C3.19247 3.11133 2.99582 3.30798 2.99582 3.55078V9.87891C2.99582 10.1217 3.19247 10.3184 3.43527 10.3184C3.6778 10.3184 3.87473 10.1217 3.87473 9.87891V3.99023H16.3552V8.29688H16.0588C14.9624 8.29688 14.0703 9.18896 14.0703 10.2854V12.9488L11.2498 10.1286H11.6014C11.8441 10.1286 12.0409 9.93164 12.0409 9.68912C12.0409 9.44632 11.8441 9.24966 11.6014 9.24966H10.1891C9.94632 9.24966 9.74966 9.44632 9.74966 9.68912V11.1013C9.74966 11.3441 9.94632 11.5407 10.1891 11.5407C10.4316 11.5407 10.6286 11.3441 10.6286 11.1013V10.7498L14.0703 14.1919V19.2832H3.87473V13.3945C3.87473 13.1517 3.6778 12.9551 3.43527 12.9551C3.19247 12.9551 2.99582 13.1517 2.99582 13.3945V19.7227C2.99582 19.9655 3.19247 20.1621 3.43527 20.1621H14.0703V21.2498C14.0703 21.6604 14.1954 22.0421 14.4095 22.3594H3.54541C2.75783 22.3594 2.11719 21.7187 2.11719 20.9312ZM21.7498 22.3594H16.0588C15.447 22.3594 14.9492 21.8616 14.9492 21.2498V20.7403H22.8594V21.2498C22.8594 21.8616 22.3616 22.3594 21.7498 22.3594Z"></path><path fill="black" d="M18.9097 21.0996H18.9041C18.6613 21.0996 18.4646 21.2965 18.4646 21.5391C18.4646 21.7819 18.6613 21.9785 18.9041 21.9785H18.9097C19.1525 21.9785 19.3491 21.7819 19.3491 21.5391C19.3491 21.2965 19.1525 21.0996 18.9097 21.0996Z"></path></svg>