<svg xmlns="http://www.w3.org/2000/svg" fill="none" viewBox="0 0 24 24" height="24" width="24"><g clip-path="url(#clip0_16041_8)"><path fill="black" d="M20.9999 1.21875H2.99993C1.34385 1.22073 0.00197754 2.56282 0 4.2189V19.8188C0.00197754 21.4749 1.34385 22.817 2.99993 22.8187H20.9999C22.656 22.817 23.9981 21.4749 24.0001 19.8188V4.2189C23.9981 2.56282 22.656 1.22073 20.9999 1.21875ZM2.99993 2.4189H20.9999C21.9937 2.41999 22.7988 3.22507 22.7999 4.2189V4.81875H1.19993V4.2189C1.20103 3.22507 2.00632 2.41999 2.99993 2.4189ZM20.9999 21.6188H2.99993C2.00632 21.6177 1.20103 20.8124 1.19993 19.8188V6.0189H22.7999V19.8188C22.7988 20.8124 21.9937 21.6177 20.9999 21.6188Z"></path><path fill="black" d="M4.20017 14.4186H9.0001C9.15918 14.4186 9.31189 14.3555 9.42439 14.243C9.53711 14.1303 9.60017 13.9778 9.60017 13.8185V10.2185C9.60017 10.0594 9.53711 9.90671 9.42439 9.79421C9.31189 9.68171 9.15918 9.61843 9.0001 9.61865H4.20017C4.04087 9.61843 3.88838 9.68171 3.77566 9.79421C3.66316 9.90671 3.6001 10.0594 3.6001 10.2185V13.8185C3.6001 13.9778 3.66316 14.1303 3.77566 14.243C3.88838 14.3555 4.04087 14.4186 4.20017 14.4186ZM4.80002 10.8186H8.40002V13.2187H4.80002V10.8186Z"></path><path fill="black" d="M19.8001 9.61865H12.6001C12.2687 9.61865 12 9.88716 12 10.2185C12 10.5499 12.2687 10.8186 12.6001 10.8186H19.8001C20.1314 10.8186 20.4001 10.5499 20.4001 10.2185C20.4001 9.88716 20.1314 9.61865 19.8001 9.61865Z"></path><path fill="black" d="M19.8001 13.2188H12.6001C12.2687 13.2188 12 13.4873 12 13.8186C12 14.15 12.2687 14.4187 12.6001 14.4187H19.8001C20.1314 14.4187 20.4001 14.15 20.4001 13.8186C20.4001 13.4873 20.1314 13.2188 19.8001 13.2188Z"></path><path fill="black" d="M19.8001 16.8188H4.20017C3.86882 16.8188 3.6001 17.0874 3.6001 17.4187C3.6001 17.75 3.86882 18.0188 4.20017 18.0188H19.8001C20.1314 18.0188 20.4002 17.75 20.4002 17.4187C20.4002 17.0874 20.1314 16.8188 19.8001 16.8188Z"></path></g><defs><clipPath id="clip0_16041_8"><rect fill="white" height="24" width="24"></rect></clipPath></defs></svg>