<svg xmlns="http://www.w3.org/2000/svg" fill="none" viewBox="0 0 275 132" height="132" width="275"><rect fill="white" height="132" width="275"></rect><path stroke-width="1.63642" stroke="black" d="M146.851 69.6223C149.731 70.543 152.333 72.2826 152.113 75.7191C151.96 78.1492 150.702 79.764 148.339 80.5633C142.012 82.7044 136.692 77.5658 134.053 72.3844C134.029 72.3409 133.992 72.3067 133.946 72.2873C133.901 72.2679 133.85 72.2644 133.802 72.2774C133.755 72.2904 133.713 72.3192 133.683 72.359C133.654 72.3988 133.639 72.4473 133.641 72.4968L134.24 81.6981C134.243 81.7385 134.257 81.7774 134.28 81.8102C134.304 81.843 134.336 81.8685 134.374 81.8836C134.411 81.8987 134.453 81.9029 134.492 81.8957C134.532 81.8884 134.569 81.87 134.599 81.8426C136.012 80.5151 137.955 80.3813 139.711 80.9862C142.853 82.0674 146.07 82.3137 149.346 81.5803C154.083 80.5205 157.53 77.175 157.305 72.0418C157.187 69.2477 155.86 66.673 153.462 65.3241C151.985 64.4944 150.379 63.7129 148.735 63.2365C146.236 62.5139 141.477 61.2346 140.075 59.2916C138.904 57.6679 138.747 55.9051 139.604 54.0031C140.453 52.1225 142.225 51.1162 144.919 50.9841C149.881 50.7433 152.932 54.7846 155.186 58.6385C155.396 58.999 155.496 58.9704 155.485 58.5529L155.309 50.2187C155.308 50.1967 155.301 50.1754 155.288 50.1574C155.275 50.1394 155.258 50.1256 155.237 50.1176C155.217 50.1096 155.194 50.1078 155.173 50.1125C155.151 50.1171 155.131 50.128 155.116 50.1437C153.59 51.771 151.813 51.4605 149.929 50.8182C145.24 49.2177 139.058 49.8333 135.723 53.8425C133.073 57.0274 133.271 62.7923 136.895 65.5221C139.716 67.6418 143.495 68.5518 146.851 69.6223Z"></path><path stroke-width="1.63642" stroke="black" d="M96.5581 81.2224C95.0807 80.1358 94.3902 78.9529 94.3956 77.0473C94.4099 71.013 94.3885 64.4398 94.3314 57.3278C94.3099 54.6247 94.2725 52.2374 96.6544 50.669C96.9149 50.4978 96.89 50.4121 96.5795 50.4121H85.3441C84.9159 50.4121 84.8873 50.5209 85.2585 50.7386C86.6966 51.5772 87.4263 52.9814 87.4477 54.9512C87.5298 62.8768 87.5262 70.285 87.437 77.1758C87.4156 79.0385 86.6912 80.407 85.2638 81.2813C84.9426 81.4776 84.9712 81.5757 85.3495 81.5757H96.4403C96.84 81.5757 96.8793 81.458 96.5581 81.2224Z"></path><path stroke-width="1.63642" stroke="black" d="M112.985 68.6202C115.433 68.7022 117.892 68.6898 120.361 68.5827C125.944 68.3365 131.409 65.4674 131.083 59.0495C130.756 52.7761 124.782 50.5012 119.398 50.4476C114.056 50.3905 108.78 50.3852 103.57 50.4316C103.216 50.4352 103.188 50.5315 103.484 50.7206C105.363 51.8982 105.646 53.4345 105.673 55.5434C105.734 61.0246 105.741 67.2499 105.695 74.2191C105.673 77.5539 105.978 79.5986 103.457 81.365C103.437 81.3783 103.421 81.3977 103.414 81.4205C103.406 81.4433 103.406 81.4682 103.413 81.4916C103.421 81.5149 103.436 81.5355 103.457 81.5504C103.477 81.5652 103.502 81.5734 103.527 81.5738H115.431C116.141 81.5738 116.175 81.4239 115.533 81.1241C113.909 80.3676 113.01 79.3702 112.835 78.132C112.428 75.188 112.664 72.0245 112.616 68.9842C112.612 68.7308 112.735 68.6095 112.985 68.6202Z"></path><path stroke-width="1.63642" stroke="black" d="M176.038 66.6523C174.058 63.2694 171.822 59.5903 169.331 55.615C168.271 53.9289 167.833 52.1517 169.743 50.7707C170.079 50.5317 170.04 50.4121 169.626 50.4121H157.983C157.619 50.4121 157.578 50.5263 157.86 50.7547C159.238 51.8788 160.412 53.2187 161.382 54.7746C164.119 59.146 166.946 63.6334 169.861 68.2367C169.961 68.3937 170.013 68.5668 170.016 68.7559C170.066 71.4894 170.072 74.0837 170.032 76.5388C169.99 79.1616 169.438 79.8843 167.693 81.276C167.44 81.4758 167.474 81.5757 167.795 81.5757H178.843C179.168 81.5757 179.204 81.4758 178.95 81.276C177.462 80.0877 176.745 79.2901 176.713 77.2079C176.67 74.4102 176.654 71.641 176.665 68.9004C176.665 68.6792 176.723 68.4758 176.841 68.2902C179.65 63.7583 182.508 59.2191 185.416 54.6729C186.34 53.2276 187.515 51.9555 188.938 50.8564C189.32 50.5638 189.27 50.4175 188.788 50.4175L182.338 50.4121C181.949 50.4121 181.916 50.5245 182.237 50.7493C185.288 52.8637 183.404 55.4597 181.964 57.6972C179.983 60.7732 178.106 63.7583 176.333 66.6523C176.317 66.6778 176.296 66.6989 176.27 66.7136C176.244 66.7283 176.215 66.736 176.185 66.736C176.156 66.736 176.127 66.7283 176.101 66.7136C176.075 66.6989 176.053 66.6778 176.038 66.6523Z"></path><path stroke-width="1.63642" stroke="black" d="M112.598 51.7227L112.651 67.3955C112.651 67.4295 112.665 67.4622 112.689 67.4863C112.713 67.5104 112.746 67.5239 112.78 67.5239L117.217 67.5079C118.146 67.5051 119.066 67.317 119.923 66.9541C120.78 66.5913 121.558 66.0609 122.213 65.3933C122.867 64.7257 123.386 63.9339 123.738 63.0633C124.091 62.1926 124.27 61.2602 124.267 60.3192L124.256 58.7133C124.249 56.8149 123.498 54.9969 122.168 53.6589C120.838 52.321 119.038 51.5726 117.164 51.5782L112.726 51.5942C112.692 51.5942 112.659 51.6077 112.635 51.6318C112.611 51.6559 112.598 51.6886 112.598 51.7227Z"></path><path fill="black" d="M146.851 69.6223C143.495 68.5518 139.716 67.6418 136.895 65.5221C133.271 62.7923 133.073 57.0274 135.723 53.8425C139.058 49.8333 145.24 49.2177 149.929 50.8182C151.813 51.4605 153.59 51.771 155.116 50.1437C155.131 50.128 155.151 50.1171 155.173 50.1125C155.194 50.1078 155.217 50.1096 155.237 50.1176C155.258 50.1256 155.275 50.1394 155.288 50.1574C155.301 50.1754 155.308 50.1967 155.309 50.2187L155.485 58.5529C155.496 58.9704 155.396 58.999 155.186 58.6385C152.932 54.7846 149.881 50.7433 144.919 50.9841C142.225 51.1162 140.453 52.1225 139.604 54.0031C138.747 55.9051 138.904 57.6679 140.075 59.2916C141.477 61.2346 146.236 62.5139 148.735 63.2365C150.379 63.7129 151.985 64.4944 153.462 65.3241C155.86 66.673 157.187 69.2477 157.305 72.0418C157.53 77.175 154.083 80.5205 149.346 81.5803C146.07 82.3137 142.853 82.0674 139.711 80.9862C137.955 80.3813 136.012 80.5151 134.599 81.8426C134.569 81.87 134.532 81.8884 134.492 81.8957C134.453 81.9029 134.411 81.8987 134.374 81.8836C134.336 81.8685 134.304 81.843 134.28 81.8102C134.257 81.7774 134.243 81.7385 134.24 81.6981L133.641 72.4968C133.639 72.4473 133.654 72.3988 133.683 72.359C133.713 72.3192 133.755 72.2904 133.802 72.2774C133.85 72.2644 133.901 72.2679 133.946 72.2873C133.992 72.3067 134.029 72.3409 134.053 72.3844C136.692 77.5658 142.012 82.7044 148.339 80.5633C150.702 79.764 151.96 78.1492 152.113 75.7191C152.333 72.2826 149.731 70.543 146.851 69.6223Z"></path><path fill="black" d="M94.3956 77.0473C94.3902 78.9529 95.0807 80.1358 96.5581 81.2224C96.8793 81.458 96.84 81.5757 96.4403 81.5757H85.3495C84.9712 81.5757 84.9426 81.4776 85.2638 81.2813C86.6912 80.407 87.4156 79.0385 87.437 77.1758C87.5262 70.285 87.5298 62.8768 87.4477 54.9512C87.4263 52.9814 86.6966 51.5772 85.2585 50.7386C84.8873 50.5209 84.9159 50.4121 85.3441 50.4121H96.5795C96.89 50.4121 96.9149 50.4978 96.6544 50.669C94.2725 52.2374 94.3099 54.6247 94.3314 57.3278C94.3885 64.4398 94.4099 71.013 94.3956 77.0473Z"></path><path fill="black" d="M112.616 68.9842C112.664 72.0245 112.428 75.188 112.835 78.132C113.01 79.3702 113.909 80.3676 115.533 81.1241C116.175 81.4239 116.141 81.5738 115.431 81.5738H103.527C103.502 81.5734 103.477 81.5652 103.457 81.5504C103.436 81.5355 103.421 81.5149 103.413 81.4916C103.406 81.4682 103.406 81.4433 103.414 81.4205C103.421 81.3977 103.437 81.3783 103.457 81.365C105.978 79.5986 105.673 77.5539 105.695 74.2191C105.741 67.2499 105.734 61.0246 105.673 55.5434C105.646 53.4345 105.363 51.8982 103.484 50.7206C103.188 50.5315 103.216 50.4352 103.57 50.4316C108.78 50.3852 114.056 50.3905 119.398 50.4476C124.782 50.5012 130.756 52.7761 131.083 59.0495C131.409 65.4674 125.944 68.3365 120.361 68.5827C117.892 68.6898 115.433 68.7022 112.985 68.6202C112.735 68.6095 112.612 68.7308 112.616 68.9842ZM112.6 51.7216L112.653 67.3944C112.653 67.4285 112.667 67.4611 112.691 67.4852C112.715 67.5093 112.747 67.5229 112.782 67.5229L117.219 67.5068C118.148 67.504 119.067 67.3159 119.925 66.953C120.782 66.5902 121.56 66.0598 122.215 65.3922C122.869 64.7246 123.388 63.9329 123.74 63.0622C124.093 62.1916 124.272 61.2591 124.269 60.3181L124.258 58.7123C124.251 56.8138 123.5 54.9958 122.17 53.6578C120.84 52.3199 119.04 51.5715 117.165 51.5771L112.728 51.5931C112.694 51.5931 112.661 51.6067 112.637 51.6308C112.613 51.6548 112.6 51.6875 112.6 51.7216Z"></path><path fill="black" d="M176.038 66.6523C176.053 66.6778 176.075 66.6989 176.101 66.7136C176.127 66.7283 176.156 66.736 176.185 66.736C176.215 66.736 176.244 66.7283 176.27 66.7136C176.296 66.6989 176.317 66.6778 176.333 66.6523C178.106 63.7583 179.983 60.7732 181.964 57.6972C183.404 55.4597 185.288 52.8637 182.237 50.7493C181.916 50.5245 181.949 50.4121 182.338 50.4121L188.788 50.4175C189.27 50.4175 189.32 50.5638 188.938 50.8564C187.515 51.9555 186.34 53.2276 185.416 54.6729C182.508 59.2191 179.65 63.7583 176.841 68.2902C176.723 68.4758 176.665 68.6792 176.665 68.9004C176.654 71.641 176.67 74.4102 176.713 77.2079C176.745 79.2901 177.462 80.0877 178.95 81.276C179.204 81.4758 179.168 81.5757 178.843 81.5757H167.795C167.474 81.5757 167.44 81.4758 167.693 81.276C169.438 79.8843 169.99 79.1616 170.032 76.5388C170.072 74.0837 170.066 71.4894 170.016 68.7559C170.013 68.5668 169.961 68.3937 169.861 68.2367C166.946 63.6334 164.119 59.146 161.382 54.7746C160.412 53.2187 159.238 51.8788 157.86 50.7547C157.578 50.5263 157.619 50.4121 157.983 50.4121H169.626C170.04 50.4121 170.079 50.5317 169.743 50.7707C167.833 52.1517 168.271 53.9289 169.331 55.615C171.822 59.5903 174.058 63.2694 176.038 66.6523Z"></path><path fill="white" d="M112.602 51.7227C112.602 51.6886 112.615 51.6559 112.639 51.6318C112.663 51.6077 112.696 51.5942 112.73 51.5942L117.167 51.5782C119.042 51.5726 120.842 52.321 122.172 53.6589C123.502 54.9969 124.253 56.8149 124.26 58.7133L124.271 60.3192C124.274 61.2602 124.095 62.1926 123.742 63.0633C123.39 63.9339 122.871 64.7257 122.217 65.3933C121.562 66.0609 120.784 66.5913 119.927 66.9541C119.069 67.317 118.15 67.5051 117.221 67.5079L112.784 67.5239C112.749 67.5239 112.717 67.5104 112.693 67.4863C112.669 67.4622 112.655 67.4295 112.655 67.3955L112.602 51.7227Z"></path></svg>