<svg xmlns="http://www.w3.org/2000/svg" fill="none" viewBox="0 0 28 29" height="29" width="28"><g clip-path="url(#clip0_4873_22130)"><path fill="black" d="M19.5 11.1465C24.1944 11.1465 28 14.9521 28 19.6465C28 24.3409 24.1944 28.1465 19.5 28.1465C14.8056 28.1465 11 24.3409 11 19.6465C11 14.9521 14.8056 11.1465 19.5 11.1465ZM16.5 16.1465L18.6992 21.668L17.7842 24.1465H19.5742L22.668 16.1465H20.8584L19.584 19.6016L18.3672 16.1465H16.5Z"></path><path fill="black" d="M8.5 0.146484C13.1944 0.146484 17 3.95206 17 8.64648C17 9.2003 16.9449 9.74134 16.8438 10.2656C13.595 11.1837 11.0372 13.7415 10.1191 16.9902C9.59485 17.0914 9.05382 17.1465 8.5 17.1465C3.80558 17.1465 0 13.3409 0 8.64648C0 3.95206 3.80558 0.146484 8.5 0.146484ZM4.5 11.4697H12.5L10.9209 8.80762L12.5 6.14648H4.5V11.4697Z"></path></g><defs><clipPath id="clip0_4873_22130"><rect transform="translate(0 0.146484)" fill="white" height="28" width="28"></rect></clipPath></defs></svg>