<svg xmlns="http://www.w3.org/2000/svg" width="150" height="24" viewBox="0 0 150 24" fill="none"><path d="M77.1942 19.4546C78.5693 20.2797 80.1445 20.6798 81.7446 20.6798C83.3448 20.6798 84.8949 20.2547 86.27 19.4546C89.0703 17.8045 90.7954 14.8292 90.7954 11.5789C90.7954 9.9788 90.3704 8.40366 89.5703 7.00353C88.7703 5.62841 87.6452 4.50331 86.27 3.70323C83.4698 2.07809 80.0195 2.07809 77.2192 3.70323C75.8441 4.50331 74.719 5.62841 73.9439 7.00353C73.1439 8.37866 72.7188 9.95379 72.7188 11.5539C72.6938 14.8042 74.394 17.8045 77.1942 19.4546ZM78.3443 5.67841C79.3694 5.07836 80.5445 4.75333 81.7196 4.75333C82.9197 4.75333 84.0948 5.05336 85.1199 5.67841C86.145 6.27847 86.9951 7.12855 87.5701 8.15364C88.7703 10.2788 88.7703 12.8791 87.5701 14.9792C86.9701 16.0043 86.145 16.8544 85.1199 17.4795C83.0197 18.7046 80.4445 18.7046 78.3443 17.4795C77.3192 16.8794 76.4692 16.0293 75.8941 14.9792C74.694 12.8541 74.694 10.2538 75.8941 8.15364C76.4692 7.12855 77.3192 6.27847 78.3443 5.67841ZM67.0933 20.5047H64.2181L57.4425 10.9289H60.0177C60.6177 10.9289 61.2428 10.8789 61.8178 10.7789C62.1929 10.7289 62.5679 10.6289 62.9179 10.5038C63.468 10.2788 63.943 9.87879 64.2681 9.37875C64.5681 8.95371 64.7431 8.42866 64.7431 7.90361C64.7431 7.37857 64.5681 6.87852 64.2681 6.45348C63.918 5.97844 63.468 5.60341 62.9179 5.35338C62.2929 5.05336 61.5928 4.90334 60.8928 4.92835H56.7674L56.8174 20.5047H54.4922V2.62814H60.9178C61.7428 2.62814 62.5679 2.75315 63.343 3.02817C64.068 3.3032 64.7431 3.70323 65.3182 4.20328C65.8682 4.67832 66.2932 5.25337 66.5933 5.90343C66.8933 6.52849 67.0433 7.20355 67.0433 7.87861C67.0433 8.9287 66.6933 9.9538 66.0432 10.7789C65.7432 11.1539 65.4182 11.5039 65.0431 11.804C64.6681 12.104 64.2681 12.354 63.818 12.579C63.218 12.8291 62.5679 12.9541 61.9179 12.9541L67.0933 20.5047ZM101.546 20.1547C102.396 20.5047 103.297 20.7048 104.222 20.7048C106.072 20.7048 107.872 19.9547 109.172 18.6046C110.472 17.2795 111.197 15.5043 111.172 13.6291V2.65314H108.897V13.6291C108.897 14.2542 108.772 14.8792 108.547 15.4793C108.322 16.0543 107.972 16.5794 107.522 17.0294C107.072 17.4545 106.572 17.8045 106.022 18.0545C105.472 18.3045 104.847 18.4296 104.247 18.4296C103.022 18.4296 101.921 17.9545 100.946 17.0294C100.496 16.5794 100.171 16.0543 99.9213 15.4793C99.6962 14.9042 99.5712 14.2792 99.5712 13.6291V2.65314H97.296V13.6291C97.296 14.5542 97.471 15.4793 97.8211 16.3294C98.1711 17.1794 98.6711 17.9545 99.3212 18.5796C99.9212 19.2546 100.696 19.8047 101.546 20.1547ZM132.099 2.65314V4.95335H126.049V20.5297H123.723V4.95335H117.648V2.65314H132.099ZM138.6 2.65314V20.5297H150.001V18.2295H140.85V12.729H147.851V10.4288H140.85V4.97835H150.001V2.67814H138.6V2.65314Z" fill="black"></path><path d="M32.7146 11.8574C34.1647 13.3075 35.6149 14.7826 37.115 16.2578C36.4649 16.8578 35.8399 17.4829 35.1898 18.0829C33.7397 19.533 32.2646 20.9582 30.6644 22.2333C28.7142 23.7834 26.414 23.8334 24.4639 22.0833C21.7886 19.6831 19.1634 17.2328 16.6632 14.6576L16.4881 14.4826C13.9129 11.8324 11.3627 9.20713 7.0873 8.23204C7.93738 7.48197 8.71245 6.73191 9.51252 6.00684C11.2127 4.4317 12.7878 2.95657 14.513 1.63145C17.3382 -0.518744 19.7884 -0.618755 22.4137 1.78146C25.914 5.00675 29.2893 8.38205 32.7146 11.8574ZM10.8876 14.4826C8.08739 17.2078 5.28714 19.9081 2.38688 22.7333C-1.13844 20.1581 -0.288361 15.9827 1.91184 13.8325C4.31205 11.4823 9.18749 11.5573 10.8876 14.4826Z" fill="black"></path></svg>