<svg xmlns="http://www.w3.org/2000/svg" width="109" height="32" viewBox="0 0 109 32" fill="none"><g clip-path="url(#clip0_343_1555)"><path d="M61.3767 6.4C61.9535 6.4 62.5116 6.17674 62.9209 5.78605C63.3302 5.39535 63.5721 4.83721 63.5907 4.27907C63.5907 3.70233 63.3488 3.14419 62.9395 2.73488C62.5302 2.32558 61.9721 2.08372 61.3953 2.08372C60.8186 2.10233 60.2791 2.32558 59.8698 2.75349C59.4605 3.16279 59.2372 3.72093 59.2558 4.27907C59.2558 4.83721 59.4791 5.37674 59.8884 5.78605C60.2791 6.15814 60.8186 6.38139 61.3767 6.4ZM76.3721 8.44651H81.693V8.87442C81.3953 8.93023 81.1163 9.02326 80.8558 9.17209C80.3721 9.39535 79.4047 10.493 78.6419 12.3349C77.3767 15.5163 76.0558 19.293 74.6605 23.6093L74.1395 25.2465C73.9163 25.9907 73.7116 26.4744 73.6186 26.7535C73.5256 27.0512 73.3953 27.4977 73.1721 28.0372C73.0419 28.4465 72.8744 28.8558 72.6698 29.2279C72.4093 29.7116 71.9256 30.6977 71.5349 30.9953C70.9209 31.5163 70.0093 32.093 68.8744 32C66.6605 32 65.0046 30.3628 64.986 28.4279C64.986 27.107 65.8233 26.2326 67.0884 26.2326C68 26.2326 68.8 26.7163 68.8 27.7395C68.8 28.4837 68.0558 29.2465 68.0558 29.6372C68.0558 30.6419 68.6326 31.107 69.7674 31.107C70.6791 31.107 71.4233 30.5302 71.9814 29.3767C72.7256 28.0558 72.8 26.6046 72.1674 24.986L67.4977 12.707C66.4186 9.87907 65.6186 8.94884 64.614 8.83721V8.4093H71.9814V8.83721C71.107 8.93023 70.6605 9.45116 70.6605 10.3814C70.6605 11.0512 70.9209 12.093 71.4046 13.414L72.2791 15.7953C73.2837 18.3814 74.1023 20.6326 74.5116 22.0465C75.4605 19.107 76.3349 16.5395 77.1721 14.2884C77.786 12.614 78.0837 11.4233 78.0837 10.7163C78.0837 9.45116 77.3953 8.87442 76.3721 8.87442V8.44651ZM25.1535 24.1302C24.2047 23.9628 23.4047 23.1256 23.4047 21.3581V0L18.0465 1.15349V1.6C18.9581 1.50698 19.8698 2.30698 19.8698 4.0186V21.3581C19.8698 23.0326 18.9581 24 18.0465 24.1302C17.9535 24.1488 17.8791 24.1488 17.786 24.1674C17.3209 24.2046 16.8558 24.1116 16.4279 23.9256C15.7023 23.6093 15.107 23.0512 14.6047 22.2326L12.1302 18.307C11.6093 17.4698 10.8279 16.8372 9.91628 16.4837C9.00465 16.1302 8 16.0744 7.05116 16.3349L9.84186 13.2651C11.9442 10.9395 13.8977 9.46977 15.7395 8.85581V8.42791H9.6V8.85581C11.1814 9.46977 11.0884 10.8279 9.26512 12.9488L5.35814 17.4884V0L0 1.15349V1.6C0.911628 1.6 1.82326 2.49302 1.82326 4.07442V21.3395C1.82326 23.2558 0.930233 24 0 24.1302V24.5581H7.10698V24.1302C5.93488 23.9628 5.35814 23.0698 5.35814 21.3581V18.1767L6.88372 16.5023L10.5674 22.5302C11.4419 23.9814 12.2605 24.5581 13.5442 24.5581H25.8977V24.2233C25.9163 24.2233 25.5628 24.2046 25.1535 24.1302ZM39.8884 22.1023V14.8837C39.814 10.1767 37.8233 8.0186 33.2651 8.0186C31.814 8 30.4 8.48372 29.2465 9.37674C28.0372 10.2884 27.4605 11.3116 27.4605 12.5023C27.4605 13.6558 28.1116 14.5302 29.1721 14.5302C30.307 14.5302 31.1256 13.8791 31.1256 12.986C31.1256 12.3163 30.6791 11.3674 30.6791 10.7349C30.6791 9.5814 31.5535 8.57674 33.0791 8.57674C35.0326 8.57674 36.4279 10.0279 36.4279 13.2465V15.1814L34.8093 15.5721C33.9721 15.7395 33.2465 15.907 32.707 16.0558C32.1488 16.2233 31.4419 16.4465 30.6047 16.7628C28.9116 17.414 28.0186 18.0279 27.2372 19.1814C26.8465 19.7395 26.6605 20.4093 26.6605 21.0791C26.6605 23.7581 28.5395 24.986 31.1628 24.986C33.2465 24.986 35.4419 23.8884 36.4465 21.8233C36.4651 22.4744 36.614 23.107 36.9116 23.7023C38.0093 25.9163 41.6558 24.614 41.6558 24.614V24.186C40.0186 24.4279 39.8884 22.5488 39.8884 22.1023ZM36.4279 19.8698C36.4279 20.9302 36.0372 21.8046 35.2558 22.4186C34.5116 23.0326 33.7302 23.3488 32.9116 23.3488C31.3302 23.3488 30.2884 22.3256 30.2884 20.4093C30.2884 19.5163 30.7907 18.6791 31.2 18.1953C31.5349 17.8605 31.907 17.5814 32.3349 17.3953C32.893 17.0977 33.1535 16.9488 33.5442 16.7814L35.0326 16.2419C35.7767 15.9442 36.2233 15.7953 36.4279 15.7023V19.8698ZM108.093 8.44651H95.4791V0H108.093L105.451 4.22326L108.093 8.44651ZM82.4372 22.493C80.8744 20.893 80 18.7349 80.0372 16.4837C80.0186 15.386 80.2233 14.2884 80.6326 13.2651C81.0419 12.2419 81.6558 11.3116 82.4372 10.5116C84.0372 8.83721 85.9721 8 88.2605 8C90.493 8 92.4465 8.83721 94.0465 10.5116C94.8279 11.293 95.4605 12.2233 95.8698 13.2465C96.2977 14.2698 96.5023 15.3674 96.4837 16.4837C96.5023 17.6 96.2977 18.6977 95.8698 19.7209C95.4419 20.7442 94.8279 21.693 94.0465 22.4744C92.4465 24.1116 90.5116 24.9674 88.2605 24.9674C85.9907 24.986 84.0372 24.1488 82.4372 22.493ZM91.1814 10.7907C90.5488 9.54419 89.693 8.8186 88.707 8.61395C86.6977 8.20465 84.9302 10.2698 84.2605 13.5256C83.9814 14.9953 83.907 16.4837 84.0558 17.9535C84.2047 19.4419 84.614 20.8744 85.2837 22.214C85.9349 23.4605 86.7721 24.186 87.7581 24.3907C89.7674 24.8 91.5907 22.6605 92.2605 19.3674C92.8186 16.614 92.5395 13.2651 91.1814 10.7907Z" fill="black"></path><path d="M63.2547 21.3599V8.44829H51.8314V8.83899C53.357 9.06225 54.0826 10.2157 53.3942 12.0576C49.8221 21.6948 50.0454 21.2669 49.8221 22.0297C49.5989 21.2855 49.0779 19.4622 48.2407 17.1739C47.4035 14.8855 46.8454 13.3785 46.6221 12.6902C45.7477 10.0111 46.0454 9.02504 47.4593 8.85759V8.42969H40.0547V8.85759C41.1524 9.08085 42.1384 10.346 42.9384 12.5971L44.0733 15.5367C45.3198 18.6995 46.7896 23.0715 47.2733 24.5599H49.7291C50.5291 22.2715 53.6919 13.1181 54.1198 12.1878C54.5849 11.1274 55.1058 10.3274 55.6826 9.76922C55.9617 9.47155 56.2965 9.22969 56.6872 9.08085C57.0593 8.93201 57.4686 8.83899 57.8779 8.85759C57.8779 8.85759 59.664 8.85759 59.664 10.5692V21.3785C59.664 23.1832 58.7896 24.0204 57.8779 24.1506V24.5785H64.9477V24.1506C64.0361 24.0018 63.2547 23.1646 63.2547 21.3599Z" fill="black"></path></g><defs><clipPath id="clip0_343_1555"><rect width="108.093" height="32" fill="white"></rect></clipPath></defs></svg>