<svg xmlns="http://www.w3.org/2000/svg" width="176" height="29" viewBox="0 0 176 29" fill="none"><g clip-path="url(#clip0_343_1475)"><path d="M16.4312 22.6934L21.2325 0H26.1784L24.2785 8.91418L24.3508 8.94818C25.0038 8.2075 25.8106 7.61433 26.7162 7.20897C27.6219 6.80361 28.6053 6.59556 29.5996 6.59894C32.1844 6.59894 33.6507 8.11184 33.6507 10.6209C33.6315 11.5951 33.5162 12.5653 33.3065 13.5175L31.3722 22.6968H26.3953L28.2573 13.8064C28.4007 13.1621 28.4734 12.5045 28.4741 11.8448C28.4741 10.8792 28.0439 10.1993 26.9322 10.1993C25.3558 10.1993 23.6728 12.0012 23.0257 14.9318L21.3771 22.6934H16.4312Z" fill="black"></path><path d="M50.1271 19.0389C50.7152 19.4758 51.436 19.7023 52.1716 19.6814C54.925 19.6814 56.8284 15.6017 56.8284 12.7289C56.8284 11.539 56.3637 10.2845 54.8562 10.2845C53.1353 10.2845 51.5245 12.1169 50.9497 14.8878L50.1271 19.0389ZM43.0645 29.0002L46.5063 12.7459C46.9021 10.9134 47.2945 8.46559 47.5113 6.8575H51.8825L51.5968 9.23734H51.6691C52.2817 8.43478 53.071 7.78026 53.9773 7.32322C54.8836 6.86618 55.8833 6.61858 56.9007 6.59912C60.5215 6.59912 61.9877 9.27134 61.9877 12.2631C61.9877 17.6688 58.2017 23.0132 52.385 23.0132C51.3858 23.0461 50.3926 22.8494 49.4835 22.4386H49.3733L48.0138 29.0002H43.0645Z" fill="black"></path><path d="M88.4103 2.73682L87.512 6.95253H91.1328L90.4169 10.2673H86.7961L85.5054 16.1591C85.3596 16.7497 85.2754 17.3534 85.2542 17.961C85.2542 18.7973 85.6844 19.2801 86.7238 19.2801C87.1665 19.29 87.6094 19.2684 88.0489 19.2155L87.4776 22.6594C86.5167 22.8957 85.5282 23.0043 84.5383 22.9824C81.5989 22.9824 80.1671 21.5953 80.1671 19.5827C80.1756 18.6503 80.291 17.7219 80.5113 16.8152L81.9156 10.2673H79.7266L80.4459 6.95253H82.6315L83.2407 4.05593L88.4103 2.73682Z" fill="black"></path><path d="M102.429 10.3318C102.023 10.24 101.607 10.1955 101.19 10.1992C97.5006 10.1992 95.8279 13.6874 95.8279 16.8593C95.8279 18.3756 96.3682 19.4058 97.6933 19.4058C99.163 19.4058 100.846 17.7637 101.6 14.1905L102.429 10.3318ZM100.942 22.6933C100.977 21.789 101.084 20.7929 101.156 19.7287H101.049C99.5072 22.1766 97.4283 23.0129 95.6007 23.0129C92.6269 23.0129 90.7271 20.8881 90.7271 17.7671C90.7271 11.8107 93.5769 6.82324 102.536 6.82324C104.366 6.83687 106.186 7.08602 107.95 7.56439L106.14 15.7238C105.675 18.0144 105.435 20.3437 105.42 22.6797L100.942 22.6933Z" fill="black"></path><path d="M118.351 2.73682L117.453 6.95253H121.074L120.358 10.2673H116.737L115.446 16.1591C115.303 16.7501 115.22 17.3537 115.198 17.961C115.198 18.7973 115.625 19.2801 116.668 19.2801C117.111 19.2899 117.554 19.2683 117.993 19.2155L117.418 22.6594C116.458 22.8957 115.469 23.0043 114.479 22.9824C111.543 22.9824 110.108 21.5953 110.108 19.5827C110.116 18.6503 110.232 17.7219 110.452 16.8152L111.86 10.2673H109.674L110.39 6.95253H112.576L113.185 4.05593L118.351 2.73682Z" fill="black"></path><path d="M151.097 22.6934L153.355 12.0691C153.785 10.138 154.043 8.40075 154.287 6.96945H158.624L158.338 9.38328H158.411C159.077 8.51689 159.939 7.81577 160.928 7.33543C161.917 6.85509 163.005 6.60874 164.107 6.61587C166.86 6.61587 168.302 8.18996 168.302 10.6718C168.278 11.6008 168.169 12.5257 167.979 13.4358L166.01 22.7104H161.047L162.947 13.6636C163.068 13.0828 163.134 12.492 163.143 11.8991C163.143 10.903 162.751 10.1992 161.601 10.1992C160.101 10.1992 158.304 11.9365 157.626 15.2989L156.084 22.7036L151.097 22.6934Z" fill="black"></path><path d="M40.3348 4.92968H40.4071C41.9319 4.92968 43.2432 4.00495 43.2776 2.38326C43.2776 1.10835 42.3208 0.187012 40.8305 0.187012C39.2713 0.187012 38.0288 1.29873 38.0288 2.73343C38.0288 4.03894 38.9512 4.92968 40.3348 4.92968Z" fill="black"></path><path d="M42.1693 6.84033H37.3507L35.2167 16.8662C34.9965 17.7637 34.881 18.6831 34.8726 19.6065C34.8726 21.6123 36.2906 22.9824 39.199 22.9824C40.1785 23.0036 41.1565 22.8961 42.1073 22.6628L42.6752 19.2631C42.24 19.3131 41.8019 19.3336 41.3639 19.3243C40.3313 19.3243 39.908 18.8483 39.908 18.0188C39.9297 17.4182 40.0127 16.8214 40.1558 16.2373L42.1693 6.84033Z" fill="black"></path><path d="M126.866 4.92968H126.938C128.46 4.92968 129.774 4.00495 129.809 2.38326C129.809 1.10835 128.852 0.187012 127.362 0.187012C125.803 0.187012 124.56 1.29873 124.56 2.73343C124.56 4.03894 125.482 4.92968 126.866 4.92968Z" fill="black"></path><path d="M128.422 6.84033H123.603L121.449 16.8764C121.23 17.7742 121.115 18.6934 121.104 19.6166C121.104 21.6225 122.523 22.9926 125.431 22.9926C126.41 23.0136 127.388 22.9061 128.339 22.673L128.904 19.2733C128.469 19.3262 128.03 19.3478 127.592 19.3379C126.56 19.3379 126.14 18.8585 126.14 18.029C126.16 17.4283 126.243 16.8312 126.388 16.2475L128.422 6.84033Z" fill="black"></path><path d="M10.8624 10.3589C8.85586 9.17914 7.67531 8.15921 7.67531 6.98289C7.67531 5.66378 8.966 4.57246 11.2238 4.57246C12.8656 4.53846 14.5452 5.25241 15.7499 5.88137L16.6895 2.03963L16.7101 1.94783C15.1202 1.11831 13.3453 0.695204 11.5474 0.717119C5.85113 0.706919 2.54696 3.27034 2.54696 7.69344C2.54696 10.2331 4.557 12.1607 6.88368 13.5138C8.89372 14.6392 9.89529 15.2137 9.89529 16.509C9.89529 18.2089 8.17437 19.1507 6.16778 19.1167C4.25067 19.1167 2.24752 18.0559 1.00502 17.3794L0 21.4183C1.76737 22.4265 3.76898 22.9653 5.80983 22.9822C11.2307 22.9822 15.1028 20.9695 15.1028 15.7407C15.1028 13.3881 13.5264 11.8072 10.8728 10.3589" fill="black"></path><path d="M73.0807 10.3589C71.0741 9.16898 69.8901 8.17285 69.8901 6.98293C69.8901 5.66383 71.1808 4.5725 73.4387 4.5725C75.0804 4.5385 76.7601 5.25245 77.9647 5.88141L78.9078 2.03968L78.925 1.94789C77.3353 1.11768 75.5603 0.694533 73.7622 0.717171C68.0729 0.717171 64.7652 3.28059 64.7652 7.70368C64.7652 10.2433 66.7718 12.171 69.102 13.5241C71.1086 14.6494 72.1101 15.224 72.1101 16.5193C72.1101 18.2191 70.3892 19.1609 68.3861 19.1269C66.4655 19.1269 64.4624 18.0662 63.2061 17.3896L62.2148 21.4183C63.9835 22.4217 65.9851 22.9558 68.0247 22.9686C73.449 22.9686 77.3176 20.956 77.3176 15.7271C77.3176 13.3745 75.7413 11.7936 73.0911 10.3453" fill="black"></path><path d="M150.432 15.9447V12.8544L147.703 12.4464C147.525 11.769 147.252 11.1192 146.894 10.5153L148.533 8.31906L146.319 6.13642L144.099 7.7547C143.488 7.40184 142.832 7.13196 142.148 6.95236L141.738 4.25635H138.603L138.19 6.95236C137.504 7.13263 136.845 7.40246 136.231 7.7547L134.011 6.13642L131.802 8.31906L133.44 10.5153C133.082 11.1195 132.808 11.7692 132.628 12.4464L129.898 12.8544V15.9447L132.628 16.3493C132.806 17.0283 133.08 17.6793 133.44 18.2838L131.802 20.48L134.011 22.6627L136.231 21.0444C136.845 21.3966 137.504 21.6665 138.19 21.8467L138.603 24.5427H141.731L142.148 21.8467C142.835 21.6694 143.494 21.3994 144.106 21.0444L146.326 22.6627L148.539 20.48L146.901 18.2838C147.259 17.6786 147.531 17.0277 147.71 16.3493L150.432 15.9447ZM140.165 17.7908C139.485 17.7908 138.819 17.5914 138.253 17.2178C137.687 16.8443 137.246 16.3133 136.986 15.6921C136.725 15.0708 136.657 14.3873 136.79 13.7278C136.923 13.0683 137.25 12.4625 137.732 11.987C138.213 11.5116 138.826 11.1878 139.494 11.0566C140.162 10.9254 140.854 10.9928 141.483 11.2501C142.111 11.5074 142.649 11.9431 143.027 12.5022C143.405 13.0613 143.607 13.7186 143.607 14.391C143.607 14.8375 143.518 15.2796 143.345 15.6921C143.172 16.1046 142.919 16.4793 142.599 16.795C142.28 17.1107 141.9 17.3612 141.483 17.532C141.065 17.7029 140.617 17.7908 140.165 17.7908Z" fill="black"></path></g><defs><clipPath id="clip0_343_1475"><rect width="175.758" height="29" fill="white"></rect></clipPath></defs></svg>