<svg xmlns="http://www.w3.org/2000/svg" width="107" height="28" viewBox="0 0 107 28" fill="none"><path d="M0.0137087 13.9152C-0.0304745 11.2813 0.431312 8.92533 1.4632 6.69051C3.68092 1.88879 8.11777 -1.15558 14.2236 0.503428C14.8636 0.677311 15.4964 0.882552 16.1648 0.938137C16.7535 0.986596 17.3065 0.921033 17.7754 0.531935C18.1973 0.182745 18.4524 0.22693 18.5179 0.809864C18.8415 3.71028 19.1693 6.6107 19.4828 9.51111C19.5042 9.71492 19.6396 10.0128 19.2691 10.0869C18.9541 10.1496 18.7944 9.95865 18.6647 9.7078C17.7668 7.98038 16.8447 6.26721 15.6688 4.70654C14.9819 3.79295 14.2436 2.92496 13.3257 2.2337C10.8215 0.346651 8.00518 1.1106 6.85071 4.02099C6.06824 5.99498 6.09674 8.06019 6.35187 10.1283C6.75522 13.3836 7.85552 16.351 10.1288 18.7839C11.4386 20.1864 12.9979 21.1698 14.9676 21.4021C16.6494 21.6002 18.1046 21.127 19.3973 20.0666C19.5655 19.9284 19.7023 19.6291 19.986 19.7987C20.2781 19.9754 20.0644 20.2348 20.0031 20.4386C19.5014 22.1105 18.8001 23.6911 17.7055 25.0636C15.7572 27.5094 13.149 28.3146 10.1516 27.8899C4.9095 27.1474 2.11455 23.7224 0.66078 18.9464C0.147684 17.2603 -0.0575546 15.5115 0.0137087 13.9152Z" fill="black"></path><path d="M75.0014 5.89756C75.4589 4.70889 75.9121 3.66559 76.5734 2.73489C77.5597 1.34526 78.7541 0.277735 80.5984 0.313366C82.303 0.346148 83.2237 1.42792 82.9957 3.10831C82.8432 4.2357 81.9453 4.92125 80.6839 4.8172C80.2164 4.77872 79.7561 4.6362 79.2971 4.5236C78.0215 4.20862 77.0253 4.51647 76.3155 5.6068C75.4959 6.86389 74.8945 8.19366 74.913 9.77713C74.9615 13.7893 74.9216 17.8042 74.9358 21.8178C74.9387 22.4321 75.0142 23.0492 75.1083 23.6578C75.3306 25.1002 76.1416 26.0722 77.5198 26.5668C77.765 26.6551 78.0044 26.762 78.251 26.8475C78.4562 26.9188 78.5802 27.0357 78.5346 27.268C78.4919 27.4832 78.3251 27.496 78.1512 27.4946C78.0329 27.4946 77.9132 27.4946 77.7949 27.4946C73.8526 27.4946 69.9103 27.4975 65.968 27.4861C65.7172 27.4846 65.3452 27.6599 65.2369 27.2637C65.1286 26.8689 65.5319 26.8333 65.7486 26.6908C66.8318 25.9767 66.9657 24.8194 66.9729 23.7219C67.0113 17.6902 66.9999 11.6585 66.96 5.62676C66.9515 4.2585 66.7477 2.8988 65.4022 2.0807C65.2369 1.9795 65.2012 1.82557 65.2269 1.65026C65.2597 1.42935 65.4378 1.42792 65.6032 1.40797C68.4765 1.05878 71.3513 0.709589 74.2246 0.356123C74.7904 0.286285 74.6921 0.718141 74.7035 1.01175C74.7548 2.34009 74.7776 3.66844 74.8132 4.99822C74.8232 5.24906 74.7919 5.50989 75.0014 5.89756Z" fill="black"></path><path d="M56.9185 5.74224C57.6126 4.32838 58.2426 2.95442 59.3073 1.82989C60.4076 0.668294 61.7017 0.0483055 63.3251 0.4203C64.5494 0.701077 65.2036 1.72869 65.0197 2.99433C64.8416 4.22006 64.0206 4.87568 62.7279 4.83007C62.2476 4.81297 61.7972 4.66474 61.3397 4.53789C60.0726 4.18728 59.0721 4.48231 58.3452 5.56979C57.51 6.81832 56.8957 8.15665 56.91 9.73442C56.9428 13.5556 56.9142 17.3781 56.9271 21.1993C56.9299 21.9333 56.9827 22.6701 57.0625 23.3999C57.2292 24.9249 58.0203 25.9938 59.4669 26.554C59.732 26.6566 59.9971 26.7592 60.2665 26.8533C60.456 26.9188 60.5145 27.0471 60.4988 27.2367C60.4803 27.4676 60.3221 27.4861 60.1482 27.4904C60.0299 27.4932 59.9116 27.4961 59.7919 27.4961C55.8282 27.4961 51.8631 27.4989 47.8994 27.4861C47.6714 27.4861 47.3365 27.6543 47.2267 27.2894C47.1056 26.8889 47.479 26.8376 47.7127 26.7136C48.3598 26.3687 48.6021 25.753 48.7902 25.1102C48.9855 24.4432 48.9955 23.7519 48.9955 23.0635C48.9983 17.5335 48.9983 12.002 48.9912 6.47198C48.9898 5.73797 48.9712 5.00395 48.823 4.27564C48.6449 3.40481 48.2971 2.65227 47.5146 2.16625C47.3179 2.0451 47.1797 1.9097 47.2139 1.65743C47.2581 1.33104 47.5203 1.42083 47.7113 1.39803C50.512 1.05027 53.3155 0.715331 56.1147 0.354739C56.5693 0.296303 56.6948 0.437401 56.7033 0.872107C56.7361 2.34156 56.8002 3.81101 56.8572 5.28046C56.8629 5.43581 56.8971 5.58974 56.9185 5.74224Z" fill="black"></path><path d="M36.5882 22.3464C35.8956 23.5066 35.2927 24.4972 34.5102 25.3623C32.2041 27.9121 29.298 28.4195 26.114 27.704C22.6121 26.9158 20.6367 24.2449 20.5796 20.6547C20.5212 17.063 22.1474 14.278 24.5618 11.8408C26.905 9.47487 29.6757 7.68616 32.5704 6.08701C33.1476 5.76775 33.2788 5.46274 33.0379 4.86128C32.7657 4.17715 32.5348 3.47735 32.1314 2.85593C30.8772 0.92042 27.8043 0.75509 26.3506 2.5495C25.8588 3.15666 25.6379 3.8807 25.5267 4.64322C25.4341 5.27603 25.3871 5.9174 25.1248 6.51601C24.7642 7.33839 24.2754 7.60492 23.1637 7.57356C22.3584 7.55076 21.7968 7.17876 21.5474 6.42052C21.1156 5.10785 21.5617 3.99187 22.4282 3.01414C23.3162 2.0136 24.4564 1.35798 25.7006 0.936098C29.2467 -0.268252 32.8398 -0.326689 36.3901 0.854856C39.5015 1.8896 41.2204 4.24842 41.99 7.34267C42.6271 9.90245 42.8352 12.5363 43.2385 15.1375C43.6861 18.0193 44.0695 20.9126 44.5369 23.7902C44.7379 25.0231 45.1284 26.2032 46.3841 26.8246C46.5822 26.923 46.6577 27.0812 46.5979 27.2935C46.538 27.5088 46.3584 27.4874 46.1931 27.4874C44.6282 27.4874 43.0604 27.5415 41.5026 27.3149C39.1124 26.9672 37.6102 25.6003 36.9061 23.3156C36.8277 23.052 36.735 22.7911 36.5882 22.3464ZM33.5339 6.74121C33.2959 6.69988 33.2132 6.8367 33.1191 6.93362C30.0962 10.0136 28.5882 13.7222 28.5939 18.0307C28.5953 19.2892 28.725 20.5406 29.2467 21.7193C29.7712 22.9037 30.6734 23.5893 31.9404 23.786C33.8389 24.081 35.4281 22.8211 36.2932 21.6053C36.4742 21.3516 36.3773 21.1136 36.3274 20.8585C35.7231 17.787 35.1273 14.7127 34.523 11.6413C34.1966 9.99937 33.8603 8.36031 33.5339 6.74121Z" fill="black"></path><path fill-rule="evenodd" clip-rule="evenodd" d="M92.9591 27.992C100.675 27.9707 106.446 22.3067 106.441 14.4363C106.468 13.7266 106.367 12.9028 106.243 12.0804C105.058 4.27135 98.7499 -0.889543 91.33 0.148051C86.5653 0.81365 82.8767 3.1069 80.8101 7.54946C79.1268 11.1668 79.2252 14.9238 80.4623 18.6651C82.2582 24.0968 86.9188 28.0092 92.9591 27.992ZM98.358 16.9847C98.5119 18.0665 98.5603 19.1554 98.6017 20.3797C98.5675 21.7423 98.4991 23.2288 97.8734 24.6313C97.4378 25.6055 96.7123 26.2369 95.889 26.4818C94.9227 26.7705 93.8209 26.5264 92.8952 25.6784C91.5455 24.4413 90.753 22.8464 90.143 21.1689C88.5011 16.6622 87.4764 12.0258 87.4379 7.20841C87.4279 5.94705 87.6175 4.70136 88.1035 3.52124C88.4776 2.61262 89.082 1.98271 89.7912 1.66588C90.7792 1.22212 91.9714 1.38731 93.0289 2.25459C94.2361 3.24373 94.9444 4.59773 95.5473 5.99734C97.0595 9.51062 97.8221 13.2192 98.358 16.9847Z" fill="black"></path></svg>