<svg xmlns="http://www.w3.org/2000/svg" width="110" height="32" viewBox="0 0 110 32" fill="none"><path d="M56.5467 8.63281C62.9615 8.63281 67.3854 13.4992 67.3854 20.5775V21.831H51.3117C51.6804 24.5591 53.8924 26.8448 57.5053 26.8448C59.496 26.8448 61.9292 26.0337 63.2564 24.7065L65.7633 28.3932C63.6251 30.384 60.2334 31.4162 56.8417 31.4162C50.2794 31.4162 45.2656 26.9923 45.2656 20.0614C45.3394 13.6466 49.9845 8.63281 56.5467 8.63281ZM51.238 17.9231H61.9292C61.7818 15.8586 60.3808 13.1305 56.6205 13.1305C53.0076 13.1305 51.5329 15.7849 51.238 17.9231Z" fill="black"></path><path d="M85.6753 16.0056L81.1039 30.7521H74.9841L68.4219 9.14844H74.3205L78.3758 23.6738L83.0947 9.14844H88.1822L92.9011 23.6738L96.9564 9.14844H102.855L96.2928 30.7521H90.2468L85.6753 16.0056Z" fill="black"></path><path d="M30.7436 14.308H24.845H14.8173V19.9855H24.2551C22.8542 23.4509 19.7574 25.8841 16.0708 25.8841C11.1307 25.8841 7.14912 21.5338 7.14912 16.0776C7.14912 10.6951 11.1307 6.27117 16.0708 6.27117C18.9464 6.27117 21.527 7.81956 23.1491 10.179L28.1629 7.30343C25.4348 3.24813 20.9371 0.59375 15.7759 0.59375C7.44405 0.59375 0.734375 7.52463 0.734375 16.0039C0.734375 24.4832 7.44405 31.414 15.7759 31.414C22.7805 31.414 28.6791 26.5477 30.3012 19.9117C30.5961 18.6583 30.8173 17.3311 30.8173 16.0039C30.8173 15.4878 30.7436 14.8979 30.7436 14.308Z" fill="black"></path><path d="M43.2068 25.6624C39.0041 28.0955 39.3727 23.5241 39.3727 23.5241V1.10938H33.6953V23.5979C33.6953 30.3813 36.4972 31.4135 39.9626 31.3398C43.428 31.2661 44.3128 30.0126 44.3128 30.0126L43.2068 25.6624Z" fill="black"></path><path d="M105.659 30.8264C103.963 30.8264 102.562 29.4254 102.562 27.7296C102.562 26.0337 103.963 24.6328 105.659 24.6328C107.355 24.6328 108.756 26.0337 108.756 27.7296C108.756 29.4254 107.355 30.8264 105.659 30.8264ZM105.659 26.3287C104.848 26.3287 104.258 26.9923 104.258 27.7296C104.258 28.5406 104.922 29.1305 105.659 29.1305C106.47 29.1305 107.06 28.4669 107.06 27.7296C107.06 26.9185 106.397 26.3287 105.659 26.3287Z" fill="black"></path></svg>