<svg xmlns="http://www.w3.org/2000/svg" width="125" height="40" viewBox="0 0 125 40" fill="none"><g clip-path="url(#clip0_343_1497)"><path d="M51.2044 10.0572C52.3226 10.0572 53.2291 9.1507 53.2291 8.0325C53.2291 6.91429 52.3226 6.00781 51.2044 6.00781C50.0862 6.00781 49.1797 6.91429 49.1797 8.0325C49.1797 9.1507 50.0862 10.0572 51.2044 10.0572Z" fill="black"></path><path d="M122.954 10.065C124.073 10.065 124.979 9.15851 124.979 8.04031C124.979 6.92211 124.073 6.01562 122.954 6.01562C121.836 6.01562 120.93 6.92211 120.93 8.04031C120.93 9.15851 121.836 10.065 122.954 10.065Z" fill="black"></path><path d="M93.345 33.7212C94.4632 33.7212 95.3697 32.8148 95.3697 31.6966C95.3697 30.5784 94.4632 29.6719 93.345 29.6719C92.2268 29.6719 91.3203 30.5784 91.3203 31.6966C91.3203 32.8148 92.2268 33.7212 93.345 33.7212Z" fill="black"></path><path d="M115.025 15.4979C113.242 13.7743 110.917 12.7201 108.446 12.5138C105.974 12.3076 103.507 12.962 101.463 14.3662C99.4182 15.7704 97.9219 17.8382 97.2273 20.2192C96.5326 22.6002 96.6823 25.1481 97.651 27.4313C98.6197 29.7146 100.348 31.5929 102.543 32.7481C104.737 33.9032 107.264 34.2643 109.695 33.77C112.125 33.2758 114.31 31.9566 115.879 30.036C117.449 28.1154 118.306 25.7114 118.306 23.2311C118.309 21.7875 118.02 20.3581 117.456 19.0292C116.892 17.7002 116.065 16.499 115.025 15.4979ZM107.548 30.808C106.105 30.8079 104.691 30.3985 103.47 29.6274C102.25 28.8563 101.273 27.7551 100.653 26.4514C100.033 25.1477 99.7952 23.6949 99.9673 22.2616C100.139 20.8283 100.714 19.4731 101.625 18.3532C102.536 17.2332 103.746 16.3945 105.114 15.9341C106.482 15.4737 107.953 15.4107 109.356 15.7522C110.758 16.0937 112.035 16.8258 113.039 17.8636C114.042 18.9014 114.731 20.2024 115.025 21.6157C115.238 22.6411 115.238 23.6992 115.025 24.7246C114.667 26.4431 113.728 27.9859 112.367 29.0937C111.005 30.2016 109.304 30.8069 107.548 30.808Z" fill="black"></path><path d="M89.533 21.4475C89.1333 19.0742 87.9499 16.9032 86.1719 15.2813C84.3938 13.6593 82.1236 12.6798 79.7236 12.4991C77.3237 12.3185 74.9324 12.9471 72.9316 14.2847C70.9308 15.6223 69.4358 17.5916 68.6853 19.8784C67.9348 22.1651 67.9721 24.6373 68.7912 26.9004C69.6104 29.1634 71.1641 31.0868 73.2043 32.3634C75.2446 33.64 77.6537 34.1962 80.0471 33.9433C82.4405 33.6903 84.6802 32.6428 86.4085 30.9679C86.7693 30.6239 87.1036 30.2531 87.4083 29.8587L87.4271 29.8306L87.7395 29.3338C87.8143 29.2227 87.8651 29.0972 87.8888 28.9654C87.9125 28.8336 87.9085 28.6983 87.877 28.5681C87.8456 28.4379 87.7874 28.3157 87.7062 28.2092C87.6249 28.1028 87.5225 28.0143 87.4052 27.9496L86.2398 27.281C86.1047 27.2058 85.9519 27.1684 85.7974 27.1728C85.6428 27.1772 85.4924 27.2232 85.3618 27.306C85.1673 27.6068 84.9522 27.8939 84.7181 28.1652V28.1808C83.7787 29.2634 82.5535 30.0596 81.1826 30.4783C79.8117 30.897 78.3507 30.9212 76.9667 30.5483C75.5827 30.1753 74.3317 29.4202 73.3569 28.3693C72.3821 27.3185 71.7228 26.0144 71.4546 24.6064C71.3626 24.1349 71.3166 23.6557 71.3171 23.1754C71.3151 22.5935 71.3822 22.0135 71.5171 21.4475C71.9063 19.7669 72.8533 18.2677 74.2038 17.1943C75.5542 16.1209 77.2284 15.5366 78.9534 15.5366C80.6785 15.5366 82.3527 16.1209 83.7031 17.1943C85.0535 18.2677 86.0005 19.7669 86.3898 21.4475C86.4059 21.5039 86.4184 21.5613 86.4273 21.6193C86.5357 22.133 86.5902 22.6566 86.5897 23.1816C86.5902 23.6619 86.5442 24.1412 86.4522 24.6126H88.327C88.6843 24.6054 89.0248 24.4595 89.2767 24.206C89.5285 23.9524 89.672 23.6108 89.6767 23.2535V23.2347C89.6796 22.636 89.6315 22.0381 89.533 21.4475Z" fill="black"></path><path d="M123.397 12.8594H122.575C121.895 12.8594 121.344 13.4105 121.344 14.0904V32.3813C121.344 33.0612 121.895 33.6124 122.575 33.6124H123.397C124.076 33.6124 124.628 33.0612 124.628 32.3813V14.0904C124.628 13.4105 124.076 12.8594 123.397 12.8594Z" fill="black"></path><path d="M51.6153 12.8594H50.7936C50.1137 12.8594 49.5625 13.4105 49.5625 14.0904V32.3813C49.5625 33.0612 50.1137 33.6124 50.7936 33.6124H51.6153C52.2952 33.6124 52.8464 33.0612 52.8464 32.3813V14.0904C52.8464 13.4105 52.2952 12.8594 51.6153 12.8594Z" fill="black"></path><path d="M118.301 23.2332V32.5848C118.301 32.7194 118.275 32.8528 118.224 32.9773C118.173 33.1018 118.098 33.215 118.003 33.3104C117.908 33.4059 117.795 33.4817 117.671 33.5336C117.547 33.5855 117.414 33.6124 117.279 33.6128H116.03C115.895 33.6124 115.762 33.5855 115.638 33.5336C115.513 33.4817 115.401 33.4059 115.306 33.3104C115.211 33.215 115.136 33.1018 115.085 32.9773C115.034 32.8528 115.007 32.7194 115.008 32.5848V15.5C116.05 16.5 116.879 17.7007 117.445 19.0297C118.011 20.3588 118.302 21.7886 118.301 23.2332Z" fill="black"></path><path d="M46.8816 12.8594C47.0276 12.8594 47.1721 12.8882 47.3068 12.9441C47.4416 13 47.564 13.082 47.6671 13.1854C47.7701 13.2887 47.8518 13.4113 47.9073 13.5463C47.9629 13.6812 47.9913 13.8258 47.9908 13.9717V14.9091C47.9909 15.1975 47.8769 15.4742 47.6739 15.679C47.4708 15.8839 47.195 16.0002 46.9066 16.0026H46.2817C43.7353 16.0026 42.7354 18.1898 42.7354 20.5957C42.7354 22.6922 42.7573 29.7317 42.7667 32.4688C42.7671 32.6151 42.7386 32.7601 42.6829 32.8954C42.6272 33.0308 42.5453 33.1537 42.442 33.2574C42.3386 33.361 42.2159 33.4432 42.0807 33.4993C41.9456 33.5554 41.8007 33.5843 41.6543 33.5843H40.5139C40.2226 33.5852 39.9426 33.4718 39.7341 33.2684C39.5255 33.0651 39.405 32.7881 39.3984 32.4969V20.8394C39.3984 19.2209 39.6578 12.8594 46.6817 12.8594H46.8816Z" fill="black"></path><path d="M89.6736 23.2325V23.2513C89.667 23.614 89.5176 23.9595 89.2579 24.2128C88.9982 24.4661 88.6491 24.6067 88.2863 24.6042H70.4766V21.4453H89.5173C89.62 22.0355 89.6723 22.6334 89.6736 23.2325Z" fill="black"></path><path d="M87.7433 29.33L87.4308 29.8268L87.4121 29.8549L84.6719 28.177V28.1614L85.0406 27.5709C85.1101 27.4612 85.2043 27.3692 85.3155 27.3022C85.4506 27.2115 85.6086 27.161 85.7712 27.1566C85.9338 27.1521 86.0944 27.194 86.2341 27.2772L87.4246 27.9458C87.5405 28.0119 87.6415 28.1013 87.7212 28.2084C87.8009 28.3155 87.8575 28.438 87.8874 28.568C87.9174 28.6981 87.92 28.833 87.8952 28.9641C87.8704 29.0953 87.8187 29.2199 87.7433 29.33Z" fill="black"></path><path d="M55.3283 30.4284V31.7345C55.328 31.9506 55.3885 32.1625 55.5028 32.3459C55.6172 32.5293 55.7808 32.6769 55.975 32.7718C57.4269 33.4916 59.0171 33.8891 60.6368 33.9373C63.4864 33.9373 67.1983 32.0376 67.1983 27.4289C67.1983 20.6768 58.559 22.2047 58.559 18.1647C58.6684 16.1432 60.7712 15.4933 61.6835 15.4933C62.7396 15.4933 64.0488 15.9901 65.0267 16.4306C65.1803 16.5022 65.3495 16.5338 65.5186 16.5225C65.6876 16.5113 65.8511 16.4575 65.9939 16.3662C66.1366 16.2749 66.254 16.149 66.335 16.0002C66.4161 15.8514 66.4584 15.6846 66.4578 15.5151V14.3684C66.4575 14.0986 66.3727 13.8356 66.2152 13.6164C66.0577 13.3973 65.8355 13.233 65.5798 13.1468C64.6424 12.8343 63.127 12.3906 61.8804 12.3906C59.9244 12.3906 55.3595 13.6404 55.3595 18.2616C55.3595 24.9949 63.9988 23.2608 63.9988 27.682C63.9988 29.4723 62.3834 30.844 60.7399 30.844C59.7244 30.844 57.881 30.1347 56.6218 29.5942C56.4825 29.5283 56.3288 29.499 56.175 29.5091C56.0213 29.5191 55.8726 29.5682 55.7431 29.6517C55.6136 29.7353 55.5076 29.8504 55.435 29.9863C55.3624 30.1222 55.3257 30.2744 55.3283 30.4284Z" fill="black"></path><path d="M14.3485 33.8291H12.83C12.83 33.8291 4.82185 19.6469 5.48425 11.5169C6.35911 0.821747 14.6016 0 14.6016 0C14.0079 0.312451 11.7739 1.89033 11.7739 15.2632C11.7739 22.2559 14.3485 33.8291 14.3485 33.8291Z" fill="black"></path><path d="M12.1856 33.8307H11.442C11.442 33.8307 0 21.1608 0 12.7059C0 1.97632 11.8107 0.398438 11.8107 0.398438C11.8107 0.398438 2.18716 3.45733 2.46524 13.2496C2.71833 22.3606 12.1856 33.8307 12.1856 33.8307Z" fill="black"></path><path d="M15.7093 33.8291H17.2278C17.2278 33.8291 25.236 19.6469 24.5704 11.5169C23.6987 0.821747 15.4531 0 15.4531 0C16.0499 0.312451 18.2839 1.89033 18.2839 15.2632C18.2839 22.2559 15.7093 33.8291 15.7093 33.8291Z" fill="black"></path><path d="M17.8906 33.8307H18.6186C18.6186 33.8307 30.0606 21.1608 30.0606 12.7059C30.0606 1.97632 18.2468 0.398438 18.2468 0.398438C18.2468 0.398438 27.8641 3.45733 27.5922 13.2496C27.3423 22.3606 17.8906 33.8307 17.8906 33.8307Z" fill="black"></path><path d="M17.2501 39.9947H12.6008C12.5221 39.9913 12.4473 39.9598 12.3899 39.9059C12.3326 39.852 12.2965 39.7793 12.2883 39.701L11.8947 36.0265C11.8874 35.9815 11.89 35.9355 11.9024 35.8916C11.9148 35.8477 11.9366 35.807 11.9664 35.7725C11.9962 35.738 12.0332 35.7104 12.0748 35.6916C12.1163 35.6729 12.1615 35.6635 12.2071 35.6641H17.6344C17.68 35.6635 17.7252 35.6729 17.7667 35.6916C17.8083 35.7104 17.8453 35.738 17.8751 35.7725C17.9048 35.807 17.9267 35.8477 17.9391 35.8916C17.9515 35.9355 17.9541 35.9815 17.9468 36.0265L17.5656 39.7072C17.556 39.7849 17.5189 39.8566 17.461 39.9093C17.4031 39.962 17.3283 39.9923 17.2501 39.9947Z" fill="black"></path></g><defs><clipPath id="clip0_343_1497"><rect width="124.98" height="40" fill="white"></rect></clipPath></defs></svg>