<svg xmlns="http://www.w3.org/2000/svg" fill="none" viewBox="0 0 29 29" height="29" width="29"><g clip-path="url(#clip0_4873_18024)"><path fill="black" d="M9 0.146484C13.6944 0.146484 17.5 3.95209 17.5 8.64648C17.5 9.2003 17.4449 9.74134 17.3438 10.2656C14.095 11.1837 11.5372 13.7415 10.6191 16.9902C10.0949 17.0914 9.55382 17.1465 9 17.1465C4.30559 17.1465 0.500014 13.3409 0.5 8.64648C0.5 3.95209 4.30558 0.146484 9 0.146484ZM5.90234 5.6582C4.28166 5.65836 2.97363 6.99742 2.97363 8.63184C2.97365 10.2663 4.28167 11.6053 5.90234 11.6055C6.66744 11.6055 7.39206 11.3067 7.94043 10.7676L7.94238 10.7656L7.94434 10.7646L11.2012 7.46875C11.4927 7.19288 11.8707 7.04199 12.2676 7.04199C13.1271 7.04207 13.8359 7.75587 13.8359 8.64355C13.8358 9.53119 13.1269 10.2441 12.2676 10.2441C11.8717 10.2441 11.4943 10.0947 11.2031 9.82031L11.0352 9.64355L10.7988 9.39648L10.5586 9.64062L10.0664 10.1416L9.84082 10.3711L10.0625 10.6035L10.2402 10.7891L10.2539 10.8027L10.2559 10.8057L10.2588 10.8076C10.8035 11.3285 11.5174 11.6162 12.2676 11.6162C13.8882 11.6161 15.1962 10.2779 15.1963 8.64355C15.1963 7.00909 13.8883 5.67 12.2676 5.66992C11.5174 5.66992 10.8035 5.95859 10.2588 6.47949L10.2549 6.48242L10.252 6.48535L6.9873 9.78809C6.69316 10.0757 6.30863 10.2324 5.90234 10.2324C5.04294 10.2323 4.334 9.51951 4.33398 8.63184C4.33398 7.7442 5.04293 7.03141 5.90234 7.03125C6.30702 7.03125 6.69071 7.18628 6.98438 7.47168L7.08691 7.58301L7.32324 7.83594L7.56641 7.58887L8.05957 7.08789L8.28125 6.86133L8.06543 6.62891L7.95508 6.51074L7.94043 6.49609C7.39206 5.95697 6.66745 5.6582 5.90234 5.6582Z"></path><path fill="black" d="M28.5 19.6465C28.5 24.3409 24.6944 28.1465 20 28.1465C15.3056 28.1465 11.5 24.3409 11.5 19.6465C11.5 14.9521 15.3056 11.1465 20 11.1465C24.6944 11.1465 28.5 14.9521 28.5 19.6465ZM16.5985 23.0094H20.8113C20.8759 23.0094 20.9083 22.9287 20.8759 22.8723L17.4717 18.6549C17.4232 18.5985 17.3424 18.6227 17.3262 18.6872L16.5095 22.9046C16.5014 22.961 16.5419 23.0094 16.5985 23.0094ZM16.5193 16.6434H20.7321C20.7887 16.6434 20.8291 16.6917 20.821 16.7482L20.0043 20.9656C19.9881 21.0301 19.9073 21.0543 19.8588 20.9979L16.4546 16.7724C16.4141 16.724 16.4465 16.6434 16.5193 16.6434ZM21.1604 16.7079C21.1685 16.6756 21.2008 16.6434 21.2412 16.6434H24.2735C24.322 16.6434 24.3705 16.6917 24.3624 16.7401L23.7964 19.4819C23.7883 19.5222 23.756 19.5463 23.7156 19.5463H23.6267C22.1307 19.5463 20.9421 18.1674 21.1604 16.7079Z" clip-rule="evenodd" fill-rule="evenodd"></path></g><defs><clipPath id="clip0_4873_18024"><rect transform="translate(0.5 0.146484)" fill="white" height="28" width="28"></rect></clipPath></defs></svg>