<svg xmlns="http://www.w3.org/2000/svg" width="139" height="162" viewBox="0 0 139 162" fill="none"><path fill-rule="evenodd" clip-rule="evenodd" d="M81.6235 0.580441C80.4532 0.895538 79.2828 1.22188 78.1125 1.53698C78.0899 2.00962 78.0562 2.49353 78.0337 2.96617C78.27 3.12372 78.1687 2.97743 78.27 3.28127C79.958 2.89865 82.7601 2.9324 83.9305 2.48227C84.0093 2.34722 84.0881 2.21219 84.1668 2.0884C84.1668 1.87459 84.1668 1.66076 84.1668 1.44695C83.3453 1.05307 82.7264 0.884285 81.6235 0.580441Z" fill="black"></path><path fill-rule="evenodd" clip-rule="evenodd" d="M92.213 1.6945C91.3914 1.82954 90.57 1.96459 89.7372 2.08838C89.681 2.51601 89.5797 2.67355 89.7372 2.88737C89.8723 3.12369 90.0073 3.37127 90.1311 3.60759C91.6616 3.75388 93.5521 3.24749 95.3864 3.68637C95.5552 4.13651 95.8029 4.114 95.7804 4.40659C96.253 4.12526 96.3655 3.76514 96.3318 2.9774C94.5087 1.5257 94.4749 2.3472 92.213 1.6945Z" fill="black"></path><path fill-rule="evenodd" clip-rule="evenodd" d="M71.8217 1.93081C70.37 2.7073 67.2641 2.12211 66.5664 2.96612C66.1162 3.28122 66.2963 3.88891 66.5664 4.31654C67.4329 4.47409 69.4697 4.75543 70.3925 4.39532C70.9777 4.02396 71.5629 3.65259 72.1481 3.28122C72.2043 2.88735 72.2494 2.48223 72.3056 2.08835C72.2269 2.06585 72.1481 2.03208 72.0693 2.00957C71.9793 1.98706 71.9005 1.95331 71.8217 1.93081Z" fill="black"></path><path fill-rule="evenodd" clip-rule="evenodd" d="M100.18 4.23784C100.034 4.63171 99.9328 4.9468 99.9441 5.58825C100.237 5.85834 100.529 6.11716 100.822 6.38724C101.823 6.11716 103.703 7.54635 105.042 6.85989C105.042 6.51103 105.042 6.17343 105.042 5.82457C103.737 5.19437 101.823 4.32787 100.18 4.23784Z" fill="black"></path><path fill-rule="evenodd" clip-rule="evenodd" d="M61.7834 4.72163C60.7031 5.10424 54.2549 6.60096 56.9219 8.22146C57.6422 8.07517 61.8285 6.30837 62.0985 5.83573C62.121 5.52063 62.1548 5.19427 62.1773 4.87917C62.0535 4.82291 61.9185 4.76664 61.7834 4.72163Z" fill="black"></path><path fill-rule="evenodd" clip-rule="evenodd" d="M109.341 8.78429C109.206 8.84055 109.082 8.88557 108.947 8.94183C108.868 9.13314 108.789 9.3132 108.71 9.50451C108.789 9.84211 109.037 10.3373 109.262 10.5398C109.926 10.7311 110.59 10.9112 111.254 11.1025C112.12 11.5751 112.593 12.3066 113.324 12.858C113.369 12.858 113.426 12.858 113.482 12.858C113.617 12.723 113.752 12.588 113.876 12.4642C113.831 12.0253 113.876 11.879 113.64 11.6652C113.009 10.236 111.152 9.02061 109.341 8.78429Z" fill="black"></path><path fill-rule="evenodd" clip-rule="evenodd" d="M52.2293 9.25684C50.4962 10.4272 48.2681 10.416 48.088 13.2406C48.3018 13.3756 48.5156 13.5107 48.7294 13.6344C50.0236 12.5091 51.7679 11.305 52.6344 9.57194C52.4881 9.47065 52.3531 9.36937 52.2293 9.25684Z" fill="black"></path><path fill-rule="evenodd" clip-rule="evenodd" d="M118.501 14.1973C118.344 14.3773 118.186 14.5686 118.029 14.7599C118.828 16.7405 120.482 18.89 122.732 19.0588C123.081 18.8562 123.295 18.5299 123.048 18.181C121.911 16.7856 120.11 15.3789 118.749 14.1973C118.659 14.1973 118.58 14.1973 118.501 14.1973Z" fill="black"></path><path fill-rule="evenodd" clip-rule="evenodd" d="M43.1366 17.1455C40.8071 18.5185 41.6286 19.1149 40.582 21.2868C40.4132 21.6357 40.0644 21.6469 40.1882 22.1646C40.2669 22.3784 40.3457 22.5922 40.4245 22.806C40.5258 22.806 40.6383 22.806 40.7396 22.806C41.5386 22.1196 44.3745 18.0683 43.1366 17.1455Z" fill="black"></path><path fill-rule="evenodd" clip-rule="evenodd" d="M125.039 21.4444C124.803 21.8271 124.634 21.7033 124.567 22.3222C125.096 23.5601 127.481 25.6082 128.472 26.6998C128.685 26.5985 128.899 26.486 129.113 26.3847C129.023 23.5826 126.401 23.2225 125.366 21.4444C125.253 21.4444 125.141 21.4444 125.039 21.4444Z" fill="black"></path><path fill-rule="evenodd" clip-rule="evenodd" d="M36.6882 28.6128C35.6417 29.6256 34.0549 32.709 34.9327 34.352C35.169 34.4533 35.4053 34.5659 35.6529 34.6671C36.0355 34.1945 36.4069 33.8794 36.8458 33.4743C36.2831 31.9438 38.2412 30.4358 37.1609 28.6915C37.0033 28.669 36.8458 28.6465 36.6882 28.6128Z" fill="black"></path><path fill-rule="evenodd" clip-rule="evenodd" d="M131.724 30.1321C131.567 30.2672 131.409 30.4022 131.251 30.526C131.364 31.9889 132.771 34.8924 134.2 35.0724C134.335 34.8811 134.47 34.701 134.594 34.5097C134.459 33.8683 134.324 33.2381 134.2 32.5966C133.941 31.989 132.377 30.3347 131.724 30.1321Z" fill="black"></path><path fill-rule="evenodd" clip-rule="evenodd" d="M135.078 38.6511C134.808 38.9099 134.695 38.7974 134.605 39.2925C135.1 41.0706 135.607 43.2538 136.361 44.8743C136.473 44.8743 136.574 44.8743 136.676 44.8743C136.811 44.4916 136.991 44.4241 137.396 44.3116C137.43 42.2184 136.676 39.1237 135.078 38.6511Z" fill="black"></path><path fill-rule="evenodd" clip-rule="evenodd" d="M33.8975 40.4064C32.8959 41.9143 32.5358 44.3001 31.9844 46.2244C32.2994 46.4607 32.6258 46.6971 32.9409 46.9446C33.0759 46.8884 33.211 46.8434 33.346 46.7871C33.5936 45.8981 36.5195 40.8453 33.8975 40.4064Z" fill="black"></path><path fill-rule="evenodd" clip-rule="evenodd" d="M137.384 51.1648C137.227 51.2661 137.069 51.3786 136.912 51.4799C136.991 52.8078 137.069 54.1357 137.148 55.4636C137.384 56.2064 137.632 56.9491 137.868 57.6918C138.003 57.7143 138.138 57.7481 138.262 57.7706C138.499 57.5568 138.735 57.343 138.982 57.1292C139.016 55.3061 139.162 51.3674 137.384 51.1648Z" fill="black"></path><path fill-rule="evenodd" clip-rule="evenodd" d="M30.7916 56.1052C30.5215 56.6116 29.3624 60.6516 29.4412 60.8092C29.5762 61.1018 29.7113 61.3943 29.8351 61.6869C30.3302 61.7094 30.3865 61.7207 30.7128 61.6082C31.3093 59.8864 32.1758 58.0183 31.1067 56.1165C31.0054 56.1052 30.9041 56.1052 30.7916 56.1052Z" fill="black"></path><path fill-rule="evenodd" clip-rule="evenodd" d="M138.183 62.632C136.856 64.0612 135.348 68.2475 137.868 69.6429C138.105 69.5079 138.341 69.3729 138.589 69.2491C138.51 67.8987 138.431 66.537 138.352 65.1866C138.566 64.2188 139.05 64.1062 138.915 62.9584C138.679 62.8008 138.78 62.9471 138.679 62.6433C138.499 62.632 138.341 62.632 138.183 62.632Z" fill="black"></path><path fill-rule="evenodd" clip-rule="evenodd" d="M26.4927 69.8006C25.0073 71.0385 23.353 73.6381 24.4221 75.9338C24.7822 75.8775 24.7597 75.8325 24.9847 75.6975C25.3223 74.3133 28.4508 70.8472 26.4927 69.8006Z" fill="black"></path><path fill-rule="evenodd" clip-rule="evenodd" d="M137.947 73.4693C136.045 74.7184 137.868 76.8341 136.518 78.5671C136.788 79.1973 137.114 79.6924 137.947 79.76C138.003 79.6812 138.049 79.6024 138.105 79.5236C139.005 78.3083 138.904 75.0222 138.746 73.7056C138.476 73.6268 138.206 73.548 137.947 73.4693Z" fill="black"></path><path fill-rule="evenodd" clip-rule="evenodd" d="M20.9109 81.5943C19.7968 81.583 16.7246 85.4992 18.0413 86.2982C18.829 86.0731 20.8659 84.3064 21.0685 83.5074C21.0235 82.8659 20.9672 82.2357 20.9109 81.5943Z" fill="black"></path><path fill-rule="evenodd" clip-rule="evenodd" d="M136.271 83.0235C135.73 84.1151 134.031 86.5458 134.673 88.2001C134.808 88.3576 134.943 88.5152 135.066 88.6727C135.235 88.4589 135.539 88.3914 135.787 88.2789C135.899 87.8512 136.507 85.4542 136.586 85.3305C136.946 84.7903 137.553 84.7678 137.7 83.9012C137.508 83.7099 137.463 83.6762 137.385 83.3386C137.013 83.2373 136.642 83.136 136.271 83.0235Z" fill="black"></path><path fill-rule="evenodd" clip-rule="evenodd" d="M132.365 91.6322C131.375 92.6338 130.801 94.3893 130.925 96.2574C131.037 96.2799 131.139 96.3137 131.251 96.3362C131.274 96.3362 131.308 96.3362 131.33 96.3362C131.724 96.0436 132.129 95.751 132.523 95.4584C132.309 94.5131 133.266 93.6241 133.479 92.5888C133.243 92.2737 132.996 91.9473 132.759 91.6322C132.624 91.6322 132.5 91.6322 132.365 91.6322Z" fill="black"></path><path fill-rule="evenodd" clip-rule="evenodd" d="M13.0335 92.9041C12.5046 93.3542 9.80372 95.3686 9.20729 95.2899C9.20729 95.875 9.20729 96.4602 9.20729 97.0454C10.2539 98.6884 13.2135 94.187 13.8325 93.7031C13.7762 93.433 13.7312 93.1742 13.6749 92.9041C13.4499 92.9041 13.236 92.9041 13.0335 92.9041Z" fill="black"></path><path fill-rule="evenodd" clip-rule="evenodd" d="M127.74 99.7572C127.189 100.646 124.015 105.058 124.477 105.812C124.589 106.115 124.679 106.295 124.949 106.453C125.141 106.476 125.321 106.509 125.512 106.532C125.929 105.305 130.059 100.567 128.539 99.9936C128.348 99.7685 128.19 99.7572 127.74 99.7572Z" fill="black"></path><path fill-rule="evenodd" clip-rule="evenodd" d="M5.4598 100.151C4.13189 100.095 0.924647 102.042 0.046875 102.863C0.046875 102.965 0.046875 103.077 0.046875 103.179C0.294452 103.494 0.373223 103.854 0.677067 103.899C2.37634 104.383 5.56108 101.716 5.4598 100.151Z" fill="black"></path><path fill-rule="evenodd" clip-rule="evenodd" d="M121.855 110.437C121.033 111.348 117.871 113.34 119.705 115.062C119.863 114.916 120.684 114.848 121.056 114.499C120.414 113.745 122.654 112.057 123.048 111.551C123.025 111.337 122.991 111.123 122.969 110.909C122.777 110.752 122.597 110.594 122.406 110.426C122.226 110.437 122.035 110.437 121.855 110.437Z" fill="black"></path><path fill-rule="evenodd" clip-rule="evenodd" d="M113.325 146.437C113.347 146.515 113.37 146.594 113.403 146.673C113.37 146.673 113.347 146.673 113.325 146.673C113.325 146.605 113.325 146.515 113.325 146.437Z" fill="black"></path><path fill-rule="evenodd" clip-rule="evenodd" d="M108.62 161.651C108.676 161.651 108.721 161.651 108.777 161.651C108.643 161.73 108.766 161.73 108.62 161.651Z" fill="black"></path><path d="M103.785 126.376C103.616 127.382 103.448 128.389 103.275 129.407C103.335 130.321 104.335 130.984 104.194 131.989C104.912 132.332 105.191 132.692 105.567 132.567C107.42 132.931 107.928 130.99 109.262 130.124C110.858 129.086 112.248 127.449 113.86 126.243C115.505 125.535 117.15 124.828 118.8 124.109C118.946 124.049 119.081 123.985 119.227 123.925C119.262 123.778 119.286 123.626 119.316 123.491C118.609 123.22 117.919 123.226 117.692 122.807C117.064 123.498 115.658 123.351 114.848 123.898C114.711 123.841 114.574 123.783 114.448 123.73C113.658 125.188 109.796 126.524 108.448 127.774C107.955 128.24 106.744 129.71 106.214 129.689C106.304 128.932 106.405 128.18 106.495 127.423C106.697 126.081 107.702 124.013 107.935 122.885C108.365 120.777 110.235 118.48 110.527 116.731C110.952 114.19 113.121 112.397 112.603 109.983C112.353 109.905 112.098 109.838 111.837 109.755C111.669 110.088 111.495 110.405 111.316 110.734C108.637 115.72 104.988 120.513 103.785 126.376Z" fill="black"></path><path d="M97.4051 114.153C96.3914 116.528 95.8905 126.7 98.5899 128.093C98.9656 127.969 99.3299 127.839 99.7104 127.703C100.513 125.765 99.2919 124.093 99.3199 122.3C99.3803 117.841 99.8982 113.83 100.425 109.095C100.454 108.865 100.472 108.631 100.502 108.401C100.319 108.324 100.124 108.242 99.9299 108.16C99.4271 108.554 99.0929 109.06 98.8291 109.622C98.2455 110.911 98.0863 112.568 97.4051 114.153Z" fill="black"></path><path d="M117.162 134.678C116.396 134.961 115.389 134.348 114.282 134.515C112.797 135.034 111.301 135.548 109.816 136.068C109.898 136.48 109.973 136.174 109.647 136.468C108.712 136.546 108.302 137.167 107.902 138.117C108.12 138.208 108.337 138.3 108.554 138.391C109.054 138.292 112.196 137.515 112.539 137.309C112.324 137.084 112.564 137.185 112.754 137.022C113.884 137.121 115.2 136.841 116.56 137.481C118.121 138.22 121.33 141.12 123.651 141.303C124.523 141.374 125.271 141.07 125.742 140.11C125.744 140.043 125.728 139.983 125.73 139.916C125.382 139.783 125.061 139.648 124.741 139.513C121.566 138.162 119.549 136.397 117.162 134.678Z" fill="black"></path></svg>