<svg xmlns="http://www.w3.org/2000/svg" fill="none" viewBox="0 0 41 46" height="46" width="41"><path fill="black" d="M35.5531 8.85714C35.5375 8.75855 35.4893 8.66803 35.4162 8.60007C35.3431 8.5321 35.2493 8.49061 35.1499 8.48224C34.9827 8.46844 31.7075 8.4186 31.7075 8.4186C31.7075 8.4186 28.969 5.75826 28.6983 5.48839C28.4277 5.21775 27.8995 5.29902 27.694 5.36036C27.6917 5.36189 27.1803 5.51982 26.3186 5.78662C26.1482 5.22857 25.9275 4.68712 25.6593 4.16895C24.6856 2.30824 23.2565 1.3246 21.5315 1.32154H21.5246C21.405 1.32154 21.2869 1.33304 21.1666 1.343C21.1161 1.28204 21.0642 1.22223 21.0109 1.1636C20.2596 0.3586 19.2951 -0.0324014 18.1405 0.00209875C15.9126 0.0657324 13.6931 1.67497 11.8937 4.53312C10.6272 6.54486 9.66422 9.07181 9.39052 11.0283L5.0044 12.3877C3.71256 12.7932 3.67193 12.8323 3.50326 14.0506C3.37753 14.9706 -0.00195312 41.101 -0.00195312 41.101L28.3188 46L40.5932 42.9487C40.5932 42.9487 35.5846 9.08944 35.5531 8.85714ZM24.8995 6.22593L22.7022 6.90596C22.6853 5.77819 22.5519 4.20805 22.026 2.85181C23.7165 3.17228 24.5484 5.08512 24.8995 6.22593ZM21.2202 7.3652L16.4922 8.82954C16.9491 7.08 17.8155 5.33736 18.8804 4.19578C19.276 3.77028 19.8295 3.29725 20.4858 3.02661C21.1022 4.31308 21.2356 6.13393 21.2202 7.36596V7.3652ZM18.1842 1.48484C18.7079 1.47334 19.1479 1.58834 19.5244 1.83597C18.9218 2.14877 18.3399 2.59804 17.794 3.18378C16.3787 4.70179 15.2939 7.0593 14.8615 9.33324C13.5121 9.75107 12.1927 10.1605 10.9775 10.5354C11.7442 6.9558 14.7449 1.58451 18.1842 1.48484Z"></path><path fill="black" d="M35.1504 8.48115C34.9832 8.46658 31.7088 8.41675 31.7088 8.41675C31.7088 8.41675 28.9702 5.75717 28.6996 5.4873C28.5948 5.38988 28.4615 5.32862 28.3193 5.3125L28.3201 45.9958L40.5937 42.946C40.5937 42.946 35.5858 9.08835 35.5536 8.85605C35.5381 8.75737 35.4899 8.66675 35.4168 8.59866C35.3437 8.53057 35.2499 8.48893 35.1504 8.48038V8.48115Z"></path><path fill="white" d="M21.5187 14.7953L20.0927 20.1283C20.0927 20.1283 18.5027 19.4053 16.6182 19.5234C13.8536 19.6989 13.8244 21.4416 13.8528 21.8793C14.0031 24.2644 20.2775 24.785 20.6302 30.3725C20.9069 34.7678 18.2987 37.7747 14.5405 38.0124C10.0287 38.296 7.54541 35.6357 7.54541 35.6357L8.50145 31.57C8.50145 31.57 11.0008 33.456 13.0018 33.3295C14.309 33.2467 14.7766 32.1834 14.7291 31.432C14.5328 28.3209 9.42299 28.5041 9.10022 23.392C8.82805 19.0902 11.6532 14.7301 17.8878 14.3376C20.2898 14.1827 21.5187 14.7953 21.5187 14.7953Z"></path></svg>