<svg xmlns="http://www.w3.org/2000/svg" fill="none" viewBox="0 0 268 87" height="87" width="268"><path fill="black" d="M257.436 48.1213C259.003 43.2839 260.577 38.4263 262.16 33.5486H266.844C267.229 40.0594 267.614 46.5725 268.001 53.1639H264.561C264.338 47.8058 264.114 42.4632 263.877 36.9573C262.071 42.3558 260.314 47.6066 258.537 52.9222H255.704C254.16 47.7162 252.598 42.4476 251.033 37.1789C250.752 42.5013 250.468 47.8393 250.183 53.193H246.94C247.388 46.6732 247.82 40.1624 248.263 33.5844H252.98C254.462 38.4412 255.959 43.3115 257.436 48.1213Z"></path><path fill="black" d="M202.636 53.1759H199.525V33.574H203.491C206.243 38.4845 209.576 43.1019 211.907 48.2855V33.574H214.922V53.1423H211.203L202.475 37.9407C202.526 40.4541 202.596 42.9765 202.623 45.499C202.649 48.0214 202.636 50.5483 202.636 53.1759Z"></path><path fill="black" d="M223.67 33.574H227.061V34.7848C227.061 38.2137 227.023 41.6448 227.083 45.0804C227.08 46.1217 227.247 47.1565 227.576 48.1445C228.506 50.7184 230.827 51.2779 232.926 50.4632C234.477 49.8656 235.095 48.4802 235.287 46.9381C235.433 45.6833 235.508 44.4212 235.511 43.1578C235.54 39.9931 235.511 36.8283 235.511 33.5896H238.841C238.884 33.8654 238.911 34.1434 238.924 34.4222C238.924 38.0369 238.924 41.6538 238.924 45.2707C238.944 46.6126 238.707 47.946 238.225 49.1987C237.254 51.6607 235.41 53.0036 232.823 53.4758C231.466 53.7267 230.071 53.687 228.73 53.3594C226.025 52.7081 224.492 50.8818 223.912 48.2273C223.723 47.3541 223.624 46.4639 223.617 45.5706C223.585 41.806 223.601 38.0391 223.606 34.2745C223.614 34.0552 223.648 33.8403 223.67 33.574Z"></path><path fill="black" d="M155.058 33.5569L161.456 53.1655H157.716C157.13 51.375 156.537 49.5598 155.926 47.6932H149.503C148.922 49.5352 148.344 51.3571 147.769 53.1812H144.188C146.297 46.601 148.38 40.0924 150.475 33.5569H155.058ZM152.742 36.5314H152.556C151.755 39.3358 150.956 42.1403 150.139 44.9984H155.252L152.742 36.5314Z"></path><path fill="black" d="M105.452 33.7625C108.408 33.3932 111.271 32.9814 114.157 33.7267C116.957 34.4496 118.512 36.2558 118.676 38.9618C118.846 41.849 117.481 44.1655 114.871 45.1235C113.773 45.5263 112.569 45.674 111.398 45.833C110.635 45.9381 109.847 45.8531 108.898 45.8531V53.1652H105.452V33.7625ZM108.983 43.1404C109.973 43.1404 110.832 43.2277 111.669 43.1136C112.396 43.0214 113.1 42.7936 113.743 42.4421C114.97 41.7438 115.352 40.5352 115.261 39.1968C115.169 37.8583 114.5 36.887 113.206 36.417C111.855 35.8876 110.359 35.8583 108.988 36.3341L108.983 43.1404Z"></path><path fill="black" d="M189.202 86.4662H187.069V66.8643H189.862C193.103 72.1531 196.726 77.2695 199.653 83.0664V66.8508H201.705V86.4393H199.299C196.052 81.0498 192.322 75.7453 189.202 70.029V86.4662Z"></path><path fill="black" d="M164.93 10.1067C164.858 12.8776 164.198 15.4201 162.352 17.5486C158.621 21.8415 150.332 21.5057 147.788 15.024C146.152 10.8632 146.465 6.80093 149.285 3.20195C151.256 0.675051 153.969 -0.282888 157.182 0.0841729C161.618 0.59 164.026 4.20018 164.608 7.47015C164.764 8.33408 164.825 9.22488 164.93 10.1067ZM162.341 10.4693C162.341 8.19755 161.777 6.14739 160.801 4.67019C158.339 0.925727 153.215 1.00182 150.86 4.81791C150.021 6.17424 149.71 7.68277 149.518 9.2495C149.227 11.4027 149.666 13.5912 150.766 15.4649C152.953 19.1937 157.863 19.4645 160.514 16.0446C161.853 14.3279 162.215 12.2867 162.341 10.4693Z"></path><path fill="black" d="M243.494 86.4898H241.032C240.77 85.5766 240.482 84.6343 240.231 83.6831C239.98 82.7319 239.819 81.7157 239.519 80.76C238.87 78.683 237.729 77.8683 235.563 77.8504C234.86 77.8504 234.157 77.8504 233.325 77.8504V86.4517H230.917V67.002C231.588 66.9057 232.26 66.7603 232.962 66.7155C234.976 66.5834 236.991 66.429 238.958 66.9572C241.383 67.6063 242.704 69.1014 242.919 71.3597C243.142 73.6784 242.095 75.5608 239.971 76.6642C239.779 76.7649 239.584 76.8589 239.3 77.0066C239.578 77.2148 239.763 77.3714 239.971 77.5035C240.808 78.0178 241.428 78.819 241.717 79.7573C242.339 81.9664 242.885 84.2023 243.494 86.4898ZM233.379 68.6493V76.0353C234.321 76.0353 235.169 76.0934 236.019 76.0173C236.789 75.9694 237.548 75.8189 238.277 75.5697C239.795 74.999 240.515 73.7322 240.461 71.9394C240.426 70.4062 239.622 69.2536 238.132 68.7657C236.57 68.2486 234.99 68.3225 233.367 68.6493H233.379Z"></path><path fill="black" d="M138.988 19.9956H136.578V10.7766H126.801V19.9934H124.413V0.382533C124.697 0.364627 124.95 0.335531 125.205 0.331055C125.684 0.331055 126.163 0.331055 126.772 0.331055V8.58096H136.408C136.739 7.73941 136.529 6.84414 136.562 5.97349C136.598 5.04241 136.562 4.10909 136.562 3.17801V0.418343H138.988V19.9956Z"></path><path fill="black" d="M149.873 86.481H147.449V67.0089C148.107 66.9082 148.792 66.7202 149.479 66.7179C151.336 66.7179 153.216 66.615 155.042 66.8769C157.616 67.2439 159.032 68.6898 159.428 70.9861C159.858 73.4683 158.733 75.514 156.452 76.6845C156.291 76.7674 156.125 76.839 155.978 76.9084C155.978 77.0247 155.978 77.1322 156.002 77.1501C157.506 77.9983 158.225 79.3614 158.614 80.9841C159.061 82.8149 159.565 84.6278 160.057 86.49H157.658C157.435 85.8073 157.186 85.0866 156.987 84.3503C156.676 83.2066 156.454 82.036 156.105 80.9035C155.409 78.6317 154.315 77.8484 151.929 77.8372H149.873V86.481ZM149.873 76.0288C150.866 76.0288 151.759 76.0914 152.637 76.0086C153.404 75.9668 154.159 75.8021 154.874 75.5207C156.32 74.8739 157.043 73.719 157.016 72.0717C156.989 70.4244 156.242 69.3859 154.778 68.8263C153.174 68.2041 151.533 68.316 149.855 68.6674L149.873 76.0288Z"></path><path fill="black" d="M129.724 66.7998H132.787C135.012 73.2905 137.238 79.7991 139.501 86.4219H136.927C136.238 84.4321 135.529 82.3797 134.819 80.334H127.584L125.508 86.4666H123.046C125.268 79.8998 127.484 73.3845 129.724 66.7998ZM131.163 68.9126C130.138 72.1334 129.175 75.1482 128.193 78.2324H134.161C133.163 75.1482 132.203 72.1423 131.163 68.9126Z"></path><path fill="black" d="M165.595 33.5569H180.405V36.4038H174.77V53.1901H171.301V36.4464H165.595V33.5569Z"></path><path fill="black" d="M108.07 78.6718V86.4629H105.673V66.9908C106.322 66.9013 106.966 66.767 107.618 66.7245C109.697 66.579 111.773 66.4313 113.821 67.0423C116.128 67.7294 117.54 69.2335 117.795 71.6126C118.05 73.9918 117.323 76.042 115.193 77.3782C113.317 78.5554 111.236 78.7793 109.07 78.6248C108.846 78.6092 108.622 78.5666 108.399 78.542C108.374 78.5375 108.338 78.5666 108.07 78.6718ZM108.168 76.6127C109.885 76.7783 111.422 76.9372 112.919 76.2837C114.62 75.5406 115.535 73.9023 115.314 71.9394C115.119 70.1936 114 69.0522 112.181 68.6515C110.852 68.3686 109.476 68.4124 108.168 68.7791V76.6127Z"></path><path fill="black" d="M221.39 77.1435H213.92V84.4377H222.303V86.47H211.438V66.9016H221.849V68.7347H213.893V75.0933H221.39V77.1435Z"></path><path fill="black" d="M175.152 12.2514V19.9798H172.914V0.4808C175.335 0.17417 177.685 -0.0608379 180.053 0.375606C183.029 0.926197 184.752 2.72569 184.88 5.62412C185.005 8.61432 183.6 10.8144 180.628 11.7992C179.27 12.2469 177.858 12.314 176.439 12.2469C176.056 12.2379 175.687 12.2514 175.152 12.2514ZM175.181 9.96618C176.748 10.613 179.688 10.2862 180.836 9.4514C182.902 7.95182 182.982 4.25436 180.888 2.89803C179.097 1.74537 177.155 2.04752 175.181 2.31386V9.96618Z"></path><path fill="black" d="M126.323 33.5486H129.696V50.27H137.837V53.1259H126.323V33.5486Z"></path><path fill="black" d="M104.705 19.1941C104.929 18.4309 105.083 17.8646 105.278 17.1797C105.611 17.3274 105.867 17.4349 106.117 17.5535C107.616 18.2347 109.276 18.4828 110.908 18.2697C112.383 18.1086 113.704 16.9872 113.99 15.7227C114.332 14.203 113.809 12.8645 112.383 11.9916C111.537 11.4746 110.571 11.1568 109.687 10.6913C108.709 10.1742 107.672 9.69751 106.818 9.01934C103.987 6.79236 104.748 2.46149 107.728 0.854485C109.823 -0.264602 113.379 -0.345176 115.673 0.975347L115.098 2.72336C114.071 2.4794 113.142 2.14367 112.188 2.06534C111.302 1.97573 110.407 2.05935 109.552 2.31154C109.048 2.46058 108.595 2.74495 108.241 3.13372C107.887 3.5225 107.647 4.00082 107.546 4.5167C107.445 5.03258 107.487 5.56629 107.668 6.05983C107.849 6.55337 108.162 6.98786 108.572 7.31609C109.351 7.97188 110.362 8.36132 111.278 8.84253C112.296 9.37969 113.386 9.79375 114.344 10.4092C117.477 12.4482 117.224 17.3812 113.988 19.2277C110.949 20.9734 107.881 20.5549 104.705 19.1941Z"></path><path fill="black" d="M204.026 0.390625H214.45V2.29755H206.513V9.04788H213.846V11.1025H206.441V19.9993H204.026V0.390625Z"></path><path fill="black" d="M233.961 0.373535H236.695C236.302 1.07856 235.977 1.68511 235.63 2.28046C233.97 5.14085 232.302 7.9975 230.629 10.8504C230.3 11.3887 230.134 12.0104 230.15 12.641C230.183 14.7269 230.163 16.8152 230.163 18.9079V20.0493H227.76C227.735 19.7293 227.688 19.4092 227.688 19.0914C227.688 16.9293 227.663 14.7695 227.688 12.6007C227.693 11.9706 227.525 11.3512 227.202 10.8101C225.412 7.59612 223.646 4.37091 221.876 1.14794C221.773 0.959937 221.697 0.756263 221.552 0.433966H224.304C225.851 3.51817 227.408 6.63147 229.026 9.86115C230.698 6.65385 232.316 3.54279 233.961 0.373535Z"></path><path fill="black" d="M171.824 68.7116H165.782V66.7913H180.221V68.7116H174.253V86.4581H171.824V68.7116Z"></path><path fill="black" d="M187.451 33.54H190.716V53.142H187.451V33.54Z"></path><path fill="black" d="M195 20.0135H192.673V0.416016H195V20.0135Z"></path><rect fill="black" height="86.4939" width="86.4939" y="0.463867"></rect><path fill="white" d="M50.8916 25.3899C50.8916 25.3899 50.3554 25.5558 49.4603 25.8336C49.3099 25.3474 49.0899 24.7494 48.7736 24.1513C47.7589 22.2144 46.2736 21.192 44.4796 21.1881L44.4719 21.1881C44.3485 21.1881 44.225 21.1997 44.0977 21.2113C44.0437 21.1495 43.9935 21.0839 43.9356 21.0261C43.1563 20.1888 42.1532 19.7798 40.9534 19.8145C38.6347 19.8801 36.3277 21.5547 34.4565 24.5294C33.1371 26.6207 32.1379 29.2521 31.8524 31.2854C29.1903 32.1111 27.3269 32.686 27.2883 32.6976C25.9458 33.1181 25.9033 33.1606 25.7258 34.4261C25.5908 35.383 22.0762 62.5689 22.0762 62.5689L51.2427 67.6118L51.2427 25.332C51.1 25.3397 50.9688 25.3667 50.8878 25.3899L50.8916 25.3899ZM44.1556 27.4772C42.6124 27.9557 40.9264 28.4765 39.2366 29.0013C39.7111 27.1801 40.6139 25.3667 41.7212 24.1822C42.134 23.7423 42.7088 23.2485 43.3917 22.9668C44.0321 24.3057 44.171 26.2001 44.1556 27.4811L44.1556 27.4772ZM40.9958 21.3579C41.5398 21.3463 41.9989 21.4659 42.3886 21.7244C41.7636 22.0485 41.1579 22.5154 40.5869 23.125C39.1131 24.7031 37.9866 27.157 37.5352 29.5221C36.1309 29.9581 34.7574 30.3826 33.4959 30.7723C34.2945 27.0451 37.4156 21.4582 40.992 21.354L40.9958 21.3579ZM36.4858 42.5749C36.644 45.0559 43.1718 45.5999 43.5383 51.4106C43.8276 55.9827 41.1116 59.1118 37.2034 59.3588C32.5121 59.6559 29.9272 56.8856 29.9272 56.8856L30.9226 52.6529C30.9226 52.6529 33.5229 54.6168 35.6062 54.4818C36.9642 54.3969 37.4503 53.2896 37.404 52.5063C37.1996 49.2692 31.8832 49.4582 31.5476 44.1414C31.2659 39.6657 34.2058 35.1283 40.6911 34.7193C43.1911 34.5611 44.4681 35.1978 44.4681 35.1978L42.9866 40.7461C42.9866 40.7461 41.3315 39.9937 39.3716 40.1172C36.4974 40.2985 36.4665 42.1119 36.4935 42.5672L36.4858 42.5749ZM45.6949 26.9988C45.6795 25.8258 45.5367 24.1899 44.9889 22.7816C46.7481 23.1134 47.6123 25.1043 47.9788 26.2927C47.2998 26.5011 46.5282 26.7403 45.691 27.0026L45.6949 26.9988Z"></path><path fill="white" d="M52.2402 67.4775L64.3389 64.468C64.3389 64.468 59.1306 29.2413 59.0959 29.002C59.0611 28.759 58.8528 28.6278 58.6753 28.6124C58.5017 28.5969 55.0951 28.5468 55.0951 28.5468C55.0951 28.5468 53.0195 26.5288 52.2363 25.7649L52.2363 67.4775L52.2402 67.4775Z"></path></svg>