<svg xmlns="http://www.w3.org/2000/svg" width="110" height="32" viewBox="0 0 110 32" fill="none"><g clip-path="url(#clip0_28638_4379)"><path d="M38.5031 17.7122C37.5668 17.205 37.0865 16.7759 37.0865 16.1883C37.0865 15.4397 37.7545 14.9594 38.7981 14.9594C40.0124 14.9594 41.0974 15.4665 41.0974 15.4665L41.9532 12.8478C41.9532 12.8478 41.1657 12.2334 38.8542 12.2334C35.6333 12.2334 33.4023 14.0767 33.4023 16.671C33.4023 18.1413 34.4434 19.2629 35.8332 20.0651C36.9548 20.7063 37.3571 21.1599 37.3571 21.8279C37.3571 22.496 36.7963 23.0836 35.7527 23.0836C34.1996 23.0836 32.7317 22.2815 32.7317 22.2815L31.8223 24.9001C31.8223 24.9001 33.1779 25.8096 35.4577 25.8096C38.7713 25.8096 41.151 24.1784 41.151 21.2403C41.151 19.6628 39.949 18.5412 38.5055 17.7122H38.5031Z" fill="black"></path><path d="M51.7041 12.2069C50.0729 12.2069 48.7904 12.9823 47.8029 14.1575L47.7493 14.1307L49.1659 6.72815H45.4768L41.895 25.571H45.5841L46.813 19.1291C47.2933 16.6982 48.549 15.2011 49.7267 15.2011C50.5557 15.2011 50.8751 15.7619 50.8751 16.5641C50.8751 17.0712 50.8215 17.6857 50.7142 18.1953L49.3244 25.571H53.0135L54.4569 17.9539C54.6178 17.1517 54.7251 16.191 54.7251 15.5473C54.7251 13.4626 53.6303 12.2069 51.7041 12.2069Z" fill="black"></path><path d="M63.0647 12.2067C58.6271 12.2067 55.689 16.2152 55.689 20.6796C55.689 23.5397 57.4518 25.8365 60.7679 25.8365C65.125 25.8365 68.0631 21.9353 68.0631 17.3636C68.0631 14.7181 66.5124 12.2067 63.0647 12.2067ZM61.2482 23.0033C59.9925 23.0033 59.4585 21.9353 59.4585 20.5991C59.4585 18.4876 60.5533 15.0399 62.5575 15.0399C63.8669 15.0399 64.2936 16.1615 64.2936 17.2587C64.2936 19.5312 63.1988 23.0057 61.2458 23.0057L61.2482 23.0033Z" fill="black"></path><path d="M77.4964 12.2067C75.007 12.2067 73.5952 14.3987 73.5952 14.3987H73.5416L73.7562 12.4212H70.4962C70.3353 13.7574 70.0427 15.7885 69.7477 17.3124L67.1826 30.8081H70.8717L71.886 25.3562H71.9665C71.9665 25.3562 72.7248 25.8365 74.1316 25.8365C78.462 25.8365 81.2953 21.3989 81.2953 16.9101C81.2953 14.4255 80.2005 12.2067 77.5013 12.2067H77.4964ZM73.9683 23.0569C73.0101 23.0569 72.4444 22.5229 72.4444 22.5229L73.0588 19.0752C73.4855 16.776 74.69 15.2545 75.9725 15.2545C77.0941 15.2545 77.4428 16.2956 77.4428 17.2856C77.4428 19.6653 76.0262 23.0593 73.9683 23.0593V23.0569Z" fill="black"></path><path d="M86.5568 6.91687C85.3816 6.91687 84.4453 7.85316 84.4453 9.05522C84.4453 10.15 85.1402 10.8985 86.1814 10.8985H86.235C87.3834 10.8985 88.3733 10.1232 88.4002 8.76019C88.4002 7.69224 87.6784 6.91687 86.5568 6.91687Z" fill="black"></path><path d="M81.3989 25.5691H85.0856L87.5994 12.5H83.8835L81.3989 25.5691Z" fill="black"></path><path d="M96.9795 12.4729H94.4145L94.5486 11.8585C94.7631 10.6028 95.5117 9.47876 96.7406 9.47876C97.3965 9.47876 97.9158 9.66651 97.9158 9.66651L98.6375 6.77961C98.6375 6.77961 97.9963 6.45776 96.6333 6.45776C95.2703 6.45776 94.0146 6.83082 93.0247 7.68664C91.769 8.7546 91.1813 10.3053 90.8863 11.8561L90.779 12.4705H89.0674L88.5334 15.2501H90.245L88.2944 25.5664H91.9835L93.9341 15.2501H96.4724L96.9795 12.4705V12.4729Z" fill="black"></path><path d="M105.852 12.5C105.852 12.5 103.546 18.3079 102.512 21.4801H102.458C102.387 20.4585 101.549 12.5 101.549 12.5H97.6742L99.8931 24.5011C99.9467 24.7693 99.9199 24.9278 99.8126 25.1155C99.3859 25.9446 98.6642 26.7467 97.8083 27.3344C97.1134 27.8415 96.3381 28.1634 95.7236 28.3779L96.7379 31.5062C97.4865 31.3453 99.0372 30.7308 100.347 29.502C102.031 27.9244 103.58 25.4935 105.184 22.1799L109.7 12.5049H105.852V12.5Z" fill="black"></path><path d="M19.0961 4.02005C19.0961 4.02005 18.7572 4.1249 18.1915 4.30045C18.0964 3.99323 17.9574 3.6153 17.7575 3.23737C17.1162 2.01337 16.1775 1.36723 15.0437 1.36479H15.0388C14.9608 1.36479 14.8828 1.37211 14.8023 1.37942C14.7682 1.34041 14.7365 1.29896 14.6999 1.26238C14.2074 0.733283 13.5735 0.474828 12.8152 0.496772C11.3498 0.538222 9.89169 1.59643 8.70913 3.47632C7.87525 4.79786 7.24374 6.46075 7.06331 7.74571C5.38091 8.2675 4.20323 8.6308 4.17885 8.63811C3.33034 8.90388 3.30352 8.9307 3.19136 9.73045C3.10602 10.3351 0.884766 27.5151 0.884766 27.5151L19.318 30.7019V3.98348C19.2278 3.98836 19.1449 4.00542 19.0937 4.02005H19.0961ZM14.8389 5.33915C13.8636 5.64149 12.7981 5.97066 11.7301 6.30226C12.03 5.1514 12.6006 4.00542 13.3004 3.25688C13.5613 2.97892 13.9246 2.66682 14.3561 2.48883C14.7609 3.3349 14.8487 4.53209 14.8389 5.34159V5.33915ZM12.842 1.47207C13.1858 1.46476 13.4759 1.54035 13.7222 1.70371C13.3272 1.90852 12.9444 2.20355 12.5835 2.5888C11.6521 3.58604 10.9401 5.13677 10.6549 6.63143C9.76734 6.90695 8.89932 7.17516 8.10201 7.42142C8.60673 5.06607 10.5793 1.53547 12.8395 1.46964L12.842 1.47207ZM9.99166 14.88C10.0916 16.4478 14.2172 16.7916 14.4488 20.4637C14.6317 23.353 12.9151 25.3304 10.4452 25.4865C7.48025 25.6742 5.84662 23.9235 5.84662 23.9235L6.47569 21.2488C6.47569 21.2488 8.11907 22.4898 9.43573 22.4045C10.294 22.3509 10.6012 21.6511 10.572 21.1561C10.4427 19.1104 7.08282 19.2299 6.87069 15.87C6.69269 13.0416 8.55065 10.1742 12.6494 9.91576C14.2293 9.81579 15.0364 10.2181 15.0364 10.2181L14.1001 13.7243C14.1001 13.7243 13.0541 13.2489 11.8155 13.3269C9.99897 13.4415 9.97946 14.5875 9.99653 14.8752L9.99166 14.88ZM15.8118 5.03681C15.802 4.29558 15.7118 3.26176 15.3656 2.37179C16.4774 2.58148 17.0236 3.83962 17.2552 4.59061C16.8261 4.72227 16.3384 4.87344 15.8093 5.03924L15.8118 5.03681Z" fill="black"></path><path d="M19.9287 30.6329L27.5751 28.7311C27.5751 28.7311 24.2834 6.46982 24.2615 6.31865C24.2395 6.16504 24.1079 6.08214 23.9957 6.07238C23.886 6.06263 21.733 6.03093 21.733 6.03093C21.733 6.03093 20.4212 4.75572 19.9263 4.27295V30.6329H19.9287Z" fill="black"></path></g><defs><clipPath id="clip0_28638_4379"><rect width="108.822" height="31" fill="white" transform="translate(0.879883 0.5)"></rect></clipPath></defs></svg>