<svg xmlns="http://www.w3.org/2000/svg" width="829" height="400" viewBox="0 0 829 400" fill="none"><rect width="829" height="400" fill="white"></rect><path d="M557.796 167.33C554.181 165.501 548.551 163.386 541.836 163.386C539.592 163.386 537.335 163.629 535.149 164.101C533.491 164.401 531.477 165.058 529.419 166.13C529.391 166.144 528.762 166.487 528.733 166.501C528.69 165.401 528.647 164.529 528.647 164.458L528.247 160L524.418 160.743C520.303 161.6 513.088 162.057 503.557 162.057C495.313 162.057 488.197 161.715 488.126 161.715L484.168 161.529L484.025 164.115C480.939 164.215 478.667 164.172 476.41 164.172C473.623 164.172 470.409 163.972 470.409 163.972L471.323 169.087C471.352 169.244 474.038 184.619 473.938 201.379V201.45V201.522C474.081 206.58 472.895 221.368 465.779 222.954L465.708 222.968C465.708 222.968 465.393 223.04 464.893 223.04C462.593 223.04 455.006 221.382 454.02 199.964C453.806 194.278 453.62 177.989 455.406 171.016L456.606 166.344L451.791 166.044C451.591 166.03 446.919 165.744 443.404 165.744C442.375 165.744 441.561 165.772 440.889 165.815H440.818L441.175 163.372L436.445 163.472C431.573 163.572 426.158 163.801 424.758 163.915C423.2 164.029 420.542 164.215 420.542 164.215L421.171 168.401C421.185 168.502 421.714 172.102 422.243 177.717C422.829 184.09 423.429 193.049 423.357 202.379C418.942 192.234 413.57 178.418 411.284 166.916L410.626 163.615L407.269 163.686C406.869 163.701 397.438 163.915 395.081 164.044L391.137 164.244L391.28 168.187C391.294 168.502 392.237 194.035 391.123 216.71C387.979 204.365 384.25 186.719 382.736 167.601L382.479 164.401L379.307 163.958C379.107 163.929 374.349 163.272 368.776 163.272C366.118 163.272 363.704 163.415 361.575 163.715L358.66 164.129L358.188 167.03C358.131 167.401 353.288 196.549 346.901 219.039L343.8 219.382C343.729 219.396 336.127 220.211 329.298 220.211C327.469 220.211 326.026 220.154 324.868 220.068C324.768 217.71 324.74 214.71 324.997 212.138C326.94 212.038 329.669 211.924 332.755 211.924C336.813 211.924 340.571 212.095 343.943 212.452L347.472 212.824L348.258 209.366C348.301 209.152 349.444 204.022 348.915 198.578L348.544 194.778L344.729 194.963C344.657 194.963 336.885 195.349 329.198 195.349C327.969 195.349 326.797 195.335 325.711 195.321C325.911 190.734 326.268 184.376 326.826 180.304C329.526 180.061 333.784 179.775 338.228 179.775C341.828 179.775 344.958 179.975 347.487 180.346L351.83 180.989L352.059 176.603C352.187 174.131 352.545 170.173 353.002 167.687C353.459 165.201 354.231 162.543 354.231 162.543L348.944 162.758C348.701 162.772 323.854 163.801 313.709 163.686L309.537 163.643L309.665 167.801C309.665 167.859 309.751 170.516 309.78 174.988C307.98 172.016 305.393 169.102 301.664 167.058C300.264 166.144 294.177 162.658 282.518 162.658C277.503 162.658 272.073 163.315 266.386 164.615L263 165.387L263.3 168.844C263.343 169.302 267.201 214.667 265.729 234.456L265.372 239.286L270.173 238.714C280.132 237.442 284.547 238.143 284.547 238.143L284.018 233.57C283.475 229.084 282.989 223.883 282.818 220.439C296.306 220.439 302.893 215.581 305.665 212.581C306.179 212.095 307.451 210.78 308.851 208.609C308.537 213.095 308.065 218.968 307.579 223.554C307.179 227.226 306.636 231.727 306.451 233.37C306.251 234.985 305.951 237.628 305.951 237.628L310.68 237.571C310.78 237.571 321.51 237.414 331.241 237.414C334.927 237.414 337.999 237.442 340.428 237.471L339.371 240H361.446C361.446 240 361.561 232.299 362.604 226.655C364.804 226.526 368.019 226.369 371.191 226.369C372.634 226.369 373.934 226.398 375.091 226.469C375.506 229.012 376.063 232.77 376.249 236.028L376.477 239.914L380.364 239.771C380.421 239.771 385.579 239.643 389.251 239.614C392.78 239.586 398.081 239.857 398.081 239.857L397.067 236.857C399.925 236.842 401.596 236.771 403.025 236.742C404.454 236.728 408.883 236.714 408.883 236.714L408.612 232.456C408.169 226.798 407.44 215.438 407.14 205.28C411.755 216.339 417.313 229.784 419.728 236.142L420.743 238.814L423.6 238.714C423.643 238.714 428.115 238.557 431.459 238.557C433.373 238.557 439.246 238.628 439.246 238.628L439.074 234.599C439.074 234.385 438.774 225.012 438.703 212.981L438.76 213.367C439.074 215.824 439.817 221.597 443.104 227.098C447.247 234.042 454.134 238.3 463.007 239.386C463.379 239.443 464.207 239.543 465.379 239.543C470.594 239.543 487.754 237.385 489.626 209.623C489.669 208.823 490.526 193.62 490.055 178.846C492.155 178.432 495.013 178.189 498.356 178.146C498.799 194.149 495.999 230.655 495.956 231.056L495.584 235.828L500.342 235.328C503.943 234.956 510.716 234.813 510.787 234.813L515.117 234.728L514.731 230.856C516.745 233.227 523.104 239.043 537.092 239.043C538.749 239.043 540.492 238.957 542.264 238.786C557.653 237.328 563.639 224.797 564.654 218.425C564.683 218.268 566.983 206.037 557.953 199.05C555.567 197.192 553.581 196.149 548.28 194.906C543.736 193.835 538.949 192.406 536.463 190.834C535.563 190.263 534.777 189.548 534.32 188.348C533.806 187.005 533.791 185.276 534.377 183.89C534.834 182.818 535.777 181.904 537.206 181.175C537.806 180.861 539.864 180.218 541.921 180.447C544.75 180.761 548.98 182.233 552.895 185.362C555.067 187.105 557.01 189.162 557.01 189.162L561.953 177.875L564.954 171.059L557.796 167.33ZM365.833 210.066C366.89 204.551 368.305 198.678 369.662 193.535C370.862 199.736 371.948 206.151 372.62 210.266C370.448 210.238 367.933 210.152 365.833 210.066ZM295.677 198.05L295.634 198.135C294.391 200.507 291.219 203.336 283.161 203.336C282.689 203.336 282.232 203.322 281.818 203.308C281.289 195.635 281.46 185.062 281.575 180.018C283.032 179.704 284.432 179.532 285.776 179.532C287.533 179.532 289.033 179.761 290.219 180.175C293.82 181.461 295.349 184.219 295.763 185.133C298.835 191.934 295.82 197.792 295.677 198.05ZM514.302 224.926C513.002 205.665 514.702 185.233 515.488 177.517C515.559 177.517 515.617 177.517 515.688 177.517C516.774 177.517 517.946 177.56 519.074 177.617C517.988 180.475 517.374 183.861 517.517 187.819C517.517 188.762 517.631 192.449 519.717 196.621C521.446 200.079 524.833 204.422 531.405 207.18C533.677 208.137 538.164 209.223 539.521 209.609C542.221 210.352 544.593 211.323 546.079 212.338C547.208 213.109 547.837 214.01 548.037 214.667C548.294 215.51 548.265 216.539 547.822 217.453C547.237 218.696 545.693 219.925 543.407 220.639C542.636 220.882 539.95 221.754 536.492 220.939C533.62 220.268 529.833 219.268 525.89 215.91C523.261 213.681 520.36 210.538 520.36 210.538L518.074 215.967C518.06 215.981 515.631 221.754 514.302 224.926Z" fill="black"></path><path d="M309.864 187.777C309.764 186.091 308.421 175.175 299.634 170.459C299.634 170.459 289.761 163.372 267.328 168.488C267.328 168.488 271.272 214.396 269.757 234.742C269.757 234.742 277.659 233.814 280.102 234.042C280.102 234.042 279.045 225.312 278.859 219.854C278.802 218.297 278.802 217.225 278.802 216.253C278.802 216.253 280.545 216.439 282.974 216.425C288.318 216.411 297.676 215.496 302.877 209.738C302.892 209.738 310.793 202.88 309.864 187.777ZM299.177 199.979C294.061 209.738 278.144 206.952 278.144 206.952C276.987 196.607 277.687 176.961 277.687 176.961C285.131 174.46 290.432 175.803 293.719 177.346C294.304 177.618 296.976 179.161 298.519 181.704C304.192 191.135 299.177 199.979 299.177 199.979Z" fill="white"></path><path d="M313.71 167.654C313.71 167.654 314.167 182.414 313.367 202.06C313.367 202.06 312.553 215.32 311.624 224.021C311.624 224.021 310.852 231.523 310.695 233.551C310.695 233.551 334.871 233.209 344.044 233.551C344.044 233.551 344.158 225.179 344.273 223.321C344.273 223.321 328.227 225.064 321.14 223.55C321.14 223.55 320.211 213.905 321.612 208.318C321.612 208.318 333.228 207.275 344.387 208.433C344.387 208.433 345.43 203.775 344.973 198.902C344.973 198.902 331.028 199.603 321.612 199.131C321.612 199.131 322.069 182.042 323.469 176.584C323.469 176.584 338 174.841 348.102 176.356C348.102 176.356 348.459 169.611 349.145 166.711C349.159 166.74 324.041 167.783 313.71 167.654Z" fill="white"></path><path d="M378.779 167.897C378.779 167.897 369.605 166.626 362.161 167.669C362.161 167.669 354.488 214.277 345.43 236.01H357.518V235.781C357.518 235.781 358.446 225.322 359.489 222.879C359.489 222.879 371.806 221.836 378.55 222.764C378.55 222.764 379.95 229.966 380.293 235.781C380.293 235.781 390.052 235.438 392.495 235.667C392.495 235.652 381.693 204.618 378.779 167.897ZM361.118 213.806C363.561 198.231 370.063 177.542 370.063 177.542C373.077 187.072 377.264 214.034 377.264 214.034C373.906 214.62 361.118 213.806 361.118 213.806Z" fill="white"></path><path d="M395.299 168.015C395.299 168.015 396.813 207.88 393.898 232.856C393.898 232.856 403.2 232.856 404.7 232.741C404.7 232.741 401.914 196.478 403.657 186.49C403.657 186.49 419.003 222.754 423.532 234.713C423.532 234.713 428.662 234.57 432.148 234.613C433.463 234.627 434.091 234.642 435.192 234.613C435.192 234.613 433.634 187.062 436.549 167.43C436.549 167.43 426.09 167.658 425.161 167.773C425.161 167.773 429.105 195.549 426.433 218.453C426.433 218.453 411.673 189.391 407.372 167.658C407.372 167.673 397.613 167.901 395.299 168.015Z" fill="white"></path><path d="M441.202 169.752C441.202 169.752 440.331 195.085 442.717 212.288C443.231 216.018 444.603 233.121 463.635 235.421C465.549 235.736 483.838 237.25 485.71 209.388C485.71 209.388 487.11 184.984 485.482 168.023C485.482 168.023 476.18 168.481 475.251 168.366C475.251 168.366 478.037 184.055 477.923 201.372C477.923 201.372 478.623 224.148 466.65 226.82C466.335 226.891 451.418 230.635 450.032 200.086C450.032 200.086 449.218 179.054 451.533 169.981C451.533 169.981 444.217 169.524 441.202 169.752Z" fill="white"></path><path d="M500.011 231.353C500.011 231.353 503.383 187.759 502.211 174.171C502.211 174.171 493.381 173.828 488.037 175.214C488.037 175.214 487.808 167.655 487.923 165.684C487.923 165.684 513.784 166.97 524.958 164.641C524.958 164.641 525.415 169.756 524.601 174.057C524.601 174.057 514.885 173.014 511.87 173.828C511.87 173.828 508.112 204.448 510.798 230.824C510.784 230.824 503.811 230.967 500.011 231.353Z" fill="white"></path><path d="M541.964 234.813C554.48 233.627 558.867 224.283 560.239 219.953C560.653 218.61 561.039 216.353 560.953 214.281C560.839 211.537 560.124 207.551 557.495 204.279C555.966 202.379 553.923 200.778 550.694 199.664C549.694 199.321 546.565 198.592 545.036 198.192C541.764 197.321 536.091 195.549 533.034 193.106C531.734 192.063 530.776 190.919 530.348 189.248C530.119 188.348 529.862 187.19 529.948 185.861C530.148 183.032 531.148 179.789 535.434 177.617C537.306 176.674 539.964 176.231 542.093 176.431C545.522 176.76 550.923 178.046 555.666 182.418L559.739 173.131C559.739 173.131 549.28 165.115 535.92 168.015C535.92 168.015 523.732 170.201 521.746 183.104C521.375 185.533 521.16 189.705 522.432 193.263C523.661 196.72 526.675 200.807 533.034 203.536C535.591 204.636 537.892 205.165 539.706 205.679C542.207 206.408 545.865 207.594 548.751 209.28C550.423 210.251 551.28 211.723 551.694 212.881C552.752 215.838 552.694 223.254 541.507 224.954C541.507 224.954 531.162 226.812 521.746 217.524C521.746 217.524 518.474 225.297 517.445 227.74C517.445 227.755 523.303 236.599 541.964 234.813Z" fill="white"></path><path opacity="0.8" d="M299.588 171.192C299.588 171.192 286.2 165.548 269.654 170.263C269.654 170.263 273.126 220.544 271.04 232.389L267.797 168.949C267.797 168.949 286.286 164.148 299.588 171.192Z" fill="#D1D2D4"></path><path opacity="0.8" d="M277 207.396C277 207.396 278.315 207.553 278.386 208.01C278.386 208.01 289.331 211.468 296.804 205.767C302.69 201.281 304.305 192.151 301.29 185.492C301.29 185.492 303.848 196.394 296.646 203.91C292.689 208.053 285.359 208.239 277 207.396Z" fill="#D1D2D4"></path><path opacity="0.8" d="M345.704 167.789C345.704 167.789 334.559 169.647 315.998 169.875C315.998 169.875 316.313 208.011 312.055 229.6C312.055 229.6 313.526 208.711 314.069 195.794C314.612 182.877 314.141 168.261 314.141 168.261L345.704 167.789Z" fill="#D1D2D4"></path><path opacity="0.8" d="M343.462 199.969C343.462 199.969 334.203 202.726 320.344 200.34L343.462 199.969Z" fill="#D1D2D4"></path><path opacity="0.8" d="M342.918 224.344C342.918 224.344 326.286 228.444 320.328 224.344C320.328 224.344 336.66 225.187 342.918 224.344Z" fill="#D1D2D4"></path><path opacity="0.8" d="M377.988 168.776C377.988 168.776 371.758 168.433 364.042 169.647C364.042 169.647 356.341 213.555 348.711 229.658C348.711 229.658 353.998 210.612 357.37 196.238C360.742 181.864 362.571 168.361 362.571 168.361C362.571 168.361 373.23 167.99 377.988 168.776Z" fill="#D1D2D4"></path><path opacity="0.8" d="M370.972 177.18C370.972 177.18 376.259 192.94 379.631 215.801C379.631 215.801 375.988 216.501 371.673 216.23C367.343 215.972 360.156 214.758 360.156 214.758L377.645 214.672L377.731 213.029L370.972 177.18Z" fill="#D1D2D4"></path><path opacity="0.8" d="M379.375 222.281L381.104 234.669C381.104 234.669 383.619 232.669 379.375 222.281Z" fill="#D1D2D4"></path><path opacity="0.8" d="M406.651 168.773C406.651 168.773 403.965 169.816 397.65 170.245C397.65 170.245 398.693 209.994 395.492 227.483C395.492 227.483 396.178 213.452 396.178 200.293C396.178 187.133 395.749 168.516 395.749 168.516L406.651 168.773Z" fill="#D1D2D4"></path><path opacity="0.8" d="M434.97 168.328C434.97 168.328 434.798 168.928 427.526 169.8C427.526 169.8 431.512 199.148 427.268 219.509C427.268 219.509 428.397 200.191 427.44 186.431C426.497 172.672 425.711 168.685 425.711 168.685L434.97 168.328Z" fill="#D1D2D4"></path><path opacity="0.8" d="M423.366 231.382C423.366 231.382 418.693 213.721 406.562 191.203L423.366 231.382Z" fill="#D1D2D4"></path><path opacity="0.8" d="M450.289 170.849C450.289 170.849 445.36 171.449 443.36 171.892C443.36 171.892 442.502 194.668 444.403 209.042C446.303 223.416 449.504 227.745 453.576 230.774C453.576 230.774 445.703 228.26 443.36 213.014C441.031 197.768 441.802 170.492 441.802 170.492L450.289 170.849Z" fill="#D1D2D4"></path><path opacity="0.8" d="M484.665 169.031C484.665 169.031 483.108 169.731 477.735 170.417C477.735 170.417 481.55 190.164 479.379 210.596C477.421 229.113 464.919 229.814 461.547 227.57C461.547 227.57 469.948 229.042 474.192 222.641C478.436 216.225 478.436 200.651 478.35 195.45C478.264 190.249 475.921 169.131 475.921 169.131L484.665 169.031Z" fill="#D1D2D4"></path><path opacity="0.8" d="M522.948 166.086C522.948 166.086 516.447 167.901 505.116 167.901C493.771 167.901 489.956 167.986 489.956 167.986C489.956 167.986 488.999 173.53 489.084 174.302L488.484 166.429C488.484 166.429 511.346 167.386 522.948 166.086Z" fill="#D1D2D4"></path><path opacity="0.8" d="M503.119 173.531C503.119 173.531 504.591 181.504 504.248 194.749C503.905 207.995 502.433 222.454 501.133 230.599C501.133 230.599 502.09 206.266 502.433 200.207C502.776 194.135 503.119 173.531 503.119 173.531Z" fill="#D1D2D4"></path><path opacity="0.8" d="M553.422 170.847C553.422 170.847 541.477 167.475 533.761 170.761C526.059 174.047 523.03 181.063 523.373 187.907C523.716 194.751 527.617 198.909 529.86 200.638C529.86 200.638 521.902 198.037 522.073 186.264C522.245 174.49 531.946 168.86 537.662 168.518C543.377 168.16 545.892 167.817 553.422 170.847Z" fill="#D1D2D4"></path><path opacity="0.8" d="M549.362 208.227C549.362 208.227 556.978 211.984 553.077 220.3C549.176 228.616 534.288 229.916 524.672 221.257C524.672 221.257 534.145 228.059 545.376 225.072C554.806 222.543 553.177 210.356 549.362 208.227Z" fill="#D1D2D4"></path><path opacity="0.8" d="M349.202 167.117C349.202 167.117 347.902 170.632 347.259 175.076C347.259 175.076 342.273 174.59 336.014 174.719C330.47 174.833 322.669 175.747 322.669 175.747C322.669 175.747 320.969 182.363 321.683 198.437C323.941 182.606 324.812 178.062 324.812 178.062L350.631 178.919L349.202 167.117Z" fill="white"></path><path opacity="0.8" d="M345.067 199.625C345.067 199.625 344.696 204.812 343.553 207.355C343.553 207.355 341.024 207.041 334.894 206.941C328.364 206.826 320.963 207.512 320.963 207.512C320.963 207.512 319.577 214.828 321.149 223.101L323.077 209.427L345.767 209.398L346.167 203.34L345.067 199.625Z" fill="white"></path><path opacity="0.8" d="M344.442 223.57C344.442 223.57 343.727 230.414 343.141 232.443C343.141 232.443 328.925 232.286 311.25 233.758L344.327 234.929L345.185 233.329L344.442 223.57Z" fill="white"></path><path opacity="0.8" d="M300.067 185.033C300.067 185.033 298.366 177.76 291.094 175.445C283.778 173.116 276.391 176.217 276.391 176.217C276.391 176.217 276.32 190.291 278.02 205.222L278.949 177.688L288.922 177.217L294.723 179.389L300.067 185.033Z" fill="white"></path><path opacity="0.8" d="M269.344 234.786C269.344 234.786 274.402 233.143 278.831 232.614C278.831 232.614 277.288 220.34 277.702 215.082C277.702 215.082 292.348 217.04 300.707 210.653C305.565 206.924 309.065 200.037 309.994 194.25L310.094 203.437L301.95 213.239L294.834 216.54L279.974 217.983L282.032 235.629L270.487 236.758L269.772 234.743" fill="white"></path><path opacity="0.8" d="M370.69 179.99C370.69 179.99 369.932 176.904 369.575 175.961C369.575 175.961 362.431 201.98 361.859 210.024L370.69 179.99Z" fill="white"></path><path opacity="0.8" d="M381.683 190.609C381.683 190.609 383.697 208.941 391.156 234.517C391.156 234.517 383.226 235.103 380.211 235.946L393.513 236.26L381.683 190.609Z" fill="white"></path><path opacity="0.8" d="M378.263 222.784C378.263 222.784 372.162 221.855 367.204 221.784C362.289 221.712 358.703 222.041 358.703 222.041C358.703 222.041 357.66 224.241 356.888 234.929C356.888 234.929 348.844 235.515 345.172 236.243L358.288 236.743L360.646 224.213L378.263 222.784Z" fill="white"></path><path opacity="0.8" d="M407.641 168.219C407.641 168.219 407.755 180.835 419.714 203.811L407.641 168.219Z" fill="white"></path><path opacity="0.8" d="M403.156 196.539C403.156 196.539 402.955 216.543 403.498 231.545C403.498 231.545 397.883 232.088 393.711 233.017L405.427 233.56L403.156 196.539Z" fill="white"></path><path opacity="0.8" d="M423.258 234.901C423.258 234.901 428.63 233.629 433.817 233.086C433.817 233.086 433.345 200.895 435.746 176.305L436.174 235.758L423.258 234.901Z" fill="white"></path><path opacity="0.8" d="M451.766 170.414C451.766 170.414 448.823 179.859 449.052 195.561C449.28 211.264 451.524 224.809 463.14 226.738L456.567 220.08L451.466 205.235L450.923 190.075L451.766 170.414Z" fill="white"></path><path opacity="0.8" d="M486.117 174.742C486.117 174.742 487.431 208.934 481.701 222.479C479.187 228.438 474.586 233.153 466.699 234.467C463.227 235.053 459.326 234.31 454.711 233.153C454.711 233.153 467.785 242.597 480.473 230.524C493.161 218.45 486.974 181.172 486.117 174.742Z" fill="white"></path><path opacity="0.8" d="M501.788 174.232C501.788 174.232 496.588 173.418 493.658 173.675C489.301 174.061 487.586 175.561 487.586 175.561L501.788 174.232Z" fill="white"></path><path opacity="0.8" d="M525.069 164.617C525.069 164.617 524.555 170.89 523.912 173.047C523.912 173.047 522.169 172.919 519.082 173.047C513.51 173.276 511.967 173.919 511.967 173.919C511.967 173.919 507.223 204.253 509.652 229.729C509.652 229.729 499.85 231.072 498.25 232.158C500.679 232.158 512.181 232.315 512.181 232.315L512.81 175.105L524.626 174.833L525.512 173.504L524.969 164.66" fill="white"></path><path opacity="0.8" d="M560.044 173.031C560.044 173.031 557.015 177.003 555.029 181.076C555.029 181.076 548.399 174.646 539.883 175.403C532.596 176.046 527.11 181.747 530.982 190.634L532.396 182.776L536.94 178.518L541.669 177.861L555.858 185.148L559.358 177.003L560.044 173.031Z" fill="white"></path><path opacity="0.8" d="M559.483 206.906C559.483 206.906 562.984 215.522 557.969 223.366C552.982 231.182 546.424 233.682 536.008 233.968C525.592 234.254 519.448 229.796 518.305 229.039C518.305 229.039 529.478 241.627 549.153 234.811C568.842 228.01 559.483 206.906 559.483 206.906Z" fill="white"></path></svg>