<svg xmlns="http://www.w3.org/2000/svg" width="829" height="400" viewBox="0 0 829 400" fill="none"><rect width="829" height="400" fill="white"></rect><path d="M600.965 171.099L473.948 171.089C469.661 142.218 444.848 120 414.761 120C384.689 120 359.871 142.218 355.598 171.089L228.567 171.099C217.783 171.099 209 179.903 209 190.704V260.394C209 271.191 217.783 280 228.567 280H600.965C611.763 280 620.551 271.191 620.551 260.394V190.704C620.551 179.903 611.763 171.099 600.965 171.099Z" fill="#FCD000"></path><path d="M599.799 183.395H229.739C225.103 183.395 221.328 187.181 221.328 191.827V259.282C221.328 263.924 225.103 267.672 229.739 267.672H599.799C604.431 267.672 608.219 263.924 608.219 259.282V191.827C608.219 187.181 604.431 183.395 599.799 183.395Z" fill="#00AF42"></path><path d="M248.257 255.086C240.07 255.086 236.393 249.368 235.578 239.638L244.329 238.083C244.966 245.039 246.214 246.747 248.257 246.747C250.547 246.747 251.52 245.267 251.52 241.593C251.52 236.108 249.816 233.552 244.654 227.835C238.846 221.95 235.978 216.554 235.978 209.998C235.978 201.971 239.911 195.993 247.759 195.993C255.779 195.993 258.962 201.413 260.024 209.845L251.445 211.637C250.784 206.013 249.816 204.29 247.759 204.29C245.799 204.29 244.813 205.682 244.813 209.263C244.813 213.285 246.214 215.66 250.715 220.497C257.329 227.192 260.452 232.919 260.452 240.774C260.452 249.215 256.035 255.086 248.257 255.086Z" fill="white"></path><path d="M265.43 254.195V196.895H286.854V205.429H274.585V219.737H283.996V228.248H274.585V245.675H287.599V254.195H265.43Z" fill="white"></path><path d="M303.385 255.086C295.207 255.086 291.525 249.368 290.688 239.638L299.457 238.083C300.136 245.039 301.346 246.747 303.385 246.747C305.68 246.747 306.648 245.267 306.648 241.593C306.648 236.108 304.944 233.552 299.787 227.835C293.964 221.95 291.111 216.554 291.111 209.998C291.111 201.971 295.039 195.993 302.882 195.993C310.911 195.993 314.1 201.413 315.166 209.845L306.578 211.637C305.912 206.013 304.944 204.29 302.882 204.29C300.923 204.29 299.955 205.682 299.955 209.263C299.955 213.285 301.346 215.66 305.838 220.497C312.471 227.192 315.57 232.919 315.57 240.774C315.57 249.215 311.135 255.086 303.385 255.086Z" fill="white"></path><path d="M345.925 254.195L336.854 196.895H327.037L317.961 254.195H327.037L328.517 241.592H335.211L336.779 254.195H345.925ZM334.321 233.346H329.239L330.468 222.931C330.961 218.838 331.529 214.103 331.696 209.596C331.943 214.103 332.516 218.759 333 222.852L334.321 233.346Z" fill="white"></path><path d="M374.397 254.199V239.226C374.397 232.279 374.634 225.64 374.807 219.741C373.983 224.262 372.2 232.773 370.72 238.565L366.629 255.922L362.612 238.565C361.22 233.015 359.437 224.08 358.623 219.741C358.702 225.16 359.019 232.521 359.019 239.226V254.199H350.836V196.899H359.838L363.594 214.34C364.823 219.522 366.131 226.124 366.629 230.785C367.113 226.124 368.5 219.434 369.729 214.275L373.582 196.899H382.575V254.199H374.397Z" fill="white"></path><path d="M390.008 254.195V196.895H411.451V205.429H399.186V219.737H408.589V228.248H399.186V245.675H412.173V254.195H390.008Z" fill="white"></path><path d="M443.273 255.086C435.09 255.086 431.408 249.368 430.594 239.638L439.344 238.083C439.996 245.039 441.239 246.747 443.273 246.747C445.567 246.747 446.54 245.267 446.54 241.593C446.54 236.108 444.837 233.552 439.679 227.835C433.861 221.95 430.989 216.554 430.989 209.998C430.989 201.971 434.932 195.993 442.803 195.993C450.799 195.993 453.987 201.413 455.044 209.845L446.466 211.637C445.795 206.013 444.837 204.29 442.803 204.29C440.815 204.29 439.847 205.682 439.847 209.263C439.847 213.285 441.239 215.66 445.749 220.497C452.358 227.192 455.463 232.919 455.463 240.774C455.463 249.215 451.06 255.086 443.273 255.086Z" fill="white"></path><path d="M473.865 205.429V254.195H464.705V205.429H457.016V196.895H481.643V205.429H473.865Z" fill="white"></path><path d="M511.568 254.195L505.922 226.381C509.125 223.825 511.005 219.327 511.005 212.716C511.005 200.755 505.205 196.895 498.093 196.895H486.141V254.195H495.212V228.993H497.507L502.255 254.195H511.568ZM501.752 213.107C501.752 219.174 500.197 221.464 497.093 221.464H495.212V204.684H497.339C500.542 204.684 501.752 206.822 501.752 213.107" fill="white"></path><path d="M517.625 254.195V196.895H539.068V205.429H526.78V219.737H536.192V228.248H526.78V245.675H539.794V254.195H517.625Z" fill="white"></path><path d="M545.688 254.195V196.895H567.112V205.429H554.848V219.737H564.245V228.248H554.848V245.675H567.843V254.195H545.688Z" fill="white"></path><path d="M587.487 205.429V254.195H578.336V205.429H570.633V196.895H595.264V205.429H587.487Z" fill="white"></path><path d="M600.919 258.217C600.919 258.66 600.649 258.897 600.193 258.897H598.946V257.57H600.193C600.626 257.57 600.919 257.761 600.919 258.217ZM602.032 258.194C602.032 257.091 601.24 256.56 600.254 256.56H597.852V261.751H598.946V259.856H599.844L600.761 261.751H601.994L600.984 259.712C601.552 259.488 602.032 259.093 602.032 258.194M604.503 259.26C604.503 256.555 602.464 254.488 599.77 254.488C597.084 254.488 595.031 256.555 595.031 259.26C595.031 261.933 597.084 264 599.77 264C602.464 264 604.503 261.933 604.503 259.26M603.665 259.26C603.665 261.458 601.99 263.139 599.77 263.139C597.563 263.139 595.874 261.458 595.874 259.26C595.874 257.03 597.563 255.345 599.77 255.345C601.99 255.345 603.665 257.03 603.665 259.26Z" fill="white"></path><path d="M459.056 167.532C455.324 147.796 435.891 132.329 414.76 132.329C393.642 132.329 374.158 147.796 370.453 167.532C370.425 170.475 372.715 171.094 373.581 171.094H455.863C456.748 171.094 459.075 170.475 459.075 167.658V167.579L459.056 167.532Z" fill="#00AF42"></path><path d="M396.963 163.672V149.187H394.328V147.018C396.255 146.804 397.079 145.649 397.475 144.22H400.444V163.672H396.963Z" fill="white"></path><path d="M396.963 163.672V149.187H394.328V147.018C396.255 146.804 397.079 145.649 397.475 144.22H400.444V163.672H396.963Z" stroke="white" stroke-width="0.2"></path><path d="M407.188 163.672C407.397 157.726 409.245 155.249 412.936 152.614C414.272 151.636 414.77 150.826 414.77 149.644C414.77 148.107 413.974 147.39 412.545 147.39C411.321 147.39 410.353 148.07 409.422 149.132L407.267 146.594C408.561 144.964 410.301 143.898 412.675 143.898C416.031 143.898 418.293 145.765 418.293 149.159C418.293 151.86 416.953 153.513 415.091 154.919C412.456 156.884 411.265 158.201 411.13 160.264H418.349V163.672H407.188Z" fill="white"></path><path d="M407.188 163.672C407.397 157.726 409.245 155.249 412.936 152.614C414.272 151.636 414.77 150.826 414.77 149.644C414.77 148.107 413.974 147.39 412.545 147.39C411.321 147.39 410.353 148.07 409.422 149.132L407.267 146.594C408.561 144.964 410.301 143.898 412.675 143.898C416.031 143.898 418.293 145.765 418.293 149.159C418.293 151.86 416.953 153.513 415.091 154.919C412.456 156.884 411.265 158.201 411.13 160.264H418.349V163.672H407.188Z" stroke="white" stroke-width="0.2"></path><path d="M428.892 163.984C426.267 163.984 424.438 162.876 422.906 160.432L425.657 158.481C426.714 159.99 427.686 160.572 428.99 160.572C430.675 160.572 431.596 159.496 431.596 157.927C431.596 155.944 430.302 155.124 428.51 155.124H427.165V151.744H428.538C430.139 151.744 431.061 151.032 431.061 149.635C431.061 148.364 430.456 147.363 428.771 147.363C427.724 147.363 426.974 147.796 425.96 148.801L423.614 146.441C425.024 144.863 426.388 143.903 428.99 143.903C432.378 143.903 434.561 146.003 434.561 149.216C434.561 151.409 433.435 152.652 431.824 153.248C433.532 153.727 435.134 155.124 435.134 157.839C435.134 161.652 432.797 163.984 428.892 163.984Z" fill="white"></path><path d="M428.892 163.984C426.267 163.984 424.438 162.876 422.906 160.432L425.657 158.481C426.714 159.99 427.686 160.572 428.99 160.572C430.675 160.572 431.596 159.496 431.596 157.927C431.596 155.944 430.302 155.124 428.51 155.124H427.165V151.744H428.538C430.139 151.744 431.061 151.032 431.061 149.635C431.061 148.364 430.456 147.363 428.771 147.363C427.724 147.363 426.974 147.796 425.96 148.801L423.614 146.441C425.024 144.863 426.388 143.903 428.99 143.903C432.378 143.903 434.561 146.003 434.561 149.216C434.561 151.409 433.435 152.652 431.824 153.248C433.532 153.727 435.134 155.124 435.134 157.839C435.134 161.652 432.797 163.984 428.892 163.984Z" stroke="white" stroke-width="0.2"></path></svg>