<svg xmlns="http://www.w3.org/2000/svg" width="829" height="400" viewBox="0 0 829 400" fill="none"><rect width="829" height="400" fill="white"></rect><path d="M504.995 200.599C504.995 249.972 464.972 289.995 415.599 289.995C366.226 289.995 326.203 249.972 326.203 200.599C326.203 151.226 366.226 111.203 415.599 111.203C464.972 111.203 504.995 151.226 504.995 200.599Z" fill="black"></path><path d="M341.008 168.656H351.18V192.141H360.832V200.839H341.008V168.656Z" fill="white"></path><path d="M362.789 187.526V168.656H372.9V186.632C372.9 190.244 374.737 192.298 377.455 192.298C380.173 192.298 382.009 190.256 382.009 186.632V168.656H392.121V187.526C392.121 196.381 386.455 201.358 377.443 201.358C368.503 201.358 362.789 196.381 362.789 187.526Z" fill="white"></path><path d="M480.608 168.656H491.191L479.666 190.244V200.827H469.446V190.244L458.078 168.656H469.083L474.846 180.133L480.608 168.656Z" fill="white"></path><path d="M411.7 192.507C411.58 192.507 411.483 192.495 411.362 192.495C411.241 192.495 411.133 192.507 411.012 192.507C407.448 192.507 405.032 189.571 405.032 184.751C405.032 179.931 407.448 176.996 411.012 176.996C411.133 176.996 411.241 177.008 411.362 177.008C411.483 177.008 411.58 176.996 411.7 176.996C413.645 176.839 415.457 177.998 416.134 179.823H426.886C425.726 173.275 420.676 168.141 411.688 168.141C401.758 168.141 394.836 175.111 394.836 184.751C394.836 194.392 401.77 201.362 411.688 201.362C420.676 201.362 425.714 196.228 426.886 189.62H416.134C415.482 191.492 413.657 192.676 411.7 192.507Z" fill="white"></path><path d="M449.707 182.488L459.335 168.656H448.426L440.32 180.604V168.656H430.148V200.839H440.32V192.503L442.531 189.302L448.777 200.827H459.782L449.707 182.488Z" fill="white"></path><path d="M378.624 208.828H389.206L377.682 230.416V240.999H367.462V230.416L356.094 208.828H367.099L372.862 220.305L378.624 208.828Z" fill="white"></path><path d="M404.787 217.163C400.849 217.163 398.191 220.099 398.191 224.919C398.191 229.739 400.849 232.675 404.787 232.675C408.725 232.675 411.443 229.739 411.443 224.919C411.443 220.099 408.713 217.163 404.787 217.163ZM404.787 241.542C394.724 241.542 387.898 234.523 387.898 224.931C387.898 215.291 394.736 208.32 404.787 208.32C414.85 208.32 421.736 215.291 421.736 224.931C421.736 234.511 414.85 241.542 404.787 241.542Z" fill="white"></path><path d="M425.398 227.698V208.828H435.51V226.804C435.51 230.416 437.346 232.47 440.064 232.47C442.782 232.47 444.619 230.428 444.619 226.804V208.828H454.73V227.698C454.73 236.553 449.064 241.53 440.052 241.53C431.1 241.542 425.386 236.553 425.398 227.698Z" fill="white"></path><path d="M475.122 208.828V222.238L474.011 228.411H465.518L464.516 222.238V208.828H475.122Z" fill="white"></path><path d="M469.804 241.398C467.086 241.458 464.827 239.308 464.767 236.578C464.706 233.86 466.857 231.601 469.587 231.54C472.305 231.48 474.564 233.63 474.625 236.36C474.625 236.397 474.625 236.433 474.625 236.469C474.77 239.042 472.8 241.241 470.227 241.386C470.082 241.398 469.949 241.398 469.804 241.398Z" fill="white"></path></svg>