<svg xmlns="http://www.w3.org/2000/svg" width="829" height="400" viewBox="0 0 829 400" fill="none"><path d="M371.101 203.916C368.686 202.608 367.447 201.501 367.447 199.985C367.447 198.054 369.17 196.815 371.862 196.815C374.995 196.815 377.794 198.123 377.794 198.123L380.002 191.367C380.002 191.367 377.97 189.782 372.007 189.782C363.698 189.782 357.942 194.538 357.942 201.23C357.942 205.023 360.628 207.917 364.214 209.986C367.107 211.64 368.145 212.81 368.145 214.534C368.145 216.257 366.698 217.773 364.006 217.773C359.999 217.773 356.213 215.704 356.213 215.704L353.866 222.459C353.866 222.459 357.364 224.805 363.245 224.805C371.793 224.805 377.932 220.597 377.932 213.018C377.932 208.948 374.831 206.055 371.108 203.916H371.101Z" fill="black"></path><path d="M405.157 189.714C400.949 189.714 397.64 191.714 395.092 194.746L394.954 194.677L398.609 175.58H389.092L379.852 224.19H389.368L392.539 207.572C393.778 201.301 397.017 197.438 400.055 197.438C402.194 197.438 403.018 198.885 403.018 200.955C403.018 202.263 402.88 203.848 402.603 205.163L399.017 224.19H408.534L412.258 204.54C412.673 202.47 412.95 199.992 412.95 198.332C412.95 192.954 410.126 189.714 405.157 189.714Z" fill="black"></path><path d="M434.463 189.714C423.015 189.714 415.435 200.055 415.435 211.572C415.435 218.95 419.983 224.875 428.538 224.875C439.778 224.875 447.358 214.811 447.358 203.017C447.358 196.192 443.357 189.714 434.463 189.714ZM429.777 217.566C426.537 217.566 425.16 214.811 425.16 211.364C425.16 205.917 427.984 197.023 433.155 197.023C436.532 197.023 437.633 199.916 437.633 202.747C437.633 208.609 434.809 217.572 429.77 217.572L429.777 217.566Z" fill="black"></path><path d="M471.694 189.714C465.272 189.714 461.63 195.368 461.63 195.368H461.492L462.045 190.267H453.635C453.22 193.714 452.465 198.954 451.704 202.885L445.087 237.701H454.604L457.221 223.636H457.428C457.428 223.636 459.385 224.875 463.014 224.875C474.185 224.875 481.494 213.427 481.494 201.847C481.494 195.438 478.67 189.714 471.707 189.714H471.694ZM462.593 217.705C460.12 217.705 458.661 216.327 458.661 216.327L460.246 207.433C461.347 201.501 464.454 197.576 467.763 197.576C470.656 197.576 471.556 200.262 471.556 202.816C471.556 208.955 467.901 217.711 462.593 217.711V217.705Z" fill="black"></path><path d="M495.067 176.067C492.035 176.067 489.619 178.483 489.619 181.584C489.619 184.408 491.412 186.339 494.098 186.339H494.236C497.199 186.339 499.753 184.339 499.822 180.822C499.822 178.067 497.96 176.067 495.067 176.067Z" fill="black"></path><path d="M481.761 224.185H491.272L497.757 190.47H488.171L481.761 224.185Z" fill="black"></path><path d="M521.956 190.4H515.339L515.685 188.815C516.238 185.576 518.169 182.676 521.339 182.676C523.031 182.676 524.371 183.16 524.371 183.16L526.233 175.713C526.233 175.713 524.579 174.883 521.063 174.883C517.547 174.883 514.307 175.845 511.753 178.053C508.514 180.808 506.998 184.808 506.237 188.809L505.96 190.394H501.545L500.167 197.565H504.583L499.551 224.178H509.067L514.1 197.565H520.648L521.956 190.394V190.4Z" fill="black"></path><path d="M544.844 190.47C544.844 190.47 538.894 205.453 536.227 213.636H536.089C535.906 211.001 533.742 190.47 533.742 190.47H523.747L529.471 221.43C529.61 222.122 529.541 222.531 529.264 223.015C528.163 225.154 526.301 227.223 524.093 228.739C522.301 230.047 520.3 230.878 518.715 231.431L521.332 239.501C523.263 239.086 527.264 237.501 530.641 234.331C534.988 230.261 538.982 223.99 543.121 215.442L554.77 190.483H544.844V190.47Z" fill="black"></path><path d="M321.035 168.593C321.035 168.593 320.161 168.864 318.702 169.317C318.456 168.524 318.098 167.549 317.582 166.574C315.928 163.417 313.506 161.75 310.581 161.744H310.569C310.367 161.744 310.166 161.762 309.959 161.781C309.87 161.681 309.789 161.574 309.694 161.479C308.424 160.114 306.788 159.448 304.832 159.504C301.052 159.611 297.29 162.341 294.24 167.191C292.088 170.6 290.459 174.89 289.994 178.205C285.654 179.551 282.616 180.488 282.553 180.507C280.364 181.193 280.294 181.262 280.005 183.325C279.785 184.885 274.055 229.205 274.055 229.205L321.608 237.426V168.499C321.375 168.512 321.161 168.556 321.029 168.593H321.035ZM310.053 171.996C307.537 172.776 304.788 173.626 302.033 174.481C302.807 171.512 304.279 168.556 306.084 166.625C306.757 165.908 307.694 165.102 308.807 164.643C309.852 166.826 310.078 169.914 310.053 172.003V171.996ZM304.901 162.02C305.788 162.001 306.537 162.196 307.172 162.618C306.153 163.146 305.166 163.907 304.235 164.901C301.832 167.474 299.995 171.474 299.259 175.33C296.97 176.041 294.73 176.733 292.673 177.368C293.975 171.292 299.064 162.184 304.895 162.014L304.901 162.02ZM297.548 196.61C297.806 200.654 308.449 201.541 309.046 211.014C309.518 218.468 305.09 223.569 298.718 223.971C291.069 224.456 286.855 219.94 286.855 219.94L288.478 213.039C288.478 213.039 292.717 216.241 296.114 216.021C298.328 215.882 299.121 214.077 299.045 212.8C298.712 207.523 290.044 207.831 289.497 199.163C289.038 191.867 293.831 184.47 304.404 183.803C308.48 183.545 310.562 184.583 310.562 184.583L308.147 193.628C308.147 193.628 305.449 192.401 302.253 192.603C297.567 192.898 297.517 195.855 297.561 196.597L297.548 196.61ZM312.563 171.216C312.537 169.304 312.305 166.637 311.412 164.341C314.28 164.882 315.689 168.128 316.286 170.065C315.179 170.405 313.921 170.795 312.556 171.223L312.563 171.216Z" fill="black"></path><path d="M323.183 237.248L342.909 232.342C342.909 232.342 334.417 174.913 334.36 174.523C334.304 174.127 333.964 173.913 333.675 173.888C333.392 173.863 327.837 173.781 327.837 173.781C327.837 173.781 324.453 170.492 323.177 169.246V237.248H323.183Z" fill="black"></path></svg>