<svg xmlns="http://www.w3.org/2000/svg" width="829" height="400" viewBox="0 0 829 400" fill="none"><rect width="829" height="400" fill="white"></rect><path fill-rule="evenodd" clip-rule="evenodd" d="M344.689 171.047C331.775 171.047 317.964 178.559 317.964 199.626C317.964 217.563 327.953 228.275 344.689 228.275C361.424 228.275 371.413 217.563 371.413 199.626C371.399 178.559 357.602 171.047 344.689 171.047ZM344.689 225.446C334.189 225.446 327.912 215.791 327.912 199.64C327.912 183.709 334.341 173.821 344.689 173.821C355.036 173.821 361.465 183.709 361.465 199.626C361.465 215.791 355.188 225.446 344.689 225.446ZM266.156 172.995L266.722 173.146C270.516 174.135 272.696 177.376 272.696 180.384V227.339H282.312V200.586H303.863V197.194H282.312V175.605H308.126V172.226H266.156V172.995ZM406.124 172.226C420.1 172.226 428.571 178.008 428.571 188.528C428.571 200.366 419.052 204.624 414.085 205.846L433.869 227.325H422.984L399.433 201.822L401.378 201.946L401.401 201.947C401.495 201.952 401.876 201.973 402.468 201.973C404.248 201.973 408.4 201.781 412.333 200.023C416.982 197.935 419.341 193.513 419.341 188.528C419.341 177.774 411.767 175.605 404.413 175.605H396.867V227.311H387.25V179.491C387.25 176.676 385.236 173.558 381.373 173.078L380.71 172.995V172.226H406.124ZM561.625 175.605V172.226H519.656V172.995L520.208 173.146C524.071 174.217 526.195 176.483 526.195 179.519V227.325H561.625V223.933H535.812V200.586H557.362V197.194H535.812V175.605H561.625ZM458.387 172.655L477.343 211.85L495.983 172.229H504.936V227.328H495.32V184.054L474.321 228.193L453.82 185.702V227.328H449.363V179.494C449.349 176.473 447.225 174.22 443.376 173.149L442.824 172.998V172.215H458.124L458.387 172.655Z" fill="black"></path></svg>