<svg xmlns="http://www.w3.org/2000/svg" width="829" height="400" viewBox="0 0 829 400" fill="none"><rect width="829" height="400" fill="white"></rect><g clip-path="url(#clip0_104_2959)"><path d="M463.438 195.367L463.453 195.356C464.128 194.887 464.69 194.272 465.096 193.557C465.502 192.842 465.742 192.044 465.799 191.224C465.847 190.392 465.695 189.56 465.355 188.799C465.016 188.038 464.498 187.37 463.846 186.851C462.544 185.841 460.684 185.336 458.267 185.336C456.967 185.333 455.672 185.506 454.418 185.85C453.389 186.097 452.412 186.522 451.531 187.108V196.272H460.584C461.607 196.282 462.607 195.965 463.438 195.367V195.367Z" fill="#00ABD6"></path><path d="M588.389 150L417.186 156.495L417.341 186.517L389.352 200.733L417.46 209.074L417.595 235.088L594.48 250L588.389 150ZM473.018 216.408C470.508 218.18 466.819 219.066 461.95 219.067C458.479 219.067 454.828 218.953 450.997 218.724C447.167 218.495 444.27 218.228 442.307 217.923V180.595C443.862 179.591 445.575 178.856 447.374 178.423C449.442 177.82 451.552 177.371 453.686 177.079C455.187 176.864 456.699 176.74 458.215 176.707C461.059 176.643 463.899 176.98 466.649 177.709C468.63 178.234 470.487 179.147 472.112 180.395C473.425 181.431 474.433 182.805 475.028 184.368C475.585 185.849 475.873 187.417 475.877 188.999C475.908 191.04 475.421 193.056 474.462 194.859C473.514 196.597 472.177 198.094 470.555 199.231C471.907 199.773 473.132 200.591 474.15 201.633C475.098 202.576 475.806 203.732 476.216 205.006C476.579 206.133 476.77 207.308 476.782 208.492C476.782 211.998 475.527 214.637 473.018 216.408ZM520.961 205.43C520.213 208.035 518.952 210.464 517.253 212.576C515.563 214.639 513.41 216.274 510.969 217.35C508.238 218.535 505.285 219.12 502.309 219.066C500.023 219.051 497.752 218.695 495.572 218.008C493.217 217.272 491.059 216.012 489.261 214.321C487.406 212.64 485.93 210.585 484.93 208.29C484.013 206.239 483.366 204.077 483.005 201.859C482.722 200.063 482.57 198.247 482.553 196.428C482.513 193.621 482.954 190.828 483.854 188.169C484.644 185.838 485.938 183.71 487.645 181.938C489.404 180.179 491.545 178.849 493.9 178.051C496.623 177.12 499.486 176.666 502.363 176.707C505.234 176.663 508.089 177.128 510.798 178.08C513.159 178.889 515.3 180.238 517.049 182.019C518.798 183.8 520.108 185.965 520.874 188.341C521.771 191.02 522.211 193.832 522.176 196.658C522.199 199.626 521.789 202.581 520.961 205.43V205.43ZM554.327 219.065L545.157 203.973L537.344 219.065L525.91 217.121L538.534 197.342L526.193 178.766L538.363 176.707L545.609 191.685L553.426 176.707L565.313 178.594L552.346 197.344L566.102 216.895L554.327 219.065Z" fill="#00ABD6"></path><path d="M460.135 203.398H451.531V210.831C452.059 210.907 453.361 211.002 455.437 211.117C457.513 211.232 459.362 211.289 460.984 211.289C465.023 211.289 467.041 209.526 467.041 207.427C467.041 204.775 464.739 203.398 460.135 203.398Z" fill="#00ABD6"></path><path d="M502.361 185.453C499.191 185.453 496.785 186.425 495.143 188.368C493.501 190.312 492.681 193.075 492.681 196.657C492.608 199.21 492.991 201.756 493.813 204.174C494.429 205.983 495.561 207.573 497.068 208.747C498.613 209.836 500.472 210.389 502.361 210.321C504.213 210.378 506.033 209.825 507.54 208.747C509.062 207.556 510.219 205.962 510.88 204.146C511.756 201.749 512.168 199.208 512.096 196.657C512.096 193.074 511.266 190.311 509.606 188.368C507.946 186.425 505.53 185.454 502.361 185.453Z" fill="#00ABD6"></path><path d="M268.45 210.158C267.671 196.916 250.922 195.273 250.874 195.271L250.5 195.258C250.5 195.258 265.794 192.621 266.273 180.382C266.447 175.912 265.2 172.228 262.566 169.439C259.232 165.899 253.69 163.948 246.539 163.798C246.359 163.794 246.173 163.792 245.981 163.79C242.679 163.765 237.361 164.094 234 164.434C234.637 181.831 234.924 205.815 234.751 227.117H243.706C244.04 227.117 244.37 227.102 244.699 227.105C252.416 227.163 258.037 225.975 261.883 223.373C266.137 220.493 268.877 216.63 268.45 210.158Z" fill="#1D4D7A"></path><path d="M372.817 201.156L373.01 200.999C373.105 200.921 390.096 188.362 402.073 179.152L396.471 169.568L367.563 178.898L367.483 163.664H354.18C354.18 163.664 355.278 200.015 354.18 227.105H369.148C368.522 223.428 368.09 219.72 367.856 215.998L367.843 215.462L394.474 226.942L400.726 218.982C390.159 212.207 373.746 202.052 372.994 201.327L372.817 201.156Z" fill="#1D4D7A"></path><path d="M279.691 163.727C277.169 183.71 272.123 209.179 268.305 227.036H281.036L284.982 207.331L291.347 206.07L291.392 206.289C291.42 206.432 294.104 219.751 296.523 228.516L309.579 228.36C305.083 212.251 300.989 184.289 298.177 163.727H279.691Z" fill="#1D4D7A"></path><path d="M337.618 198.382L337.769 198.275C338.047 198.077 338.312 197.862 338.563 197.631C340.969 195.869 342.93 193.569 344.29 190.915C345.65 188.261 346.371 185.325 346.395 182.343C346.395 166.877 333.598 163.665 323.528 163.665C319.552 163.645 315.577 163.852 311.625 164.286C312.391 187.266 312.763 207.221 312.766 227.04H324.782C324.777 220.456 324.613 215.247 324.453 210.284C324.362 207.45 324.319 205.963 324.26 203.168L325.199 203.148C326.705 206.168 335.258 221.435 342.312 228.467L352.228 222.264C345.483 214.213 339.706 202.881 337.697 198.552L337.618 198.382Z" fill="#1D4D7A"></path></g><defs><clipPath id="clip0_104_2959"><rect width="360.476" height="100" fill="white" transform="translate(234 150)"></rect></clipPath></defs></svg>