<svg xmlns="http://www.w3.org/2000/svg" width="829" height="400" viewBox="0 0 829 400" fill="none"><rect width="829" height="400" fill="white"></rect><path d="M363.496 222.132C362.9 222.121 362.315 222.044 361.73 221.918C360.199 221.596 358.788 220.989 357.497 220.114C355.643 218.861 354.189 216.975 353.379 214.897C352.882 213.611 352.608 212.244 352.608 210.872C352.576 188.002 352.608 165.132 352.608 142.262V141.523C354.506 142.251 356.535 142.645 358.558 142.699C360.068 142.743 361.577 142.645 363.075 142.541C366.794 142.278 370.502 141.906 374.21 141.529V222.11C370.639 222.104 367.067 222.175 363.496 222.132Z" fill="white"></path><path d="M365.98 226.353C365.137 226.353 364.284 226.348 363.442 226.342H363.404C362.584 226.326 361.73 226.222 360.866 226.042C358.821 225.61 356.896 224.789 355.141 223.608C352.609 221.896 350.591 219.348 349.453 216.422C348.753 214.623 348.398 212.758 348.398 210.882C348.376 195.63 348.381 180.127 348.392 165.132C348.398 157.64 348.398 149.885 348.398 142.262V135.398L354.113 137.591C355.529 138.133 357.104 138.444 358.673 138.488C359.975 138.527 361.359 138.439 362.775 138.341C366.308 138.089 369.851 137.739 373.783 137.34L378.415 136.87V226.331L374.194 226.315C372.701 226.31 371.169 226.32 369.693 226.331C368.473 226.348 367.232 226.353 365.98 226.353ZM363.568 217.921C365.58 217.942 367.642 217.932 369.638 217.921C369.758 217.921 369.879 217.921 369.999 217.915V146.183C367.741 146.396 365.564 146.587 363.371 146.746C361.736 146.861 360.128 146.959 358.438 146.915C357.897 146.899 357.356 146.866 356.82 146.812C356.82 152.953 356.814 159.127 356.814 165.137C356.809 180.127 356.798 195.625 356.82 210.866C356.82 211.703 356.984 212.545 357.306 213.371C357.82 214.694 358.75 215.881 359.855 216.625C360.713 217.204 361.616 217.587 362.6 217.795C362.95 217.877 363.267 217.915 363.568 217.921Z" fill="white"></path><path d="M296.569 224.404C293.364 197.771 289.973 171.166 286.648 144.55C288.896 144.063 291.16 143.681 293.402 143.177C297.307 142.302 301.201 141.389 305.122 140.569C307.495 140.071 309.912 139.754 312.324 139.492C313.686 139.344 315.053 139.278 316.42 139.229C317.716 139.18 319.012 139.24 320.303 139.3C321.314 139.349 322.342 139.486 323.338 139.672C325.864 140.148 328.309 140.995 330.469 142.412C331.202 142.893 331.902 143.451 332.558 144.031C334.319 145.578 335.823 147.405 336.944 149.466C338.765 152.808 339.837 156.548 340.137 160.338C340.345 162.969 340.001 165.67 339.17 168.175C338.333 170.707 336.654 173.179 334.691 174.972C336.709 175.415 338.623 176.17 340.351 177.313C343.391 179.325 345.546 182.497 346.935 185.817C348.319 189.12 348.986 192.696 349.117 196.262C349.237 199.543 348.734 202.846 347.624 205.93C346.765 208.315 345.497 210.573 343.873 212.52C342.248 214.467 340.471 215.993 338.295 217.294C335.708 218.836 332.541 219.881 329.61 220.559C326.455 221.292 323.234 221.735 320.013 221.986C317.639 222.172 315.261 222.178 312.882 222.304C311.4 222.38 309.912 222.506 308.436 222.675C307.495 222.785 306.549 222.883 305.614 223.025C302.628 223.485 299.653 224.021 296.656 224.442L296.569 224.404Z" fill="white"></path><path d="M295.962 228.797L292.664 227.173L292.39 224.909C290.012 205.129 287.485 185.026 285.046 165.585C284.204 158.864 283.329 151.913 282.476 145.072L282 141.255L285.762 140.44C286.851 140.205 287.934 139.991 288.989 139.789C290.203 139.554 291.346 139.33 292.489 139.073C293.665 138.81 294.857 138.537 296.016 138.274C298.712 137.662 301.496 137.033 304.263 136.448C306.456 135.988 308.807 135.638 311.875 135.305C313.396 135.141 314.883 135.07 316.261 135.02C317.732 134.966 319.138 135.031 320.494 135.092C321.62 135.146 322.835 135.294 324.109 135.529C327.401 136.147 330.316 137.274 332.771 138.887C333.586 139.423 334.428 140.068 335.33 140.861C337.518 142.781 339.301 145.001 340.635 147.445C342.702 151.241 343.976 155.583 344.326 159.996C344.578 163.146 344.173 166.427 343.162 169.484C342.757 170.704 342.199 171.918 341.521 173.088C341.909 173.307 342.292 173.542 342.664 173.788C346.098 176.063 348.915 179.656 350.812 184.178C352.316 187.771 353.164 191.78 353.322 196.1C353.465 199.901 352.863 203.789 351.589 207.344C350.55 210.247 349.04 212.894 347.11 215.208C345.158 217.543 343.047 219.353 340.46 220.9C337.808 222.486 334.477 223.75 330.567 224.652C327.384 225.39 324.043 225.888 320.346 226.178C318.826 226.298 317.333 226.347 315.884 226.391C314.927 226.424 314.025 226.451 313.111 226.5C311.678 226.577 310.273 226.692 308.922 226.85L308.479 226.9C307.703 226.987 306.964 227.075 306.254 227.178C305.072 227.359 303.858 227.561 302.682 227.753C300.911 228.042 299.079 228.343 297.241 228.6L295.962 228.797ZM291.313 147.905C292.008 153.477 292.713 159.077 293.397 164.529C295.666 182.587 298.001 201.213 300.233 219.632C300.599 219.572 300.96 219.511 301.315 219.451C302.513 219.254 303.743 219.052 304.974 218.866C305.843 218.729 306.696 218.636 307.517 218.543L307.949 218.494C309.469 218.319 311.05 218.188 312.657 218.1C313.653 218.046 314.642 218.013 315.599 217.986C317.016 217.942 318.356 217.893 319.685 217.789C322.955 217.532 325.892 217.094 328.664 216.454C331.677 215.754 334.264 214.797 336.14 213.676C337.89 212.632 339.323 211.407 340.646 209.821C341.926 208.29 342.97 206.452 343.665 204.505C344.583 201.946 345.01 199.152 344.912 196.412C344.791 193.114 344.162 190.095 343.052 187.438C342.177 185.36 340.597 182.521 338.021 180.815C336.807 180.011 335.38 179.426 333.783 179.076L325.859 177.337L331.847 171.863C333.345 170.496 334.587 168.62 335.172 166.848C335.834 164.841 336.102 162.708 335.937 160.663C335.68 157.42 334.751 154.237 333.241 151.476C332.383 149.901 331.218 148.457 329.774 147.188C329.173 146.658 328.642 146.248 328.156 145.93C326.63 144.93 324.749 144.219 322.556 143.803C321.664 143.639 320.838 143.535 320.1 143.502C318.864 143.448 317.694 143.393 316.573 143.431C315.342 143.475 314.035 143.541 312.772 143.677C309.989 143.978 307.894 144.29 305.986 144.689C303.284 145.258 300.533 145.881 297.876 146.483C296.716 146.745 295.513 147.019 294.326 147.287C293.309 147.511 292.303 147.713 291.313 147.905Z" fill="white"></path><path d="M542.716 222.164C539.189 222.164 535.656 222.202 532.129 222.148C531.489 222.137 530.849 222.022 530.226 221.902C528.065 221.48 526.026 220.354 524.434 218.856C522.717 217.231 521.498 215.082 520.984 212.78C520.825 212.08 520.699 211.374 520.699 210.663C520.655 197.561 520.699 184.452 520.699 171.344H542.809V222.164H542.716Z" fill="white"></path><path d="M536.549 226.391C535.061 226.391 533.557 226.386 532.059 226.358C531.08 226.342 530.216 226.189 529.418 226.036C526.563 225.483 523.763 224.018 521.537 221.912C519.224 219.725 517.567 216.81 516.867 213.699C516.676 212.851 516.484 211.828 516.479 210.674C516.451 201.93 516.462 193.043 516.468 184.447C516.473 180.154 516.479 175.713 516.479 171.344V167.133H547.01V226.375H542.712C541.689 226.375 540.645 226.38 539.639 226.38C538.621 226.386 537.588 226.391 536.549 226.391ZM524.895 175.555C524.895 178.546 524.89 181.532 524.884 184.458C524.873 193.043 524.868 201.924 524.895 210.652C524.895 210.997 524.993 211.484 525.081 211.867C525.415 213.359 526.207 214.754 527.312 215.798C528.379 216.805 529.729 217.527 531.014 217.773C531.446 217.855 531.895 217.937 532.19 217.942C534.307 217.975 536.467 217.975 538.589 217.97V175.555H524.895Z" fill="white"></path><path d="M530.358 166.666C528.838 166.617 527.323 166.229 525.983 165.502C523.61 164.217 521.942 162.193 521.127 159.628C520.498 157.649 520.542 155.45 521.198 153.487C522.035 150.982 523.703 149.112 525.983 147.838C527.203 147.154 528.619 146.771 530.008 146.689C531.058 146.629 532.13 146.646 533.185 146.673C535.86 146.744 538.424 147.996 540.218 149.954C541.733 151.611 542.635 153.793 542.788 156.024C542.942 158.278 542.296 160.52 541.017 162.379C539.972 163.894 538.474 165.119 536.784 165.846C535.821 166.262 534.788 166.497 533.749 166.617C532.748 166.749 531.397 166.694 530.358 166.666Z" fill="white"></path><path d="M532.103 170.914C531.589 170.914 531.091 170.903 530.637 170.886C530.512 170.881 530.386 170.881 530.266 170.876H530.222C528.029 170.804 525.869 170.225 523.988 169.208C520.652 167.408 518.278 164.537 517.119 160.912C516.222 158.112 516.255 155 517.206 152.156C518.344 148.755 520.668 145.993 523.933 144.167C525.677 143.193 527.695 142.613 529.762 142.493C531.015 142.422 532.245 142.444 533.295 142.471C537.058 142.57 540.711 144.265 543.325 147.12C545.468 149.466 546.77 152.528 546.983 155.744C547.197 158.905 546.311 162.109 544.484 164.767C543.002 166.922 540.858 168.677 538.447 169.716C537.189 170.258 535.783 170.619 534.258 170.799C533.563 170.886 532.819 170.914 532.103 170.914ZM530.484 162.465C530.605 162.47 530.73 162.47 530.856 162.476C531.616 162.498 532.655 162.519 533.213 162.448L533.262 162.443C533.984 162.361 534.608 162.202 535.122 161.983C536.09 161.568 536.954 160.862 537.544 159.998C538.299 158.899 538.671 157.592 538.583 156.312C538.496 155.011 537.96 153.726 537.112 152.802C536.051 151.642 534.542 150.926 533.076 150.888C532.196 150.866 531.184 150.844 530.255 150.899C529.456 150.942 528.669 151.166 528.04 151.516C526.596 152.32 525.666 153.403 525.191 154.82C524.808 155.968 524.786 157.253 525.136 158.347C525.623 159.884 526.585 161.043 527.985 161.798C528.723 162.202 529.587 162.432 530.484 162.465Z" fill="white"></path><path d="M426.39 258.521C424.903 258.193 423.393 257.974 421.873 257.931C420.282 257.887 418.816 258.089 417.214 257.876C415.185 257.603 413.244 256.744 411.636 255.492C410.252 254.414 409.131 253.02 408.355 251.45C407.671 250.072 407.277 248.535 407.19 247.004C407.146 246.228 407.157 245.451 407.157 244.675C407.119 220.366 407.08 196.064 407.031 171.761C407.031 171.624 407.031 171.487 407.031 171.356C409.109 171.301 411.187 171.214 413.26 171.055C417.668 170.716 422.048 170.104 426.461 169.787C429.021 169.601 431.591 169.546 434.156 169.595C434.932 169.612 435.714 169.677 436.485 169.776C439.914 170.208 442.971 171.17 446.017 172.805C449.692 174.78 452.881 177.793 455.035 181.364C456.758 184.224 458.021 187.642 458.781 190.89C459.131 192.405 459.41 193.936 459.623 195.478C460.28 200.198 460.258 205.016 459.623 209.735C459.235 212.595 458.557 215.423 457.578 218.135C456.758 220.41 455.555 222.581 454.171 224.561C452.815 226.502 451.185 228.225 449.337 229.696C447.478 231.172 445.35 232.326 443.124 233.141C441.517 233.732 439.821 234.153 438.115 234.333C437.503 234.399 436.896 234.459 436.278 234.481C433.68 234.552 431.077 234.273 428.567 233.595V259.123C427.845 258.888 427.123 258.685 426.39 258.521Z" fill="white"></path><path d="M432.767 264.998L427.211 263.116C426.669 262.93 426.084 262.772 425.477 262.635C424.115 262.334 422.896 262.176 421.753 262.143C421.283 262.132 420.779 262.148 420.254 262.165C419.199 262.198 418.001 262.236 416.656 262.055C413.933 261.689 411.308 260.573 409.055 258.823C407.195 257.38 405.648 255.477 404.581 253.327C403.657 251.463 403.105 249.357 402.984 247.246C402.941 246.486 402.941 245.775 402.946 245.086C402.946 244.955 402.946 244.818 402.946 244.687C402.913 224.661 402.875 198.274 402.82 171.773C402.82 171.68 402.82 171.582 402.82 171.483V171.358V167.262L406.916 167.152C409.344 167.087 411.198 166.999 412.937 166.862C414.999 166.704 417.121 166.474 419.172 166.255C421.447 166.015 423.798 165.758 426.155 165.588C428.753 165.397 431.465 165.331 434.232 165.386C435.102 165.402 436.01 165.473 437.01 165.599C440.959 166.102 444.552 167.245 448.002 169.099C452.339 171.429 456.112 175.011 458.634 179.194C460.974 183.077 462.232 187.178 462.872 189.94C463.238 191.515 463.544 193.183 463.785 194.906C464.485 199.953 464.485 205.132 463.785 210.305C463.353 213.51 462.593 216.627 461.532 219.575C460.635 222.058 459.317 224.546 457.611 226.985C456.025 229.249 454.122 231.272 451.945 233C449.785 234.718 447.302 236.096 444.568 237.102C442.561 237.84 440.532 238.316 438.547 238.529C437.902 238.595 437.169 238.677 436.392 238.699C435.173 238.732 433.964 238.699 432.772 238.6V264.998H432.767ZM421.386 253.716C421.583 253.716 421.786 253.716 421.993 253.727C422.765 253.748 423.552 253.809 424.356 253.907V228.111L429.655 229.533C431.722 230.091 433.91 230.337 436.157 230.277C436.611 230.266 437.125 230.211 437.672 230.151C438.974 230.014 440.319 229.692 441.675 229.194C443.567 228.5 445.263 227.559 446.717 226.405C448.254 225.18 449.605 223.747 450.726 222.151C452.006 220.324 452.979 218.492 453.624 216.709C454.483 214.325 455.101 211.793 455.456 209.173C456.052 204.76 456.052 200.347 455.456 196.06C455.248 194.572 454.997 193.194 454.685 191.849C453.969 188.781 452.815 185.833 451.437 183.536C449.687 180.632 447.056 178.133 444.032 176.515C441.473 175.142 438.908 174.327 435.966 173.95C435.266 173.862 434.648 173.813 434.085 173.802C431.575 173.753 429.114 173.818 426.773 173.988C424.558 174.147 422.283 174.393 420.079 174.628C417.969 174.852 415.781 175.087 413.594 175.257C412.839 175.317 412.073 175.366 411.258 175.41C411.308 200.675 411.346 225.568 411.373 244.676C411.373 244.813 411.373 244.955 411.373 245.097C411.373 245.693 411.373 246.262 411.401 246.781C411.455 247.766 411.712 248.739 412.133 249.592C412.642 250.609 413.364 251.506 414.228 252.179C415.289 253.005 416.552 253.552 417.783 253.716C418.439 253.803 419.161 253.781 419.997 253.754C420.418 253.732 420.889 253.716 421.386 253.716Z" fill="white"></path><path d="M389.124 177.024C387.527 176.948 386.001 176.505 384.606 175.717C382.392 174.47 380.735 172.349 379.991 169.931C379.8 169.313 379.679 168.663 379.614 168.023C379.335 165.365 380.21 162.565 381.954 160.542C383.666 158.562 386.088 157.277 388.702 157.064C389.845 156.971 391.152 156.992 392.301 157.047C393.931 157.124 395.577 157.66 396.96 158.529C398.53 159.514 399.651 160.755 400.542 162.379C401.559 164.228 401.904 166.519 401.565 168.592C401.062 171.654 399.328 174.131 396.676 175.701C395.402 176.455 393.914 176.909 392.438 177.002C391.338 177.063 390.228 177.063 389.124 177.024Z" fill="white"></path><path d="M390.606 181.265C390.086 181.265 389.545 181.254 388.982 181.238H388.927C386.674 181.134 384.525 180.51 382.54 179.395C379.428 177.639 377.033 174.643 375.966 171.17C375.709 170.328 375.523 169.42 375.425 168.474C375.026 164.684 376.273 160.692 378.766 157.805C381.211 154.972 384.711 153.178 388.358 152.883C389.518 152.79 390.912 152.779 392.498 152.855C394.811 152.965 397.19 153.719 399.192 154.977C401.319 156.312 402.965 158.073 404.223 160.358C405.667 162.983 406.208 166.232 405.71 169.278C405.016 173.538 402.566 177.109 398.814 179.329C396.966 180.423 394.855 181.074 392.7 181.21H392.662C392.006 181.243 391.328 181.265 390.606 181.265ZM389.288 172.822C390.371 172.854 391.317 172.849 392.186 172.805C393.001 172.75 393.832 172.493 394.527 172.083C396.14 171.126 397.114 169.721 397.409 167.916C397.6 166.729 397.387 165.39 396.851 164.416C396.277 163.372 395.637 162.683 394.718 162.103C393.931 161.611 392.979 161.304 392.099 161.261C390.885 161.201 389.824 161.206 389.036 161.266C387.571 161.387 386.149 162.125 385.137 163.295C384.147 164.438 383.633 166.084 383.792 167.583C383.836 167.987 383.907 168.37 384.011 168.698C384.448 170.125 385.416 171.35 386.668 172.056C387.483 172.515 388.369 172.778 389.288 172.822Z" fill="white"></path><path d="M482.643 247.908C481.079 247.569 479.509 247.362 477.912 247.345C476.895 247.334 475.889 247.444 474.877 247.416C472.794 247.362 470.699 246.683 468.949 245.562C467.451 244.6 466.193 243.304 465.263 241.789C464.213 240.072 463.584 238.076 463.579 236.069C463.524 210.973 463.579 185.872 463.579 160.771C465.723 160.716 467.866 160.623 470.005 160.454C474.336 160.104 478.656 159.557 482.993 159.201C484.119 159.108 485.251 159.081 486.383 159.043C487.576 159.004 488.79 158.988 489.982 159.01C494.362 159.075 498.546 160.136 502.407 162.22C505.983 164.15 509.111 167.043 511.26 170.494C513.152 173.535 514.394 176.969 515.22 180.447C515.925 183.427 516.324 186.495 516.456 189.552C516.527 191.22 516.521 192.894 516.456 194.562C516.395 196.049 516.242 197.531 516.051 199.008C515.684 201.862 515.012 204.7 514.044 207.407C513.185 209.814 511.922 212.111 510.435 214.183C509.007 216.174 507.443 217.792 505.513 219.291C503.292 221.019 500.471 222.403 497.747 223.113C496.659 223.398 495.543 223.606 494.428 223.726C492.552 223.923 490.654 223.89 488.779 223.671C487.493 223.524 486.214 223.267 484.967 222.922V248.543C484.207 248.297 483.43 248.083 482.643 247.908Z" fill="white"></path><path d="M489.19 254.427L483.628 252.54C483.043 252.343 482.414 252.168 481.752 252.021C480.363 251.72 479.089 251.567 477.875 251.556C477.514 251.55 477.109 251.572 476.683 251.589C476.114 251.616 475.463 251.643 474.78 251.627C471.985 251.55 469.114 250.659 466.691 249.106C464.684 247.821 462.951 246.049 461.688 243.987C460.189 241.543 459.391 238.808 459.385 236.079C459.347 219.34 459.358 202.327 459.374 185.866C459.38 177.641 459.385 169.137 459.385 160.77V156.669L463.487 156.565C465.86 156.505 467.829 156.406 469.677 156.259C471.832 156.084 474.041 155.854 476.18 155.635C478.296 155.417 480.483 155.187 482.66 155.012C483.754 154.924 484.82 154.886 485.848 154.853L486.253 154.842C487.554 154.799 488.84 154.788 490.059 154.804C495.167 154.886 499.996 156.133 504.414 158.523C508.647 160.809 512.355 164.276 514.843 168.279C516.801 171.423 518.305 175.191 519.322 179.484C520.071 182.645 520.52 185.97 520.667 189.382C520.738 191.122 520.738 192.921 520.667 194.742C520.613 196.158 520.47 197.689 520.23 199.56C519.814 202.759 519.07 205.876 518.015 208.835C517.063 211.503 515.663 214.128 513.864 216.644C512.207 218.957 510.381 220.855 508.106 222.627C505.432 224.705 502.139 226.329 498.825 227.198C497.518 227.543 496.195 227.789 494.882 227.926C493.045 228.123 491.131 228.133 489.184 227.958V254.427H489.19ZM477.766 243.139C477.831 243.139 477.902 243.139 477.973 243.139C478.892 243.15 479.822 243.211 480.773 243.325V217.404L486.1 218.875C487.177 219.17 488.244 219.384 489.277 219.504C490.912 219.695 492.498 219.712 493.997 219.553C494.882 219.46 495.79 219.291 496.687 219.055C498.891 218.476 501.171 217.355 502.938 215.982C504.551 214.724 505.853 213.379 507.017 211.744C508.363 209.863 509.396 207.932 510.085 206.002C510.938 203.612 511.545 201.08 511.879 198.477C512.087 196.864 512.207 195.568 512.251 194.403C512.317 192.811 512.317 191.242 512.251 189.738C512.131 186.861 511.748 184.061 511.124 181.426C510.321 178.024 509.161 175.098 507.69 172.725C505.962 169.941 503.375 167.53 500.411 165.927C497.196 164.188 493.663 163.281 489.922 163.22C488.84 163.204 487.697 163.215 486.532 163.253L486.116 163.264C485.143 163.297 484.229 163.324 483.344 163.395C481.26 163.565 479.116 163.789 477.049 164.002C474.862 164.232 472.603 164.467 470.355 164.648C469.53 164.713 468.688 164.773 467.802 164.823C467.802 171.872 467.796 178.97 467.791 185.877C467.78 202.327 467.763 219.334 467.802 236.063C467.807 237.228 468.179 238.48 468.863 239.59C469.464 240.575 470.284 241.417 471.225 242.018C472.373 242.757 473.713 243.178 474.998 243.211C475.381 243.222 475.83 243.2 476.3 243.178C476.743 243.167 477.241 243.139 477.766 243.139Z" fill="white"></path><path d="M390.884 232.507C389.041 232.436 387.176 231.862 385.59 230.921C384.382 230.205 383.293 229.319 382.385 228.236C380.679 226.213 379.596 223.675 379.569 221.039C379.449 207.942 379.569 194.806 379.569 181.703H401.679V232.523C398.086 232.529 394.482 232.611 390.884 232.507Z" fill="white"></path><path d="M394.978 236.764C393.583 236.764 392.172 236.753 390.767 236.715H390.718C388.18 236.616 385.665 235.862 383.439 234.538C381.776 233.554 380.338 232.345 379.168 230.951C376.745 228.08 375.395 224.569 375.367 221.08C375.285 212.319 375.313 203.416 375.34 194.803C375.351 190.51 375.367 186.069 375.367 181.711V177.5H405.899V236.742H401.688C400.583 236.742 399.451 236.748 398.357 236.758C397.242 236.758 396.115 236.764 394.978 236.764ZM391.029 228.298C393.151 228.353 395.339 228.348 397.477 228.337V185.911H383.778C383.773 188.902 383.762 191.899 383.756 194.825C383.729 203.411 383.701 212.292 383.783 221.003C383.8 222.54 384.445 224.148 385.61 225.526C386.179 226.198 386.895 226.8 387.748 227.303C388.744 227.899 389.908 228.249 391.029 228.298Z" fill="white"></path><path d="M363.496 222.132C362.9 222.121 362.315 222.044 361.73 221.918C360.199 221.596 358.788 220.989 357.497 220.114C355.643 218.861 354.189 216.975 353.379 214.897C352.882 213.611 352.608 212.244 352.608 210.872C352.576 188.002 352.608 165.132 352.608 142.262V141.523C354.506 142.251 356.535 142.645 358.558 142.699C360.068 142.743 361.577 142.645 363.075 142.541C366.794 142.278 370.502 141.906 374.21 141.529V222.11C370.639 222.104 367.067 222.175 363.496 222.132Z" fill="#6583C2"></path><path d="M296.569 224.404C293.364 197.771 289.973 171.166 286.648 144.55C288.896 144.063 291.16 143.681 293.402 143.177C297.307 142.302 301.201 141.389 305.122 140.569C307.495 140.071 309.912 139.754 312.318 139.492C313.68 139.344 315.047 139.278 316.414 139.229C317.71 139.18 319.007 139.24 320.297 139.3C321.309 139.344 322.337 139.486 323.332 139.672C325.859 140.148 328.303 140.995 330.463 142.412C331.196 142.893 331.896 143.451 332.552 144.031C334.313 145.578 335.817 147.405 336.938 149.466C338.759 152.808 339.831 156.548 340.132 160.338C340.34 162.969 339.995 165.67 339.164 168.175C338.327 170.707 336.648 173.179 334.685 174.972C336.703 175.415 338.617 176.17 340.345 177.313C343.386 179.325 345.541 182.497 346.93 185.822C348.313 189.125 348.98 192.702 349.112 196.267C349.232 199.548 348.729 202.852 347.619 205.936C346.76 208.326 345.491 210.579 343.867 212.526C342.243 214.472 340.466 215.998 338.289 217.3C335.702 218.847 332.536 219.886 329.605 220.565C326.449 221.297 323.234 221.74 320.007 221.992C317.634 222.178 315.255 222.183 312.876 222.309C311.394 222.386 309.907 222.511 308.43 222.681C307.49 222.79 306.543 222.889 305.608 223.031C302.622 223.49 299.647 224.026 296.651 224.447L296.569 224.404ZM311.646 172.282C311.99 172.287 312.329 172.282 312.674 172.265C314.692 172.183 317.12 171.565 318.153 169.651C318.739 168.568 318.908 167.267 318.853 166.053C318.826 165.484 318.771 164.926 318.695 164.358C318.624 163.86 318.52 163.362 318.4 162.876C318.192 162.05 317.869 161.191 317.339 160.519C316.464 159.414 315.195 158.944 313.811 158.998C312.537 159.048 311.296 159.436 310.131 159.95L311.646 172.282ZM315.468 203.07C317.82 203.196 320.778 203.027 322.692 201.512C323.83 200.609 324.503 199.171 324.667 197.744C324.913 195.589 324.36 192.926 323.267 191.039C322.988 190.558 322.649 190.126 322.299 189.699C321.041 188.168 318.695 187.791 316.835 187.9C315.753 187.966 314.692 188.13 313.653 188.469C314.271 193.336 314.905 198.198 315.468 203.07Z" fill="#6583C2"></path><path d="M542.716 222.164C539.189 222.164 535.656 222.202 532.129 222.148C531.489 222.137 530.849 222.022 530.226 221.902C528.065 221.48 526.026 220.354 524.434 218.856C522.717 217.231 521.498 215.082 520.984 212.78C520.825 212.08 520.699 211.374 520.699 210.663C520.655 197.561 520.699 184.452 520.699 171.344H542.809V222.164H542.716Z" fill="#6583C2"></path><path d="M530.358 166.666C528.838 166.617 527.323 166.229 525.983 165.502C523.61 164.217 521.942 162.193 521.127 159.628C520.498 157.649 520.542 155.45 521.198 153.487C522.035 150.982 523.703 149.112 525.983 147.838C527.203 147.154 528.619 146.771 530.008 146.689C531.058 146.629 532.13 146.646 533.185 146.673C535.86 146.744 538.424 147.996 540.218 149.954C541.733 151.611 542.635 153.793 542.788 156.024C542.942 158.278 542.296 160.52 541.017 162.379C539.972 163.894 538.474 165.119 536.784 165.846C535.821 166.262 534.788 166.497 533.749 166.617C532.748 166.749 531.397 166.694 530.358 166.666Z" fill="#6583C2"></path><path d="M426.39 258.521C424.903 258.193 423.394 257.974 421.873 257.931C420.282 257.887 418.816 258.095 417.214 257.876C415.185 257.603 413.249 256.744 411.636 255.492C410.252 254.414 409.131 253.02 408.355 251.45C407.671 250.072 407.277 248.535 407.19 247.004C407.146 246.228 407.157 245.451 407.157 244.675C407.119 220.366 407.08 196.064 407.031 171.761C407.031 171.624 407.031 171.487 407.031 171.356C409.109 171.301 411.187 171.214 413.26 171.055C417.662 170.716 422.048 170.104 426.461 169.787C429.021 169.601 431.591 169.546 434.156 169.595C434.932 169.612 435.714 169.677 436.485 169.776C439.914 170.208 442.971 171.17 446.017 172.805C449.692 174.78 452.881 177.793 455.035 181.364C456.758 184.224 458.021 187.642 458.781 190.89C459.137 192.405 459.41 193.936 459.623 195.478C460.28 200.198 460.263 205.016 459.623 209.735C459.235 212.595 458.563 215.423 457.578 218.135C456.758 220.41 455.555 222.581 454.166 224.561C452.809 226.502 451.18 228.225 449.331 229.696C447.472 231.172 445.345 232.326 443.119 233.141C441.506 233.732 439.81 234.153 438.104 234.333C437.492 234.399 436.885 234.459 436.267 234.481C433.669 234.552 431.066 234.273 428.556 233.595V259.128C427.845 258.888 427.123 258.685 426.39 258.521ZM431.257 214.991C432.007 215.051 432.783 214.898 433.445 214.526C435.091 213.607 436.349 211.824 437.038 210.091C438.274 206.979 438.279 203.709 438.088 200.422C437.951 198.092 437.656 195.703 436.825 193.504C436.059 191.47 434.462 189.534 432.247 189.075C431.072 188.834 429.885 188.976 428.72 189.2C428.665 189.211 428.616 189.222 428.561 189.233V213.973C429.327 214.542 430.306 214.914 431.257 214.991Z" fill="#6583C2"></path><path d="M389.124 177.024C387.527 176.948 386.001 176.505 384.606 175.717C382.392 174.47 380.735 172.349 379.991 169.931C379.8 169.313 379.679 168.663 379.614 168.023C379.335 165.365 380.21 162.565 381.954 160.542C383.666 158.562 386.088 157.277 388.702 157.064C389.845 156.971 391.152 156.992 392.301 157.047C393.931 157.124 395.577 157.66 396.96 158.529C398.53 159.514 399.651 160.755 400.542 162.379C401.559 164.228 401.904 166.519 401.565 168.592C401.062 171.654 399.328 174.131 396.676 175.701C395.402 176.455 393.914 176.909 392.438 177.002C391.338 177.063 390.228 177.063 389.124 177.024Z" fill="#6583C2"></path><path d="M482.645 247.911C481.081 247.572 479.512 247.364 477.915 247.348C476.898 247.337 475.891 247.446 474.88 247.419C472.796 247.364 470.702 246.686 468.952 245.565C467.453 244.602 466.195 243.306 465.266 241.791C464.216 240.08 463.587 238.078 463.587 236.077C463.532 210.981 463.587 185.88 463.587 160.779C465.731 160.724 467.874 160.631 470.012 160.461C474.344 160.111 478.664 159.564 483.001 159.209C484.127 159.116 485.259 159.089 486.391 159.05C487.583 159.012 488.797 158.996 489.99 159.018C494.37 159.083 498.553 160.144 502.414 162.228C505.991 164.158 509.119 167.051 511.268 170.507C513.16 173.548 514.402 176.982 515.227 180.46C515.933 183.441 516.332 186.509 516.463 189.566C516.534 191.239 516.529 192.907 516.463 194.575C516.403 196.062 516.25 197.544 516.059 199.021C515.687 201.876 515.02 204.714 514.052 207.421C513.193 209.827 511.93 212.124 510.442 214.196C509.02 216.187 507.451 217.806 505.526 219.304C503.3 221.032 500.484 222.416 497.76 223.127C496.672 223.411 495.557 223.619 494.441 223.739C492.565 223.936 490.668 223.903 488.792 223.685C487.507 223.537 486.227 223.28 484.98 222.935V248.556C484.209 248.299 483.433 248.086 482.645 247.911ZM487.868 204.429C488.622 204.451 489.404 204.26 490.055 203.872C491.69 202.893 492.866 201.258 493.577 199.502C494.14 198.113 494.474 196.62 494.611 195.127C494.769 193.317 494.736 191.644 494.643 189.834C494.594 188.871 494.501 187.898 494.359 186.941C494.162 185.573 493.872 184.217 493.391 182.916C492.811 181.346 491.707 179.755 490.192 178.962C488.529 178.092 486.752 178.224 484.969 178.628C484.969 186.859 484.953 195.083 484.969 203.314C484.969 203.407 484.942 203.379 485.04 203.456C485.188 203.565 485.374 203.675 485.533 203.757C486.26 204.134 487.053 204.397 487.868 204.429Z" fill="#6583C2"></path><path d="M390.884 232.507C389.041 232.436 387.176 231.862 385.59 230.921C384.382 230.205 383.293 229.319 382.385 228.236C380.679 226.213 379.596 223.675 379.569 221.039C379.449 207.942 379.569 194.806 379.569 181.703H401.679V232.523C398.086 232.529 394.482 232.611 390.884 232.507Z" fill="#6583C2"></path></svg>