<svg xmlns="http://www.w3.org/2000/svg" width="829" height="400" viewBox="0 0 829 400" fill="none"><rect width="829" height="400" fill="white"></rect><path fill-rule="evenodd" clip-rule="evenodd" d="M534.007 152.989L534.006 152.989C530.79 154.589 527.592 156.179 524.442 158.246C529.853 159.717 529.899 159.778 530.056 165.006C530.056 165.038 530.057 165.07 530.058 165.101C530.059 165.133 530.06 165.164 530.06 165.197C530.06 170.954 530.06 176.711 530.061 182.468V182.469V182.546C530.063 201.727 530.065 220.91 530.044 240.091C530.044 241.608 529.865 243.148 529.578 244.638C529.196 246.617 527.346 248.153 525.566 248.188C523.843 248.222 522.005 246.621 521.71 244.55C521.428 242.54 521.286 240.496 521.279 238.467C521.254 231.449 521.252 224.429 521.249 217.41V217.353C521.248 212.418 521.246 207.483 521.236 202.548C521.229 198.479 520.453 194.585 517.228 191.799C512.708 187.898 507.484 187.787 502.142 189.759C497.752 191.379 494.324 194.463 490.981 197.623C490.311 198.255 489.649 198.895 488.888 199.63C488.48 200.023 488.044 200.444 487.565 200.905V150C485.914 150.929 484.272 151.799 482.65 152.658L482.65 152.658L482.65 152.658L482.649 152.659L482.649 152.659C479.344 154.41 476.125 156.115 473.098 158.181C473.583 158.563 473.939 158.674 474.298 158.72C476.965 159.056 477.389 159.408 477.802 162.098C478.012 163.473 478.127 164.879 478.127 166.274C478.153 188.945 478.161 211.62 478.161 234.29C478.161 234.672 478.162 235.054 478.163 235.436C478.167 237.475 478.172 239.516 478.046 241.547C477.87 244.386 477.576 247.244 474.149 248.237C474.074 248.259 474.025 248.375 473.95 248.553L473.95 248.554L473.95 248.554L473.949 248.554C473.905 248.66 473.851 248.786 473.778 248.929H492.853C492.59 248.736 492.388 248.567 492.218 248.426C491.934 248.189 491.745 248.031 491.527 247.974C489.124 247.336 488.203 245.57 487.939 243.323C487.79 242.059 487.683 240.782 487.679 239.514C487.673 237.926 487.666 236.339 487.658 234.751C487.623 227.041 487.587 219.329 487.641 211.62C487.646 210.894 487.625 210.148 487.604 209.395C487.529 206.78 487.453 204.097 488.474 201.99C489.588 199.689 491.95 197.918 494.209 196.223C494.669 195.878 495.126 195.535 495.566 195.193C497.595 193.611 499.88 192.223 502.257 191.257C506.326 189.606 509.96 191.482 511.038 195.617C511.496 197.378 511.657 199.258 511.665 201.089C511.718 212.808 511.714 224.523 511.672 236.243C511.661 238.719 511.47 241.199 511.244 243.667C511.057 245.731 510.075 247.267 507.947 247.886C507.662 247.97 507.405 248.149 507.149 248.327L507.149 248.327C507.033 248.407 506.918 248.487 506.8 248.558C506.846 248.688 506.892 248.822 506.938 248.952H544.301C544.29 248.84 544.287 248.746 544.285 248.668C544.282 248.535 544.279 248.452 544.236 248.413C544.056 248.245 543.85 248.058 543.621 248.001C541.049 247.355 540.056 245.513 539.907 243.071C539.896 242.898 539.885 242.726 539.874 242.553L539.858 242.305L539.835 241.949L539.835 241.943V241.943V241.943V241.943V241.942C539.708 239.968 539.582 237.991 539.582 236.017C539.563 213.698 539.565 191.378 539.566 169.058C539.566 163.484 539.566 157.909 539.566 152.335V150.13C537.711 151.148 535.856 152.07 534.008 152.989L534.008 152.989L534.007 152.989ZM185 223.927C186.258 223.769 186.359 224.554 186.461 225.349C186.48 225.496 186.498 225.643 186.525 225.784C187.556 231.417 189.333 236.717 192.956 241.298C198.653 248.501 210.468 251.172 218.645 246.931C223.723 244.298 225.749 239.682 226.41 234.317C227.758 223.396 223.559 214.787 215.16 208.058C212.652 206.05 210.101 204.092 207.551 202.134L207.551 202.134L207.551 202.134C204.095 199.481 200.639 196.829 197.289 194.05C191.301 189.083 187.335 182.877 186.899 174.811C186.265 163.129 193.475 154.36 205.099 152.786C211.362 151.937 217.411 152.564 223.158 155.365C223.953 155.755 224.812 156.041 225.672 156.259C227.972 156.84 228.817 156.4 229.868 154.211C229.975 153.989 230.124 153.779 230.292 153.6C230.334 153.552 230.413 153.539 230.547 153.515C230.63 153.501 230.735 153.483 230.865 153.451V170.34C230.781 170.361 230.698 170.381 230.616 170.401L230.615 170.401L230.614 170.401C230.531 170.421 230.448 170.441 230.364 170.462C230.29 170.283 230.21 170.105 230.131 169.926C229.955 169.531 229.779 169.134 229.65 168.724C227.491 161.784 223.75 156.305 216.257 154.371C212.248 153.336 208.171 153.244 204.148 154.203C198.126 155.64 194.824 159.836 194.557 166.148C194.224 174.02 197.644 180.279 203.414 185.189C206.933 188.185 210.607 190.998 214.28 193.812L214.281 193.812C216.618 195.603 218.956 197.393 221.255 199.231C225.959 202.991 230.257 207.172 232.799 212.766C240.941 230.679 229.478 249.877 210.2 249.907C204.232 249.915 198.733 248.642 193.663 245.486C192.749 244.917 191.779 244.409 190.781 244.007C188.531 243.098 187.732 243.419 186.349 245.402C186.175 245.652 185.825 245.778 185.475 245.904H185.475C185.311 245.963 185.146 246.022 185 246.094V223.927ZM643.536 208.257H611.129C610.341 218.444 609.913 228.448 614.079 237.882C618.756 248.474 630.043 251.554 639.879 245.238C640.496 244.842 641.116 244.457 641.738 244.072L641.739 244.071L641.74 244.071L641.741 244.07L641.741 244.07L641.742 244.069C641.888 243.979 642.034 243.889 642.18 243.798C642.293 243.728 642.406 243.658 642.519 243.587L642.731 243.823L642.928 244.042C642.823 244.175 642.725 244.317 642.628 244.459C642.42 244.761 642.214 245.062 641.938 245.272C632.045 252.857 615.878 251.038 607.793 241.501C603.651 236.617 601.591 230.905 600.911 224.642C599.967 215.953 600.949 207.611 605.794 200.076C609.172 194.826 613.7 190.924 619.764 189.144C629.944 186.156 639.871 192.376 642.76 203.427C642.908 203.992 643.061 204.554 643.213 205.116L643.215 205.126C643.286 205.387 643.357 205.649 643.428 205.912C643.466 206.055 643.505 206.199 643.543 206.343C643.536 206.984 643.536 207.623 643.536 208.257ZM635.167 206.962L635.131 206.558C634.71 201.873 634.307 197.385 631.64 193.484C628.641 189.098 623.196 188.15 618.92 191.318C613.738 195.158 612.435 200.913 611.259 206.962H635.167ZM357.749 157.925C360.753 156.092 363.874 154.464 367.072 152.795L367.072 152.795L367.072 152.795L367.072 152.795C368.801 151.893 370.552 150.979 372.319 150.015V200.806C373.026 200.151 373.69 199.505 374.334 198.877L374.336 198.875L374.337 198.875C375.712 197.535 376.999 196.28 378.429 195.219C378.625 195.075 378.82 194.929 379.016 194.784L379.027 194.776C381.577 192.881 384.192 190.939 387.077 189.755C392.247 187.634 397.455 187.971 401.956 191.796C404.543 193.993 405.464 197.05 405.815 200.271C405.979 201.767 405.97 203.283 405.961 204.797V204.797V204.797V204.797V204.798V204.798V204.798C405.958 205.197 405.956 205.596 405.957 205.995C405.964 209.257 405.959 212.52 405.954 215.782V215.795C405.942 223.29 405.931 230.785 406.064 238.276C406.075 238.891 406.052 239.527 406.029 240.168V240.168V240.168V240.169C405.908 243.533 405.782 247.042 410.519 248.547C410.461 248.602 410.402 248.657 410.344 248.711C410.269 248.781 410.195 248.851 410.122 248.921H391.07C391.362 248.727 391.589 248.557 391.78 248.415C392.104 248.173 392.322 248.011 392.568 247.943C394.696 247.355 395.712 245.845 395.957 243.79C396.175 241.959 396.335 240.11 396.343 238.272C396.381 225.601 396.393 212.93 396.362 200.259C396.358 198.807 396.198 197.321 395.85 195.911C394.792 191.608 391.253 189.614 387.096 191.23C384.765 192.136 382.522 193.481 380.527 195.009C378.094 196.877 375.88 199.044 373.682 201.197L373.682 201.197L373.328 201.543C372.774 202.086 372.361 203.064 372.358 203.844C372.305 214.306 372.32 224.773 372.334 235.239L372.339 238.23C372.339 238.891 372.382 239.551 372.425 240.21L372.425 240.212V240.212V240.213C372.457 240.696 372.488 241.178 372.503 241.661C372.598 244.733 373.317 247.378 376.817 248.207C376.898 248.225 376.959 248.325 377.072 248.509L377.072 248.509L377.073 248.51L377.073 248.51C377.146 248.629 377.24 248.783 377.375 248.971C377.086 248.994 376.823 249.019 376.578 249.042C376.085 249.089 375.663 249.129 375.239 249.132C373.947 249.136 372.655 249.13 371.363 249.124H371.363H371.363H371.363C368.962 249.113 366.561 249.102 364.161 249.155C362.875 249.183 361.589 249.286 360.303 249.389C359.187 249.479 358.071 249.568 356.955 249.609C356.797 249.615 356.64 249.621 356.482 249.627H356.482C354.672 249.696 352.841 249.766 351.055 249.548C347.146 249.067 344.811 246.682 344.1 242.792C344.045 242.488 343.995 242.182 343.936 241.83C343.911 241.676 343.884 241.512 343.854 241.336L343.821 241.142C343.159 241.732 342.519 242.326 341.886 242.913L341.886 242.913L341.886 242.913L341.886 242.913L341.885 242.914C340.526 244.174 339.203 245.401 337.776 246.491C332.847 250.255 327.295 250.683 321.678 248.547C317.521 246.969 315.434 243.48 314.953 239.093C314.387 233.939 315.866 229.548 320.409 226.74C322.447 225.48 324.617 224.434 326.788 223.388L326.789 223.387L326.79 223.387L326.79 223.387C327.774 222.913 328.757 222.438 329.729 221.944C330.636 221.484 331.552 221.037 332.467 220.591C334.581 219.559 336.695 218.527 338.709 217.324C342.301 215.181 344.158 211.952 343.951 207.615C343.892 206.373 343.912 205.124 343.931 203.876V203.875C343.961 201.994 343.99 200.115 343.749 198.269C343.466 196.09 342.797 193.63 341.452 191.994C338.12 187.948 329.958 189.289 327.616 193.966L327.469 194.261C326.895 195.411 326.318 196.568 325.614 197.638C324.67 199.079 323.187 199.881 321.525 199.556C320.402 199.335 318.919 198.689 318.487 197.799C318.006 196.805 318.056 194.929 318.713 194.142C319.924 192.693 321.598 191.368 323.348 190.68C330.195 187.986 337.31 187.833 344.353 189.709C350.497 191.345 353.424 195.575 353.458 202.193C353.487 207.268 353.484 212.343 353.481 217.419C353.477 222.341 353.474 227.264 353.5 232.185C353.515 234.863 353.64 237.543 353.764 240.222V240.223V240.223V240.223C353.802 241.042 353.84 241.86 353.875 242.678C353.902 243.308 354.016 243.942 354.161 244.562C354.761 247.122 355.648 247.932 357.799 247.928C360.55 247.928 361.884 246.923 362.404 244.348C362.602 243.354 362.709 242.326 362.713 241.317C362.728 215.529 362.728 189.744 362.725 163.955C362.725 163.447 362.69 162.935 362.641 162.43C362.381 159.732 361.697 159.045 358.999 158.731C358.756 158.702 358.518 158.637 358.281 158.571L358.281 158.571C358.175 158.542 358.069 158.513 357.963 158.487C357.916 158.347 357.862 158.211 357.809 158.076L357.807 158.072C357.788 158.023 357.769 157.974 357.749 157.925ZM343.932 213.916C341.75 216.9 338.911 218.773 335.786 220.29C335.404 220.474 335.017 220.649 334.629 220.823C334.031 221.092 333.432 221.361 332.855 221.669C329.263 223.583 326.294 226.098 325.304 230.259C324.315 234.42 324.406 238.608 325.721 242.685C327.005 246.671 330.337 248.36 334.314 247.049C338.216 245.765 341.032 242.85 343.42 239.774C344.12 238.872 344.041 237.336 343.963 235.843C343.935 235.299 343.907 234.76 343.917 234.26C343.96 232.213 343.95 230.165 343.941 228.117V228.117C343.936 227.24 343.932 226.363 343.932 225.486V213.916ZM295.068 188.341C290.104 191.192 285.442 193.871 280.735 196.576C280.9 196.798 281 196.948 281.069 197.053L281.069 197.053L281.069 197.053C281.153 197.179 281.192 197.238 281.247 197.275L281.247 197.276C281.473 197.386 281.713 197.504 281.954 197.524C284.204 197.718 285.156 199.102 285.343 201.192C285.364 201.422 285.389 201.652 285.414 201.881C285.473 202.412 285.531 202.943 285.534 203.473C285.543 205.03 285.553 206.587 285.562 208.144C285.62 217.476 285.678 226.807 285.668 236.14C285.668 238.868 285.496 241.612 285.159 244.321C284.842 246.9 283.555 247.836 280.849 247.936C278.568 248.02 277.704 247.378 277.093 244.776C276.73 243.236 276.516 241.638 276.455 240.057C276.329 236.686 276.317 233.308 276.31 229.934C276.301 226.433 276.304 222.931 276.307 219.429V219.427C276.312 213.759 276.316 208.09 276.272 202.422C276.218 195.582 273.497 191.543 267.361 189.805C260.326 187.81 253.222 188.028 246.348 190.615C244.579 191.28 242.894 192.568 241.591 193.962C239.868 195.808 240.727 198.754 242.989 199.415C244.866 199.961 246.761 199.774 248.014 198.089C249.031 196.725 249.833 195.189 250.594 193.66C251.786 191.264 253.639 189.958 256.31 189.877C257.579 189.839 258.862 189.82 260.123 189.939C263.012 190.214 264.984 191.811 265.886 194.524C266.36 195.953 266.646 197.501 266.7 199.006C266.713 199.371 266.727 199.736 266.741 200.102L266.741 200.107C266.857 203.117 266.973 206.148 266.65 209.121C266.436 211.089 265.664 213.37 264.346 214.753C262.47 216.721 259.982 218.207 257.548 219.518C255.504 220.619 253.404 221.623 251.305 222.626C248.642 223.899 245.979 225.172 243.429 226.644C238.507 229.483 237.063 234.214 237.865 239.64C238.568 244.405 241.182 247.829 245.901 249.074C251.786 250.63 257.281 249.686 261.938 245.463C262.964 244.532 263.969 243.583 265.029 242.581L265.03 242.58C265.553 242.086 266.09 241.578 266.65 241.054L266.708 241.515L266.708 241.516C266.746 241.815 266.771 242.019 266.795 242.223C267.254 246.151 269.451 248.788 273.287 249.43C275.146 249.738 277.077 249.678 278.987 249.618L278.989 249.618L278.991 249.618C279.306 249.608 279.622 249.598 279.936 249.59C281.006 249.563 282.074 249.47 283.143 249.377L283.143 249.377C284.285 249.277 285.427 249.178 286.569 249.158C289.238 249.108 291.905 249.117 294.572 249.126H294.573H294.573C295.981 249.131 297.389 249.136 298.797 249.132C299.129 249.129 299.46 249.088 299.91 249.033C300.155 249.003 300.435 248.968 300.769 248.933C300.531 248.739 300.354 248.574 300.212 248.442C299.983 248.229 299.846 248.1 299.687 248.069C296.424 247.42 295.538 245.039 295.366 242.154C295.263 240.439 295.171 238.723 295.167 237.003C295.146 230.076 295.144 223.151 295.142 216.225V216.217V216.217C295.141 214.485 295.141 212.752 295.14 211.02C295.136 202.587 295.14 202.583 301.009 196.653L301.017 196.645C301.04 196.622 301.062 196.599 301.084 196.576C301.106 196.553 301.128 196.53 301.151 196.507C303.623 194.062 305.029 193.962 307.796 196.01C307.862 196.059 307.927 196.108 307.993 196.156C308.439 196.488 308.886 196.82 309.363 197.099C311.166 198.162 313.195 198.123 314.571 197.034C315.977 195.922 316.554 193.752 315.958 191.799C315.377 189.889 314.024 188.876 311.82 188.731C309.248 188.563 307.028 189.503 305.201 191.196C303.446 192.824 301.777 194.548 300.109 196.271C299.609 196.787 299.108 197.304 298.606 197.818C297.864 198.576 297.142 199.357 296.419 200.138L296.419 200.138L296.419 200.138C296.104 200.479 295.789 200.819 295.473 201.157C295.406 201.123 295.339 201.088 295.272 201.053L295.27 201.052C295.202 201.017 295.134 200.982 295.068 200.947V188.341ZM265.342 215.286C265.79 214.833 266.243 214.376 266.715 213.928C266.721 214.003 266.728 214.079 266.736 214.156C266.756 214.364 266.776 214.576 266.776 214.787C266.775 216.384 266.776 217.98 266.776 219.577V219.577C266.777 225.734 266.779 231.894 266.715 238.05C266.703 238.88 266.279 239.904 265.698 240.492L265.672 240.519L265.672 240.519C263.946 242.268 262.188 244.049 260.169 245.421C258.713 246.411 256.864 247.045 255.11 247.324C252.282 247.775 249.978 246.434 249.015 243.786C246.222 236.09 246.165 225.383 256.811 221.119C258.74 220.347 260.601 219.285 262.282 218.066C263.38 217.268 264.349 216.289 265.342 215.286ZM470.679 238.444C470.588 238.628 470.509 238.823 470.429 239.017C470.262 239.426 470.094 239.836 469.819 240.152C464.604 246.193 458.024 249.361 450.018 249.854C431.983 250.97 420.294 240.068 415.429 224.317C411.207 210.649 410.89 196.721 413.989 182.797C416.052 173.523 420.152 165.204 427.821 159.232C437.584 151.624 448.276 150.099 459.728 155.212L459.851 155.267C460.739 155.662 461.636 156.061 462.567 156.316C465.253 157.05 466.518 156.462 467.932 154.043C468.078 153.792 468.336 153.606 468.594 153.42L468.594 153.42C468.715 153.333 468.835 153.246 468.944 153.152C469.007 153.281 469.087 153.409 469.167 153.537L469.167 153.537C469.339 153.812 469.511 154.088 469.514 154.368C469.552 160.034 469.552 165.705 469.514 171.372C469.511 171.649 469.336 171.927 469.161 172.205C469.081 172.332 469 172.459 468.937 172.587C468.832 172.465 468.711 172.349 468.59 172.233L468.59 172.233C468.33 171.984 468.071 171.736 467.978 171.437C466.64 167.08 464.844 163.011 461.78 159.522C455.146 151.972 439.17 150.13 431.322 161.773C427.711 167.126 425.769 173.08 424.73 179.316C422.453 192.995 422.479 206.713 424.975 220.37C426.125 226.663 428.108 232.689 431.681 238.092C439.533 249.961 456.266 251.585 466.774 241.501C467.554 240.752 468.367 240.034 469.179 239.317L469.184 239.312C469.551 238.988 469.918 238.664 470.282 238.337C470.415 238.371 470.545 238.406 470.679 238.444ZM588.733 241.279C594.014 235.058 595.982 227.707 596.161 219.816C596.02 211.004 593.815 203.018 587.823 196.385C578.316 185.861 564.522 185.728 554.817 196.037C550.258 200.878 547.652 206.675 546.681 213.167C545.195 223.11 546.658 232.471 553.017 240.61C562.6 252.88 578.668 253.148 588.733 241.279ZM556.487 223.679C556.347 222.258 556.206 220.837 556.051 219.418L556.076 219.012C556.521 211.845 556.961 204.772 559.815 198.066C562.241 192.365 566.578 189.167 571.847 189.507C577.545 189.877 580.628 193.622 582.696 198.425C584.839 203.404 585.485 208.727 585.772 214.069C586.165 221.394 586.024 228.708 584.163 235.865C583.261 239.327 581.966 242.643 579.444 245.31C574.641 250.393 567.228 250.274 562.635 244.993C559.704 241.627 558.263 237.534 557.602 233.224C557.118 230.06 556.803 226.87 556.487 223.679Z" fill="black"></path></svg>