<svg xmlns="http://www.w3.org/2000/svg" width="829" height="400" viewBox="0 0 829 400" fill="none"><rect width="829" height="400" fill="white"></rect><g clip-path="url(#clip0_104_2979)"><path d="M381.65 229.163C381.65 226.509 381.567 224.683 381.484 222.609C382.065 222.609 386.713 222.609 388.124 222.609C391.195 222.609 393.27 223.688 393.27 226.26C393.27 228.831 390.697 229.993 389.12 230.159C390.697 230.242 393.685 231.237 393.685 234.141C393.685 237.542 390.78 238.87 387.792 238.87C386.381 238.87 382.065 238.87 381.484 238.87C381.567 236.713 381.65 234.971 381.65 232.316V229.163ZM386.713 223.937C385.966 223.937 385.883 223.937 385.468 224.02C385.468 225.181 385.385 226.509 385.385 227.338C385.385 228.168 385.385 228.997 385.385 229.744H386.547C388.041 229.744 389.452 228.748 389.452 226.757C389.452 225.181 388.788 223.937 386.713 223.937ZM386.547 231.071C386.132 231.071 385.8 231.071 385.468 231.071C385.468 231.735 385.385 232.399 385.385 233.394C385.385 234.805 385.468 236.713 385.468 237.542C385.883 237.542 386.298 237.542 386.879 237.542C388.373 237.542 389.701 236.464 389.701 234.307C389.701 232.15 388.622 231.071 386.547 231.071Z" fill="#F47D39"></path><path d="M418.994 229.163C418.994 226.509 418.911 224.683 418.828 222.609C420.405 222.609 428.041 222.609 428.705 222.609C428.622 222.858 428.622 224.269 428.705 224.683C426.796 224.517 423.559 224.517 422.812 224.517C422.729 226.26 422.812 227.836 422.812 229.495C425.053 229.495 426.713 229.412 428.622 229.329C428.539 229.91 428.539 230.823 428.622 231.403C426.713 231.32 424.721 231.154 422.812 231.154C422.812 232.15 422.812 233.145 422.812 234.224C422.812 235.219 422.812 236.049 422.895 236.962C424.804 236.962 426.796 237.045 428.705 236.879C428.622 237.211 428.622 238.704 428.705 239.036C427.792 239.036 419.409 239.036 418.828 239.036C418.994 236.879 418.994 235.136 418.994 232.482V229.163Z" fill="#F47D39"></path><path d="M468.046 238.953C467.216 238.953 464.311 238.953 463.647 238.953C463.066 237.376 462.485 235.717 461.821 234.141C460.742 234.141 456.841 234.141 455.928 234.141C455.181 235.717 454.683 237.376 454.102 239.036C453.77 239.036 452.193 239.036 451.695 239.036C452.857 236.381 456.675 227.919 458.999 222.609C459.331 222.609 460.576 222.609 460.908 222.609C463.066 227.836 466.054 235.137 468.046 238.953ZM461.24 232.731C460.493 230.823 459.829 228.914 458.999 227.089C458.086 228.997 457.339 230.823 456.592 232.731H461.24Z" fill="#F47D39"></path><path d="M488.219 233.062C488.219 230.491 488.302 229.163 488.302 227.504C488.302 224.932 488.219 223.439 488.219 222.609C488.966 222.609 489.63 222.692 490.294 222.692C490.958 222.692 491.705 222.692 492.369 222.609C492.037 225.679 492.037 228.168 492.037 230.905C492.037 236.713 493.862 237.625 497.099 237.625C501.166 237.625 501.498 233.477 501.498 229.08C501.498 226.923 501.415 224.766 501.249 222.609C501.664 222.692 502.162 222.692 502.577 222.692C503.075 222.692 503.49 222.692 503.822 222.609C503.656 224.02 503.49 227.421 503.49 231.569C503.49 237.045 500.917 239.285 495.937 239.285C491.622 239.285 488.219 237.542 488.219 233.062Z" fill="#F47D39"></path><path d="M530.296 226.423C530.296 225.593 530.379 224.763 530.296 224.432C529.383 224.432 527.142 224.432 525.648 224.597C525.731 224.266 525.731 222.938 525.648 222.523C527.972 222.523 536.521 222.523 538.762 222.523C538.679 222.938 538.679 224.266 538.762 224.597C537.434 224.515 535.11 224.515 534.197 224.515C534.197 224.846 534.197 225.593 534.197 226.423V232.313C534.197 234.968 534.28 236.71 534.363 238.867C533.782 238.867 530.711 238.867 530.213 238.867C530.379 236.71 530.379 234.968 530.379 232.313C530.296 232.396 530.296 226.423 530.296 226.423Z" fill="#F47D39"></path><path d="M569.304 229.744C570.715 227.919 572.043 224.932 573.122 222.609C573.537 222.609 575.114 222.609 575.612 222.609C574.45 224.435 571.877 228.914 570.217 231.901C570.217 232.648 570.217 233.228 570.217 234.058C570.217 235.634 570.217 237.293 570.466 239.036C569.719 239.036 566.898 239.036 566.151 239.036C566.234 237.542 566.483 235.966 566.483 234.473C566.483 233.726 566.483 232.98 566.4 232.316C564.574 229.163 561.669 224.02 560.922 222.692C561.752 222.692 564.74 222.692 565.487 222.692C566.649 224.932 568.558 228.666 569.304 229.744Z" fill="#F47D39"></path><path d="M317.24 144.455C316.825 153.332 316.825 164.614 316.825 174.653C316.825 193.319 317.074 197.467 320.56 202.113C324.046 206.676 330.602 209.248 338.985 209.248C348.778 209.248 356.497 204.353 359.153 197.218C360.149 194.646 360.73 191.079 360.73 181.456C360.73 166.191 360.564 150.926 359.651 135.661C361.311 135.91 368.947 135.91 370.772 135.661L370.357 141.219C369.776 151.341 369.445 175.399 369.196 187.263C368.947 201.117 364.88 207.422 356.912 212.317C351.185 215.801 343.135 217.378 336.578 217.378C322.137 217.295 304.708 212.898 302.135 194.729C301.886 193.07 301.886 189.586 301.886 188.59V156.65C301.886 150.677 301.637 141.551 301.305 135.578C304.127 135.91 315.165 135.91 317.572 135.578L317.24 144.455Z" fill="#F47D39"></path><path d="M388.947 167.771C388.947 162.628 388.947 161.466 388.615 151.096C388.449 148.607 388.283 138.071 388.117 135.914C391.188 136.495 401.895 136.412 404.882 135.914C404.052 153.502 403.637 168.269 403.637 186.188C403.637 194.319 403.886 201.951 404.052 208.339H406.21C409.696 208.339 427.125 208.339 434.263 207.261C433.848 208.505 433.765 214.395 434.263 215.889C428.121 215.723 417.747 215.225 411.19 215.225C403.388 215.225 396.915 215.474 388.117 215.889C388.117 214.063 388.947 187.018 388.947 184.031V167.771V167.771Z" fill="#F47D39"></path><path d="M468.047 199.959C468.047 208.835 468.545 212.652 468.877 215.887C465.391 215.555 456.179 215.472 451.78 215.887C452.278 207.01 452.942 198.05 452.942 189.174L452.859 156.653C452.859 152.339 452.776 148.274 452.527 143.711H446.551C445.472 143.711 433.936 143.96 427.711 144.541C428.126 143.213 428.375 136.659 427.96 135.249C437.504 135.83 450.701 135.83 459.996 135.83C470.039 135.83 480.828 135.664 492.282 135C491.95 137.074 491.784 142.715 492.199 144.541C485.061 143.877 476.43 143.711 468.13 143.711C468.047 147.942 467.964 152.339 467.964 156.736V199.959H468.047Z" fill="#F47D39"></path><path d="M539.336 203.194L534.273 190.833C529.127 190.667 509.208 190.667 504.478 190.833C500.577 199.793 496.759 209.416 494.85 216.053C493.273 215.887 485.305 215.887 483.562 216.053L497.589 186.104C509.789 159.889 516.761 144.707 519.583 135.664H527.467C533.277 151.095 540.415 167.438 544.814 177.228C549.378 187.349 557.346 204.854 562.741 216.136C560.998 216.053 546.64 216.053 544.482 216.136L539.336 203.194ZM519.417 154.994L507.133 183.616C511.366 183.781 515.433 183.947 519.666 183.947C522.073 183.947 525.725 183.947 530.787 183.616L519.417 154.994Z" fill="#F47D39"></path><path d="M283.879 139.148C265.038 152.007 254 167.936 254 187.598C254 232.065 307.698 265 384.387 265C418.747 265 447.464 256.124 468.628 245.173H467.3C441.737 252.888 415.759 256.124 389.035 256.124C312.097 256.041 259.063 219.87 258.98 186.519C258.98 167.936 267.528 152.007 283.879 140.31V139.148Z" fill="#F47D39"></path><path d="M553.201 135.5C555.774 135.5 558.015 137.574 558.015 140.312C558.015 143.049 555.857 145.123 553.201 145.123C550.629 145.123 548.305 143.049 548.305 140.312C548.305 137.574 550.629 135.5 553.201 135.5ZM553.201 144.46C555.442 144.46 557.185 142.718 557.185 140.312C557.185 137.989 555.442 136.247 553.201 136.247C550.878 136.247 549.218 137.989 549.218 140.312C549.301 142.635 550.961 144.46 553.201 144.46ZM551.293 137.491H553.45C554.778 137.491 555.442 138.072 555.442 139.15C555.442 140.146 554.778 140.561 553.948 140.644L555.608 143.132H554.612L553.118 140.644H552.123V143.132H551.293V137.491ZM552.123 139.98H553.035C553.782 139.98 554.529 139.897 554.529 139.067C554.529 138.238 553.782 138.155 553.201 138.155H552.123V139.98Z" fill="#F47D39"></path></g><defs><clipPath id="clip0_104_2979"><rect width="321.61" height="130" fill="white" transform="translate(254 135)"></rect></clipPath></defs></svg>