<svg xmlns="http://www.w3.org/2000/svg" width="829" height="400" viewBox="0 0 829 400" fill="none"><rect width="829" height="400" fill="white"></rect><path fill-rule="evenodd" clip-rule="evenodd" d="M270.582 140C271.699 140.216 272.826 140.405 273.953 140.595C276.188 140.97 278.427 141.345 280.606 141.935C301.917 147.605 315.999 161.069 323.336 181.708C323.512 182.172 323.616 182.672 323.737 183.253L323.781 183.461C323.793 183.521 323.806 183.581 323.819 183.643C320.702 184.557 319.036 184.046 317.773 180.687C309.791 159.081 289.421 145.052 266.551 145.025C243.708 144.999 223.365 159.081 215.168 180.553C213.771 184.235 213.771 184.235 209.148 183.724H209.148C209.254 183.373 209.353 183.026 209.452 182.683L209.452 182.683L209.452 182.683C209.731 181.712 210 180.775 210.358 179.881C219.495 157.065 236.049 143.709 260.693 140.538C261.166 140.485 261.64 140.352 262.107 140.221L262.107 140.221L262.107 140.221C262.354 140.152 262.6 140.083 262.843 140.027C265.422 140 268.002 140 270.582 140ZM487.616 140C487.697 148.331 487.777 156.662 487.831 164.993V168.728C487.987 168.728 488.13 168.74 488.251 168.75C488.443 168.766 488.577 168.778 488.61 168.728C493.448 162.01 497.855 160.209 505.084 162.064C511.749 163.757 516.64 169.266 517.177 176.629C517.533 181.391 517.525 186.197 517.518 190.994V190.994V190.995V190.995V190.996V190.997V190.997V190.998V190.998V190.999V191V191V191.001V191.002C517.515 192.725 517.512 194.448 517.527 196.167L517.528 196.333C517.58 202.509 517.58 202.517 523.573 203.422V207.024H503.364V203.288C503.599 203.263 503.841 203.227 504.088 203.191C504.633 203.111 505.201 203.028 505.756 203.046C508.228 203.127 509.438 201.488 509.438 199.499C509.436 198.9 509.434 198.302 509.432 197.703V197.702C509.411 190.508 509.39 183.315 508.819 176.145C508.47 171.711 506.562 167.492 501.402 166.39C497.21 165.476 492.05 168.379 489.739 173.243C488.583 175.662 488.073 178.537 487.912 181.251C487.704 184.616 487.748 188.008 487.793 191.398V191.398V191.399V191.399V191.399V191.4V191.4V191.401V191.401V191.402V191.402V191.402V191.403V191.403V191.404V191.405V191.406V191.406V191.407V191.408V191.409V191.41V191.41V191.411V191.412V191.413V191.414C487.812 192.838 487.831 194.261 487.831 195.683C487.831 202.321 487.831 202.321 493.958 203.503L493.958 203.503V207.104H474.233V203.396C480.091 202.509 480.333 202.213 480.333 196.247V152.98V149.272C479.466 149.233 478.637 149.197 477.801 149.161C476.332 149.098 474.841 149.035 473.077 148.949C474.595 146.258 476.96 144.824 479.254 143.433C480.901 142.434 482.511 141.457 483.746 140.054C485.063 140 486.326 140 487.616 140ZM638.142 220.712C638.635 220.748 639.126 220.783 639.615 220.81V218.848C639.209 218.816 638.8 218.777 638.391 218.738L638.391 218.738C637.418 218.646 636.441 218.552 635.476 218.552H554.344C494.146 218.552 433.922 218.552 373.724 218.579C372.896 218.579 372.056 218.7 371.22 218.82C370.808 218.879 370.397 218.938 369.989 218.982V220.192C370.373 220.229 370.755 220.273 371.135 220.317L371.135 220.317L371.136 220.317C372.113 220.43 373.08 220.541 374.047 220.541C460.651 220.568 547.229 220.568 633.833 220.568H635.154C636.143 220.568 637.144 220.64 638.141 220.712L638.142 220.712ZM579.31 203.154C579.681 203.138 580.05 203.152 580.402 203.167C581.173 203.198 581.867 203.226 582.347 202.913L582.432 202.86C583.749 202.055 585.679 200.873 585.706 199.795C585.914 191.951 585.896 184.091 585.878 176.063V176.058C585.872 173.746 585.867 171.421 585.867 169.078H579.256C579.793 165.531 589.253 159.726 593.365 160.237V167.412C593.511 167.44 593.644 167.47 593.759 167.496C593.983 167.547 594.135 167.582 594.171 167.546C599.143 160.317 606.318 159.672 613.896 161.5C621.529 163.354 624.646 169.401 625.372 176.496C625.902 181.586 625.93 186.744 625.958 191.89C625.965 193.263 625.973 194.636 625.99 196.006L625.992 196.169C626.07 202.536 626.07 202.543 632.386 203.289C632.406 203.422 632.429 203.559 632.453 203.699L632.453 203.699C632.525 204.121 632.601 204.565 632.601 205.009C632.601 205.44 632.548 205.872 632.489 206.359L632.489 206.359L632.489 206.36L632.489 206.362C632.463 206.571 632.437 206.791 632.413 207.024H611.693V203.477C611.742 203.436 611.792 203.384 611.842 203.332C611.953 203.217 612.065 203.101 612.176 203.101C618.25 202.456 618.384 202.375 618.304 196.328C618.223 190.255 618.035 184.154 617.793 178.081C617.739 176.818 617.417 175.555 617.068 174.319C615.858 169.938 613.681 166.445 608.656 165.773C603.469 165.101 597.933 167.493 596.052 172.169C594.574 175.851 593.956 179.962 593.553 183.939C593.274 186.638 593.342 189.387 593.411 192.135C593.442 193.356 593.472 194.576 593.472 195.791C593.472 199.132 593.472 200.798 594.298 201.738C595.12 202.672 596.76 202.887 600.029 203.316V207.051H579.31V203.154ZM570.71 198.881C550.877 210.598 538.65 198.747 538.435 186.062H573.075C573.29 179.962 572.457 174.452 569.555 169.373C567.002 164.912 563.185 161.929 558.133 161.419C553.941 160.989 549.48 160.962 545.422 161.956C536.903 164.052 531.367 169.696 530.131 178.564C529.566 182.622 529.566 186.895 530.184 190.953C531.609 200.171 538.193 206.432 547.384 208.072C554.102 209.254 560.632 208.502 566.948 206.002C571.194 204.336 571.57 203.557 570.71 198.881ZM552.597 166.498C560.767 166.068 565.443 171.254 565.47 181.171H538.784C537.951 173.485 544.186 166.928 552.597 166.498ZM398.583 160.343C408.392 160.639 414.895 165.449 418.899 173.431C423.28 182.218 422.823 191.087 417.072 199.203C409.037 210.57 394.095 212.344 384.662 203.126C376.842 195.467 375.095 186.088 378.508 175.984C381.061 168.432 386.194 162.977 394.283 160.934C395.451 160.652 396.649 160.536 397.652 160.439L397.652 160.439L397.653 160.439C397.987 160.407 398.3 160.377 398.583 160.343ZM412.557 184.718C412.53 178.08 410.031 172.248 405.597 168.486C401.243 164.804 395.895 164.67 391.891 168.19C383.05 175.957 383.453 193.882 392.644 201.191C397.535 205.088 403.42 204.578 407.478 199.821C411.16 195.467 412.557 190.307 412.557 184.718ZM453.164 160.021V162.548C446.848 159.968 441.205 160.881 435.749 163.837C431.611 166.095 428.95 169.374 428.95 174.291C428.95 179.236 431.557 182.649 435.803 184.665C438.213 185.808 440.778 186.611 443.345 187.413C444.156 187.667 444.967 187.921 445.773 188.185C446.835 188.534 447.912 188.851 448.99 189.169C451.403 189.881 453.818 190.593 456.066 191.652C457.329 192.27 458.404 194.393 458.592 195.925C459.049 199.902 456.415 202.267 451.497 202.832C442.468 203.88 435.642 199.58 429.407 193.479L429.375 193.506C428.606 194.142 427.837 194.779 427.042 195.441C427.634 196.479 428.228 197.495 428.816 198.5L428.816 198.5C430.282 201.007 431.707 203.443 432.954 205.976C434.271 208.663 435.937 209.953 439.082 208.851V206.164C447.869 208.744 453.916 208.475 459.506 205.358C465.337 202.106 467.622 196.704 465.579 190.765C464.182 186.707 461.064 184.289 457.141 182.999C455.367 182.422 453.558 181.942 451.751 181.463C449.096 180.759 446.446 180.056 443.919 179.048C441.473 178.081 439.297 176.119 437.469 174.184C435.83 172.437 436.421 170.368 438.437 168.97C442.629 166.068 447.224 165.154 451.793 167.573C454.524 169.013 457.072 170.766 459.719 172.586L459.719 172.586C460.876 173.381 462.051 174.189 463.268 174.99C463.412 174.859 463.635 174.647 463.903 174.393C464.237 174.078 464.639 173.697 465.042 173.324C464.408 172.204 463.769 171.112 463.138 170.034L463.137 170.033L463.137 170.033C461.709 167.592 460.322 165.223 459.13 162.763C457.84 160.075 456.066 159.135 453.164 160.021ZM217.264 233.145C220.355 232.581 222.666 232.984 225.004 235.725C246.879 261.309 285.578 261.443 307.749 236.047C310.114 233.333 312.425 232.312 316.268 233.253C304.201 249.995 288.212 258.998 267.734 259.723C247.82 260.449 223.553 247.576 217.264 233.145ZM515.081 259.4V236.584C515.35 236.53 515.592 236.477 515.833 236.396L515.936 236.744C516.17 237.536 516.398 238.31 516.586 239.083C517.07 241.09 517.559 243.097 518.049 245.104L518.051 245.111C519.03 249.122 520.008 253.132 520.939 257.143C521.289 258.675 521.665 259.642 523.546 259.642C525.347 259.615 525.938 258.836 526.287 257.25C526.955 254.05 527.741 250.851 528.527 247.651L528.702 246.938C528.775 246.64 528.848 246.342 528.921 246.044C529.48 243.716 530.064 241.402 530.647 239.091C530.906 238.067 531.164 237.043 531.42 236.02C531.48 236.026 531.538 236.035 531.596 236.044C531.654 236.053 531.712 236.063 531.77 236.074C531.884 236.094 531.998 236.114 532.119 236.127V259.373H536.204V231.559C533.589 231.254 532.32 231.107 531.558 231.659C530.84 232.179 530.571 233.32 530.05 235.536C529.344 238.564 528.612 241.579 527.882 244.59L527.88 244.595L527.879 244.6L527.876 244.612C527.552 245.95 527.227 247.287 526.905 248.624C526.395 250.774 525.857 252.95 525.32 255.1C523.112 248.476 521.535 241.903 519.966 235.358L519.918 235.16C518.897 230.753 518.709 230.645 514.329 231.72V259.4H515.081ZM588.151 245.533C588.151 252.682 585.034 257.922 579.444 259.293C577.16 259.857 574.499 259.857 572.242 259.266C566.034 257.6 562.514 250.236 563.857 242.524C565.12 235.241 570.173 230.726 576.622 231.021C583.287 231.344 588.151 237.471 588.151 245.533ZM582.901 242.342L582.901 242.342C582.249 239.935 581.597 237.525 580.438 235.375C578.154 231.156 573.666 231.21 571.274 235.402C567.566 241.879 567.539 248.731 570.952 255.289C573.29 259.804 578.504 259.777 580.815 255.235C581.848 253.263 582.395 251.028 582.98 248.64C583.232 247.612 583.49 246.556 583.798 245.48C583.47 244.449 583.186 243.396 582.901 242.342ZM378.348 251.723C378.257 251.435 378.166 251.147 378.078 250.854L378.052 250.857C377.817 250.883 377.558 250.912 377.298 251.016C377.266 251.18 377.22 251.347 377.174 251.515C377.071 251.896 376.966 252.282 377.003 252.655C377.54 257.331 380.738 259.83 386.328 259.992C391.461 260.153 394.74 257.949 395.492 253.837C396.406 248.919 394.337 245.211 389.607 243.437C388.693 243.097 387.736 242.863 386.774 242.629C386.067 242.456 385.357 242.283 384.662 242.067C381.249 240.992 380.255 238.815 381.518 235.321C382.512 232.58 384.743 231.64 387.806 233.225C388.996 233.83 389.959 234.845 390.922 235.86L390.923 235.86L390.923 235.86L390.923 235.861L390.923 235.861C391.287 236.244 391.65 236.627 392.025 236.988C392.397 237.322 392.704 237.733 393.009 238.141L393.009 238.142C393.146 238.324 393.282 238.506 393.423 238.681C393.584 238.56 393.745 238.446 393.906 238.331L393.907 238.331C394.068 238.217 394.229 238.103 394.39 237.982C394.059 237.517 393.742 237.035 393.424 236.553C392.659 235.392 391.892 234.228 390.924 233.279C388.344 230.753 383.533 230.242 380.389 231.935C377.325 233.575 376.062 236.262 376.251 239.648C376.465 243.625 379.045 245.695 382.512 246.904C383.278 247.175 384.082 247.352 384.89 247.529C385.443 247.651 385.997 247.772 386.543 247.925C390.601 249.027 391.757 250.908 390.762 254.724C389.849 258.191 387.833 259.159 383.802 258.137C381.142 257.465 379.502 255.853 378.804 253.246C378.666 252.732 378.508 252.229 378.348 251.723ZM633.004 231.478V259.266C627.817 260.072 627.817 260.072 625.963 255.45C623.437 249.269 620.91 243.088 618.384 236.88C618.116 236.907 617.847 236.934 617.551 236.988V259.454C617.387 259.454 617.222 259.447 617.061 259.44C616.906 259.434 616.755 259.427 616.611 259.427V231.72C621.045 230.753 621.152 230.806 622.846 234.999L622.969 235.301C625.696 242 628.433 248.724 631.848 255.369V231.505C632.224 231.478 632.628 231.478 633.004 231.478ZM438.651 256.042C439.7 259.32 441.339 260.288 444.618 259.213C444.587 259.042 444.56 258.869 444.533 258.696C444.468 258.269 444.402 257.84 444.268 257.439C443.307 254.641 442.34 251.847 441.373 249.053L441.372 249.05C439.58 243.875 437.79 238.704 436.045 233.521C435.48 231.828 434.647 231.21 432.82 231.237C430.992 231.264 429.971 231.667 429.326 233.602C427.498 239.18 425.579 244.707 423.659 250.236L423.659 250.236L423.659 250.237C422.813 252.671 421.968 255.106 421.13 257.546C420.974 257.976 420.931 258.433 420.888 258.888C420.872 259.06 420.856 259.231 420.834 259.401C420.968 259.441 421.103 259.488 421.237 259.535C421.372 259.582 421.506 259.629 421.64 259.67C421.838 259.211 422.049 258.756 422.258 258.302C422.589 257.586 422.919 256.873 423.199 256.149C423.665 254.918 423.978 253.951 424.223 253.194C424.652 251.871 424.873 251.188 425.343 250.846C425.845 250.481 426.631 250.507 428.257 250.559C429.007 250.583 429.937 250.613 431.1 250.613C432.253 250.613 433.175 250.581 433.92 250.555H433.921C435.497 250.5 436.279 250.473 436.772 250.837C437.257 251.195 437.463 251.932 437.871 253.394L437.871 253.395C438.066 254.097 438.309 254.966 438.651 256.042ZM436.394 249.189H425.618C426.462 246.756 427.271 244.413 428.097 242.019L428.111 241.978L428.115 241.969L428.115 241.966L428.126 241.935C429.052 239.251 430.001 236.503 431.046 233.494C431.866 235.899 432.63 238.144 433.369 240.315L433.376 240.335C434.402 243.35 435.38 246.224 436.394 249.189ZM470.873 259.293V231.559H475.281V258.406H486.38C486.38 258.514 486.376 258.623 486.371 258.731C486.37 258.77 486.368 258.81 486.366 258.849C486.363 258.925 486.359 259 486.357 259.076C486.354 259.148 486.353 259.22 486.353 259.293H470.873ZM565.55 149.621V145.321H539.456V149.621H565.55Z" fill="black"></path><path d="M314.254 194.424C306.81 204.474 299.393 212.886 290.605 220.008C289.557 220.868 287.568 221.324 286.278 221.002C281.441 219.739 276.711 218.073 271.578 216.433C272.169 215.6 272.438 215.063 272.841 214.686C281.038 206.597 287.971 197.514 293.964 187.705C295.577 185.071 297.081 184.668 299.608 186.12C304.337 188.861 309.148 191.548 314.254 194.424Z" fill="#EF5C0E"></path><path d="M250.617 212.751C254.971 203.722 259.297 194.719 263.732 185.743C264.135 184.937 265.237 184.023 266.07 183.942C273.594 183.351 281.146 182.948 289.504 182.438C288.697 184.238 288.456 185.017 288.026 185.662C281.871 195.23 274.911 204.125 266.742 212.079C265.156 213.611 263.759 214.256 261.394 213.799C257.793 213.101 254.003 213.047 250.617 212.751Z" fill="#EF5C0E"></path><path d="M297.672 222.881C304.74 215.06 311.593 207.509 318.607 199.742C325.029 205.654 328.55 213.448 330.754 221.833C331.318 224.009 329.195 225.407 326.776 225.246C318.66 224.708 310.571 224.171 302.455 223.579C300.897 223.445 299.365 223.123 297.672 222.881Z" fill="#EF5C0E"></path><path d="M228.961 214.359C230.654 206.968 232.186 200.143 233.825 193.317C233.986 192.591 234.631 191.65 235.249 191.435C242.237 189.178 249.251 187.028 256.99 184.609C256.668 186.141 256.668 186.625 256.453 187.028C252.261 194.929 248.068 202.857 243.742 210.704C243.177 211.725 242.049 212.988 241.027 213.15C237.158 213.795 233.207 213.983 228.961 214.359Z" fill="#EF5C0E"></path><path d="M227.345 195.626C225.652 201.753 224.012 207.88 222.158 213.954C221.862 214.894 220.626 215.888 219.632 216.184C216.488 217.178 213.236 217.85 209.447 218.791C208.909 214.652 208.345 210.621 207.915 206.59C207.888 206.241 208.506 205.73 208.936 205.461C214.714 201.887 220.519 198.34 226.324 194.766C226.646 195.061 226.995 195.33 227.345 195.626Z" fill="#EF5C0E"></path><path d="M201.573 210.625C202.003 211.431 202.137 211.592 202.191 211.781C204.045 220.246 204.045 220.246 196.037 223.283C194.935 223.686 193.887 224.331 192.758 224.492C191.925 224.626 190.554 224.411 190.205 223.874C189.829 223.256 189.99 221.778 190.528 221.24C194.021 217.72 197.676 214.334 201.573 210.625Z" fill="#EF5C0E"></path></svg>