<svg xmlns="http://www.w3.org/2000/svg" width="829" height="400" viewBox="0 0 829 400" fill="none"><rect width="829" height="400" fill="white"></rect><g clip-path="url(#clip0_104_2985)"><path fill-rule="evenodd" clip-rule="evenodd" d="M247.204 167C266.027 167 280.358 181.065 280.358 199.53C280.358 217.737 266.113 232.061 247.722 232.061C228.64 232.061 215 217.132 215 199.789C215 181.323 229.331 167 247.204 167ZM305.481 168.552V224.467H329.31V230.508H299.264V168.552H305.481ZM371.01 168.552L399.934 230.508H393.287L383.53 210.144H356.765L347.096 230.508H340.188L369.543 168.552H371.01ZM430.325 168.552C436.801 168.552 441.634 168.984 444.656 170.107C450.959 172.521 454.845 178.045 454.845 185.034C454.845 190.902 452.081 195.82 447.678 198.581C443.466 201.223 437.437 201.652 429.442 201.686L422.208 201.688V230.508H415.994V168.552H430.325ZM479.882 168.552V224.467H503.711V230.508H473.665V168.552H479.882ZM555.515 168.552V174.594H526.332V194.009H555.515V200.048H526.332V224.467H555.515V230.508H520.115V168.552H555.515ZM576.84 168.552L591.688 192.713L606.625 168.552H613.792L595.316 198.581L615 230.508H607.748L591.688 204.534L575.458 230.508H568.206L587.975 198.581L569.587 168.552H576.84ZM247.549 173.041C233.908 173.041 221.476 183.913 221.476 199.789C221.476 215.062 233.564 226.019 247.549 226.019C262.056 226.019 273.882 214.977 273.882 199.445C273.882 183.74 261.277 173.041 247.549 173.041ZM370.234 181.67L359.528 204.105H380.767L370.234 181.67ZM433.173 174.594H422.208V195.647C425.748 195.732 429.287 195.647 432.483 195.647C437.836 195.647 441.981 195.303 444.744 193.06C446.902 191.334 448.369 188.141 448.369 185.034C448.369 181.841 446.814 178.736 444.485 176.922C441.722 174.853 438.009 174.594 433.173 174.594Z" fill="black"></path></g><defs><clipPath id="clip0_104_2985"><rect width="400" height="65.2005" fill="white" transform="translate(215 167)"></rect></clipPath></defs></svg>