<svg xmlns="http://www.w3.org/2000/svg" width="829" height="400" viewBox="0 0 829 400" fill="none"><rect width="829" height="400" fill="white"></rect><path d="M542.418 219.683C535.866 219.683 535.21 215.111 535.21 200.366C535.21 185.622 535.866 181.05 542.418 181.05C548.97 181.05 549.626 185.622 549.626 200.366C549.626 215.111 548.959 219.683 542.418 219.683ZM542.418 180C530.364 180 522.992 189.582 522.992 200.355C522.992 211.14 530.364 220.722 542.418 220.722C554.472 220.722 561.844 211.14 561.844 200.355C561.844 189.582 554.461 180 542.418 180Z" fill="black"></path><path d="M511.573 183.139C509.867 183.139 506.673 180 500.241 180C489.566 180 479.93 187.427 479.93 200.355C479.93 211.359 488.188 220.711 500.187 220.711C506.903 220.711 509.211 217.736 511.409 217.736C512.678 217.736 513.061 218.841 513.061 219.716H514.111V207.181H513.061C513.061 212.026 508.937 219.672 501.171 219.672C492.257 219.672 492.147 211.14 492.147 201.077C492.147 189.68 492.257 181.05 501.116 181.05C508.489 181.05 511.901 187.328 513.061 193.705H514.111V180.995H513.061C513.061 181.761 512.776 183.139 511.573 183.139Z" fill="black"></path><path d="M467.525 210.266C464.714 210.266 462.406 212.574 462.406 215.385C462.406 218.196 464.714 220.504 467.525 220.504C470.336 220.504 472.644 218.196 472.644 215.385C472.644 212.584 470.336 210.266 467.525 210.266Z" fill="black"></path><path d="M433.005 199.098H430.588V182.034H433.673C437.413 182.034 439.01 184.397 439.01 191.168C438.999 196.626 437.621 199.098 433.005 199.098ZM451.108 218.359C450.003 218.359 449.511 217.539 449.511 214.783V206.634C449.511 201.241 443.845 199.918 439.721 199.644V199.535C444.621 198.988 449.904 196.068 449.904 190.566C449.904 183.905 443.462 180.984 437.577 180.984H415.844V182.034H419.366V218.687H415.844V219.737H434.11V218.687H430.588V200.148H434.548C438.015 200.148 438.945 202.674 438.945 207.082V212.912C438.945 217.812 442.467 220.394 446.875 220.394C450.397 220.394 452.814 219.737 454.192 216.489L453.47 215.942C453.033 216.981 452.322 218.359 451.108 218.359Z" fill="black"></path><path d="M353.419 218.687H350.893V182.034H354.415V180.984H336.148V182.034H339.67V218.687H336.148V219.737H366.742V208.121H365.692C365.692 213.514 362.006 218.687 353.419 218.687Z" fill="black"></path><path d="M315.443 218.687H312.916V182.034H316.438V180.984H298.172V182.034H301.694V218.687H298.172V219.737H328.765V208.121H327.715C327.715 213.514 324.029 218.687 315.443 218.687Z" fill="black"></path><path d="M276.519 218.687H272.451V200.148H277.066C281.748 200.148 283.006 203.396 283.006 207.192H284.056V192.163H283.006C283.006 195.958 281.627 199.098 277.285 199.098H272.44V182.034H277.285C285.543 182.034 287.523 186.169 288.015 191.004H289.065V180.984H257.695V182.034H261.217V218.687H257.695V219.737H290.268V208.121H289.218C288.179 214.345 285.871 218.687 276.519 218.687Z" fill="black"></path><path d="M246.632 183.139C244.926 183.139 241.732 180 235.301 180C224.625 180 215 187.427 215 200.355C215 211.359 223.258 220.711 235.246 220.711C241.962 220.711 244.27 217.736 246.479 217.736C247.737 217.736 248.131 218.841 248.131 219.716H249.17V207.181H248.131C248.131 212.026 243.996 219.672 236.241 219.672C227.327 219.672 227.218 211.14 227.218 201.077C227.218 189.68 227.327 181.05 236.187 181.05C243.559 181.05 246.972 187.328 248.131 193.705H249.17V180.995H248.131C248.12 181.761 247.847 183.139 246.632 183.139Z" fill="black"></path><path d="M615 182.034V180.984H600.311L591.943 204.873H591.834L583.302 180.984H568.438V182.034H571.96V215.22C571.96 217.976 570.8 218.687 568.219 218.687V219.737H577.078V218.687C574.497 218.687 573.338 217.966 573.338 215.22V184.627H573.447L585.774 219.737H588.027L600.464 184.189H600.573V218.698H597.051V219.748H614.989V218.698H611.467V182.034H615Z" fill="black"></path><path d="M382.047 205.974L386.291 193.319H386.4L390.798 205.974H382.047ZM393.488 180.992H389.091L377.694 215.162C377.038 217.142 376.152 218.684 374.445 218.684H373.953V219.734H382.321V218.684H381.555C380.067 218.684 378.919 218.301 378.919 216.814C378.919 215.939 379.083 215.108 379.302 214.386L381.73 207.014H391.191L395.326 218.684H392.843V219.734H408.911V218.684H406.822L393.488 180.992Z" fill="black"></path></svg>