<svg xmlns="http://www.w3.org/2000/svg" width="829" height="400" viewBox="0 0 829 400" fill="none"><rect width="829" height="400" fill="white"></rect><path d="M283.923 143.031C290.947 143.071 297.977 143.031 305.001 143.056C307.051 143.15 309.194 143.98 309.941 146.054C309.936 146.678 309.916 147.303 309.882 147.927C304.258 174.215 298.689 200.523 293.066 226.821C292.324 230.282 291.645 233.752 290.859 237.207C300.346 237.492 309.847 237.232 319.344 237.335C320.106 234.523 320.534 231.638 321.29 228.827C327.322 228.851 333.359 228.704 339.39 228.915C340.908 228.846 342.157 229.849 342.845 231.122C342.831 232.341 342.929 233.57 342.722 234.774C341.361 241.405 339.911 248.021 338.534 254.648C337.915 257.823 334.754 260.281 331.52 259.976C310.708 259.937 289.89 259.956 269.073 259.965C265.942 259.917 262.605 258.403 261.435 255.311C260.201 251.128 261.912 246.911 262.634 242.797C269.01 212.625 275.439 182.468 281.824 152.297C282.517 149.205 283.004 146.064 283.923 143.031Z" fill="#394789"></path><path d="M352.697 171.16C362.154 171.14 371.703 171.155 381.161 171.15C382.444 171.13 383.712 171.322 384.985 171.479C386.691 172.222 387.492 173.927 387.404 175.736C383.015 196.681 378.501 217.597 374.147 238.547C372.908 244.101 371.846 249.695 370.504 255.225C370.013 257.663 367.86 259.471 365.5 259.944C359.591 259.978 353.683 259.924 347.775 259.968C346.256 260.091 344.609 259.339 343.921 257.933C343.13 255.589 344.088 253.185 344.486 250.864C347.249 237.755 350.081 224.665 352.818 211.55C353.698 207.451 354.598 203.356 355.473 199.257C355.827 197.527 356.087 195.767 356.643 194.081C354.357 194.076 351.87 194.425 349.864 193.059C348.63 191.981 348.542 190.173 348.847 188.674C349.967 183.272 351.098 178.281 352.307 172.487C352.403 172.025 352.52 171.592 352.697 171.16Z" fill="#394789"></path><path d="M368.058 140.025C375.21 140.015 382.357 140.03 389.509 140.01C390.497 139.976 391.436 140.32 392.384 140.556C394.415 141.927 394.145 144.508 393.766 146.617C392.871 150.402 392.183 154.231 391.273 158.011C390.787 160.075 389.194 161.629 387.366 162.578C382.731 163.521 377.982 162.946 373.288 163.103C370.314 163.054 366.671 163.565 364.509 161.029C364.002 160.435 363.954 159.492 364.11 158.729C365.405 152.43 366.716 146.253 368.058 140.025Z" fill="#394789"></path><path d="M441 207.187C438.915 217.244 436.703 227.276 434.629 237.334C430.087 237.314 425.544 237.319 421.002 237.334C418.678 237.363 416.353 236.817 414.278 235.78C410.528 233.44 409.653 228.707 410.085 224.617C410.139 220.576 411.388 216.699 412.169 212.766C413.207 207.728 414.396 202.571 417.203 198.177C419.386 194.628 423.215 192.116 427.363 191.634C429.571 191.502 431.783 191.566 433.99 191.699C434.506 191.905 435.037 192.081 435.572 192.239C438.026 193.212 440.148 195.257 440.798 197.867C441.648 200.895 441.279 204.1 441 207.187ZM481.321 145.33C481.537 144.347 481.592 143.271 481.065 142.371C480.466 140.508 478.239 140.194 476.563 140.046C469.661 139.987 455.463 140.002 454.954 140.002C454.822 142.18 450.918 160.819 449.444 167.558C449.153 168.576 449.002 169.873 447.949 170.404C446.033 171.019 444.14 170.045 442.405 169.323C440.335 168.364 438.01 168.364 435.789 168.128C429.689 168.33 423.559 169.077 417.769 171.092C412.111 173.162 406.807 176.214 402.299 180.22C395.88 185.844 391.25 193.276 388.167 201.185C386.192 206.651 385.149 212.382 383.964 218.054C382.48 225.143 382.333 232.546 384.225 239.575C385.552 244.014 387.917 248.113 391.117 251.466C396.249 256.263 403.101 259.021 410.056 259.626C412.514 260.216 415.051 259.876 417.547 259.955C432.884 259.955 448.225 259.955 463.567 259.955C466.133 259.955 467.764 257.453 468.314 255.059C469.307 250.94 470.127 247.02 471.013 242.643C471.272 241.361 471.336 240.098 470.615 238.917C470.025 238.05 469.411 237.378 468.187 237.378C465.99 237.378 463.866 237.353 461.708 237.309C463.286 230.049 464.868 222.784 466.378 215.504C471.367 192.116 476.376 168.728 481.321 145.33Z" fill="#394789"></path><path d="M504.305 171.596C515.454 167.875 527.354 168.022 538.969 168.15C541.924 168.445 544.913 168.13 547.856 168.558C549.036 168.74 549.965 169.708 550.531 170.706C550.973 171.959 550.806 173.355 550.496 174.624C549.587 178.414 548.923 182.262 547.955 186.037C547.906 186.283 547.812 186.77 547.764 187.016C546.667 189.233 544.525 191.16 541.934 191.135C534.875 191.14 527.816 191.115 520.768 191.307C517.43 191.651 513.939 191.489 510.862 193.042C508.709 194.271 507.51 196.871 508.066 199.304C508.479 200.755 509.974 201.256 511.187 201.851C514.353 202.583 517.577 203.025 520.827 202.981C523.388 203.63 526.052 203.207 528.617 203.782C531.891 204.205 535.096 205.002 538.242 205.99C539.063 206.328 539.899 206.648 540.729 206.983C542.056 207.651 543.383 208.334 544.627 209.16C547.699 211.322 550.408 214.233 551.661 217.835C553.697 223.779 552.752 230.257 550.924 236.126C550.683 236.952 550.417 237.773 550.162 238.594C548.092 243.126 545.63 247.668 541.678 250.838C538.95 253.257 535.721 255.021 532.368 256.408C526.282 258.639 519.838 259.578 513.414 259.971C500.948 259.932 488.482 259.961 476.012 259.961C473.937 259.961 473.543 259.629 472.655 258.379C472.189 257.724 471.658 257.253 472.192 255.016C474.687 244.569 475.827 237.827 477.615 229.48C477.787 228.673 478.724 228.562 479.448 228.562C484.378 228.562 489.318 228.596 494.253 228.596C496.358 228.596 497.04 228.797 497.517 229.013C498.4 229.414 499.139 230.183 499.439 231.157C500.112 233.182 499.09 235.227 499.051 237.267C505.46 237.242 511.885 237.503 518.28 236.888C521.279 236.947 524.415 235.566 525.663 232.685C525.703 231.521 525.707 230.361 525.683 229.196C524.503 227.042 522.163 226.079 520.026 225.17C515.242 224.118 510.307 224.196 505.5 223.242C502.103 222.687 498.746 221.861 495.473 220.795C490.91 219.153 486.221 216.784 483.542 212.571C481.611 209.76 480.928 206.25 480.947 202.897C481.36 199.132 482.304 195.441 483.533 191.862C486.28 184.346 491.624 177.671 498.844 174.049C499.085 173.925 499.567 173.685 499.803 173.562C501.282 172.854 502.782 172.205 504.305 171.596Z" fill="#394789"></path><path d="M567.158 167.572C566.936 169.518 566.753 171.558 565.376 173.018C563.399 175.336 559.751 176.17 557.05 174.668C555.72 173.924 555.003 172.359 555.155 170.796C555.322 169.079 555.805 166.952 556.459 166.065C557.638 164.465 559.076 163.615 561.276 163.287C563.57 162.945 567.505 164.537 567.158 167.572ZM561.311 161.497C558.46 161.922 556.596 163.024 555.068 165.097C554.221 166.248 553.593 169.004 553.378 171.229C553.181 173.256 554.11 175.284 555.835 176.248C559.335 178.195 564.064 177.113 566.625 174.109C568.409 172.217 568.647 169.574 568.935 167.051C569.384 163.117 564.284 161.053 561.311 161.497Z" fill="#394789"></path><path d="M560.176 168.733C560.685 168.733 560.938 168.733 561.448 168.733C561.695 168.74 561.939 168.692 562.172 168.604C562.413 168.514 562.569 168.306 562.616 167.984C562.65 167.745 562.591 167.55 562.447 167.432C562.29 167.305 561.97 167.243 561.514 167.243C561.06 167.243 560.832 167.243 560.377 167.243C560.294 167.839 560.254 168.136 560.176 168.733ZM558.397 165.461C560.145 165.461 561.02 165.461 562.769 165.461C563.442 165.461 563.993 165.639 564.416 165.994C564.839 166.35 565.023 166.896 564.938 167.601C564.89 167.994 564.751 168.383 564.524 168.722C564.297 169.061 563.548 169.475 563.548 169.475C563.547 169.528 564.421 170.402 564.412 171.358C564.411 171.445 564.405 171.567 564.396 171.706C564.386 171.843 564.377 172.003 564.365 172.163C564.339 172.5 564.371 172.783 564.441 172.99C563.542 172.99 563.092 172.99 562.194 172.99C562.141 172.601 562.13 172.207 562.161 171.812C562.176 171.625 562.179 171.438 562.171 171.255C562.163 171.088 562.132 170.93 562.081 170.789C562.03 170.65 561.941 170.535 561.813 170.454C561.685 170.374 561.499 170.335 561.26 170.335C560.745 170.335 560.488 170.335 559.973 170.335C559.844 171.388 559.782 171.917 559.659 172.99C558.761 172.99 558.312 172.99 557.414 172.99C557.744 169.92 557.867 168.462 558.397 165.461Z" fill="#394789"></path></svg>