<svg xmlns="http://www.w3.org/2000/svg" width="829" height="400" viewBox="0 0 829 400" fill="none"><rect width="829" height="400" fill="white"></rect><path d="M379.367 217.716C379.367 216.944 378.864 216.373 377.836 216.15V215.651C378.405 215.651 380.301 215.727 380.835 215.727C381.296 215.727 383.132 215.651 383.703 215.651V216.15C382.749 216.337 382.248 216.9 382.248 217.716V227.515C382.248 230.618 383.952 232.372 387.516 232.372C390.587 232.372 392.977 230.993 392.977 227.745V217.678C392.977 216.95 392.52 216.373 391.369 216.15V215.651C391.788 215.651 393.355 215.727 393.891 215.727C394.348 215.727 395.993 215.651 396.414 215.651V216.15C395.304 216.415 394.811 216.912 394.811 217.678V227.205C394.811 231.482 392.323 233.938 386.955 233.938C381.957 233.938 379.367 231.666 379.367 227.649V217.716Z" fill="#1D1D1B"></path><path d="M400.806 233.17C401.968 232.953 402.428 232.364 402.428 231.642V218.099C402.428 216.951 401.816 216.434 400.773 216.149V215.65C401.363 215.694 402.353 215.72 402.858 215.72C403.317 215.72 404.031 215.712 404.512 215.65L416.259 229.462V217.678C416.259 216.952 415.798 216.375 414.652 216.149V215.65C415.073 215.65 416.584 215.728 417.121 215.728C417.588 215.728 419.208 215.65 419.635 215.65V216.149C418.514 216.413 417.973 216.915 417.973 217.678V233.938H417.266C416.82 233.835 415.978 233.356 414.696 231.949L404.186 219.707V231.642C404.186 232.368 404.604 232.943 405.751 233.17V233.671C405.33 233.671 403.819 233.591 403.282 233.591C402.818 233.591 401.232 233.671 400.806 233.671V233.17Z" fill="#1D1D1B"></path><path d="M493.497 229.521H493.994C494.257 230.533 494.836 231.456 495.648 231.989C496.492 232.584 497.817 232.869 498.887 232.869C501.25 232.869 502.748 231.698 502.748 229.846C502.748 227.927 500.83 226.931 498.531 225.782C496.82 224.927 493.461 223.514 493.461 220.266C493.461 217.241 495.768 215.359 499.459 215.359C501.894 215.359 503.037 215.954 504.681 215.878L504.649 219.548H504.147C503.49 217.385 501.526 216.631 499.374 216.631C496.969 216.631 496.069 218.007 496.069 219.406C496.069 221.409 498.029 222.419 500.25 223.409C502.748 224.522 505.458 225.927 505.458 229.056C505.458 232.019 503.141 234.164 498.905 234.164C496.385 234.164 494.874 233.444 493.549 233.281L493.497 229.521Z" fill="#1D1D1B"></path><path d="M543.978 226.217L539.195 218.543C538.379 217.196 537.754 216.486 536.844 216.15V215.652C537.499 215.652 539.27 215.73 539.772 215.73C540.227 215.73 542.138 215.652 542.828 215.652V216.15C542.216 216.258 541.929 216.564 541.929 217.025C541.929 217.432 542.206 217.956 542.485 218.411C542.758 218.862 546.011 224.258 546.011 224.258L549.408 218.413C549.752 217.827 549.994 217.246 549.994 216.863C549.994 216.514 549.747 216.225 549.168 216.15V215.652C549.743 215.652 550.952 215.73 551.337 215.73C551.722 215.73 553.111 215.652 553.682 215.652V216.116C552.376 216.651 551.56 217.797 550.768 219.126L546.42 226.393M546.716 225.477V231.607C546.716 232.214 547.18 232.978 548.226 233.17V233.672C547.643 233.672 545.738 233.592 545.187 233.592C544.724 233.592 542.897 233.672 542.238 233.672V233.17C543.288 232.978 543.792 232.214 543.792 231.607V225.746" fill="#1D1D1B"></path><path d="M455.107 215.656H466.323C466.67 215.656 467.278 215.616 467.624 215.466H468.126L468.047 219.11H467.55C467.123 217.963 466.68 217.045 464.509 217.045H459.64V223.396H463.393C463.94 223.396 464.603 223.35 464.89 223.282C465.734 223.097 466.105 222.628 466.275 221.909H466.776C466.74 222.458 466.74 223.711 466.74 224.082C466.74 224.454 466.776 225.773 466.776 226.371H466.275C466.034 225.653 465.706 225.108 464.89 224.908C464.603 224.831 463.928 224.769 463.393 224.769H459.64V232.219H464.936C467.249 232.219 467.921 231.254 468.496 229.891L468.992 230.007L468.496 233.75C466.776 233.597 465.744 233.597 463.791 233.597H458.195C457.656 233.597 455.677 233.676 455.102 233.676V233.177C456.112 232.984 456.702 232.485 456.702 231.517V217.739C456.702 216.885 456.242 216.352 455.107 216.161V215.656Z" fill="#1D1D1B"></path><path d="M426.462 217.833C426.462 216.909 425.911 216.4 424.83 216.167V215.672C425.432 215.672 427.378 215.748 427.946 215.748C428.42 215.748 430.421 215.672 431.031 215.672V216.167C429.956 216.4 429.393 216.861 429.393 217.833V231.515C429.393 232.439 429.946 232.942 431.031 233.17V233.672C430.423 233.672 428.504 233.593 427.946 233.593C427.462 233.593 425.432 233.672 424.828 233.672V233.17C425.933 232.964 426.462 232.481 426.462 231.515V217.833Z" fill="#1D1D1B"></path><path d="M511.542 217.833C511.542 216.909 510.985 216.4 509.906 216.167V215.672C510.508 215.672 512.456 215.748 513.019 215.748C513.499 215.748 515.499 215.672 516.107 215.672V216.167C515.032 216.4 514.471 216.861 514.471 217.833V231.515C514.471 232.439 515.024 232.942 516.107 233.17V233.672C515.503 233.672 513.587 233.593 513.019 233.593C512.544 233.593 510.508 233.672 509.906 233.672V233.17C511.009 232.964 511.542 232.481 511.542 231.515V217.833Z" fill="#1D1D1B"></path><path d="M527.131 215.728C520.983 215.728 519.999 215.614 518.742 215.536L518.753 219.248H519.253C519.712 217.602 520.629 217.22 521.816 217.22H525.672V231.515C525.672 232.48 525.143 232.964 524.037 233.17V233.672C524.644 233.672 526.692 233.593 527.166 233.593C527.729 233.593 529.654 233.672 530.253 233.672V233.17C529.166 232.942 528.615 232.439 528.615 231.515V217.22H532.441C533.672 217.22 534.553 217.639 535.011 219.248H535.507L535.515 215.536C534.266 215.614 533.282 215.728 527.131 215.728Z" fill="#1D1D1B"></path><path d="M478.073 231.517C478.073 232.441 478.661 232.942 479.745 233.172V233.674C479.144 233.674 477.177 233.595 476.616 233.595C476.135 233.595 474.215 233.674 473.609 233.674V233.172C474.616 232.98 475.209 232.483 475.209 231.517V217.695C475.209 216.845 474.746 216.31 473.613 216.117V215.62C474.215 215.62 476.117 215.696 476.654 215.696C477.535 215.696 480.036 215.548 481.02 215.548C485.33 215.548 487.73 217.33 487.73 220.385C487.73 222.786 485.943 224.41 483.193 225.074C483.193 225.074 483.821 225.438 484.446 226.166C485.206 227.062 487.258 230.007 488.11 231.037C488.96 232.07 490.049 233.222 491.215 233.275V233.677C490.656 233.8 489.76 233.906 489.074 233.906C487.611 233.906 486.443 233.389 485.308 232.016C484.326 230.821 482.66 228.342 481.679 227.088C481.052 226.291 480.292 225.667 478.901 225.438C478.632 225.393 478.378 225.354 478.073 225.319V231.517ZM478.073 224.172C478.647 224.25 479.491 224.286 480.325 224.286C483.699 224.286 484.761 222.345 484.761 220.628C484.761 218.198 483.139 216.693 480.186 216.693C479.575 216.693 478.689 216.769 478.073 216.885V224.172Z" fill="#1D1D1B"></path><path d="M435.353 217.89C434.96 217.02 434.357 216.383 433.328 216.157V215.649C433.967 215.649 436.183 215.729 436.669 215.729C437.117 215.729 439.053 215.649 439.711 215.649V216.142C439.127 216.254 438.462 216.577 438.462 217.175C438.462 217.601 438.72 218.183 439.216 219.278L443.858 229.841L448.252 219.26C448.599 218.406 448.85 217.744 448.85 217.239C448.85 216.68 448.335 216.292 447.604 216.142V215.649C448.188 215.649 449.62 215.729 450.064 215.729C450.471 215.729 452.151 215.649 452.793 215.649V216.157C451.696 216.453 451.028 217.057 450.413 218.486L443.946 233.734H442.483L435.353 217.89Z" fill="#1D1D1B"></path><path d="M451.93 169.805C451.183 168.155 450.036 166.952 448.094 166.521V165.561C449.302 165.561 453.316 165.705 454.238 165.705C455.088 165.705 458.975 165.561 460.213 165.561V166.497C459.115 166.712 457.852 167.325 457.852 168.458C457.852 169.257 458.349 170.362 459.271 172.433L468.077 192.453L476.41 172.399C477.06 170.775 477.545 169.534 477.545 168.574C477.545 167.507 476.559 166.784 475.178 166.497V165.561C476.28 165.561 478.96 165.705 479.812 165.705C480.586 165.705 483.769 165.561 484.98 165.561V166.467C482.904 167.031 481.633 168.223 480.476 170.931L468.226 199.836H465.454L451.93 169.805Z" fill="#1D1D1B"></path><path d="M333.352 198.734C334.951 198.369 336.076 197.641 336.076 195.829V169.33C336.076 167.59 335.029 166.868 333.352 166.432V165.491C334.192 165.491 337.81 165.634 338.69 165.634C339.704 165.634 343.497 165.491 344.331 165.491V166.432C342.733 166.794 341.548 167.52 341.548 169.33V180.4H361.29V169.33C361.29 167.52 360.237 166.794 358.569 166.432V165.491C359.403 165.491 363.128 165.634 364.14 165.634C365.014 165.634 368.717 165.491 369.542 165.491V166.432C367.943 166.794 366.758 167.52 366.758 169.33V195.829C366.758 197.569 367.87 198.299 369.542 198.734V199.602C368.717 199.602 365.014 199.53 364.14 199.53C363.128 199.53 359.403 199.602 358.569 199.602V198.734C360.157 198.369 361.29 197.641 361.29 195.829V183.306H341.548V195.829C341.548 197.641 342.659 198.299 344.331 198.734V199.602C343.497 199.602 339.704 199.53 338.69 199.53C337.81 199.53 334.192 199.602 333.352 199.602V198.734Z" fill="#1D1D1B"></path><path d="M561.695 198.732C563.744 198.367 564.873 197.553 564.873 195.683V169.328C564.873 167.512 563.76 166.792 561.78 166.43V165.489C562.92 165.489 566.633 165.632 567.661 165.632C569.321 165.632 573.951 165.269 577.556 165.269C589.7 165.269 597.072 172.051 597.072 182.362C597.072 192.385 589.401 199.812 576.88 199.812C573.27 199.812 568.988 199.528 567.312 199.528C566.294 199.528 562.832 199.672 561.695 199.672V198.732ZM570.341 196.986C571.578 197.21 573.863 197.351 575.665 197.351C585.867 197.351 591.177 191.211 591.177 182.647C591.177 173.769 585.574 167.522 576.036 167.522C574.087 167.522 571.652 167.668 570.341 167.881V196.986Z" fill="#1D1D1B"></path><path d="M424.238 195.586C424.238 197.342 425.351 198.296 427.397 198.731V199.671C426.257 199.671 422.542 199.527 421.474 199.527C420.572 199.527 416.927 199.671 415.789 199.671V198.731C417.689 198.366 418.81 197.42 418.81 195.586V169.42C418.81 167.81 417.94 166.792 415.793 166.429V165.488C416.934 165.488 420.534 165.631 421.544 165.631C423.214 165.631 427.949 165.353 429.817 165.353C437.984 165.353 442.53 168.73 442.53 174.507C442.53 179.062 439.139 182.127 433.933 183.392C433.933 183.392 435.113 184.08 436.302 185.464C437.743 187.158 441.721 192.852 443.328 194.802C444.936 196.755 446.998 198.935 449.204 199.036V199.804C448.147 200.032 446.455 200.227 445.162 200.227C442.378 200.227 440.167 199.252 438.016 196.646C436.162 194.385 432.918 189.578 431.06 187.205C429.873 185.693 428.442 184.515 425.814 184.08C425.297 183.991 424.81 183.923 424.238 183.859V195.586ZM424.238 181.688C425.319 181.83 426.916 181.902 428.5 181.902C434.887 181.902 436.893 178.226 436.893 174.978C436.893 170.366 433.822 167.521 428.227 167.521C427.075 167.521 425.395 167.668 424.238 167.88V181.688Z" fill="#1D1D1B"></path><path d="M531.875 195.586C531.875 197.342 532.992 198.296 535.041 198.731V199.671C533.902 199.671 530.191 199.527 529.123 199.527C528.205 199.527 524.573 199.671 523.43 199.671V198.731C525.326 198.366 526.449 197.42 526.449 195.586V169.42C526.449 167.81 525.571 166.792 523.436 166.429V165.488C524.581 165.488 528.169 165.631 529.187 165.631C530.861 165.631 535.593 165.353 537.45 165.353C545.631 165.353 550.163 168.73 550.163 174.507C550.163 179.062 546.78 182.127 541.57 183.392C541.57 183.392 542.756 184.08 543.935 185.464C545.39 187.158 549.367 192.852 550.969 194.802C552.583 196.755 554.645 198.935 556.838 199.036V199.804C555.796 200.032 554.095 200.227 552.815 200.227C550.025 200.227 547.804 199.252 545.659 196.646C543.804 194.385 540.571 189.578 538.697 187.205C537.51 185.693 536.083 184.515 533.461 184.08C532.936 183.991 532.454 183.923 531.875 183.859V195.586ZM531.875 181.688C532.97 181.83 534.557 181.902 536.143 181.902C542.532 181.902 544.533 178.226 544.533 174.978C544.533 170.366 541.459 167.521 535.875 167.521C534.712 167.521 533.04 167.668 531.875 167.88V181.688Z" fill="#1D1D1B"></path><path d="M374.736 198.725C376.897 198.22 378.084 196.821 378.872 194.949L389.805 168.642C390.27 167.554 390.811 165.317 390.811 165.317H393.87C393.87 165.317 394.417 167.56 394.872 168.651L406.427 195.021C407.251 196.837 408.143 198.148 410.44 198.725L410.434 199.602C409.183 199.602 405.294 199.529 404.41 199.529C403.53 199.529 399.816 199.602 398.567 199.602L398.571 198.725C400.253 198.313 400.784 197.457 400.784 196.629C400.784 195.925 400.493 195.131 400.141 194.307L397.657 188.642H384.925L382.651 194.339C382.396 194.985 382.093 195.897 382.093 196.512C382.093 197.463 382.59 198.22 384.499 198.725L384.494 199.602C383.364 199.602 380.379 199.529 379.68 199.529L374.734 199.602L374.736 198.725ZM396.504 185.956L391.068 173.289L386.004 185.956H396.504Z" fill="#1D1D1B"></path><path d="M483.051 198.725C485.21 198.22 486.401 196.821 487.185 194.949L498.121 168.642C498.587 167.554 499.134 165.317 499.134 165.317H502.193C502.193 165.317 502.734 167.56 503.188 168.651L514.746 195.021C515.563 196.837 516.464 198.148 518.751 198.725L518.747 199.602C517.5 199.602 513.607 199.529 512.717 199.529C511.845 199.529 508.133 199.602 506.882 199.602V198.725C508.574 198.313 509.097 197.457 509.097 196.629C509.097 195.925 508.81 195.131 508.464 194.307L505.97 188.642H493.238L490.961 194.339C490.707 194.985 490.406 195.897 490.406 196.512C490.406 197.463 490.903 198.22 492.811 198.725V199.602C491.677 199.602 488.696 199.529 487.993 199.529L483.047 199.602L483.051 198.725ZM504.819 185.956L499.379 173.289L494.319 185.956H504.819Z" fill="#1D1D1B"></path><path d="M232.414 154.854H308.645V183.65C308.645 196.844 303.734 224.824 270.814 245.648C270.814 245.648 235.144 230.752 232.414 183.65V154.854Z" fill="#A81D28"></path><path d="M232.258 154.777H308.563V183.593C308.563 196.791 303.646 224.787 270.696 245.625C270.696 245.625 234.992 230.719 232.258 183.593V154.777Z" stroke="#12110C" stroke-width="0.306667"></path><path d="M290.109 191.859C290.109 191.859 289.43 194.026 286.407 191.799L276.029 191.548C276.029 191.548 274.67 191.986 274.485 190.564C274.485 190.564 274.734 187.724 274.608 187.475C274.608 187.475 274.67 186.673 273.307 186.673C273.307 186.673 271.21 186.92 271.148 185.064C271.148 185.064 270.781 183.087 273.682 183.153C273.682 183.153 274.608 183.584 274.67 182.408C274.67 182.408 274.548 174.375 274.608 173.762C274.608 173.762 274.856 173.024 273.433 172.898C273.433 172.898 271.397 173.329 271.148 171.974C271.148 171.974 271.026 169.935 272.387 169.809C272.387 169.809 274.053 169.935 274.361 169.5C274.361 169.5 274.734 169.744 274.67 168.269L274.734 165.731C274.734 165.731 274.913 165.054 275.965 165.12C275.965 165.12 277.881 165.242 278.132 165.054C278.132 165.054 278.559 164.501 278.685 164.25C278.685 164.25 279.675 164.19 279.858 164.438C279.858 164.438 281.341 165.427 286.962 165.054C286.962 165.054 287.828 165.054 288.008 165.303C288.008 165.303 289.063 166.104 289.678 165.242C289.678 165.242 290.605 165.054 293.383 165.12C293.383 165.12 296.414 165.92 298.509 164.19L299.19 164.314C299.19 164.314 300.054 165.731 300.672 165.303C300.672 165.303 302.526 165.12 302.832 165.489C302.832 165.489 303.448 166.409 303.141 168.826C303.141 168.826 302.775 169.873 304.565 169.873C304.565 169.873 306.606 169.5 306.354 171.414C306.354 171.414 306.91 173.577 303.516 173.271C303.516 173.271 303.081 173.888 303.141 174.321C303.141 174.321 303.081 181.359 303.019 182.167C303.019 182.167 302.959 183.28 304.438 183.215C304.438 183.215 306.417 183.087 306.483 184.881C306.483 184.881 306.728 187.229 303.883 186.794C303.883 186.794 303.019 186.92 302.891 187.475L302.775 190.564C302.775 190.564 302.832 192.108 301.107 191.735C300.86 191.735 291.472 191.926 290.667 191.679C290.667 191.679 290.23 191.617 290.109 191.859Z" fill="white"></path><path d="M270.165 202.181C270.165 202.181 270.598 201.999 270.72 201.694C270.72 201.694 272.019 201.567 272.201 201.383L276.281 201.694C276.281 201.694 280.294 201.999 282.024 200.758C282.024 200.758 282.645 200.758 283.078 200.946C283.078 200.946 283.938 201.135 284.185 201.5L286.534 201.438C286.534 201.438 287.893 201.874 287.767 202.74V203.849C287.767 203.849 287.519 206.074 288.136 206.2H289.932C289.932 206.2 291.416 206.878 291.229 207.742C291.229 207.742 291.291 208.973 289.996 209.223C289.996 209.223 288.693 209.592 288.266 209.534C288.266 209.534 287.831 210.087 287.767 210.767L287.587 218.859C287.587 218.859 287.46 219.724 288.759 219.601C288.759 219.601 290.67 219.415 291.229 220.469C291.229 220.469 291.724 222.257 290.736 222.566L289.996 222.933L288.386 223.19C288.386 223.19 287.711 223.246 287.647 224.418V226.577C287.647 226.577 287.711 228.065 286.534 228.065L284.804 228.189C284.804 228.189 284.373 228.554 283.509 228.307C283.509 228.307 273.007 228.497 272.636 228.372L271.4 228.622C271.4 228.622 270.042 229.857 268.93 228.926L268.066 228.247C268.066 228.247 267.446 228.372 267.204 228.307C266.956 228.247 255.589 228.433 255.589 228.433C255.589 228.433 253.18 228.684 252.997 227.876C252.997 227.876 252.689 224.729 252.811 224.352C252.811 224.352 252.811 223.43 252.256 223.37C252.256 223.37 249.846 223.246 249.784 222.995C249.784 222.995 248.485 222.073 248.856 221.148C248.856 221.148 249.291 219.908 250.586 219.785C250.586 219.785 252.562 220.098 252.562 219.541C252.562 219.541 252.689 219.17 252.689 218.555C252.689 218.555 252.811 211.2 252.749 210.707C252.749 210.707 252.933 209.781 252.129 209.781C252.129 209.781 251.265 210.025 250.712 209.657C250.712 209.657 249.228 209.719 248.92 208.544C248.92 208.544 248.671 207.804 249.04 207.181C249.04 207.181 249.722 205.824 251.698 206.258C251.698 206.258 252.811 206.569 252.933 205.769L252.875 202.798C252.875 202.798 252.624 201.999 254.17 201.567C254.17 201.567 256.146 202.121 256.762 201.135C256.762 201.135 257.443 199.771 257.993 200.698C257.993 200.698 259.171 201.813 262.383 201.694C262.383 201.694 267.944 201.257 268.066 201.5C268.066 201.5 269.425 201.694 269.794 202.121L270.165 202.181Z" fill="white"></path><path d="M253.368 191.86C253.368 191.86 252.686 194.027 249.66 191.798L239.283 191.549C239.283 191.549 237.925 191.986 237.738 190.563C237.738 190.563 237.987 187.724 237.858 187.476C237.858 187.476 237.925 186.67 236.563 186.67C236.563 186.67 234.467 186.922 234.406 185.068C234.406 185.068 234.033 183.086 236.936 183.154C236.936 183.154 237.858 183.585 237.925 182.41C237.925 182.41 237.8 174.382 237.858 173.761C237.858 173.761 238.111 173.027 236.69 172.9C236.69 172.9 234.649 173.329 234.406 171.97C234.406 171.97 234.28 169.936 235.637 169.809C235.637 169.809 237.305 169.936 237.616 169.508C237.616 169.508 237.987 169.747 237.925 168.263L237.987 165.734C237.987 165.734 238.173 165.054 239.217 165.116C239.217 165.116 241.138 165.239 241.386 165.054C241.386 165.054 241.817 164.501 241.936 164.25C241.936 164.25 242.93 164.192 243.114 164.433C243.114 164.433 244.593 165.427 250.22 165.054C250.22 165.054 251.08 165.054 251.267 165.303C251.267 165.303 252.315 166.104 252.933 165.239C252.933 165.239 253.859 165.054 256.641 165.116C256.641 165.116 259.662 165.918 261.765 164.192L262.443 164.319C262.443 164.319 263.307 165.734 263.93 165.303C263.93 165.303 265.78 165.116 266.091 165.489C266.091 165.489 266.71 166.415 266.396 168.827C266.396 168.827 266.029 169.875 267.819 169.875C267.819 169.875 269.855 169.508 269.611 171.415C269.611 171.415 270.168 173.578 266.771 173.271C266.771 173.271 266.336 173.89 266.396 174.322C266.396 174.322 266.336 181.36 266.275 182.168C266.275 182.168 266.215 183.272 267.697 183.216C267.697 183.216 269.673 183.086 269.733 184.884C269.733 184.884 269.98 187.229 267.141 186.794C267.141 186.794 266.275 186.922 266.149 187.476L266.029 190.563C266.029 190.563 266.091 192.108 264.357 191.74C264.11 191.74 254.727 191.922 253.921 191.68C253.921 191.68 253.49 191.617 253.368 191.86Z" fill="white"></path><path d="M290.109 191.859C290.109 191.859 289.43 194.026 286.407 191.799L276.029 191.548C276.029 191.548 274.67 191.986 274.485 190.564C274.485 190.564 274.734 187.724 274.608 187.475C274.608 187.475 274.67 186.673 273.307 186.673C273.307 186.673 271.21 186.92 271.148 185.064C271.148 185.064 270.781 183.087 273.682 183.153C273.682 183.153 274.608 183.584 274.67 182.408C274.67 182.408 274.548 174.375 274.608 173.762C274.608 173.762 274.856 173.024 273.433 172.898C273.433 172.898 271.397 173.329 271.148 171.974C271.148 171.974 271.026 169.935 272.387 169.809C272.387 169.809 274.053 169.935 274.361 169.5C274.361 169.5 274.734 169.744 274.67 168.269L274.734 165.731C274.734 165.731 274.913 165.054 275.965 165.12C275.965 165.12 277.881 165.242 278.132 165.054C278.132 165.054 278.559 164.501 278.685 164.25C278.685 164.25 279.675 164.19 279.858 164.438C279.858 164.438 281.341 165.427 286.962 165.054C286.962 165.054 287.828 165.054 288.008 165.303C288.008 165.303 289.063 166.104 289.678 165.242C289.678 165.242 290.605 165.054 293.383 165.12C293.383 165.12 296.414 165.92 298.509 164.19L299.19 164.314C299.19 164.314 300.054 165.731 300.672 165.303C300.672 165.303 302.526 165.12 302.832 165.489C302.832 165.489 303.448 166.409 303.141 168.826C303.141 168.826 302.775 169.873 304.565 169.873C304.565 169.873 306.606 169.5 306.354 171.414C306.354 171.414 306.91 173.577 303.516 173.271C303.516 173.271 303.081 173.888 303.141 174.321C303.141 174.321 303.081 181.359 303.019 182.167C303.019 182.167 302.959 183.28 304.438 183.215C304.438 183.215 306.417 183.087 306.483 184.881C306.483 184.881 306.728 187.229 303.883 186.794C303.883 186.794 303.019 186.92 302.891 187.475L302.775 190.564C302.775 190.564 302.832 192.108 301.107 191.735C300.86 191.735 291.472 191.926 290.667 191.679C290.667 191.679 290.23 191.617 290.109 191.859Z" fill="#12110C"></path><path d="M290.111 191.859C290.111 191.859 289.431 194.026 286.409 191.799L276.029 191.548C276.029 191.548 274.67 191.985 274.485 190.562C274.485 190.562 274.736 187.722 274.608 187.473C274.608 187.473 274.67 186.671 273.309 186.671C273.309 186.671 271.21 186.92 271.148 185.063C271.148 185.063 270.781 183.087 273.681 183.151C273.681 183.151 274.608 183.582 274.67 182.408C274.67 182.408 274.548 174.375 274.608 173.76C274.608 173.76 274.858 173.02 273.435 172.896C273.435 172.896 271.396 173.327 271.148 171.972C271.148 171.972 271.027 169.931 272.386 169.807C272.386 169.807 274.052 169.931 274.361 169.498C274.361 169.498 274.736 169.742 274.67 168.265L274.736 165.727C274.736 165.727 274.912 165.05 275.969 165.116C275.969 165.116 277.883 165.238 278.132 165.05C278.132 165.05 278.559 164.499 278.687 164.248C278.687 164.248 279.676 164.186 279.86 164.435C279.86 164.435 281.341 165.423 286.964 165.05C286.964 165.05 287.83 165.05 288.01 165.298C288.01 165.298 289.065 166.1 289.68 165.238C289.68 165.238 290.607 165.05 293.385 165.116C293.385 165.116 296.416 165.916 298.512 164.186L299.194 164.308C299.194 164.308 300.058 165.727 300.674 165.298C300.674 165.298 302.528 165.116 302.834 165.482C302.834 165.482 303.452 166.407 303.145 168.82C303.145 168.82 302.777 169.871 304.568 169.871C304.568 169.871 306.607 169.498 306.356 171.41C306.356 171.41 306.912 173.575 303.518 173.267C303.518 173.267 303.085 173.884 303.145 174.319C303.145 174.319 303.085 181.357 303.023 182.163C303.023 182.163 302.961 183.275 304.442 183.215C304.442 183.215 306.423 183.087 306.487 184.879C306.487 184.879 306.73 187.226 303.887 186.791C303.887 186.791 303.023 186.92 302.895 187.473L302.777 190.562C302.777 190.562 302.834 192.108 301.111 191.735C300.864 191.735 291.474 191.924 290.669 191.677C290.669 191.677 290.232 191.617 290.111 191.859Z" stroke="#12110C" stroke-width="0.0133333"></path><path d="M278.441 166.409C278.441 166.409 278.563 167.646 278.563 167.958C278.563 168.265 278.381 185.805 278.381 185.805C278.381 185.805 278.563 187.164 277.394 187.846C277.394 187.846 277.082 187.966 277.023 187.102L277.144 168.578C277.144 168.578 277.268 166.286 278.441 166.409" fill="white"></path><path d="M278.439 166.407C278.439 166.407 278.559 167.644 278.559 167.956C278.559 168.265 278.379 185.807 278.379 185.807C278.379 185.807 278.559 187.166 277.391 187.846C277.391 187.846 277.078 187.968 277.016 187.104L277.14 168.576C277.14 168.576 277.262 166.284 278.439 166.407V166.407Z" stroke="#12110C" stroke-width="0.016"></path><path d="M276.406 188.028C276.406 188.028 276.528 170.61 276.47 170.301C276.406 169.997 276.528 170.554 276.528 170.554C276.528 170.554 276.344 167.523 277.148 166.284C277.148 166.284 276.897 165.24 275.478 166.535L275.416 169.064C275.416 169.064 275.416 170.488 274.121 170.425C274.121 170.425 272.637 170.361 271.958 171.041C271.958 171.041 271.587 172.402 273.006 172.157C273.006 172.157 275.231 172.157 275.356 173.077L275.231 182.407C275.231 182.407 275.726 183.958 273.999 183.958C273.999 183.958 271.892 183.826 271.958 185.123C271.958 185.123 272.393 186.234 274.183 185.867C274.183 185.867 275.478 186.109 275.416 187.35V189.696C275.416 189.696 275.291 190.628 276.528 190.686H286.164C286.164 190.686 286.655 190.746 286.655 190.128C286.655 190.128 286.595 189.636 285.855 189.636L277.827 189.511C277.827 189.511 276.528 189.946 276.406 188.028Z" fill="white"></path><path d="M278.257 187.996C278.257 187.996 278.008 188.86 278.934 188.68H285.297L287.023 189.055C287.023 189.055 288.813 188.618 287.023 187.631C287.023 187.631 281.342 187.688 280.849 187.567C280.849 187.567 279.674 187.26 279.421 187.199C279.421 187.199 278.81 186.952 278.257 187.996Z" fill="white"></path><path d="M278.257 188.002C278.257 188.002 278.008 188.868 278.934 188.688H285.299L287.025 189.062C287.025 189.062 288.817 188.624 287.025 187.635C287.025 187.635 281.344 187.691 280.849 187.573C280.849 187.573 279.674 187.265 279.424 187.202C279.424 187.202 278.81 186.956 278.257 188.002Z" stroke="#12110C" stroke-width="0.016"></path><path d="M288.818 188.87C288.818 188.87 287.645 188.87 287.705 190.417C287.705 190.417 287.829 191.586 289.064 191.586C289.064 191.586 290.173 191.404 290.055 190.169C290.055 190.169 289.373 188.625 288.818 188.87" fill="white"></path><path d="M289.685 188.253C289.685 188.253 290.24 187.637 290.613 187.637C290.613 187.637 296.79 188.19 297.832 187.451C297.832 187.451 298.764 187.266 299.012 187.451C299.012 187.451 299.937 188.19 299.937 188.624C299.937 188.624 299.877 189.182 298.764 188.866C298.764 188.866 291.784 188.934 291.413 188.934C291.413 188.934 289.495 189.363 289.685 188.253" fill="white"></path><path d="M289.677 188.251C289.677 188.251 290.233 187.633 290.605 187.633C290.605 187.633 296.784 188.187 297.828 187.447C297.828 187.447 298.76 187.262 299.009 187.447C299.009 187.447 299.933 188.187 299.933 188.624C299.933 188.624 299.873 189.183 298.76 188.866C298.76 188.866 291.776 188.934 291.405 188.934C291.405 188.934 289.487 189.363 289.677 188.251V188.251Z" stroke="#12110C" stroke-width="0.016"></path><path d="M290.484 190.256C290.484 190.256 290.484 189.756 291.35 189.756L299.994 189.697C299.994 189.697 300.8 190.13 300.8 188.65C300.8 188.65 301.117 181.917 301.145 174.504C301.155 172.297 301.255 169.982 301.177 167.836C301.177 167.836 300.984 166.908 300.736 166.72C300.736 166.72 300.736 165.734 301.788 166.105C301.788 166.105 302.714 166.167 302.468 167.592L302.532 169.745C302.532 169.745 302.346 170.677 304.009 170.427C304.009 170.427 305.675 170.677 305.741 171.29C305.741 171.29 306.235 172.531 304.262 172.405H302.835C302.835 172.405 302.219 172.774 302.404 173.518L302.219 182.476C302.219 182.476 302.095 184.017 303.578 183.959C303.578 183.959 305.12 183.895 305.43 184.391C305.43 184.391 306.487 185.934 304.198 185.81C304.198 185.81 302.777 185.745 302.468 185.996C302.468 185.996 302.219 186.303 302.035 189.209C302.035 189.209 302.161 190.939 300.862 190.749C300.862 190.749 292.275 190.871 291.473 190.689C291.473 190.689 290.609 190.939 290.484 190.256" fill="white"></path><path d="M279.367 165.847L279.18 185.681C279.18 185.681 279.12 186.601 280.664 186.787C280.664 186.787 282.454 186.972 282.883 186.787C282.883 186.787 284.064 186.723 287.084 186.849C287.084 186.849 287.83 187.597 287.892 186.663C287.892 186.663 288.381 170.61 288.141 167.267C288.141 167.267 288.073 165.847 287.026 165.785C287.026 165.785 282.331 166.164 281.899 165.785L280.044 165.296C280.044 165.296 279.303 165.356 279.367 165.847Z" fill="white"></path><path d="M289.128 166.841C289.128 166.841 288.944 176.168 289.006 176.477L288.883 184.319L288.633 187.039C288.633 187.039 289.006 187.594 289.315 187.225C289.315 187.225 291.291 186.724 292.526 186.919C292.526 186.919 296.483 187.285 297.283 186.664C297.283 186.664 297.902 186.973 298.083 185.984C298.083 185.984 298.327 168.695 298.213 168.386C298.213 168.386 298.451 165.908 298.327 165.668C298.327 165.668 298.273 165.112 297.221 165.604C297.221 165.604 297.341 166.101 291.477 165.908C291.477 165.908 289.254 165.848 289.128 166.841Z" fill="white"></path><path d="M298.951 166.598L298.891 186.113C298.891 186.113 299.384 187.848 300.186 187.666C300.186 187.666 300.306 187.291 300.366 186.674L300.616 168.079C300.616 168.079 299.995 165.121 298.951 166.598Z" fill="white"></path><path d="M298.951 166.594L298.891 186.113C298.891 186.113 299.386 187.849 300.187 187.666C300.187 187.666 300.31 187.291 300.37 186.674L300.618 168.075C300.618 168.075 299.997 165.116 298.951 166.594Z" stroke="#12110C" stroke-width="0.016"></path><path d="M291.362 172.439C291.177 171.946 292.412 171.884 292.412 171.884L293.032 172.006C293.465 171.946 293.898 172.132 293.898 172.132C294.329 172.81 293.587 173.179 293.587 173.179L293.34 173.984C293.276 174.666 293.34 180.533 293.34 180.533C293.465 180.838 293.958 181.392 293.958 181.392C293.958 181.951 293.276 181.828 293.276 181.828L291.488 181.891C290.931 181.828 291.115 181.209 291.115 181.209C291.733 180.9 291.919 179.786 291.919 179.786V173.674L291.362 172.439Z" fill="#12110C"></path><path d="M283.029 178.184L282.907 180.098L283.458 181.023C283.833 181.516 283.214 181.891 283.214 181.891L281.237 181.706C280.87 181.516 281.237 180.9 281.237 180.9C281.733 180.596 281.794 179.788 281.794 179.788L281.733 176.206L281.794 173.612C281.794 173.301 281.301 172.749 281.301 172.749C280.87 172.687 280.993 172.132 280.993 172.132C281.115 171.821 282.161 172.006 282.161 172.006H284.759C287.231 172.81 286.86 174.601 286.86 174.601C287.047 176.39 285.132 177.135 285.132 177.135L285.004 178.124L286.798 180.96C287.107 181.209 287.047 181.459 287.047 181.459C286.798 182.139 285.808 181.459 285.808 181.459L283.587 177.998C283.4 177.749 283.029 178.184 283.029 178.184ZM283.092 173.301C283.152 174.664 283.152 176.516 283.152 176.516C284.328 177.444 285.004 176.143 285.004 176.143C286.545 174.664 285.004 173.301 284.759 172.934C284.509 172.561 283.274 172.87 283.274 172.87L283.092 173.301Z" fill="#12110C"></path><path d="M270.165 202.181C270.165 202.181 270.598 201.999 270.72 201.694C270.72 201.694 272.019 201.567 272.201 201.383L276.281 201.694C276.281 201.694 280.294 201.999 282.024 200.758C282.024 200.758 282.645 200.758 283.078 200.946C283.078 200.946 283.938 201.135 284.185 201.5L286.534 201.438C286.534 201.438 287.893 201.874 287.767 202.74V203.849C287.767 203.849 287.519 206.074 288.136 206.2H289.932C289.932 206.2 291.416 206.878 291.229 207.742C291.229 207.742 291.291 208.973 289.996 209.223C289.996 209.223 288.693 209.592 288.266 209.534C288.266 209.534 287.831 210.087 287.767 210.767L287.587 218.859C287.587 218.859 287.46 219.724 288.759 219.601C288.759 219.601 290.67 219.415 291.229 220.469C291.229 220.469 291.724 222.257 290.736 222.566L289.996 222.933L288.386 223.19C288.386 223.19 287.711 223.246 287.647 224.418V226.577C287.647 226.577 287.711 228.065 286.534 228.065L284.804 228.189C284.804 228.189 284.373 228.554 283.509 228.307C283.509 228.307 273.007 228.497 272.636 228.372L271.4 228.622C271.4 228.622 270.042 229.857 268.93 228.926L268.066 228.247C268.066 228.247 267.446 228.372 267.204 228.307C266.956 228.247 255.589 228.433 255.589 228.433C255.589 228.433 253.18 228.684 252.997 227.876C252.997 227.876 252.689 224.729 252.811 224.352C252.811 224.352 252.811 223.43 252.256 223.37C252.256 223.37 249.846 223.246 249.784 222.995C249.784 222.995 248.485 222.073 248.856 221.148C248.856 221.148 249.291 219.908 250.586 219.785C250.586 219.785 252.562 220.098 252.562 219.541C252.562 219.541 252.689 219.17 252.689 218.555C252.689 218.555 252.811 211.2 252.749 210.707C252.749 210.707 252.933 209.781 252.129 209.781C252.129 209.781 251.265 210.025 250.712 209.657C250.712 209.657 249.228 209.719 248.92 208.544C248.92 208.544 248.671 207.804 249.04 207.181C249.04 207.181 249.722 205.824 251.698 206.258C251.698 206.258 252.811 206.569 252.933 205.769L252.875 202.798C252.875 202.798 252.624 201.999 254.17 201.567C254.17 201.567 256.146 202.121 256.762 201.135C256.762 201.135 257.443 199.771 257.993 200.698C257.993 200.698 259.171 201.813 262.383 201.694C262.383 201.694 267.944 201.257 268.066 201.5C268.066 201.5 269.425 201.694 269.794 202.121L270.165 202.181Z" fill="#12110C"></path><path d="M270.159 202.102C270.159 202.102 270.588 201.922 270.714 201.613C270.714 201.613 272.011 201.487 272.195 201.302L276.273 201.613C276.273 201.613 280.288 201.922 282.018 200.681C282.018 200.681 282.64 200.681 283.072 200.87C283.072 200.87 283.935 201.056 284.177 201.421L286.53 201.36C286.53 201.36 287.888 201.798 287.761 202.661V203.772C287.761 203.772 287.515 205.997 288.132 206.12H289.926C289.926 206.12 291.408 206.801 291.225 207.665C291.225 207.665 291.287 208.896 289.991 209.147C289.991 209.147 288.69 209.515 288.263 209.455C288.263 209.455 287.828 210.01 287.761 210.69L287.579 218.785C287.579 218.785 287.455 219.645 288.752 219.524C288.752 219.524 290.664 219.342 291.225 220.39C291.225 220.39 291.721 222.18 290.732 222.491L289.991 222.86L288.381 223.111C288.381 223.111 287.703 223.171 287.643 224.339V226.507C287.643 226.507 287.703 227.988 286.53 227.988L284.8 228.112C284.8 228.112 284.367 228.481 283.504 228.235C283.504 228.235 273.001 228.421 272.63 228.293L271.392 228.543C271.392 228.543 270.036 229.78 268.924 228.848L268.058 228.168C268.058 228.168 267.441 228.293 267.196 228.235C266.948 228.168 255.583 228.359 255.583 228.359C255.583 228.359 253.172 228.607 252.988 227.801C252.988 227.801 252.681 224.65 252.803 224.277C252.803 224.277 252.803 223.355 252.246 223.293C252.246 223.293 249.839 223.171 249.774 222.922C249.774 222.922 248.477 221.994 248.848 221.07C248.848 221.07 249.283 219.831 250.58 219.706C250.58 219.706 252.555 220.024 252.555 219.46C252.555 219.46 252.681 219.091 252.681 218.478C252.681 218.478 252.803 211.123 252.743 210.63C252.743 210.63 252.927 209.7 252.121 209.7C252.121 209.7 251.258 209.946 250.702 209.579C250.702 209.579 249.221 209.64 248.912 208.467C248.912 208.467 248.662 207.727 249.034 207.106C249.034 207.106 249.712 205.746 251.691 206.18C251.691 206.18 252.803 206.492 252.927 205.691L252.865 202.722C252.865 202.722 252.617 201.922 254.162 201.487C254.162 201.487 256.139 202.044 256.756 201.056C256.756 201.056 257.434 199.695 257.987 200.617C257.987 200.617 259.166 201.732 262.375 201.613C262.375 201.613 267.938 201.176 268.058 201.421C268.058 201.421 269.419 201.613 269.788 202.044L270.159 202.102Z" stroke="#12110C" stroke-width="0.0133333"></path><path d="M271.766 226.457C271.766 226.457 272.51 226.082 273.005 226.21C273.5 226.333 280.725 226.15 280.725 226.15C280.725 226.15 283.874 226.395 284.371 225.957L285.107 225.713C285.107 225.713 285.417 225.344 285.417 224.853C285.417 224.354 285.479 222.686 285.479 222.686L285.668 222.073C285.668 222.073 285.604 221.455 285.668 204.959C285.668 204.959 285.91 203.669 285.107 202.861C285.107 202.861 285.107 202.371 285.353 202.43C285.604 202.496 285.479 202.496 285.479 202.496C285.479 202.496 286.59 202.181 286.772 202.614C286.772 202.614 287.271 204.091 286.836 204.959C286.836 204.959 286.712 206.753 287.646 206.753C287.646 206.753 288.011 207.127 288.753 206.938C288.753 206.938 290.358 207.127 290.358 207.616C290.358 207.616 290.358 208.732 289.246 208.546L287.761 208.666C287.761 208.666 286.772 208.856 286.899 210.026C287.025 211.2 286.836 219.601 286.836 219.601C286.836 219.601 286.836 220.593 288.384 220.531C288.384 220.531 290.297 220.467 290.297 221.02C290.297 221.02 290.789 222.255 289.433 222.32C289.433 222.32 286.836 222.255 287.025 222.995C287.025 222.995 286.836 224.729 286.712 225.033C286.712 225.033 286.965 226.457 286.65 226.706C286.65 226.706 286.468 227.505 284.802 227.383C284.802 227.383 274.18 227.323 272.51 227.445C272.51 227.445 271.519 227.323 271.766 226.457" fill="white"></path><path d="M269.853 225.282C269.853 225.282 270.901 225.465 270.901 226.455C270.901 227.441 270.963 227.998 270.342 228.121C269.726 228.245 269.049 228.063 268.867 227.26C268.676 226.455 268.985 225.465 269.853 225.282Z" fill="white"></path><path d="M271.091 224.789C271.091 224.789 272.201 224.043 272.634 224.172C272.634 224.172 278.253 224.539 279.987 224.236C281.715 223.925 280.665 224.172 280.665 224.172C280.665 224.172 282.148 224.172 282.577 223.612C282.577 223.612 283.012 223.494 283.258 223.925L284.181 224.917C284.181 224.917 284.251 225.529 283.196 225.467C283.196 225.467 273.125 225.467 272.821 225.529C272.821 225.529 270.906 225.834 271.091 224.789" fill="white"></path><path d="M271.091 224.787C271.091 224.787 272.201 224.041 272.634 224.168C272.634 224.168 278.257 224.537 279.989 224.234C281.719 223.921 280.666 224.168 280.666 224.168C280.666 224.168 282.152 224.168 282.581 223.606C282.581 223.606 283.014 223.49 283.263 223.921L284.185 224.915C284.185 224.915 284.253 225.529 283.2 225.465C283.2 225.465 273.129 225.465 272.821 225.529C272.821 225.529 270.906 225.834 271.091 224.787V224.787Z" stroke="#12110C" stroke-width="0.016"></path><path d="M256.45 202.859C256.45 202.859 256.883 202.859 256.821 203.601L256.695 222.253C256.695 222.253 256.883 223.492 255.833 224.292C255.833 224.292 255.273 224.97 255.273 223.923L255.526 204.898C255.526 204.898 255.584 203.476 256.45 202.859" fill="white"></path><path d="M256.454 202.863C256.454 202.863 256.888 202.863 256.829 203.604L256.699 222.261C256.699 222.261 256.888 223.5 255.835 224.3C255.835 224.3 255.273 224.977 255.273 223.931L255.526 204.903C255.526 204.903 255.586 203.48 256.454 202.863Z" stroke="#12110C" stroke-width="0.016"></path><path d="M255.463 202.989C255.463 202.989 254.721 204.35 254.783 204.661L254.721 208.794C254.721 208.794 254.659 211.45 254.721 211.761C254.783 212.068 254.659 219.852 254.659 219.852C254.659 219.852 254.597 221.331 254.659 221.828V225.162C254.659 225.162 254.535 226.647 255.646 226.27C255.646 226.27 266.519 226.026 267.2 226.214C267.2 226.214 268.184 226.397 267.819 226.892C267.819 226.892 267.819 227.327 267.134 227.2C267.134 227.2 262.008 227.691 257.377 227.509C257.377 227.509 254.289 227.691 254.1 227.327C254.1 227.327 253.609 227.264 253.609 225.471C253.609 225.471 253.609 223.807 253.488 223.498C253.488 223.498 253.609 222.622 252.066 222.443C252.066 222.443 249.904 222.816 249.842 221.519C249.842 221.519 250.149 220.593 252.252 220.714C252.252 220.714 253.795 220.962 253.488 219.723L253.671 210.588C253.671 210.588 253.861 208.975 252.807 208.91C252.807 208.91 251.823 208.86 251.508 208.975C251.508 208.975 249.718 208.975 249.842 207.932C249.842 207.932 250.46 206.818 252.252 207.066C252.252 207.066 253.609 207.311 253.671 205.771C253.671 205.771 253.609 202.618 254.348 202.498C254.348 202.498 255.896 202.554 255.463 202.989" fill="white"></path><path d="M257.315 223.429C257.315 223.429 258.181 224.351 259.604 224.297L267.997 224.417C267.997 224.417 268.93 224.483 268.871 224.972C268.871 224.972 268.739 225.712 267.632 225.465L257.501 225.343L256.387 225.411C256.387 225.411 255.645 225.283 256.823 223.863L257.315 223.429Z" fill="white"></path><path d="M257.314 223.424C257.314 223.424 258.18 224.348 259.605 224.291L268.001 224.414C268.001 224.414 268.93 224.478 268.875 224.969C268.875 224.969 268.744 225.711 267.638 225.466L257.5 225.344L256.386 225.408C256.386 225.408 255.646 225.282 256.823 223.859L257.314 223.424Z" stroke="#12110C" stroke-width="0.016"></path><path d="M283.258 222.621C283.258 222.621 283.999 224.044 284.37 224.238C284.37 224.238 285.05 225.034 284.866 223.615L284.988 205.824C284.988 205.824 284.801 205.205 284.988 204.221L284.248 202.861C284.248 202.861 283.442 202.244 283.442 203.231L283.32 222.196L283.258 222.621Z" fill="white"></path><path d="M283.258 222.62C283.258 222.62 284.002 224.041 284.374 224.238C284.374 224.238 285.054 225.036 284.87 223.613L284.992 205.818C284.992 205.818 284.805 205.202 284.992 204.218L284.25 202.857C284.25 202.857 283.442 202.242 283.442 203.228L283.32 222.195L283.258 222.62Z" stroke="#12110C" stroke-width="0.016"></path><path d="M269.546 214.161C269.546 214.161 269.608 215.638 269.419 217.056C269.319 217.84 269.67 221.448 269.357 223.298C269.357 223.298 269.301 223.917 267.998 223.364C267.998 223.364 260.094 223.546 259.847 223.298C259.847 223.298 257.687 223.364 257.5 222.25C257.5 222.25 257.809 213.788 257.624 213.474C257.624 213.474 257.5 208.843 257.624 208.412C257.624 208.412 257.809 204.15 257.687 203.657C257.687 203.657 257.749 202.668 257.562 202.172C257.562 202.172 257.562 201.554 258.615 201.923C258.615 201.923 258.98 202.605 261.02 202.302C261.02 202.302 262.505 202.547 263.927 202.36C263.927 202.36 267.074 202.114 267.88 202.36C267.88 202.36 269.117 202.114 269.481 203.477L269.419 207.303L269.788 208.538L270.223 208.231L270.406 207.303L270.468 203.226C270.468 203.226 270.714 202.482 271.706 202.36C271.706 202.36 273.25 202.172 273.501 202.302C273.747 202.42 277.077 202.605 278.009 202.42C278.933 202.236 279.115 203.037 281.9 201.62C281.9 201.62 282.642 201.683 282.642 202.172C282.642 202.172 282.389 207.43 282.642 208.412C282.642 208.412 282.642 218.046 282.449 218.726L282.575 221.814C282.575 221.814 282.698 223.174 280.541 223.298C280.541 223.298 281.9 223.484 273.371 223.238C273.371 223.238 272.013 223.174 270.532 223.852C270.532 223.852 270.223 223.791 270.223 222.989C270.223 222.989 270.468 220.089 270.223 217.242L270.103 214.093L269.546 214.161Z" fill="white"></path><path d="M263.984 209.78C263.984 209.78 264.17 214.349 263.984 214.966L263.926 215.957C263.926 215.957 264.17 216.632 264.541 216.883C264.541 216.883 264.852 217.744 264.108 217.685C264.108 217.685 262.567 217.56 262.196 217.619C262.196 217.619 261.328 217.619 262.196 216.514C262.196 216.514 262.505 216.074 262.441 214.966C262.441 214.966 262.441 209.78 262.567 209.474C262.567 209.474 262.689 208.79 262.256 208.604L261.512 208.668L260.59 209.532C260.59 209.532 260.401 210.462 259.969 209.474V208.975L260.528 207.493L260.899 207.429C260.899 207.429 261.452 207.8 261.945 207.928H264.852L265.9 207.429C265.9 207.429 266.331 207.493 266.213 208.048C266.213 208.048 266.393 209.474 265.592 209.654C265.592 209.654 265.097 209.474 264.852 208.79C264.852 208.79 264.048 208.361 263.984 209.78" fill="#12110C"></path><path d="M277.63 208.117C277.63 208.117 275.287 207.93 275.229 210.462C275.229 210.462 274.974 212.196 277.572 213.309C277.572 213.309 279.489 214.231 279.36 215.403C279.36 215.403 279.114 217.504 277.075 216.455C277.075 216.455 276.089 215.958 276.155 215.403C276.155 215.403 275.84 214.722 275.471 214.848C275.471 214.848 275.036 214.969 275.229 217.009C275.229 217.009 275.229 217.813 276.155 217.009L276.642 217.135C276.642 217.135 278.312 218.494 279.729 216.823C279.729 216.823 281.277 215.403 280.162 213.675C280.162 213.675 279.36 212.445 277.941 211.825C277.941 211.825 276.582 211.202 276.275 210.153C276.275 210.153 276.708 208.297 278.372 209.285C278.372 209.285 278.991 210.027 279.36 210.153C279.36 210.153 279.856 210.153 279.729 209.036L279.613 208.117C279.613 208.117 279.489 207.429 278.621 208.117C278.621 208.117 277.817 208.421 277.63 208.117" fill="#12110C"></path><path d="M270.104 206.812C270.535 207.127 270.597 207.743 270.597 207.743C271.832 211.014 272.885 215.775 272.885 215.775C273.191 216.386 273.749 216.883 273.749 216.883C274.799 217.252 273.749 217.559 273.749 217.559C273.316 217.747 271.899 217.503 271.899 217.503C271.153 217.371 271.46 217.13 271.46 217.13C271.772 216.821 271.524 215.582 271.524 215.582C271.46 215.093 270.908 214.288 270.908 214.288C270.662 214.163 270.229 214.718 270.229 214.718C270.229 214.718 269.551 214.967 269.485 214.718C269.423 214.467 268.992 214.234 268.992 214.234C268.25 214.234 267.944 216.075 267.944 216.075C268.374 217.621 267.944 217.371 267.944 217.371C267.575 217.87 266.398 217.503 266.398 217.503C265.843 217.371 266.217 216.94 266.217 216.94C266.893 216.821 267.077 216.075 267.077 216.075C267.388 215.644 269.361 207.616 269.361 207.616C269.551 207.243 269.671 206.504 270.104 206.812ZM269.12 210.888C269.056 211.198 268.621 212.928 268.621 212.928L268.992 213.552C268.992 213.552 269.982 213.608 270.351 213.608C270.718 213.608 270.784 213.305 270.784 212.99C270.784 212.684 270.104 210.831 270.104 210.831L269.792 210.46L269.12 210.888Z" fill="#12110C"></path><path d="M253.368 191.86C253.368 191.86 252.686 194.027 249.66 191.798L239.283 191.549C239.283 191.549 237.925 191.986 237.738 190.563C237.738 190.563 237.987 187.724 237.858 187.476C237.858 187.476 237.925 186.67 236.563 186.67C236.563 186.67 234.467 186.922 234.406 185.068C234.406 185.068 234.033 183.086 236.936 183.154C236.936 183.154 237.858 183.585 237.925 182.41C237.925 182.41 237.8 174.382 237.858 173.761C237.858 173.761 238.111 173.027 236.69 172.9C236.69 172.9 234.649 173.329 234.406 171.97C234.406 171.97 234.28 169.936 235.637 169.809C235.637 169.809 237.305 169.936 237.616 169.508C237.616 169.508 237.987 169.747 237.925 168.263L237.987 165.734C237.987 165.734 238.173 165.054 239.217 165.116C239.217 165.116 241.138 165.239 241.386 165.054C241.386 165.054 241.817 164.501 241.936 164.25C241.936 164.25 242.93 164.192 243.114 164.433C243.114 164.433 244.593 165.427 250.22 165.054C250.22 165.054 251.08 165.054 251.267 165.303C251.267 165.303 252.315 166.104 252.933 165.239C252.933 165.239 253.859 165.054 256.641 165.116C256.641 165.116 259.662 165.918 261.765 164.192L262.443 164.319C262.443 164.319 263.307 165.734 263.93 165.303C263.93 165.303 265.78 165.116 266.091 165.489C266.091 165.489 266.71 166.415 266.396 168.827C266.396 168.827 266.029 169.875 267.819 169.875C267.819 169.875 269.855 169.508 269.611 171.415C269.611 171.415 270.168 173.578 266.771 173.271C266.771 173.271 266.336 173.89 266.396 174.322C266.396 174.322 266.336 181.36 266.275 182.168C266.275 182.168 266.215 183.272 267.697 183.216C267.697 183.216 269.673 183.086 269.733 184.884C269.733 184.884 269.98 187.229 267.141 186.794C267.141 186.794 266.275 186.922 266.149 187.476L266.029 190.563C266.029 190.563 266.091 192.108 264.357 191.74C264.11 191.74 254.727 191.922 253.921 191.68C253.921 191.68 253.49 191.617 253.368 191.86Z" fill="#12110C"></path><path d="M253.369 191.86C253.369 191.86 252.688 194.027 249.661 191.797L239.283 191.549C239.283 191.549 237.924 191.986 237.738 190.561C237.738 190.561 237.988 187.722 237.86 187.474C237.86 187.474 237.924 186.67 236.563 186.67C236.563 186.67 234.466 186.922 234.406 185.068C234.406 185.068 234.035 183.084 236.938 183.152C236.938 183.152 237.86 183.583 237.924 182.41C237.924 182.41 237.799 174.378 237.86 173.758C237.86 173.758 238.112 173.022 236.689 172.898C236.689 172.898 234.648 173.328 234.406 171.966C234.406 171.966 234.28 169.931 235.639 169.807C235.639 169.807 237.305 169.931 237.617 169.503C237.617 169.503 237.988 169.745 237.924 168.261L237.988 165.73C237.988 165.73 238.173 165.05 239.219 165.114C239.219 165.114 241.138 165.235 241.386 165.05C241.386 165.05 241.819 164.499 241.937 164.248C241.937 164.248 242.929 164.188 243.116 164.431C243.116 164.431 244.593 165.423 250.222 165.05C250.222 165.05 251.082 165.05 251.269 165.299C251.269 165.299 252.317 166.101 252.934 165.235C252.934 165.235 253.863 165.05 256.643 165.114C256.643 165.114 259.666 165.912 261.767 164.188L262.446 164.314C262.446 164.314 263.31 165.73 263.932 165.299C263.932 165.299 265.782 165.114 266.097 165.483C266.097 165.483 266.712 166.412 266.399 168.821C266.399 168.821 266.03 169.873 267.821 169.873C267.821 169.873 269.861 169.503 269.613 171.411C269.613 171.411 270.17 173.576 266.774 173.267C266.774 173.267 266.337 173.887 266.399 174.32C266.399 174.32 266.337 181.358 266.279 182.164C266.279 182.164 266.217 183.272 267.698 183.216C267.698 183.216 269.675 183.084 269.737 184.884C269.737 184.884 269.981 187.227 267.143 186.792C267.143 186.792 266.279 186.922 266.153 187.474L266.03 190.561C266.03 190.561 266.097 192.109 264.361 191.739C264.114 191.739 254.729 191.92 253.922 191.678C253.922 191.678 253.492 191.617 253.369 191.86Z" stroke="#12110C" stroke-width="0.0133333"></path><path d="M241.696 166.414C241.696 166.414 241.821 167.647 241.821 167.955C241.821 168.264 241.632 185.806 241.632 185.806C241.632 185.806 241.821 187.169 240.644 187.845C240.644 187.845 240.337 187.971 240.273 187.107L240.4 168.577C240.4 168.577 240.522 166.29 241.696 166.414" fill="white"></path><path d="M241.699 166.408C241.699 166.408 241.823 167.641 241.823 167.95C241.823 168.259 241.634 185.803 241.634 185.803C241.634 185.803 241.823 187.166 240.644 187.845C240.644 187.845 240.337 187.97 240.273 187.106L240.396 168.573C240.396 168.573 240.52 166.286 241.699 166.408V166.408Z" stroke="#12110C" stroke-width="0.016"></path><path d="M239.657 188.03C239.657 188.03 239.778 170.612 239.72 170.301C239.657 169.996 239.778 170.551 239.778 170.551C239.778 170.551 239.597 167.528 240.399 166.29C240.399 166.29 240.15 165.239 238.729 166.534L238.673 169.068C238.673 169.068 238.673 170.489 237.372 170.427C237.372 170.427 235.889 170.363 235.207 171.047C235.207 171.047 234.838 172.403 236.256 172.159C236.256 172.159 238.483 172.159 238.605 173.079L238.483 182.409C238.483 182.409 238.978 183.952 237.246 183.952C237.246 183.952 235.147 183.834 235.207 185.131C235.207 185.131 235.64 186.243 237.434 185.871C237.434 185.871 238.729 186.119 238.673 187.348V189.701C238.673 189.701 238.543 190.629 239.778 190.686H249.416C249.416 190.686 249.909 190.748 249.909 190.128C249.909 190.128 249.847 189.641 249.109 189.641L241.083 189.513C241.083 189.513 239.778 189.946 239.657 188.03Z" fill="white"></path><path d="M241.326 188.157C241.326 188.157 241.082 189.025 242.004 188.834H248.366L250.096 189.203C250.096 189.203 251.892 188.772 250.096 187.782C250.096 187.782 244.413 187.848 243.918 187.723C243.918 187.723 242.747 187.415 242.499 187.352C242.499 187.352 241.88 187.108 241.326 188.157Z" fill="white"></path><path d="M241.318 188.153C241.318 188.153 241.074 189.025 241.996 188.83H248.361L250.093 189.203C250.093 189.203 251.889 188.772 250.093 187.78C250.093 187.78 244.407 187.846 243.912 187.718C243.912 187.718 242.74 187.411 242.491 187.351C242.491 187.351 241.872 187.105 241.318 188.153Z" stroke="#12110C" stroke-width="0.016"></path><path d="M251.89 189.026C251.89 189.026 250.714 189.026 250.776 190.562C250.776 190.562 250.9 191.742 252.133 191.742C252.133 191.742 253.246 191.55 253.125 190.321C253.125 190.321 252.443 188.774 251.89 189.026" fill="white"></path><path d="M252.747 188.4C252.747 188.4 253.301 187.783 253.675 187.783C253.675 187.783 259.85 188.341 260.9 187.6C260.9 187.6 261.83 187.416 262.073 187.6C262.073 187.6 262.999 188.341 262.999 188.771C262.999 188.771 262.939 189.333 261.83 189.024C261.83 189.024 254.844 189.082 254.477 189.082C254.477 189.082 252.561 189.513 252.747 188.4" fill="white"></path><path d="M252.747 188.398C252.747 188.398 253.302 187.779 253.675 187.779C253.675 187.779 259.852 188.338 260.902 187.598C260.902 187.598 261.834 187.412 262.076 187.598C262.076 187.598 263.003 188.338 263.003 188.771C263.003 188.771 262.943 189.333 261.834 189.022C261.834 189.022 254.848 189.082 254.477 189.082C254.477 189.082 252.561 189.513 252.747 188.398V188.398Z" stroke="#12110C" stroke-width="0.016"></path><path d="M253.734 190.257C253.734 190.257 253.734 189.766 254.594 189.766L263.248 189.702C263.248 189.702 264.048 190.129 264.048 188.651C264.048 188.651 264.365 181.916 264.393 174.503C264.405 172.298 264.501 169.983 264.417 167.837C264.417 167.837 264.233 166.914 263.986 166.723C263.986 166.723 263.986 165.735 265.04 166.109C265.04 166.109 265.96 166.168 265.716 167.587L265.776 169.75C265.776 169.75 265.592 170.676 267.259 170.43C267.259 170.43 268.925 170.676 268.985 171.294C268.985 171.294 269.485 172.532 267.51 172.406H266.091C266.091 172.406 265.471 172.775 265.656 173.519L265.471 182.473C265.471 182.473 265.343 184.017 266.83 183.96C266.83 183.96 268.374 183.896 268.679 184.39C268.679 184.39 269.733 185.935 267.446 185.811C267.446 185.811 266.024 185.747 265.716 185.993C265.716 185.993 265.471 186.308 265.285 189.207C265.285 189.207 265.407 190.937 264.11 190.75C264.11 190.75 255.524 190.87 254.725 190.688C254.725 190.688 253.857 190.937 253.734 190.257" fill="white"></path><path d="M242.618 165.853L242.438 185.683C242.438 185.683 242.376 186.603 243.919 186.789C243.919 186.789 245.713 186.976 246.142 186.789C246.142 186.789 247.313 186.729 250.342 186.854C250.342 186.854 251.084 187.591 251.144 186.669C251.144 186.669 251.639 170.606 251.392 167.273C251.392 167.273 251.332 165.853 250.278 165.791C250.278 165.791 245.587 166.16 245.154 165.791L243.304 165.296C243.304 165.296 242.558 165.354 242.618 165.853Z" fill="white"></path><path d="M262.193 166.596L262.133 186.116C262.133 186.116 262.628 187.851 263.434 187.666C263.434 187.666 263.556 187.293 263.617 186.672L263.867 168.077C263.867 168.077 263.247 165.112 262.193 166.596Z" fill="white" stroke="#12110C" stroke-width="0.016"></path><path d="M262.193 166.596L262.133 186.116C262.133 186.116 262.628 187.851 263.434 187.666C263.434 187.666 263.556 187.293 263.617 186.672L263.867 168.077C263.867 168.077 263.247 165.112 262.193 166.596Z" stroke="#12110C" stroke-width="0.016"></path><path d="M252.386 166.761C252.386 166.761 252.199 176.087 252.257 176.399L252.141 184.245L251.891 186.955C251.891 186.955 252.257 187.519 252.568 187.146C252.568 187.146 254.547 186.654 255.781 186.837C255.781 186.837 259.736 187.21 260.536 186.59C260.536 186.59 261.154 186.897 261.34 185.909C261.34 185.909 261.585 168.617 261.462 168.307C261.462 168.307 261.711 165.839 261.585 165.595C261.585 165.595 261.523 165.033 260.478 165.524C260.478 165.524 260.598 166.023 254.733 165.839C254.733 165.839 252.508 165.775 252.386 166.761" fill="white"></path><path d="M250.474 172.476L249.915 173.655C249.915 173.655 248.561 179.643 247.822 180.875C247.822 180.875 247.697 182.115 246.647 181.124C246.647 181.124 244.236 173.529 244.113 173.28L243.309 172.725C243.309 172.725 242.822 172.045 243.682 171.985L245.967 172.045C245.967 172.045 246.707 172.66 245.721 173.348C245.721 173.348 245.843 174.335 247.14 178.097C247.14 178.097 247.509 179.518 247.942 178.468L249.179 174.082L248.808 172.785C248.808 172.785 248.435 172.167 248.994 172.107C248.994 172.107 250.292 171.985 250.474 172.476" fill="#12110C"></path><path d="M254.06 173.461L253.994 180.008L253.813 180.501C253.813 180.501 253.194 181.301 253.625 181.365C253.625 181.365 253.074 181.738 257.576 181.798C257.576 181.798 259.31 182.105 258.875 179.882C258.875 179.882 258.691 179.08 258.069 180.255C258.069 180.255 257.885 181.239 255.666 180.932C255.666 180.932 255.171 180.501 255.171 180.008V177.288C255.171 177.288 255.105 176.606 256.157 176.677C256.157 176.677 257.329 177.414 257.516 177.102C257.516 177.102 257.947 176.117 257.516 175.498C257.516 175.498 256.959 175.44 256.899 175.686C256.899 175.686 256.528 176.424 255.477 175.991C255.477 175.991 254.984 175.005 255.293 174.201C255.293 174.201 255.171 172.656 256.221 172.781C256.221 172.781 257.456 173.026 257.576 173.401C257.576 173.401 257.885 174.145 258.198 173.279L257.885 172.224C257.885 172.224 257.705 171.791 257.393 171.915C257.393 171.915 255.293 172.224 255.042 171.974L253.374 172.162C253.374 172.162 253.13 172.781 253.874 173.086C253.874 173.086 254.06 173.213 254.06 173.461Z" fill="#12110C"></path></svg>