<svg xmlns="http://www.w3.org/2000/svg" width="829" height="400" viewBox="0 0 829 400" fill="none"><rect width="829" height="400" fill="white"></rect><path d="M318.394 180.38C314.117 184.909 313.513 185.865 315.123 185.312C315.677 185.161 317.891 184.708 320.055 184.305C327.2 182.947 328.307 182.242 328.307 179.323C328.307 177.411 326.647 176.002 324.433 176.002C322.772 176.002 322.168 176.405 318.394 180.38Z" fill="black"></path><path d="M212.064 189.135C208.34 189.789 205.271 191.349 203.661 193.462C202.554 194.871 202.302 195.777 202.302 197.941C202.302 202.47 204.868 205.237 215.385 211.98C220.015 214.949 221.474 217.013 220.77 219.428C220.418 220.686 219.814 221.24 218.002 221.994C215.838 222.85 215.335 222.9 212.718 222.296C210.353 221.793 209.347 221.24 207.485 219.327C205.17 217.013 203.51 213.289 203.51 210.37C203.51 209.666 203.208 209.213 202.755 209.213C202.101 209.213 202 210.37 202 216.509C202 223.705 202.403 225.416 203.51 222.548C204.063 221.038 204.063 221.038 207.535 222.347C215.738 225.517 226.758 223.806 229.777 218.875C230.582 217.566 230.884 216.308 230.884 214.497C230.784 209.867 229.073 207.854 220.116 202.067C216.945 200.004 213.675 197.589 212.92 196.633C209.85 193.009 212.467 189.739 218.052 190.292C222.833 190.745 226.054 193.764 227.312 199.098C227.614 200.507 228.167 201.665 228.519 201.665C229.023 201.665 229.173 200.256 229.173 196.18C229.173 193.16 229.324 190.342 229.475 189.889C229.677 189.386 229.526 189.084 229.023 189.084C228.62 189.084 228.117 189.638 227.966 190.342C227.563 191.852 227.161 191.902 224.745 190.644C222.833 189.688 217.801 188.531 215.889 188.631C215.285 188.682 213.574 188.883 212.064 189.135Z" fill="black"></path><path d="M250.708 189.134C244.67 189.989 239.185 193.814 236.669 198.896C235.612 201.11 235.461 202.117 235.461 206.948C235.461 212.231 235.562 212.634 237.021 215.251C240.644 221.641 248.897 224.963 258.458 223.755C265.15 222.899 270.635 219.276 273.303 213.791C274.561 211.326 274.712 210.42 274.712 206.193C274.712 202.117 274.51 201.01 273.403 198.645C272.699 197.135 271.34 195.122 270.384 194.166C268.069 191.801 263.339 189.738 259.112 189.084C255.137 188.53 254.734 188.53 250.708 189.134ZM258.659 191.398C260.722 192.908 262.232 196.078 263.238 201.01C263.892 204.23 263.943 205.79 263.54 209.766C262.735 217.163 260.269 221.742 256.546 222.748C250.406 224.409 245.777 216.056 246.381 204.281C247.035 192.656 252.57 186.819 258.659 191.398Z" fill="black"></path><path d="M502.119 189.083C494.118 190.241 488.281 194.468 486.017 200.708C485.061 203.375 484.91 209.665 485.765 212.583C486.973 216.911 491.904 221.591 496.534 222.849C502.874 224.61 509.466 224.258 514.599 221.943C517.719 220.585 519.027 220.685 519.027 222.295C519.027 222.849 519.38 223.302 519.782 223.302C520.436 223.302 520.537 222.195 520.537 216.509C520.537 210.269 520.638 209.665 521.543 209.111C522.097 208.759 522.55 208.306 522.55 208.105C522.55 207.853 518.474 207.702 513.492 207.702C504.937 207.702 502.019 208.206 506.447 208.91C507.655 209.111 508.611 209.614 508.963 210.168C509.215 210.722 509.466 213.389 509.466 216.156C509.466 221.943 508.963 222.799 505.642 222.799C502.522 222.799 499.905 220.987 498.194 217.616C496.886 215.049 496.685 214.043 496.483 209.111C496.182 202.519 496.836 199.148 499 195.927C501.968 191.398 508.108 189.385 512.335 191.499C514.951 192.858 516.763 195.021 517.87 198.141C519.38 202.368 520.034 201.412 520.034 195.122C520.034 189.587 519.581 188.278 518.574 191.096C517.92 193.008 517.417 192.958 514.448 191.096C513.039 190.14 510.926 189.335 509.164 189.083C505.894 188.53 505.843 188.53 502.119 189.083Z" fill="black"></path><path d="M277.984 190.042C277.984 190.294 278.688 190.646 279.494 190.847C280.349 191.049 281.255 191.602 281.506 192.106C281.808 192.659 282.01 198.547 282.01 206.447C282.01 214.348 281.808 220.235 281.506 220.789C281.255 221.292 280.349 221.845 279.494 222.047C275.669 222.902 278.688 223.305 288.551 223.305C298.616 223.305 301.736 222.852 297.056 222.047C293.231 221.392 292.376 219.329 292.678 211.228L292.829 206.95L294.54 207.051C296.804 207.152 298.666 208.561 299.874 211.127C300.427 212.284 301.031 213.24 301.232 213.24C301.484 213.24 301.635 210.171 301.635 206.447C301.635 201.214 301.484 199.654 300.981 199.654C300.628 199.654 300.025 200.459 299.723 201.415C298.817 203.78 296.452 205.692 294.288 205.692H292.577V199.704C292.577 196.383 292.778 193.112 293.08 192.407C293.533 191.2 293.835 191.099 296.351 191.099C300.83 191.099 303.446 193.011 305.107 197.44C306.516 201.163 307.17 200.861 307.17 196.483C307.17 194.42 307.321 192.005 307.472 191.149L307.824 189.589H292.879C284.123 189.589 277.984 189.791 277.984 190.042Z" fill="black"></path><path d="M310.191 190.042C310.191 190.294 310.895 190.646 311.7 190.847C312.556 191.049 313.462 191.602 313.713 192.106C314.015 192.659 314.216 198.547 314.216 206.447C314.216 214.348 314.015 220.235 313.713 220.789C313.462 221.292 312.556 221.845 311.7 222.047C308.027 222.852 310.795 223.305 319.5 223.305C328.558 223.305 330.42 222.952 327.3 221.845C326.394 221.543 325.589 220.789 325.287 220.034C324.633 218.273 324.633 194.571 325.287 192.86C325.589 192.106 326.444 191.25 327.3 190.948C328.155 190.646 328.81 190.193 328.81 189.992C328.81 189.791 324.633 189.589 319.5 189.589C314.166 189.589 310.191 189.791 310.191 190.042Z" fill="black"></path><path d="M339.877 203.981C335.046 215.153 333.134 218.927 331.725 220.436C330.668 221.543 329.812 222.651 329.812 222.902C329.812 223.103 332.429 223.305 335.599 223.305C338.77 223.305 341.386 223.103 341.386 222.902C341.386 222.651 340.531 222.198 339.424 221.896C338.367 221.543 337.159 220.94 336.807 220.487C335.901 219.38 336.002 216.26 337.109 213.492L337.965 211.228H343.097H348.28L349.941 214.851C352.105 219.782 352.155 220.839 350.092 221.745C349.186 222.147 348.431 222.651 348.431 222.902C348.431 223.103 352.507 223.305 357.489 223.305C362.471 223.305 366.547 223.154 366.547 222.952C366.547 222.751 365.943 221.996 365.239 221.242C364.534 220.537 360.861 213.14 357.036 204.887L350.092 189.841L348.129 189.69L346.117 189.539L339.877 203.981ZM346.167 206.246L347.878 210.221H343.148H338.367L339.675 207.303C340.38 205.743 341.437 203.327 341.99 201.968L343.047 199.553L343.751 200.912C344.154 201.616 345.261 204.032 346.167 206.246Z" fill="black"></path><path d="M373.594 189.992C373.594 190.244 374.097 190.898 374.751 191.502C375.405 192.106 379.33 199.503 383.457 207.957L390.955 223.305L392.917 223.204L394.93 223.053L400.566 209.315C405.85 196.433 408.164 191.804 409.674 191.25C410.026 191.099 410.328 190.697 410.328 190.294C410.328 189.74 409.171 189.589 404.541 189.589C401.371 189.589 398.754 189.791 398.754 189.992C398.754 190.193 399.56 190.697 400.516 191.049C401.472 191.401 402.528 192.156 402.83 192.709C403.937 194.773 403.082 199.603 400.566 205.944C399.207 209.265 397.949 212.184 397.748 212.385C397.245 212.989 388.036 193.263 388.388 192.357C388.539 191.904 389.344 191.3 390.2 191.049C393.32 189.942 391.508 189.589 382.652 189.589C377.67 189.589 373.594 189.791 373.594 189.992Z" fill="black"></path><path d="M411.336 190.042C411.336 190.294 411.94 190.646 412.695 190.847C415.412 191.502 415.362 191.2 415.362 206.447C415.362 221.694 415.412 221.392 412.695 222.047C409.021 223.003 412.544 223.305 426.684 223.305H442.032V217.518C442.032 212.989 441.881 211.731 441.378 211.731C440.975 211.731 440.422 212.687 440.069 213.844C438.509 219.178 435.239 221.795 430.005 221.795C427.791 221.795 426.986 221.594 426.734 220.99C426.583 220.537 426.432 217.115 426.432 213.391V206.598L428.345 206.95C430.559 207.353 432.773 209.265 433.578 211.58C434.131 213.14 435.289 213.643 435.188 212.335C435.138 211.982 435.088 209.013 435.088 205.692C434.987 199.452 434.534 198.345 433.276 201.314C432.37 203.579 429.754 205.692 427.892 205.692H426.432V199.201C426.432 195.628 426.583 192.357 426.734 191.904C427.137 190.797 432.018 190.847 434.333 191.955C436.245 192.86 438.057 195.326 439.013 198.245C440.069 201.767 440.774 200.559 440.875 194.873L440.975 189.589H426.181C417.827 189.589 411.336 189.791 411.336 190.042Z" fill="black"></path><path d="M446.058 190.036C446.058 190.288 446.762 190.64 447.568 190.842C448.423 191.043 449.329 191.596 449.58 192.1C449.882 192.653 450.084 198.541 450.084 206.441C450.084 214.342 449.882 220.229 449.58 220.783C449.329 221.286 448.423 221.839 447.568 222.041C443.894 222.846 446.662 223.299 455.367 223.299C460.5 223.299 464.677 223.097 464.677 222.896C464.677 222.645 463.922 222.141 463.066 221.739C461.054 220.883 460.802 219.877 460.701 213.084L460.651 208.202H462.362C464.828 208.202 465.733 209.662 467.193 215.65C468.602 221.688 469.659 223.047 473.483 223.752C476.653 224.356 480.83 223.701 482.792 222.292C484.856 220.833 484.705 220.33 482.339 220.632C480.075 220.934 479.773 220.581 478.767 216.254C477.509 210.718 476.502 209.762 470.665 208.253C468.602 207.699 467.545 207.246 468.25 207.246C470.464 207.146 474.942 205.636 476.653 204.378C478.767 202.768 479.773 200.705 479.773 198.088C479.773 193.76 476.653 191.143 470.212 190.137C466.136 189.483 446.058 189.382 446.058 190.036ZM466.74 191.898C468.551 193.559 469.256 198.893 468.199 202.768C467.444 205.334 465.583 206.693 462.815 206.693H460.55L460.701 199.446C460.953 191.143 461.255 190.338 464.073 190.791C465.029 190.942 466.237 191.445 466.74 191.898Z" fill="black"></path><path d="M532.41 204.434C527.227 216.36 525.566 219.631 524.207 220.789C523.302 221.594 522.547 222.5 522.547 222.801C522.547 223.103 524.711 223.305 528.334 223.305C531.504 223.305 534.121 223.103 534.121 222.902C534.121 222.651 533.265 222.198 532.158 221.896C529.743 221.141 528.988 220.285 528.988 218.172C528.988 216.36 529.843 212.888 530.498 211.831C530.8 211.379 532.309 211.228 536.083 211.328L541.216 211.479L543.028 215.606C543.984 217.92 544.688 220.134 544.487 220.537C544.336 220.99 543.531 221.594 542.675 221.845C539.555 222.952 541.367 223.305 550.224 223.305C555.205 223.305 559.281 223.154 559.281 222.952C559.281 222.751 558.728 221.996 558.023 221.292C557.319 220.587 553.645 213.19 549.821 204.887L542.877 189.841L540.864 189.69L538.901 189.539L532.41 204.434ZM538.448 205.038L540.612 209.97L536.285 210.121C533.919 210.221 531.856 210.121 531.705 209.97C531.554 209.869 532.41 207.453 533.618 204.686C534.775 201.868 535.882 199.754 536.033 199.905C536.184 200.006 537.241 202.371 538.448 205.038Z" fill="black"></path><path d="M560.284 190.038C560.284 190.29 560.989 190.642 561.794 190.844C562.65 191.045 563.555 191.598 563.807 192.102C564.109 192.655 564.31 198.543 564.31 206.443C564.31 214.344 564.109 220.231 563.807 220.785C563.555 221.288 562.65 221.841 561.794 222.043C558.121 222.848 560.888 223.301 569.594 223.301C574.727 223.301 578.903 223.099 578.903 222.898C578.903 222.647 578.148 222.143 577.293 221.741C575.28 220.835 574.978 219.879 574.928 213.337L574.878 208.204H576.589C579.054 208.204 580.01 209.714 581.319 215.602C582.224 219.577 582.728 220.885 583.835 221.892C585.747 223.653 586.955 224.005 586.955 222.798C586.955 222.244 587.559 221.489 588.364 221.087C589.823 220.332 592.49 216.055 592.49 214.444C592.49 212.784 590.528 210.167 588.666 209.412C587.659 209.01 585.596 208.406 584.036 208.104L581.218 207.5L584.288 206.896C590.578 205.638 594 202.568 594 198.19C594 193.762 590.93 191.145 584.439 190.139C580.363 189.485 560.284 189.384 560.284 190.038ZM580.816 191.749C582.124 192.806 582.929 195.473 582.929 198.643C582.929 203.977 581.017 206.695 577.293 206.695H575.381V199.147C575.381 192.554 575.481 191.598 576.287 191.095C577.293 190.491 579.708 190.844 580.816 191.749Z" fill="black"></path><path d="M599.34 204.434C594.156 216.411 592.546 219.581 591.187 220.789C590.231 221.594 589.477 222.5 589.477 222.801C589.477 223.103 591.64 223.305 595.264 223.305C600.799 223.305 602.61 222.801 599.692 222.047C596.874 221.392 596.018 220.436 596.018 218.122C596.018 216.914 596.371 214.851 596.823 213.542L597.629 211.177L602.912 211.328L608.196 211.479L609.957 215.606C610.964 217.87 611.618 220.084 611.417 220.537C611.266 220.99 610.461 221.594 609.605 221.845C606.485 222.952 608.297 223.305 617.153 223.305C622.135 223.305 626.211 223.154 626.211 222.952C626.211 222.751 625.658 222.047 624.953 221.292C624.299 220.587 620.575 213.24 616.751 204.937L609.806 189.841L607.794 189.69L605.831 189.539L599.34 204.434ZM605.428 205.088L607.542 209.97L603.214 210.121C600.849 210.221 598.786 210.121 598.635 209.97C598.484 209.869 599.34 207.453 600.547 204.686C601.705 201.868 602.812 199.754 602.963 199.905C603.114 200.056 604.221 202.371 605.428 205.088Z" fill="black"></path></svg>