<svg xmlns="http://www.w3.org/2000/svg" width="829" height="400" viewBox="0 0 829 400" fill="none"><rect width="829" height="400" fill="white"></rect><path d="M452.205 115.058C444.273 116.239 441.487 116.848 422.691 121.57C407.381 125.425 406.938 125.554 399.633 128.579C396.497 129.889 391.886 131.752 389.396 132.73C386.905 133.707 381.021 136.05 376.299 137.95C367.371 141.51 367.316 141.529 365.342 141.215C364.623 141.104 364.475 141.123 364.53 141.326C364.567 141.473 364.733 142.045 364.899 142.598C365.065 143.152 365.287 143.945 365.397 144.351C365.858 146.066 366.836 146.841 369.382 147.487C370.433 147.745 371.134 147.782 373.071 147.708C376.133 147.56 378.697 147.118 383.751 145.845C385.983 145.273 387.846 144.867 387.902 144.904C388.031 145.052 387.533 147.284 385.799 154.496C384.803 158.61 384.12 162.022 383.032 167.999C382.275 172.223 381.316 175.986 380.892 176.429C380.652 176.687 380.689 173.92 380.984 168.976L381.243 164.844L381.796 164.365C382.552 163.738 382.755 163.147 382.571 162.133C382.478 161.69 382.331 160.436 382.22 159.347C381.925 156.322 381.261 155.345 379.011 154.625C378.383 154.404 377.277 153.906 376.576 153.5C374.731 152.412 373.735 152.135 372.222 152.227C370.71 152.338 369.566 152.891 367.758 154.367C366.209 155.621 364.549 157.521 363.221 159.569C362.667 160.436 361.819 161.69 361.321 162.354C360.159 163.959 359.734 164.863 358.535 168.146C356.045 174.971 355.086 179.177 355.086 183.217C355.086 188.123 357.041 192.348 359.956 193.823C361.284 194.506 363.092 194.506 364.493 193.842C365.988 193.141 368.293 191.167 369.621 189.47C370.267 188.64 370.82 187.976 370.857 187.976C370.95 187.976 372.185 190.097 372.886 191.444C373.716 193.048 375.137 194.413 376.926 195.336C378.088 195.926 378.18 195.945 378.955 195.723C379.398 195.612 379.988 195.354 380.283 195.151C381.98 194.045 384.692 190.54 385.909 187.865C386.241 187.164 386.924 185.449 387.44 184.028C387.957 182.626 388.455 181.464 388.566 181.446C388.769 181.427 389.156 184.674 390.226 194.985C391.369 206.127 391.222 205.334 392.661 208.008C393.712 210 393.97 210.332 394.413 210.425C394.727 210.48 395.04 210.72 395.188 210.997C395.428 211.458 395.446 211.458 395.575 210.498C395.686 209.705 396.276 208.193 397.125 206.606C397.272 206.348 397.604 206.219 398.84 205.961C400.353 205.647 400.426 203.341 399.246 192.956C396.774 171.393 396.866 172.536 396.866 162.336C396.866 153.094 396.995 150.825 397.826 144.923C398.065 143.262 398.231 142.617 398.508 142.303C398.969 141.805 404.116 139.905 407.288 139.075C408.451 138.78 413.56 137.526 418.633 136.308C423.705 135.091 428.852 133.855 430.069 133.56C431.287 133.265 434.607 132.471 437.448 131.807C451.873 128.358 459.712 126.421 460.579 126.071C461.483 125.72 462.073 125.038 462.073 124.337C462.073 123.913 462.221 123.783 463.162 123.341C463.77 123.064 464.398 122.64 464.564 122.381C464.84 121.939 464.84 121.92 464.287 121.607C463.549 121.182 463.567 120.721 464.379 120.463C465.228 120.186 465.228 119.688 464.379 119.19C463.66 118.784 463.365 118.194 463.365 117.235C463.365 116.331 462.756 115.741 461.428 115.372C460.598 115.151 459.38 115.058 456.539 115.021C454.455 114.985 452.518 115.003 452.205 115.058ZM372.942 155.99C372.868 156.046 372.554 156.23 372.204 156.415C371.853 156.599 371.245 157.245 370.802 157.909C370.046 159.015 370.009 159.163 370.083 160.122C370.12 160.676 370.304 161.506 370.47 161.967C370.747 162.649 370.765 163.147 370.673 165.01C370.599 166.228 370.47 167.722 370.359 168.331C370.156 169.622 367.076 178.347 366.08 180.505C364.955 182.94 363.202 185.762 362.575 186.15C361.727 186.666 361.21 186.611 361.062 185.984C361.007 185.707 360.878 185.19 360.786 184.84C360.712 184.489 360.546 182.774 360.417 181.059C359.956 174.16 360.804 169.013 363.221 164.088C365.305 159.809 367.758 156.931 369.972 156.138C370.654 155.898 373.145 155.769 372.942 155.99Z" fill="black"></path><path d="M507.842 119.904C507.695 120.162 507.51 120.9 507.436 121.527C507.363 122.247 507.178 122.892 506.938 123.206C506.662 123.593 506.348 125.032 505.629 129.422C505.112 132.558 504.651 135.362 504.596 135.675C504.43 136.782 503.932 141.357 503.304 147.665C502.124 159.416 501.386 164.728 500.98 164.728C500.759 164.728 499.744 162.662 497.07 156.778C495.797 153.992 494.266 150.691 493.657 149.418C492.089 146.19 489.101 140.969 488.4 140.213C487.754 139.549 485.818 138.166 485.522 138.166C485.412 138.166 485.172 138.516 484.987 138.94C484.582 139.863 484.342 140.102 482.958 140.84C482.11 141.283 481.889 141.504 481.759 142.021C481.667 142.371 481.354 143.017 481.04 143.441C480.69 143.939 480.523 144.345 480.597 144.53C480.671 144.732 480.523 145.046 480.247 145.396C479.693 146.042 479.638 146.909 480.099 147.85C480.357 148.385 480.376 148.606 480.21 149.067C480.044 149.492 480.062 149.713 480.247 150.119C480.542 150.709 480.523 150.82 478.494 157.626C473.791 173.49 472.905 176.128 472.131 176.404C471.743 176.57 471.393 175.796 471.005 173.933C470.747 172.604 470.71 171.682 470.802 167.403C470.968 159.969 471.54 154.693 472.518 151.742C472.942 150.488 472.795 148.256 472.278 147.721C471.928 147.389 471.798 147.37 470.673 147.536C469.806 147.684 469.271 147.887 468.866 148.219C468.128 148.827 467.703 148.993 465.951 149.344C465.103 149.51 464.162 149.565 463.516 149.492C462.557 149.381 462.373 149.418 461.579 149.934C461.1 150.248 460.307 150.672 459.827 150.893C459.071 151.244 458.923 151.41 458.739 152.037C458.591 152.609 458.056 153.31 456.488 154.933C453.832 157.7 452.116 159.655 450.715 161.5C448.095 164.986 447.357 166.573 444.793 174.08C444.203 175.833 443.668 177.271 443.613 177.271C443.355 177.271 443.244 176.534 442.893 172.752C442.691 170.594 442.414 168.177 442.266 167.384C441.971 165.761 441.75 161.242 441.694 155.413C441.602 147.315 440.293 144.068 437.064 144.068C435.939 144.068 433.172 144.732 432.435 145.194C431.457 145.802 430.037 148.293 428.21 152.609C427.417 154.49 426.476 156.409 426.31 156.501C426.237 156.556 425.978 155.929 425.739 155.081C425.148 152.941 423.912 150.451 422.695 148.993C420.961 146.909 419.799 146.411 417.807 146.946C415.519 147.555 415.335 147.702 413.011 150.838L411.886 152.351L410.834 151.779C409.893 151.262 409.58 151.189 407.809 151.115C405.632 151.023 405.466 151.078 404.95 152.056C404.71 152.517 404.71 152.775 404.876 153.679C405.097 154.786 405.097 155.044 404.23 166.019C403.935 169.782 402.718 180.333 402.201 183.395C401.906 185.185 401.906 185.203 402.312 185.757C402.681 186.273 402.699 186.421 402.515 187.158C402.386 187.656 402.367 188.099 402.478 188.302C402.57 188.468 402.589 188.874 402.552 189.188C402.478 189.686 402.552 189.852 403.05 190.202C403.382 190.442 403.788 190.94 403.972 191.309C404.562 192.452 404.636 192.471 406.924 192.157C408.768 191.918 408.99 191.844 409.469 191.327C409.856 190.921 410.244 190.737 410.871 190.645C411.886 190.479 412.273 190.165 412.273 189.483C412.273 189.206 412.587 188.487 412.974 187.878L413.656 186.771L413.693 183.635C413.804 175.962 414.154 167.753 414.413 166.314C415.151 162.33 416.368 157.718 416.682 157.718C417.05 157.718 417.641 161.98 417.991 167.034C418.784 178.858 418.784 178.138 417.973 179.651C417.53 180.481 417.53 180.997 417.973 181.532C418.249 181.883 418.286 182.067 418.139 182.694C417.696 184.594 418.434 186.476 420.426 188.56C422.086 190.331 422.308 190.368 424.374 189.114C425.554 188.413 425.905 188.081 426.292 187.361C426.827 186.347 427.565 185.517 428.524 184.89C429.575 184.189 429.649 183.783 429.225 180.647C428.561 175.574 428.561 174.431 429.225 171.184C430.276 166.111 431.77 160.965 433.32 157.147C434.279 154.822 434.408 155.099 434.408 159.489C434.408 164.894 434.74 178.304 434.962 181.754C435.275 186.458 435.976 189.52 437.397 192.25C438.319 194.057 439.481 195.164 440.403 195.164C441.916 195.164 442.746 194.426 444.923 191.198C446.103 189.446 447.689 186.568 447.689 186.181C447.689 186.107 447.855 185.83 448.04 185.591L448.39 185.148L448.612 186.513C449.054 189.39 450.106 191.549 451.729 193.006C453.131 194.26 454.459 194.555 455.769 193.891C456.544 193.485 459.108 190.903 460.011 189.612C460.915 188.284 461.782 186.421 463.11 183.045C464.734 178.839 465.25 177.64 465.398 177.64C465.453 177.64 465.711 178.249 465.933 178.968C466.763 181.532 468.035 183.525 469.493 184.502C471.3 185.72 472.167 185.019 475.174 180.001C476.76 177.308 476.797 177.216 479.269 167.993C479.38 167.606 479.527 167.347 479.62 167.44C479.693 167.513 479.804 171.369 479.859 175.98C479.97 184.318 479.97 184.373 480.431 185.757C481.077 187.638 481.095 187.675 481.722 187.38C482.202 187.158 482.257 187.195 482.737 187.749L483.217 188.339L483.401 187.656C483.512 187.177 483.715 186.882 484.084 186.716C484.36 186.587 484.582 186.402 484.582 186.31C484.582 186.218 484.914 185.959 485.319 185.757C485.707 185.554 486.131 185.203 486.26 184.963C486.371 184.742 487.035 184.004 487.736 183.322C488.437 182.639 489.119 181.864 489.249 181.569C489.415 181.182 489.451 179.319 489.415 173.914C489.378 169.413 489.433 166.646 489.544 166.443C489.691 166.167 489.876 166.443 490.577 167.956C492.772 172.715 495.077 176.939 497.512 180.629C498.933 182.768 499.339 183.672 499.339 184.705C499.339 185.461 499.763 186.365 500.538 187.214L501.22 187.952L501.81 187.324C502.29 186.826 502.603 186.679 503.36 186.568C504.282 186.458 504.319 186.421 504.319 185.867C504.337 184.963 504.983 183.746 506.071 182.621C506.717 181.938 507.123 181.329 507.233 180.85C507.436 180.001 507.99 172.807 508.193 168.141C508.285 166.314 508.525 162.404 508.728 159.471C509.115 154.029 509.484 148.495 509.871 142.021C510.093 138.387 509.927 133.702 509.484 130.861C509.263 129.422 508.23 121.121 508.156 120.181L508.1 119.443L507.842 119.904ZM466.209 159.139C466.136 159.434 465.269 162.109 464.291 165.097C462.354 170.944 461.284 173.767 458.923 179.227C456.341 185.24 455.787 186.125 454.754 186.125C454.164 186.125 453.795 185.443 453.5 183.783C452.744 179.614 453.426 174.56 455.64 167.956C456.728 164.691 457.632 163.123 459.44 161.389C460.952 159.932 461.524 159.6 463 159.397C463.627 159.323 464.272 159.12 464.438 158.954C464.623 158.751 465.047 158.641 465.527 158.641C466.302 158.641 466.32 158.659 466.209 159.139Z" fill="black"></path><path d="M361.637 123.413C359.221 123.579 357.063 123.874 348.264 125.257C345.073 125.755 340.055 126.548 337.122 127.01C331.478 127.895 330.408 127.969 328.932 127.637C328.065 127.434 327.992 127.434 327.327 127.95C326.737 128.393 326.424 128.485 324.966 128.577C322.679 128.743 316.758 130.274 316.297 130.809C315.836 131.381 315.909 132.193 316.536 133.521C317.846 136.288 319.027 137.376 322.052 138.557C323.601 139.165 324.081 139.442 324.136 139.719C324.21 140.125 324.081 144.164 323.73 151.727C323.601 154.476 323.417 156.56 323.288 156.892C323.085 157.353 323.103 157.667 323.38 158.737C323.62 159.641 323.767 161.356 323.915 164.547C324.468 176.998 324.985 182.717 326.165 189.173C326.903 193.286 327.899 195.684 329.375 196.976C330.242 197.75 330.463 197.824 332.566 198.027C333.23 198.101 334.06 198.285 334.411 198.47C335.518 199.023 335.979 199.06 337.233 198.673C338.69 198.211 339.004 198.027 340.018 197.068C340.48 196.644 341.347 195.869 341.955 195.371C342.785 194.67 343.228 194.135 343.689 193.194C344.279 191.977 344.298 191.903 344.279 189.634C344.261 187.476 343.818 182.219 343.191 176.63C343.044 175.301 342.49 171.668 341.955 168.55C341.402 165.193 341.088 162.813 341.18 162.703C341.273 162.629 342.712 162.242 344.39 161.873C348.522 160.95 351.916 159.807 355.015 158.294C359.129 156.265 360.217 155.029 361.102 151.34C361.545 149.403 361.563 149.422 360.309 149.145C359.977 149.089 359.165 148.647 358.501 148.204C356.362 146.747 354.904 146.581 350.57 147.392C348.43 147.798 342.878 148.794 340.904 149.145C340.148 149.274 339.281 149.348 338.949 149.292L338.358 149.2L337.657 145.714C336.883 141.859 336.901 141.563 337.916 141.029C338.321 140.826 340.35 140.586 345.017 140.198C357.856 139.129 362.375 138.354 369.495 136.03C373.516 134.72 374.66 133.982 377.113 131.105L378.017 130.035L377.427 129.481C376.892 129.002 376.837 128.873 376.947 128.227L377.058 127.508L375.343 126.087C373.221 124.316 372.244 123.855 370.215 123.615C367.78 123.339 364.072 123.246 361.637 123.413Z" fill="black"></path><path d="M471.133 192.954C469.86 193.102 469.786 193.157 468.919 194.577C468.052 196.034 463.164 198.838 458.626 200.498C455.675 201.568 454.956 201.624 453.129 200.867C451.709 200.277 451.562 200.259 448.831 200.222L446.009 200.185L445.198 199.429C444.275 198.58 443.574 198.396 441.877 198.525C439.793 198.709 438.465 199.613 431.179 205.774C423.8 212.027 423.081 212.507 420.72 212.913C418.672 213.245 416.274 213.816 415.739 214.093C415.462 214.241 414.964 214.739 414.632 215.2C414.3 215.661 413.729 216.399 413.36 216.842C412.843 217.469 412.659 217.875 412.566 218.668C412.474 219.277 412.511 219.83 412.622 220.051C413.028 220.789 412.843 221.859 412.032 223.611C411.589 224.552 410.574 226.692 409.8 228.37C405.409 237.741 403.602 240.766 400.669 243.681C398.437 245.913 397.109 246.651 395.227 246.761C393.567 246.872 392.552 246.392 391.667 245.083C390.45 243.293 390.154 241.043 390.579 236.856C390.966 232.871 391.556 231.045 393.235 228.444C394.6 226.36 395.19 225.972 398.861 224.792C403.27 223.353 403.583 222.966 402.642 220.033L402.237 218.778L402.845 218.207C403.307 217.782 403.436 217.543 403.362 217.192C403.325 216.952 403.362 216.694 403.436 216.639C403.528 216.583 403.731 216.288 403.897 215.975C404.155 215.458 404.155 215.403 403.841 215.052C403.362 214.517 402.495 214.112 400.097 213.337C397.533 212.507 396.611 212.433 395.983 213.023C395.67 213.318 394.84 213.614 393.253 214.001C390.579 214.647 390.819 214.573 381.595 217.58C373.516 220.217 373.424 220.236 370.86 219.277C368.074 218.244 366.082 217.967 361.452 217.967C357.025 217.948 356.453 218.004 348.171 219.332C338.395 220.9 333.746 221.49 330.149 221.675C327.825 221.785 327.604 221.767 327.604 221.472C327.604 220.697 329.209 218.299 330.998 216.417C336.31 210.828 344.759 206.918 354.904 205.387C357.966 204.925 363.777 204.925 366.211 205.387C367.982 205.719 368.019 205.737 368.683 206.586C370.288 208.615 371.469 209.131 374.069 208.91L375.656 208.781L376.449 207.914C378.533 205.682 378.478 203.763 376.265 201.347C374.789 199.742 374.383 199.558 372.575 199.687C371.21 199.797 370.804 199.742 368.923 199.244C365.99 198.451 363.131 198.119 359.534 198.119C353.318 198.137 346.4 199.152 341.162 200.83C336.273 202.398 333.322 203.745 330.149 205.848C329.043 206.567 327.714 207.36 327.198 207.637C325.925 208.264 321.406 212.802 319.414 215.458C316.794 218.926 315.854 221.545 316.038 224.866C316.241 228.536 317.827 230.787 320.779 231.58C321.332 231.728 322.789 232.115 324.007 232.447C325.944 232.964 326.497 233.037 328.434 233.037C330.924 233.037 331.994 232.853 337.343 231.525C339.391 231.008 342.674 230.344 344.629 230.031C346.566 229.699 350.034 229.127 352.303 228.721C354.572 228.315 356.472 228.02 356.509 228.057C356.693 228.241 355.679 228.795 350.145 231.58C348.024 232.65 346.031 233.628 345.755 233.738C345.164 233.941 342.434 235.491 337.288 238.479C333.008 240.969 332.437 241.467 333.838 241.467H334.521L334.078 241.818C333.82 242.002 333.377 242.316 333.082 242.482C332.584 242.777 332.547 242.777 332.455 242.408C332.4 242.187 332.289 242.021 332.215 242.021C331.902 242.021 326.977 245.452 324.191 247.591L321.24 249.86L321 251.428C320.723 253.328 320.797 254.453 321.258 254.97C321.461 255.191 322.162 255.726 322.845 256.15C323.509 256.593 324.339 257.276 324.689 257.681C325.021 258.069 325.999 258.973 326.866 259.655C327.733 260.356 329.043 261.5 329.78 262.201C330.924 263.289 331.256 263.51 332.178 263.713C333.58 264.045 335.517 264.045 337.343 263.695C341.697 262.865 356.343 257.22 362.928 253.826C371.376 249.473 376.099 245.747 379.437 240.822C381.466 237.815 381.872 236.542 381.817 233.166L381.78 230.676L383.145 230.104C383.901 229.772 384.787 229.477 385.119 229.403C385.838 229.274 385.856 229.403 385.34 231.783C384.768 234.347 384.528 237.741 384.768 240.102C385.506 247.444 389.398 252.055 395.485 252.812C398.345 253.162 401.868 251.428 404.819 248.218C405.797 247.149 410.261 240.692 412.068 237.741C412.29 237.354 412.585 237.059 412.696 237.095C412.825 237.114 412.917 236.911 412.917 236.579C412.917 235.343 413.304 236.044 413.765 238.092C414.891 243.09 417.916 247.979 420.72 249.307C422.066 249.952 423.487 249.989 424.649 249.436C426.014 248.772 429.463 245.857 430.33 244.621C432.525 241.467 433.374 236.524 432.654 230.953C432.027 225.936 431.105 223.427 428.799 220.273C426.401 216.989 426.493 217.34 427.637 216.196C428.153 215.68 429.721 214.315 431.086 213.189C432.451 212.046 434.241 210.515 435.089 209.777C435.938 209.039 436.639 208.504 436.639 208.578C436.657 208.652 436.676 211.086 436.694 213.983C436.731 219.682 436.878 220.9 438.022 224.644C439.35 229.035 441.693 233.185 443.962 235.214C445.234 236.339 447.171 237.557 448.389 237.981C450.75 238.811 452.89 238.59 455.509 237.28C458.313 235.878 461.615 231.543 462.777 227.817C463.81 224.405 464.16 218.539 463.478 215.55C462.685 212.009 461.725 209.408 460.471 207.471C459.678 206.235 459.678 206.217 460.102 206.051C460.323 205.958 461.338 205.534 462.352 205.11C464.584 204.188 467.278 202.86 469.196 201.716L470.616 200.867L470.469 203.505C470.395 204.962 470.303 212.322 470.266 219.885C470.211 238.276 469.86 260.227 469.602 263.971C469.473 265.65 469.399 267.698 469.417 268.546C469.436 269.395 469.362 270.243 469.251 270.446C468.993 270.963 468.532 273.951 468.532 275.279C468.532 276.515 468.864 277.326 469.676 277.99C469.971 278.249 470.487 278.968 470.801 279.558C471.225 280.352 471.557 280.739 471.981 280.923C472.664 281.219 473.051 281.92 473.217 283.192C473.383 284.299 473.918 285 474.619 285C475.339 285 475.726 284.244 475.726 282.897V281.883L476.722 281.68C477.681 281.477 477.737 281.44 477.995 280.702C478.253 279.927 478.567 279.669 479.673 279.337C480.337 279.153 480.411 278.987 480.78 277.253C481.038 276.054 481.057 275.334 480.891 271.811C480.633 266.296 480.448 244.751 480.651 243.496L480.799 242.482L482.459 242.187C489.136 240.932 498.71 235.491 505.129 229.293C510.589 223.999 512.489 220.014 512.471 213.798C512.471 210.718 511.806 208.135 510.368 205.571L509.851 204.63L510.239 204.132C510.497 203.8 510.589 203.505 510.497 203.136C510.405 202.693 510.589 202.435 512.157 200.867C513.116 199.89 513.909 198.986 513.909 198.857C513.909 198.746 513.042 199.097 511.972 199.668C510.257 200.591 510.036 200.664 510.036 200.332C510.036 200.129 509.999 199.963 509.962 199.963C509.925 199.963 509.335 200.296 508.652 200.701C507.269 201.495 507.25 201.495 506.07 200.425C502.547 197.215 498.931 195.131 494.301 193.618C490.132 192.271 485.816 192.585 481.075 194.596L479.323 195.352L478.917 194.835C478.696 194.559 478.308 194.079 478.05 193.766C477.792 193.452 477.275 193.102 476.87 192.991C476.095 192.751 473.051 192.733 471.133 192.954ZM494.209 199.945C496.773 200.609 498.784 201.808 501.145 204.095C503.045 205.94 503.875 207.157 503.58 207.692C503.414 208.043 503.432 208.08 503.819 208.08C504.834 208.08 505.812 213.134 505.258 215.403C505.129 215.901 504.483 217.321 503.801 218.594C502.713 220.642 502.381 221.103 500.739 222.744C499.706 223.777 498.415 225.142 497.843 225.788C496.256 227.614 492.549 229.994 487.993 232.078C486.978 232.539 485.927 232.982 485.65 233.056C485.17 233.166 485.133 233.13 485.133 232.632C485.133 231.894 486.296 228.629 487.181 226.839C487.587 226.046 487.882 225.327 487.827 225.272C487.771 225.216 487.384 225.308 486.978 225.474C486.019 225.843 486.019 225.64 486.996 224.183C487.937 222.744 488.952 221.859 489.505 222.007C489.837 222.08 489.948 222.007 490.022 221.638C490.077 221.379 490.151 220.974 490.206 220.734C490.317 220.162 492.051 218.428 492.825 218.096C493.36 217.875 493.416 217.801 493.25 217.487C493.084 217.174 493.139 217.026 493.656 216.62C493.988 216.362 494.928 215.458 495.74 214.647C496.57 213.816 497.548 212.95 497.953 212.728C498.986 212.101 502.473 209.15 502.362 208.965C502.307 208.891 502.048 208.818 501.772 208.818C501.071 208.818 497.326 211.437 495.648 213.097C495.353 213.392 494.984 213.614 494.781 213.614C494.135 213.614 492.825 214.61 489.837 217.34C488.823 218.262 488.878 218.262 487.937 217.561C487.9 217.543 488.177 217.137 488.528 216.657C489.265 215.716 489.247 215.182 488.509 215.864C488.251 216.104 486.259 218.17 484.082 220.476C481.887 222.8 480.042 224.681 479.969 224.681C479.729 224.681 479.563 221.158 479.489 214.997C479.397 206.53 479.747 204.151 481.241 202.601C482.403 201.384 484.414 200.425 486.904 199.89C488.823 199.484 492.512 199.521 494.209 199.945ZM452.004 208.707C453.701 209.537 455.251 211.216 456.228 213.282C457.649 216.251 457.833 217.34 457.464 220.439C457.188 222.597 456.819 223.999 456.155 225.308C454.882 227.799 453.406 229.256 451.598 229.772C450.676 230.049 450.529 230.049 449.994 229.791C448.758 229.201 446.802 226.12 445.862 223.298C444.884 220.346 444.607 215.2 445.29 212.802C445.474 212.119 445.733 210.865 445.843 210.035C445.954 209.223 446.083 208.43 446.138 208.283C446.194 208.098 446.71 208.061 448.573 208.098C450.713 208.172 451.008 208.209 452.004 208.707ZM422.583 222.265C423.708 222.412 424.169 222.855 425.22 224.773C426.77 227.596 427.213 229.403 427.213 232.853C427.213 234.716 427.12 235.675 426.844 236.745C426.235 239.161 424.759 241.449 423.228 242.408C422.601 242.795 422.564 242.795 422.324 242.463C421.587 241.486 420.683 238.276 420.295 235.196C419.908 232.152 419.594 224.073 419.834 223.187C420.092 222.228 420.498 221.859 421.107 222.007C421.365 222.062 422.029 222.191 422.583 222.265ZM483.805 228.924C483.381 229.643 482.994 230.141 482.957 230.031C482.846 229.717 483.27 228.703 483.898 227.762C484.838 226.36 484.765 227.374 483.805 228.924Z" fill="black"></path></svg>